M48
; DRILL file {KiCad 9.0.2} date 2026-04-23T16:02:16+0200
; FORMAT={-:-/ absolute / metric / decimal}
; #@! TF.CreationDate,2026-04-23T16:02:16+02:00
; #@! TF.GenerationSoftware,Kicad,Pcbnew,9.0.2
; #@! TF.FileFunction,Plated,1,4,PTH
FMAT,2
METRIC
; #@! TA.AperFunction,Plated,PTH,ViaDrill
T1C0.300
; #@! TA.AperFunction,Plated,PTH,ComponentDrill
T2C0.300
; #@! TA.AperFunction,Plated,PTH,ComponentDrill
T3C0.600
; #@! TA.AperFunction,Plated,PTH,ComponentDrill
T4C1.000
; #@! TA.AperFunction,Plated,PTH,ComponentDrill
T5C1.020
; #@! TA.AperFunction,Plated,PTH,ComponentDrill
T6C1.100
; #@! TA.AperFunction,Plated,PTH,ComponentDrill
T7C1.500
%
G90
G05
T1
X24.689Y-28.369
X25.197Y-30.401
X26.213Y-28.496
X26.289Y-36.322
X27.864Y-54.151
X28.499Y-31.417
X30.023Y-59.611
X30.023Y-63.04
X32.512Y-84.328
X33.274Y-85.09
X34.468Y-61.262
X34.468Y-65.072
X35.052Y-86.106
X35.814Y-86.868
X36.373Y-43.863
X37.084Y-87.376
X37.211Y-50.673
X37.381Y-69.088
X37.643Y-41.197
X38.227Y-66.548
X38.354Y-88.138
X39.548Y-61.262
X39.548Y-65.072
X39.624Y-99.06
X40.767Y-88.773
X40.945Y-52.627
X42.164Y-97.79
X43.231Y-47.673
X43.307Y-44.45
X43.434Y-89.662
X44.704Y-90.424
X44.883Y-31.037
X44.883Y-37.005
X45.466Y-127.508
X46.279Y-28.496
X47.803Y-28.496
X48.006Y-130.81
X48.768Y-53.086
X49.581Y-31.29
X49.581Y-37.133
X49.784Y-91.186
X51.054Y-92.202
X60.198Y-84.582
X60.579Y-52.324
X62.788Y-18.492
X62.992Y-26.416
X62.992Y-83.82
X64.77Y-22.606
X65.786Y-83.058
X65.913Y-45.085
X66.294Y-54.61
X66.675Y-42.164
X67.056Y-55.626
X67.056Y-82.296
X67.945Y-32.512
X67.945Y-41.402
X68.199Y-55.499
X68.199Y-92.583
X68.707Y-33.147
X68.717Y-41.865
X69.215Y-58.928
X69.596Y-93.472
X70.739Y-94.234
X71.12Y-63.5
X71.247Y-36.002
X71.501Y-55.499
X72.136Y-94.996
X73.406Y-95.758
X73.533Y-58.928
X74.549Y-55.499
X74.676Y-20.574
X74.676Y-96.52
X75.311Y-46.167
X76.073Y-39.558
X76.073Y-58.928
X76.454Y-37.653
X77.597Y-55.499
X79.121Y-58.928
X79.502Y-76.962
X79.806Y-18.492
X80.34Y-26.492
X81.026Y-37.592
X81.661Y-46.167
X81.915Y-41.656
X83.185Y-47.244
X83.82Y-78.486
X83.82Y-80.264
X84.963Y-43.688
X85.598Y-38.354
X87.63Y-43.18
X87.884Y-84.582
X87.884Y-97.79
X89.916Y-99.06
X90.043Y-14.986
X90.043Y-19.558
X90.17Y-83.82
X90.932Y-39.116
X91.694Y-19.304
X91.694Y-26.67
X93.98Y-20.32
X95.758Y-55.372
X97.282Y-19.558
X98.171Y-16.002
X99.142Y-23.704
X99.269Y-15.031
X99.568Y-37.084
X99.925Y-39.751
X99.949Y-43.18
X99.949Y-46.355
X100.33Y-78.486
X100.798Y-15.692
X102.87Y-60.198
X104.267Y-21.971
X105.029Y-62.23
X105.894Y-37.084
X105.894Y-39.751
X105.918Y-19.304
X105.918Y-63.373
X106.172Y-132.969
X106.172Y-139.192
X106.807Y-62.23
X107.442Y-43.18
X107.569Y-63.373
X107.696Y-21.082
X108.204Y-62.23
X109.093Y-63.373
X109.22Y-41.148
X109.728Y-19.05
X109.855Y-62.23
X111.252Y-23.622
X113.411Y-128.778
X114.25Y-18.492
X115.824Y-122.999
X115.951Y-37.084
X116.142Y-23.432
X116.84Y-133.35
X117.602Y-42.672
X117.602Y-122.174
X119.126Y-125.397
X120.324Y-46.12
X120.904Y-128.778
X121.412Y-87.63
X122.555Y-35.364
X122.809Y-59.944
X122.809Y-67.31
X123.19Y-132.969
X124.206Y-59.817
X124.587Y-24.003
X124.587Y-33.274
X124.587Y-37.084
X124.587Y-103.934
X125.984Y-122.174
X126.238Y-32.385
X126.746Y-122.999
X127.889Y-103.807
X128.434Y-40.941
X128.778Y-35.941
X129.032Y-46.863
X129.032Y-54.102
X129.032Y-55.626
X129.942Y-109.014
X131.064Y-86.106
X131.191Y-103.934
X131.953Y-53.086
X132.08Y-119.634
X132.334Y-109.522
X133.096Y-85.344
X133.119Y-60.96
X134.112Y-60.96
X134.62Y-103.934
X134.747Y-42.418
X135.128Y-46.228
X135.382Y-76.708
X136.398Y-35.687
X136.747Y-122.079
X137.16Y-50.8
X137.16Y-58.293
X137.16Y-65.786
X137.48Y-120.457
X137.541Y-108.839
X138.176Y-19.939
X138.43Y-66.675
X138.43Y-68.961
X138.594Y-45.894
X139.827Y-51.308
X139.954Y-105.156
X139.954Y-128.778
X140.081Y-35.433
X140.208Y-23.622
X142.113Y-37.084
X142.24Y-116.078
X143.129Y-59.69
X144.192Y-123.016
X144.192Y-131.746
X144.78Y-73.406
X145.669Y-70.866
X145.796Y-66.675
X145.796Y-68.961
X146.177Y-98.552
X146.685Y-24.638
X146.812Y-28.194
X146.812Y-86.868
X147.066Y-128.27
X147.574Y-26.416
X147.828Y-72.009
X149.008Y-42.465
X149.352Y-110.537
X149.606Y-84.582
X150.368Y-44.323
X151.074Y-125.476
X151.449Y-111.506
X151.638Y-21.082
X151.892Y-37.084
X152.019Y-33.02
X152.908Y-83.82
X153.162Y-14.732
X153.451Y-110.962
X153.454Y-102.362
X153.924Y-18.542
X154.503Y-125.476
X154.559Y-21.209
X155.956Y-99.822
X157.48Y-20.066
X157.607Y-31.242
X158.242Y-127.762
X159.131Y-37.592
X159.258Y-89.154
X159.512Y-113.792
X159.639Y-36.449
X159.766Y-43.688
X159.766Y-73.406
X160.236Y-49.911
X160.236Y-57.277
X160.274Y-68.961
X160.274Y-72.009
X160.401Y-66.167
X160.782Y-88.392
X161.192Y-122.936
X161.192Y-131.416
X161.29Y-36.322
X161.996Y-100.02
X162.814Y-54.102
X163.068Y-99.098
X164.211Y-18.796
X165.481Y-62.865
X165.608Y-52.07
X165.735Y-36.322
X165.862Y-120.142
X167.005Y-66.167
X167.132Y-72.009
X167.132Y-74.93
X167.574Y-42.387
X167.894Y-86.106
X168.91Y-37.592
X169.037Y-36.449
X169.188Y-64.008
X169.672Y-85.344
X170.015Y-56.134
X170.087Y-53.395
X170.722Y-54.03
X170.815Y-56.134
X170.942Y-43.942
X170.942Y-64.262
X171.45Y-36.83
X171.958Y-49.53
X172.339Y-45.212
X172.382Y-46.312
X172.72Y-36.449
X173.736Y-70.866
X173.736Y-95.25
X173.863Y-59.055
X176.149Y-16.637
X176.149Y-25.654
X176.53Y-76.708
X176.68Y-66.191
X177.419Y-37.846
X177.419Y-45.466
X177.546Y-42.164
X178.244Y-35.242
X178.308Y-33.782
X178.816Y-80.264
X180.34Y-133.35
X180.467Y-21.463
X180.467Y-25.146
X180.594Y-18.923
X180.594Y-53.848
X181.483Y-22.098
X181.651Y-40.386
X182.245Y-34.163
X182.372Y-14.351
X182.372Y-90.678
X182.88Y-81.534
X183.325Y-34.227
X183.388Y-45.974
X183.769Y-30.988
X183.896Y-111.173
X184.404Y-34.29
X184.912Y-51.054
X184.912Y-76.708
X185.42Y-72.644
X185.674Y-24.13
X185.928Y-60.452
X186.182Y-70.358
X186.69Y-16.51
X187.198Y-102.41
X190.119Y-112.57
X190.246Y-93.726
X190.5Y-54.102
X190.5Y-121.46
X190.754Y-111.935
X191.389Y-22.098
X192.532Y-46.228
X192.532Y-53.34
X193.167Y-102.41
X193.294Y-92.964
X193.802Y-46.101
X193.919Y-111.899
X193.968Y-112.697
X194.056Y-41.021
X194.437Y-42.926
X194.691Y-121.206
X195.707Y-28.067
X196.252Y-71.03
X196.596Y-18.415
X197.358Y-110.744
X197.866Y-41.148
X199.644Y-48.006
X199.644Y-53.594
X200.697Y-64.426
X200.812Y-137.312
X200.914Y-91.44
X200.914Y-140.716
X201.041Y-37.846
X201.168Y-52.07
X201.295Y-26.162
X201.295Y-107.442
X202.565Y-113.538
X202.819Y-116.126
X203.2Y-16.002
X207.01Y-53.594
X208.28Y-91.694
X210.058Y-47.752
X210.058Y-54.102
X210.566Y-45.868
X210.947Y-39.116
X211.262Y-42.646
X211.836Y-137.414
X213.233Y-71.12
X213.868Y-93.726
X214.17Y-121.159
X214.376Y-18.415
X214.63Y-40.894
X215.011Y-36.195
X215.646Y-39.624
X216.615Y-47.705
X216.662Y-53.594
X216.789Y-30.353
X217.932Y-52.07
X218.313Y-63.881
X218.44Y-21.59
X219.456Y-24.638
X222.679Y-118.285
X224.282Y-54.102
X226.06Y-82.55
X227.203Y-23.114
X228.515Y-45.889
X228.981Y-42.545
X229.108Y-39.751
X229.108Y-48.26
X229.616Y-19.812
X230.794Y-54.102
X230.794Y-70.901
X230.886Y-95.504
X231.648Y-27.94
X231.648Y-40.894
X232.664Y-40.005
X233.841Y-48.353
X233.841Y-53.848
X234.86Y-64.225
X234.95Y-51.562
X235.458Y-21.336
X237.142Y-23.716
X249.682Y-14.478
X251.968Y-34.163
X252.73Y-28.194
X253.238Y-19.558
X254.0Y-28.448
X254.0Y-84.582
X254.127Y-14.605
X254.254Y-17.526
X254.889Y-34.29
X255.079Y-27.749
X257.556Y-83.312
X260.223Y-17.653
X260.223Y-20.955
X261.874Y-40.767
X261.874Y-58.293
X262.128Y-34.925
X262.613Y-69.723
X262.866Y-66.421
X263.525Y-32.004
X265.43Y-34.798
X265.43Y-42.672
X269.367Y-67.818
X270.891Y-48.133
X270.891Y-65.024
X271.018Y-45.593
X271.78Y-55.245
X272.161Y-84.709
X272.288Y-64.008
X273.177Y-63.119
X273.558Y-85.344
X274.066Y-60.452
X275.082Y-41.148
X277.325Y-40.937
X277.876Y-89.154
X278.638Y-48.895
X279.05Y-31.973
X280.162Y-35.941
X280.924Y-66.548
X281.305Y-34.163
X282.321Y-42.672
X282.702Y-69.723
X284.48Y-42.672
X284.48Y-60.96
X300.736Y-119.126
X302.006Y-87.122
X303.276Y-82.296
X305.308Y-77.978
X309.626Y-74.422
X310.134Y-124.46
X310.896Y-71.882
X310.896Y-89.662
X311.15Y-136.398
X312.166Y-69.342
X312.166Y-84.582
X313.436Y-66.802
X313.436Y-79.248
X314.452Y-135.128
X314.706Y-101.346
X315.976Y-42.164
X315.976Y-98.806
X317.246Y-96.266
X317.246Y-133.604
X318.516Y-43.434
X318.516Y-91.186
X319.786Y-93.726
X324.104Y-44.45
X325.12Y-86.106
X325.374Y-43.18
X326.39Y-73.406
X327.66Y-70.866
X328.93Y-65.786
X330.2Y-68.326
X330.2Y-82.042
X330.454Y-103.886
X331.724Y-108.966
X334.01Y-83.566
X334.264Y-111.506
X336.55Y-88.646
X337.82Y-98.806
X338.328Y-22.098
X339.09Y-91.186
X340.36Y-101.346
X340.614Y-21.336
X341.63Y-103.886
X342.9Y-106.426
X344.17Y-24.892
X346.71Y-28.448
X346.71Y-107.696
X346.964Y-20.828
X347.218Y-67.564
X347.726Y-22.098
X348.488Y-76.452
X348.996Y-102.87
X349.25Y-20.066
X349.25Y-92.202
X349.504Y-54.61
X350.126Y-24.778
X350.266Y-102.87
X350.52Y-92.202
X351.536Y-21.336
X352.044Y-28.448
X352.171Y-80.391
X352.298Y-90.932
X352.298Y-91.948
X353.417Y-93.726
X354.076Y-120.142
X354.33Y-54.61
X354.33Y-63.754
X355.092Y-67.564
X356.108Y-21.844
X356.362Y-44.958
X356.362Y-85.344
X357.124Y-28.448
X357.124Y-73.914
X357.886Y-44.958
X357.886Y-85.344
X358.902Y-44.958
X359.156Y-83.82
X359.41Y-75.184
X359.664Y-82.804
X360.39Y-34.162
X360.39Y-35.162
X360.68Y-72.136
X360.68Y-73.152
X361.188Y-44.958
X361.188Y-90.932
X361.188Y-91.948
X361.39Y-34.162
X361.39Y-35.162
X361.623Y-75.692
X362.39Y-34.162
X362.39Y-35.162
X362.458Y-49.276
X362.692Y-37.192
X362.894Y-44.104
X363.103Y-99.788
X363.878Y-69.596
X363.982Y-29.046
X364.49Y-24.892
X365.192Y-37.192
X365.252Y-14.478
X365.434Y-44.104
X365.692Y-34.192
X365.692Y-35.192
X365.929Y-52.499
X366.192Y-37.192
X366.268Y-69.596
X366.692Y-34.192
X366.716Y-35.192
X367.538Y-132.334
X367.542Y-15.032
X367.792Y-54.356
X367.799Y-64.17
X367.974Y-44.104
X368.558Y-14.434
X369.244Y-46.644
X369.498Y-45.12
X369.824Y-71.882
X369.824Y-73.406
X370.078Y-54.356
X370.082Y-14.446
X370.085Y-64.17
X370.844Y-15.032
X372.11Y-81.534
X372.364Y-60.034
X373.38Y-26.162
X373.75Y-88.778
X374.599Y-128.551
X374.656Y-96.134
X374.904Y-54.356
X374.911Y-63.916
X375.92Y-43.434
X376.429Y-16.257
X377.19Y-54.356
X377.197Y-63.916
X377.376Y-47.148
X378.206Y-67.564
X378.681Y-110.538
X378.681Y-112.062
X378.681Y-113.587
X378.968Y-56.134
X378.968Y-57.404
X378.968Y-119.864
X379.095Y-121.515
X379.218Y-39.89
X379.476Y-67.564
X380.492Y-66.548
X381.0Y-85.598
X381.0Y-92.456
X381.0Y-130.786
X381.186Y-47.148
X381.186Y-49.434
X381.412Y-45.37
X382.099Y-59.353
X382.727Y-132.234
X383.286Y-67.056
X383.534Y-17.018
X384.042Y-19.05
X384.49Y-88.712
X384.556Y-121.896
X385.064Y-67.056
X387.0Y-47.148
X387.096Y-106.68
X387.096Y-112.776
X388.194Y-125.832
X388.366Y-16.256
X388.366Y-106.68
X388.576Y-68.028
X389.128Y-112.776
X389.632Y-39.89
X389.89Y-27.178
X390.398Y-13.794
X391.922Y-88.138
X391.922Y-89.154
X392.387Y-95.765
X393.145Y-77.219
X393.7Y-26.924
X394.208Y-32.766
X394.716Y-22.098
X395.224Y-45.466
X395.986Y-129.987
X396.494Y-34.036
X398.12Y-97.282
X399.542Y-120.589
X399.918Y-61.082
X400.638Y-61.808
X401.32Y-119.634
X401.32Y-120.65
X402.844Y-116.332
X402.844Y-117.348
X402.844Y-118.303
X403.352Y-105.156
X405.13Y-105.156
X405.384Y-119.634
X405.384Y-120.65
X406.146Y-123.891
X406.67Y-53.692
X406.67Y-54.692
X406.67Y-55.692
X406.67Y-56.692
X406.67Y-57.692
X406.67Y-58.692
X406.67Y-59.692
X406.67Y-60.692
X406.67Y-61.692
X406.67Y-62.692
X406.67Y-63.692
X406.842Y-83.378
X406.908Y-120.396
X407.67Y-53.692
X407.67Y-54.692
X407.67Y-55.692
X407.67Y-56.692
X407.67Y-57.692
X407.67Y-58.692
X407.67Y-59.692
X407.67Y-60.692
X407.67Y-61.692
X407.67Y-62.692
X407.67Y-63.692
X408.446Y-86.346
T2
X88.354Y-32.646
X89.154Y-31.846
X89.154Y-32.646
X89.154Y-33.446
X89.954Y-32.646
X153.061Y-61.63
X153.861Y-60.83
X153.861Y-61.63
X153.861Y-62.43
X154.661Y-61.63
X248.557Y-21.858
X249.357Y-21.058
X249.357Y-21.858
X249.357Y-22.658
X250.157Y-21.858
T4
X114.427Y-107.569
X114.427Y-110.109
X114.427Y-112.649
X114.427Y-115.189
X114.427Y-117.729
X114.427Y-120.269
X331.978Y-19.558
X331.978Y-22.098
X331.978Y-24.638
X331.978Y-27.178
T5
X321.959Y-61.212
X321.959Y-63.752
X321.959Y-66.292
X321.959Y-68.832
X321.959Y-71.372
X321.959Y-73.912
X321.959Y-76.452
X321.959Y-78.992
X321.959Y-81.532
X321.959Y-84.072
X321.959Y-86.612
X321.959Y-89.152
X321.959Y-91.692
X321.959Y-94.232
X321.959Y-96.772
X321.959Y-99.312
X321.959Y-101.852
X321.959Y-104.392
X321.959Y-106.932
X321.959Y-109.472
X321.959Y-112.012
X321.959Y-114.552
X344.819Y-61.212
X344.819Y-63.752
X344.819Y-66.292
X344.819Y-68.832
X344.819Y-71.372
X344.819Y-73.912
X344.819Y-76.452
X344.819Y-78.992
X344.819Y-81.532
X344.819Y-84.072
X344.819Y-86.612
X344.819Y-89.152
X344.819Y-91.692
X344.819Y-94.232
X344.819Y-96.772
X344.819Y-99.312
X344.819Y-101.852
X344.819Y-104.392
X344.819Y-106.932
X344.819Y-109.472
X344.819Y-112.012
X344.819Y-114.552
T6
X31.156Y-15.494
X31.156Y-20.494
X31.496Y-136.088
X31.496Y-138.628
X34.036Y-136.088
X34.036Y-138.628
X34.656Y-15.494
X34.656Y-20.494
X36.576Y-136.088
X36.576Y-138.628
X38.156Y-15.494
X38.156Y-20.494
X39.116Y-136.088
X39.116Y-138.628
X41.656Y-15.494
X41.656Y-20.494
X41.656Y-136.088
X41.656Y-138.628
X44.196Y-136.088
X44.196Y-138.628
X46.736Y-136.088
X46.736Y-138.628
X49.276Y-136.088
X49.276Y-138.628
X65.278Y-135.99
X65.278Y-138.53
X67.818Y-135.99
X67.818Y-138.53
X70.358Y-135.99
X70.358Y-138.53
X72.898Y-135.99
X72.898Y-138.53
X75.438Y-135.99
X75.438Y-138.53
X77.978Y-135.99
X77.978Y-138.53
X80.518Y-135.99
X80.518Y-138.53
X83.058Y-135.99
X83.058Y-138.53
X124.374Y-15.494
X124.374Y-20.494
X127.874Y-15.494
X127.874Y-20.494
X128.834Y-133.906
X128.834Y-138.906
X131.374Y-15.494
X131.374Y-20.494
X132.334Y-133.906
X132.334Y-138.906
X134.874Y-15.494
X134.874Y-20.494
X150.223Y-118.222
X150.223Y-120.762
X151.158Y-133.906
X151.158Y-138.906
X152.763Y-118.222
X152.763Y-120.762
X154.658Y-133.906
X154.658Y-138.906
X155.303Y-118.222
X155.303Y-120.762
X162.22Y-15.494
X162.22Y-20.494
X165.72Y-15.494
X165.72Y-20.494
X167.64Y-133.906
X167.64Y-138.906
X169.22Y-15.494
X169.22Y-20.494
X171.14Y-133.906
X171.14Y-138.906
X172.72Y-15.494
X172.72Y-20.494
X174.64Y-133.906
X174.64Y-138.906
X186.422Y-36.462
X186.422Y-39.002
X186.422Y-41.542
X186.422Y-44.082
X186.422Y-46.622
X186.422Y-49.162
X188.722Y-133.938
X188.722Y-138.938
X188.962Y-36.462
X188.962Y-39.002
X188.962Y-41.542
X188.962Y-44.082
X188.962Y-46.622
X188.962Y-49.162
X192.222Y-133.938
X192.222Y-138.938
X203.422Y-36.462
X203.422Y-39.002
X203.422Y-41.542
X203.422Y-44.082
X203.422Y-46.622
X203.422Y-49.162
X205.962Y-36.462
X205.962Y-39.002
X205.962Y-41.542
X205.962Y-44.082
X205.962Y-46.622
X205.962Y-49.162
X220.422Y-36.462
X220.422Y-39.002
X220.422Y-41.542
X220.422Y-44.082
X220.422Y-46.622
X220.422Y-49.162
X222.962Y-36.462
X222.962Y-39.002
X222.962Y-41.542
X222.962Y-44.082
X222.962Y-46.622
X222.962Y-49.162
X237.422Y-36.462
X237.422Y-39.002
X237.422Y-41.542
X237.422Y-44.082
X237.422Y-46.622
X237.422Y-49.162
X239.962Y-36.462
X239.962Y-39.002
X239.962Y-41.542
X239.962Y-44.082
X239.962Y-46.622
X239.962Y-49.162
X265.034Y-15.494
X265.034Y-20.494
X268.534Y-15.494
X268.534Y-20.494
X272.034Y-15.494
X272.034Y-20.494
X275.534Y-15.494
X275.534Y-20.494
X302.514Y-128.016
X302.514Y-130.556
X304.038Y-32.766
X304.038Y-35.306
X305.054Y-128.016
X305.054Y-130.556
X306.578Y-32.766
X306.578Y-35.306
X307.594Y-128.016
X307.594Y-130.556
X309.118Y-32.766
X309.118Y-35.306
X310.134Y-128.016
X310.134Y-130.556
X311.658Y-32.766
X311.658Y-35.306
X312.674Y-128.016
X312.674Y-130.556
X314.198Y-32.766
X314.198Y-35.306
X315.214Y-128.016
X315.214Y-130.556
X316.738Y-32.766
X316.738Y-35.306
X317.754Y-128.016
X317.754Y-130.556
X319.278Y-32.766
X319.278Y-35.306
X321.818Y-32.766
X321.818Y-35.306
X333.756Y-32.766
X333.756Y-35.306
X336.296Y-32.766
X336.296Y-35.306
X338.836Y-32.766
X338.836Y-35.306
X341.376Y-32.766
X341.376Y-35.306
X343.916Y-32.766
X343.916Y-35.306
X346.456Y-32.766
X346.456Y-35.306
X348.996Y-32.766
X348.996Y-35.306
X351.536Y-32.766
X351.536Y-35.306
T7
X209.503Y-133.272
X214.503Y-133.272
X219.503Y-133.272
T3
G00X343.406Y-14.192
M15
G01X343.406Y-13.392
M16
G05
G00X343.406Y-18.522
M15
G01X343.406Y-17.422
M16
G05
G00X352.046Y-14.192
M15
G01X352.046Y-13.392
M16
G05
G00X352.046Y-18.522
M15
G01X352.046Y-17.422
M16
G05
G00X373.124Y-14.092
M15
G01X373.124Y-13.292
M16
G05
G00X373.124Y-18.422
M15
G01X373.124Y-17.322
M16
G05
G00X381.764Y-14.092
M15
G01X381.764Y-13.292
M16
G05
G00X381.764Y-18.422
M15
G01X381.764Y-17.322
M16
G05
M30
