M48
; DRILL file {KiCad 9.0.2} date 2026-04-23T15:55:16+0200
; FORMAT={-:-/ absolute / metric / decimal}
; #@! TF.CreationDate,2026-04-23T15:55:16+02:00
; #@! TF.GenerationSoftware,Kicad,Pcbnew,9.0.2
; #@! TF.FileFunction,Plated,1,4,PTH
FMAT,2
METRIC
; #@! TA.AperFunction,Plated,PTH,ViaDrill
T1C0.300
; #@! TA.AperFunction,Plated,PTH,ComponentDrill
T2C0.300
; #@! TA.AperFunction,Plated,PTH,ComponentDrill
T3C0.600
; #@! TA.AperFunction,Plated,PTH,ComponentDrill
T4C1.000
; #@! TA.AperFunction,Plated,PTH,ComponentDrill
T5C1.020
; #@! TA.AperFunction,Plated,PTH,ComponentDrill
T6C1.100
; #@! TA.AperFunction,Plated,PTH,ComponentDrill
T7C1.500
%
G90
G05
T1
X12.497Y-16.177
X13.005Y-18.209
X14.021Y-16.305
X14.097Y-24.13
X15.672Y-41.959
X16.308Y-19.226
X17.831Y-47.419
X17.831Y-50.848
X20.32Y-72.136
X21.082Y-72.898
X22.276Y-49.07
X22.276Y-52.88
X22.86Y-73.914
X23.622Y-74.676
X24.181Y-31.671
X24.892Y-75.184
X25.019Y-38.481
X25.189Y-56.896
X25.451Y-29.005
X26.035Y-54.356
X26.162Y-75.946
X27.357Y-49.07
X27.357Y-52.88
X27.432Y-86.868
X28.575Y-76.581
X28.753Y-40.434
X29.972Y-85.598
X31.04Y-35.481
X31.115Y-32.258
X31.242Y-77.47
X32.512Y-78.232
X32.691Y-18.845
X32.691Y-24.813
X33.274Y-115.316
X34.087Y-16.305
X35.611Y-16.305
X35.814Y-118.618
X36.576Y-40.894
X37.389Y-19.098
X37.389Y-24.941
X37.592Y-78.994
X38.862Y-80.01
X48.006Y-72.39
X48.387Y-40.132
X50.596Y-6.3
X50.8Y-14.224
X50.8Y-71.628
X52.578Y-10.414
X53.594Y-70.866
X53.721Y-32.893
X54.102Y-42.418
X54.483Y-29.972
X54.864Y-43.434
X54.864Y-70.104
X55.753Y-20.32
X55.753Y-29.21
X56.007Y-43.307
X56.007Y-80.391
X56.515Y-20.955
X56.525Y-29.673
X57.023Y-46.736
X57.404Y-81.28
X58.547Y-82.042
X58.928Y-51.308
X59.055Y-23.81
X59.309Y-43.307
X59.944Y-82.804
X61.214Y-83.566
X61.341Y-46.736
X62.357Y-43.307
X62.484Y-8.382
X62.484Y-84.328
X63.119Y-33.975
X63.881Y-27.366
X63.881Y-46.736
X64.262Y-25.461
X65.405Y-43.307
X66.929Y-46.736
X67.31Y-64.77
X67.614Y-6.3
X68.148Y-14.3
X68.834Y-25.4
X69.469Y-33.975
X69.723Y-29.464
X70.993Y-35.052
X71.628Y-66.294
X71.628Y-68.072
X72.771Y-31.496
X73.406Y-26.162
X75.438Y-30.988
X75.692Y-72.39
X75.692Y-85.598
X77.724Y-86.868
X77.851Y-2.794
X77.851Y-7.366
X77.978Y-71.628
X78.74Y-26.924
X79.502Y-7.112
X79.502Y-14.478
X81.788Y-8.128
X83.566Y-43.18
X85.09Y-7.366
X85.979Y-3.81
X86.95Y-11.512
X87.077Y-2.839
X87.376Y-24.892
X87.733Y-27.559
X87.757Y-30.988
X87.757Y-34.163
X88.138Y-66.294
X88.606Y-3.5
X90.678Y-48.006
X92.075Y-9.779
X92.837Y-50.038
X93.703Y-24.892
X93.703Y-27.559
X93.726Y-7.112
X93.726Y-51.181
X93.98Y-120.777
X93.98Y-127.0
X94.615Y-50.038
X95.25Y-30.988
X95.377Y-51.181
X95.504Y-8.89
X96.012Y-50.038
X96.901Y-51.181
X97.028Y-28.956
X97.536Y-6.858
X97.663Y-50.038
X99.06Y-11.43
X101.219Y-116.586
X102.058Y-6.3
X103.632Y-110.807
X103.759Y-24.892
X103.95Y-11.24
X104.648Y-121.158
X105.41Y-30.48
X105.41Y-109.982
X106.934Y-113.206
X108.132Y-33.928
X108.712Y-116.586
X109.22Y-75.438
X110.363Y-23.172
X110.617Y-47.752
X110.617Y-55.118
X110.998Y-120.777
X112.014Y-47.625
X112.395Y-11.811
X112.395Y-21.082
X112.395Y-24.892
X112.395Y-91.742
X113.792Y-109.982
X114.046Y-20.193
X114.554Y-110.807
X115.697Y-91.615
X116.242Y-28.749
X116.586Y-23.749
X116.84Y-34.671
X116.84Y-41.91
X116.84Y-43.434
X117.75Y-96.822
X118.872Y-73.914
X118.999Y-91.742
X119.761Y-40.894
X119.888Y-107.442
X120.142Y-97.331
X120.904Y-73.152
X120.927Y-48.768
X121.92Y-48.768
X122.428Y-91.742
X122.555Y-30.226
X122.936Y-34.036
X123.19Y-64.516
X124.206Y-23.495
X124.555Y-109.887
X124.968Y-38.608
X124.968Y-46.101
X124.968Y-53.594
X125.288Y-108.265
X125.349Y-96.647
X125.984Y-7.747
X126.238Y-54.483
X126.238Y-56.769
X126.402Y-33.702
X127.635Y-39.116
X127.762Y-92.964
X127.762Y-116.586
X127.889Y-23.241
X128.016Y-11.43
X129.921Y-24.892
X130.048Y-103.886
X130.937Y-47.498
X132.0Y-110.824
X132.0Y-119.554
X132.588Y-61.214
X133.477Y-58.674
X133.604Y-54.483
X133.604Y-56.769
X133.985Y-86.36
X134.493Y-12.446
X134.62Y-16.002
X134.62Y-74.676
X134.874Y-116.078
X135.382Y-14.224
X135.636Y-59.817
X136.816Y-30.273
X137.16Y-98.345
X137.414Y-72.39
X138.176Y-32.131
X138.882Y-113.284
X139.257Y-99.314
X139.446Y-8.89
X139.7Y-24.892
X139.827Y-20.828
X140.716Y-71.628
X140.97Y-2.54
X141.26Y-98.77
X141.262Y-90.17
X141.732Y-6.35
X142.311Y-113.284
X142.367Y-9.017
X143.764Y-87.63
X145.288Y-7.874
X145.415Y-19.05
X146.05Y-115.57
X146.939Y-25.4
X147.066Y-76.962
X147.32Y-101.6
X147.447Y-24.257
X147.574Y-31.496
X147.574Y-61.214
X148.044Y-37.719
X148.044Y-45.085
X148.082Y-56.769
X148.082Y-59.817
X148.209Y-53.975
X148.59Y-76.2
X149.0Y-110.744
X149.0Y-119.224
X149.098Y-24.13
X149.804Y-87.828
X150.622Y-41.91
X150.876Y-86.906
X152.019Y-6.604
X153.289Y-50.673
X153.416Y-39.878
X153.543Y-24.13
X153.67Y-107.95
X154.813Y-53.975
X154.94Y-59.817
X154.94Y-62.738
X155.382Y-30.195
X155.702Y-73.914
X156.718Y-25.4
X156.845Y-24.257
X156.995Y-51.816
X157.48Y-73.152
X157.823Y-43.942
X157.895Y-41.203
X158.53Y-41.838
X158.623Y-43.942
X158.75Y-31.75
X158.75Y-52.07
X159.258Y-24.638
X159.766Y-37.338
X160.147Y-33.02
X160.19Y-34.12
X160.528Y-24.257
X161.544Y-58.674
X161.544Y-83.058
X161.671Y-46.863
X163.957Y-4.445
X163.957Y-13.462
X164.338Y-64.516
X164.488Y-53.998
X165.227Y-25.654
X165.227Y-33.274
X165.354Y-29.972
X166.052Y-23.05
X166.116Y-21.59
X166.624Y-68.072
X168.148Y-121.158
X168.275Y-9.271
X168.275Y-12.954
X168.402Y-6.731
X168.402Y-41.656
X169.291Y-9.906
X169.459Y-28.194
X170.053Y-21.971
X170.18Y-2.159
X170.18Y-78.486
X170.688Y-69.342
X171.132Y-22.034
X171.196Y-33.782
X171.577Y-18.796
X171.704Y-98.981
X172.212Y-22.098
X172.72Y-38.862
X172.72Y-64.516
X173.228Y-60.452
X173.482Y-11.938
X173.736Y-48.26
X173.99Y-58.166
X174.498Y-4.318
X175.006Y-90.218
X177.927Y-100.379
X178.054Y-81.534
X178.308Y-41.91
X178.308Y-109.268
X178.562Y-99.743
X179.197Y-9.906
X180.34Y-34.036
X180.34Y-41.148
X180.975Y-90.218
X181.102Y-80.772
X181.61Y-33.909
X181.727Y-99.707
X181.776Y-100.505
X181.864Y-28.829
X182.245Y-30.734
X182.499Y-109.014
X183.515Y-15.875
X184.06Y-58.838
X184.404Y-6.223
X185.166Y-98.552
X185.674Y-28.956
X187.452Y-35.814
X187.452Y-41.402
X188.505Y-52.234
X188.62Y-125.12
X188.722Y-79.248
X188.722Y-128.524
X188.849Y-25.654
X188.976Y-39.878
X189.103Y-13.97
X189.103Y-95.25
X190.373Y-101.346
X190.627Y-103.934
X191.008Y-3.81
X194.818Y-41.402
X196.088Y-79.502
X197.866Y-35.56
X197.866Y-41.91
X198.374Y-33.676
X198.755Y-26.924
X199.07Y-30.454
X199.644Y-125.222
X201.041Y-58.928
X201.676Y-81.534
X201.978Y-108.967
X202.184Y-6.223
X202.438Y-28.702
X202.819Y-24.003
X203.454Y-27.432
X204.423Y-35.513
X204.47Y-41.402
X204.597Y-18.161
X205.74Y-39.878
X206.121Y-51.689
X206.248Y-9.398
X207.264Y-12.446
X210.487Y-106.093
X212.09Y-41.91
X213.868Y-70.358
X215.011Y-10.922
X216.323Y-33.697
X216.789Y-30.353
X216.916Y-27.559
X216.916Y-36.068
X217.424Y-7.62
X218.602Y-41.91
X218.602Y-58.709
X218.694Y-83.312
X219.456Y-15.748
X219.456Y-28.702
X220.472Y-27.813
X221.649Y-36.161
X221.649Y-41.656
X222.668Y-52.033
X222.758Y-39.37
X223.266Y-9.144
X224.95Y-11.524
X237.49Y-2.286
X239.776Y-21.971
X240.538Y-16.002
X241.046Y-7.366
X241.808Y-16.256
X241.808Y-72.39
X241.935Y-2.413
X242.062Y-5.334
X242.697Y-22.098
X242.887Y-15.557
X245.364Y-71.12
X248.031Y-5.461
X248.031Y-8.763
X249.682Y-28.575
X249.682Y-46.101
X249.936Y-22.733
X250.42Y-57.531
X250.674Y-54.229
X251.333Y-19.812
X253.238Y-22.606
X253.238Y-30.48
X257.175Y-55.626
X258.699Y-35.941
X258.699Y-52.832
X258.826Y-33.401
X259.588Y-43.053
X259.969Y-72.517
X260.096Y-51.816
X260.985Y-50.927
X261.366Y-73.152
X261.874Y-48.26
X262.89Y-28.956
X265.133Y-28.745
X265.684Y-76.962
X266.446Y-36.703
X266.858Y-19.781
X267.97Y-23.749
X268.732Y-54.356
X269.113Y-21.971
X270.129Y-30.48
X270.51Y-57.531
X272.288Y-30.48
X272.288Y-48.768
X288.544Y-106.934
X289.814Y-74.93
X291.084Y-70.104
X293.116Y-65.786
X297.434Y-62.23
X297.942Y-112.268
X298.704Y-59.69
X298.704Y-77.47
X298.958Y-124.206
X299.974Y-57.15
X299.974Y-72.39
X301.244Y-54.61
X301.244Y-67.056
X302.26Y-122.936
X302.514Y-89.154
X303.784Y-29.972
X303.784Y-86.614
X305.054Y-84.074
X305.054Y-121.412
X306.324Y-31.242
X306.324Y-78.994
X307.594Y-81.534
X311.912Y-32.258
X312.928Y-73.914
X313.182Y-30.988
X314.198Y-61.214
X315.468Y-58.674
X316.738Y-53.594
X318.008Y-56.134
X318.008Y-69.85
X318.262Y-91.694
X319.532Y-96.774
X321.818Y-71.374
X322.072Y-99.314
X324.358Y-76.454
X325.628Y-86.614
X326.136Y-9.906
X326.898Y-78.994
X328.168Y-89.154
X328.422Y-9.144
X329.438Y-91.694
X330.708Y-94.234
X331.978Y-12.7
X334.518Y-16.256
X334.518Y-95.504
X334.772Y-8.636
X335.026Y-55.372
X335.534Y-9.906
X336.296Y-64.26
X336.804Y-90.678
X337.058Y-7.874
X337.058Y-80.01
X337.312Y-42.418
X337.934Y-12.586
X338.074Y-90.678
X338.328Y-80.01
X339.344Y-9.144
X339.852Y-16.256
X339.979Y-68.199
X340.106Y-78.74
X340.106Y-79.756
X341.226Y-81.534
X341.884Y-107.95
X342.138Y-42.418
X342.138Y-51.562
X342.9Y-55.372
X343.916Y-9.652
X344.17Y-32.766
X344.17Y-73.152
X344.932Y-16.256
X344.932Y-61.722
X345.694Y-32.766
X345.694Y-73.152
X346.71Y-32.766
X346.964Y-71.628
X347.218Y-62.992
X347.472Y-70.612
X348.198Y-21.97
X348.198Y-22.97
X348.488Y-59.944
X348.488Y-60.96
X348.996Y-32.766
X348.996Y-78.74
X348.996Y-79.756
X349.198Y-21.97
X349.198Y-22.97
X349.431Y-63.5
X350.198Y-21.97
X350.198Y-22.97
X350.266Y-37.084
X350.5Y-25.0
X350.702Y-31.912
X350.911Y-87.596
X351.686Y-57.404
X351.79Y-16.854
X352.298Y-12.7
X353.0Y-25.0
X353.06Y-2.286
X353.242Y-31.912
X353.5Y-22.0
X353.5Y-23.0
X353.737Y-40.307
X354.0Y-25.0
X354.076Y-57.404
X354.5Y-22.0
X354.524Y-23.0
X355.346Y-120.142
X355.35Y-2.84
X355.6Y-42.164
X355.607Y-51.978
X355.782Y-31.912
X356.366Y-2.242
X357.052Y-34.452
X357.306Y-32.928
X357.632Y-59.69
X357.632Y-61.214
X357.886Y-42.164
X357.89Y-2.254
X357.893Y-51.978
X358.652Y-2.84
X359.918Y-69.342
X360.172Y-47.842
X361.188Y-13.97
X361.558Y-76.586
X362.407Y-116.359
X362.464Y-83.942
X362.712Y-42.164
X362.719Y-51.724
X363.728Y-31.242
X364.237Y-4.065
X364.998Y-42.164
X365.005Y-51.724
X365.184Y-34.956
X366.014Y-55.372
X366.489Y-98.346
X366.489Y-99.87
X366.489Y-101.394
X366.776Y-43.942
X366.776Y-45.212
X366.776Y-107.672
X366.903Y-109.323
X367.026Y-27.698
X367.284Y-55.372
X368.3Y-54.356
X368.808Y-73.406
X368.808Y-80.264
X368.808Y-118.594
X368.994Y-34.956
X368.994Y-37.242
X369.22Y-33.178
X369.906Y-47.161
X370.535Y-120.042
X371.094Y-54.864
X371.342Y-4.826
X371.85Y-6.858
X372.298Y-76.52
X372.364Y-109.704
X372.872Y-54.864
X374.808Y-34.956
X374.904Y-94.488
X374.904Y-100.584
X376.002Y-113.64
X376.174Y-4.064
X376.174Y-94.488
X376.384Y-55.836
X376.936Y-100.584
X377.44Y-27.698
X377.698Y-14.986
X378.206Y-1.602
X379.73Y-75.946
X379.73Y-76.962
X380.195Y-83.573
X380.953Y-65.027
X381.508Y-14.732
X382.016Y-20.574
X382.524Y-9.906
X383.032Y-33.274
X383.794Y-117.795
X384.302Y-21.844
X385.928Y-85.09
X387.35Y-108.397
X387.726Y-48.89
X388.446Y-49.616
X389.128Y-107.442
X389.128Y-108.458
X390.652Y-104.14
X390.652Y-105.156
X390.652Y-106.111
X391.16Y-92.964
X392.938Y-92.964
X393.192Y-107.442
X393.192Y-108.458
X393.954Y-111.699
X394.478Y-41.5
X394.478Y-42.5
X394.478Y-43.5
X394.478Y-44.5
X394.478Y-45.5
X394.478Y-46.5
X394.478Y-47.5
X394.478Y-48.5
X394.478Y-49.5
X394.478Y-50.5
X394.478Y-51.5
X394.65Y-71.186
X394.716Y-108.204
X395.478Y-41.5
X395.478Y-42.5
X395.478Y-43.5
X395.478Y-44.5
X395.478Y-45.5
X395.478Y-46.5
X395.478Y-47.5
X395.478Y-48.5
X395.478Y-49.5
X395.478Y-50.5
X395.478Y-51.5
X396.254Y-74.154
T2
X76.162Y-20.454
X76.962Y-19.654
X76.962Y-20.454
X76.962Y-21.254
X77.762Y-20.454
X140.869Y-49.438
X141.669Y-48.638
X141.669Y-49.438
X141.669Y-50.238
X142.469Y-49.438
X236.365Y-9.666
X237.165Y-8.866
X237.165Y-9.666
X237.165Y-10.466
X237.965Y-9.666
T4
X102.235Y-95.377
X102.235Y-97.917
X102.235Y-100.457
X102.235Y-102.997
X102.235Y-105.537
X102.235Y-108.077
X319.786Y-7.366
X319.786Y-9.906
X319.786Y-12.446
X319.786Y-14.986
T5
X309.767Y-49.02
X309.767Y-51.56
X309.767Y-54.1
X309.767Y-56.64
X309.767Y-59.18
X309.767Y-61.72
X309.767Y-64.26
X309.767Y-66.8
X309.767Y-69.34
X309.767Y-71.88
X309.767Y-74.42
X309.767Y-76.96
X309.767Y-79.5
X309.767Y-82.04
X309.767Y-84.58
X309.767Y-87.12
X309.767Y-89.66
X309.767Y-92.2
X309.767Y-94.74
X309.767Y-97.28
X309.767Y-99.82
X309.767Y-102.36
X332.627Y-49.02
X332.627Y-51.56
X332.627Y-54.1
X332.627Y-56.64
X332.627Y-59.18
X332.627Y-61.72
X332.627Y-64.26
X332.627Y-66.8
X332.627Y-69.34
X332.627Y-71.88
X332.627Y-74.42
X332.627Y-76.96
X332.627Y-79.5
X332.627Y-82.04
X332.627Y-84.58
X332.627Y-87.12
X332.627Y-89.66
X332.627Y-92.2
X332.627Y-94.74
X332.627Y-97.28
X332.627Y-99.82
X332.627Y-102.36
T6
X18.964Y-3.302
X18.964Y-8.302
X19.304Y-123.896
X19.304Y-126.436
X21.844Y-123.896
X21.844Y-126.436
X22.464Y-3.302
X22.464Y-8.302
X24.384Y-123.896
X24.384Y-126.436
X25.964Y-3.302
X25.964Y-8.302
X26.924Y-123.896
X26.924Y-126.436
X29.464Y-3.302
X29.464Y-8.302
X29.464Y-123.896
X29.464Y-126.436
X32.004Y-123.896
X32.004Y-126.436
X34.544Y-123.896
X34.544Y-126.436
X37.084Y-123.896
X37.084Y-126.436
X53.086Y-123.798
X53.086Y-126.338
X55.626Y-123.798
X55.626Y-126.338
X58.166Y-123.798
X58.166Y-126.338
X60.706Y-123.798
X60.706Y-126.338
X63.246Y-123.798
X63.246Y-126.338
X65.786Y-123.798
X65.786Y-126.338
X68.326Y-123.798
X68.326Y-126.338
X70.866Y-123.798
X70.866Y-126.338
X112.182Y-3.302
X112.182Y-8.302
X115.682Y-3.302
X115.682Y-8.302
X116.642Y-121.715
X116.642Y-126.715
X119.182Y-3.302
X119.182Y-8.302
X120.142Y-121.715
X120.142Y-126.715
X122.682Y-3.302
X122.682Y-8.302
X138.031Y-106.03
X138.031Y-108.57
X138.966Y-121.715
X138.966Y-126.715
X140.571Y-106.03
X140.571Y-108.57
X142.466Y-121.715
X142.466Y-126.715
X143.111Y-106.03
X143.111Y-108.57
X150.028Y-3.302
X150.028Y-8.302
X153.528Y-3.302
X153.528Y-8.302
X155.448Y-121.715
X155.448Y-126.715
X157.028Y-3.302
X157.028Y-8.302
X158.948Y-121.715
X158.948Y-126.715
X160.528Y-3.302
X160.528Y-8.302
X162.448Y-121.715
X162.448Y-126.715
X174.23Y-24.27
X174.23Y-26.81
X174.23Y-29.35
X174.23Y-31.89
X174.23Y-34.43
X174.23Y-36.97
X176.53Y-121.746
X176.53Y-126.746
X176.77Y-24.27
X176.77Y-26.81
X176.77Y-29.35
X176.77Y-31.89
X176.77Y-34.43
X176.77Y-36.97
X180.03Y-121.746
X180.03Y-126.746
X191.23Y-24.27
X191.23Y-26.81
X191.23Y-29.35
X191.23Y-31.89
X191.23Y-34.43
X191.23Y-36.97
X193.77Y-24.27
X193.77Y-26.81
X193.77Y-29.35
X193.77Y-31.89
X193.77Y-34.43
X193.77Y-36.97
X208.23Y-24.27
X208.23Y-26.81
X208.23Y-29.35
X208.23Y-31.89
X208.23Y-34.43
X208.23Y-36.97
X210.77Y-24.27
X210.77Y-26.81
X210.77Y-29.35
X210.77Y-31.89
X210.77Y-34.43
X210.77Y-36.97
X225.23Y-24.27
X225.23Y-26.81
X225.23Y-29.35
X225.23Y-31.89
X225.23Y-34.43
X225.23Y-36.97
X227.77Y-24.27
X227.77Y-26.81
X227.77Y-29.35
X227.77Y-31.89
X227.77Y-34.43
X227.77Y-36.97
X252.842Y-3.302
X252.842Y-8.302
X256.342Y-3.302
X256.342Y-8.302
X259.842Y-3.302
X259.842Y-8.302
X263.342Y-3.302
X263.342Y-8.302
X290.322Y-115.824
X290.322Y-118.364
X291.846Y-20.574
X291.846Y-23.114
X292.862Y-115.824
X292.862Y-118.364
X294.386Y-20.574
X294.386Y-23.114
X295.402Y-115.824
X295.402Y-118.364
X296.926Y-20.574
X296.926Y-23.114
X297.942Y-115.824
X297.942Y-118.364
X299.466Y-20.574
X299.466Y-23.114
X300.482Y-115.824
X300.482Y-118.364
X302.006Y-20.574
X302.006Y-23.114
X303.022Y-115.824
X303.022Y-118.364
X304.546Y-20.574
X304.546Y-23.114
X305.562Y-115.824
X305.562Y-118.364
X307.086Y-20.574
X307.086Y-23.114
X309.626Y-20.574
X309.626Y-23.114
X321.564Y-20.574
X321.564Y-23.114
X324.104Y-20.574
X324.104Y-23.114
X326.644Y-20.574
X326.644Y-23.114
X329.184Y-20.574
X329.184Y-23.114
X331.724Y-20.574
X331.724Y-23.114
X334.264Y-20.574
X334.264Y-23.114
X336.804Y-20.574
X336.804Y-23.114
X339.344Y-20.574
X339.344Y-23.114
T7
X197.311Y-121.079
X202.311Y-121.079
X207.311Y-121.079
T3
G00X331.214Y-2.0
M15
G01X331.214Y-1.2
M16
G05
G00X331.214Y-6.33
M15
G01X331.214Y-5.23
M16
G05
G00X339.854Y-2.0
M15
G01X339.854Y-1.2
M16
G05
G00X339.854Y-6.33
M15
G01X339.854Y-5.23
M16
G05
G00X360.932Y-1.9
M15
G01X360.932Y-1.1
M16
G05
G00X360.932Y-6.23
M15
G01X360.932Y-5.13
M16
G05
G00X369.572Y-1.9
M15
G01X369.572Y-1.1
M16
G05
G00X369.572Y-6.23
M15
G01X369.572Y-5.13
M16
G05
M30
