G04 #@! TF.GenerationSoftware,KiCad,Pcbnew,9.0.2*
G04 #@! TF.CreationDate,2026-04-23T15:55:16+02:00*
G04 #@! TF.ProjectId,hardware-pruefadapter,68617264-7761-4726-952d-707275656661,V1.1*
G04 #@! TF.SameCoordinates,Original*
G04 #@! TF.FileFunction,Paste,Top*
G04 #@! TF.FilePolarity,Positive*
%FSLAX46Y46*%
G04 Gerber Fmt 4.6, Leading zero omitted, Abs format (unit mm)*
G04 Created by KiCad (PCBNEW 9.0.2) date 2026-04-23 15:55:16*
%MOMM*%
%LPD*%
G01*
G04 APERTURE LIST*
G04 Aperture macros list*
%AMRoundRect*
0 Rectangle with rounded corners*
0 $1 Rounding radius*
0 $2 $3 $4 $5 $6 $7 $8 $9 X,Y pos of 4 corners*
0 Add a 4 corners polygon primitive as box body*
4,1,4,$2,$3,$4,$5,$6,$7,$8,$9,$2,$3,0*
0 Add four circle primitives for the rounded corners*
1,1,$1+$1,$2,$3*
1,1,$1+$1,$4,$5*
1,1,$1+$1,$6,$7*
1,1,$1+$1,$8,$9*
0 Add four rect primitives between the rounded corners*
20,1,$1+$1,$2,$3,$4,$5,0*
20,1,$1+$1,$4,$5,$6,$7,0*
20,1,$1+$1,$6,$7,$8,$9,0*
20,1,$1+$1,$8,$9,$2,$3,0*%
G04 Aperture macros list end*
%ADD10C,0.010000*%
%ADD11RoundRect,0.162500X-0.447500X-0.162500X0.447500X-0.162500X0.447500X0.162500X-0.447500X0.162500X0*%
%ADD12RoundRect,0.162500X0.447500X0.162500X-0.447500X0.162500X-0.447500X-0.162500X0.447500X-0.162500X0*%
%ADD13RoundRect,0.162500X-0.162500X0.447500X-0.162500X-0.447500X0.162500X-0.447500X0.162500X0.447500X0*%
%ADD14RoundRect,0.250000X0.262500X0.450000X-0.262500X0.450000X-0.262500X-0.450000X0.262500X-0.450000X0*%
%ADD15RoundRect,0.250000X-0.625000X0.312500X-0.625000X-0.312500X0.625000X-0.312500X0.625000X0.312500X0*%
%ADD16R,1.200000X1.000000*%
%ADD17RoundRect,0.250000X-0.450000X0.262500X-0.450000X-0.262500X0.450000X-0.262500X0.450000X0.262500X0*%
%ADD18RoundRect,0.150000X0.760000X-0.450000X0.760000X0.450000X-0.760000X0.450000X-0.760000X-0.450000X0*%
%ADD19RoundRect,0.250000X0.250000X0.475000X-0.250000X0.475000X-0.250000X-0.475000X0.250000X-0.475000X0*%
%ADD20RoundRect,0.075000X-0.540000X-0.225000X0.540000X-0.225000X0.540000X0.225000X-0.540000X0.225000X0*%
%ADD21RoundRect,0.250000X-0.362500X-1.425000X0.362500X-1.425000X0.362500X1.425000X-0.362500X1.425000X0*%
%ADD22RoundRect,0.250000X-0.262500X-0.450000X0.262500X-0.450000X0.262500X0.450000X-0.262500X0.450000X0*%
%ADD23RoundRect,0.200000X0.275000X-0.200000X0.275000X0.200000X-0.275000X0.200000X-0.275000X-0.200000X0*%
%ADD24R,1.200000X0.800000*%
%ADD25R,0.558800X1.320800*%
%ADD26RoundRect,0.250000X-0.312500X-0.625000X0.312500X-0.625000X0.312500X0.625000X-0.312500X0.625000X0*%
%ADD27RoundRect,0.250000X-0.250000X-0.475000X0.250000X-0.475000X0.250000X0.475000X-0.250000X0.475000X0*%
%ADD28RoundRect,0.250000X-0.475000X0.250000X-0.475000X-0.250000X0.475000X-0.250000X0.475000X0.250000X0*%
%ADD29RoundRect,0.250000X-0.650000X1.000000X-0.650000X-1.000000X0.650000X-1.000000X0.650000X1.000000X0*%
%ADD30RoundRect,0.250000X0.650000X-1.000000X0.650000X1.000000X-0.650000X1.000000X-0.650000X-1.000000X0*%
%ADD31R,1.200000X3.700000*%
%ADD32RoundRect,0.250000X0.450000X-0.262500X0.450000X0.262500X-0.450000X0.262500X-0.450000X-0.262500X0*%
%ADD33RoundRect,0.250000X0.475000X-0.250000X0.475000X0.250000X-0.475000X0.250000X-0.475000X-0.250000X0*%
%ADD34RoundRect,0.250000X0.650000X-0.325000X0.650000X0.325000X-0.650000X0.325000X-0.650000X-0.325000X0*%
%ADD35RoundRect,0.250000X1.000000X0.650000X-1.000000X0.650000X-1.000000X-0.650000X1.000000X-0.650000X0*%
%ADD36RoundRect,0.250000X0.312500X0.625000X-0.312500X0.625000X-0.312500X-0.625000X0.312500X-0.625000X0*%
%ADD37RoundRect,0.250000X-0.650000X0.325000X-0.650000X-0.325000X0.650000X-0.325000X0.650000X0.325000X0*%
%ADD38RoundRect,0.225000X0.250000X-0.225000X0.250000X0.225000X-0.250000X0.225000X-0.250000X-0.225000X0*%
%ADD39RoundRect,0.150000X-0.150000X0.587500X-0.150000X-0.587500X0.150000X-0.587500X0.150000X0.587500X0*%
%ADD40R,0.660000X0.310000*%
%ADD41RoundRect,0.062500X-0.237500X-0.062500X0.237500X-0.062500X0.237500X0.062500X-0.237500X0.062500X0*%
%ADD42RoundRect,0.062500X-0.062500X-0.237500X0.062500X-0.237500X0.062500X0.237500X-0.062500X0.237500X0*%
%ADD43R,0.508000X1.981200*%
%ADD44RoundRect,0.051250X-0.153750X0.733750X-0.153750X-0.733750X0.153750X-0.733750X0.153750X0.733750X0*%
%ADD45R,2.700000X1.000000*%
%ADD46R,0.320000X0.660000*%
%ADD47RoundRect,0.117500X0.352500X0.387500X-0.352500X0.387500X-0.352500X-0.387500X0.352500X-0.387500X0*%
%ADD48RoundRect,0.250000X-0.325000X-0.650000X0.325000X-0.650000X0.325000X0.650000X-0.325000X0.650000X0*%
%ADD49R,1.100000X0.250000*%
%ADD50RoundRect,0.250000X0.305000X-0.305000X0.305000X0.305000X-0.305000X0.305000X-0.305000X-0.305000X0*%
%ADD51RoundRect,0.062500X0.062500X-0.337500X0.062500X0.337500X-0.062500X0.337500X-0.062500X-0.337500X0*%
%ADD52RoundRect,0.062500X0.337500X-0.062500X0.337500X0.062500X-0.337500X0.062500X-0.337500X-0.062500X0*%
%ADD53RoundRect,0.150000X0.587500X0.150000X-0.587500X0.150000X-0.587500X-0.150000X0.587500X-0.150000X0*%
%ADD54RoundRect,0.200000X-0.275000X0.200000X-0.275000X-0.200000X0.275000X-0.200000X0.275000X0.200000X0*%
%ADD55RoundRect,0.250000X0.362500X1.425000X-0.362500X1.425000X-0.362500X-1.425000X0.362500X-1.425000X0*%
%ADD56RoundRect,0.250000X-0.700000X0.275000X-0.700000X-0.275000X0.700000X-0.275000X0.700000X0.275000X0*%
%ADD57RoundRect,0.150000X0.512500X0.150000X-0.512500X0.150000X-0.512500X-0.150000X0.512500X-0.150000X0*%
%ADD58RoundRect,0.250000X0.325000X0.650000X-0.325000X0.650000X-0.325000X-0.650000X0.325000X-0.650000X0*%
%ADD59RoundRect,0.150000X-0.760000X0.450000X-0.760000X-0.450000X0.760000X-0.450000X0.760000X0.450000X0*%
%ADD60RoundRect,0.225000X0.225000X0.250000X-0.225000X0.250000X-0.225000X-0.250000X0.225000X-0.250000X0*%
%ADD61RoundRect,0.050000X-0.660000X-0.150000X0.660000X-0.150000X0.660000X0.150000X-0.660000X0.150000X0*%
%ADD62RoundRect,0.250000X0.625000X-0.312500X0.625000X0.312500X-0.625000X0.312500X-0.625000X-0.312500X0*%
%ADD63RoundRect,0.250000X-1.000000X-0.650000X1.000000X-0.650000X1.000000X0.650000X-1.000000X0.650000X0*%
%ADD64R,0.600000X1.140000*%
%ADD65R,0.300000X1.140000*%
%ADD66R,0.250000X1.100000*%
%ADD67RoundRect,0.250000X-0.625000X0.375000X-0.625000X-0.375000X0.625000X-0.375000X0.625000X0.375000X0*%
%ADD68RoundRect,0.075000X0.200000X-0.075000X0.200000X0.075000X-0.200000X0.075000X-0.200000X-0.075000X0*%
%ADD69RoundRect,0.200000X-0.200000X-0.275000X0.200000X-0.275000X0.200000X0.275000X-0.200000X0.275000X0*%
%ADD70RoundRect,0.117500X-0.352500X-0.387500X0.352500X-0.387500X0.352500X0.387500X-0.352500X0.387500X0*%
%ADD71RoundRect,0.050000X0.150000X-0.660000X0.150000X0.660000X-0.150000X0.660000X-0.150000X-0.660000X0*%
%ADD72R,0.950000X2.150000*%
%ADD73R,3.250000X2.150000*%
%ADD74R,3.000000X1.900000*%
%ADD75RoundRect,0.150000X-0.150000X0.512500X-0.150000X-0.512500X0.150000X-0.512500X0.150000X0.512500X0*%
%ADD76R,1.600000X4.500000*%
%ADD77RoundRect,0.200000X0.200000X0.275000X-0.200000X0.275000X-0.200000X-0.275000X0.200000X-0.275000X0*%
%ADD78R,2.000000X6.700000*%
%ADD79RoundRect,0.125000X0.125000X-0.125000X0.125000X0.125000X-0.125000X0.125000X-0.125000X-0.125000X0*%
%ADD80R,1.000000X0.900000*%
%ADD81R,0.800000X0.600000*%
G04 APERTURE END LIST*
D10*
G04 #@! TO.C,U401*
X388603846Y-50544954D02*
X388605846Y-50544954D01*
X388608846Y-50545954D01*
X388610846Y-50545954D01*
X388613846Y-50546954D01*
X388615846Y-50547954D01*
X388618846Y-50548954D01*
X388620846Y-50550954D01*
X388622846Y-50551954D01*
X388624846Y-50553954D01*
X388626846Y-50554954D01*
X388628846Y-50556954D01*
X388630846Y-50558954D01*
X388632846Y-50560954D01*
X388634846Y-50562954D01*
X388635846Y-50564954D01*
X388637846Y-50566954D01*
X388638846Y-50568954D01*
X388640846Y-50570954D01*
X388641846Y-50573954D01*
X388642846Y-50575954D01*
X388643846Y-50578954D01*
X388643846Y-50580954D01*
X388644846Y-50583954D01*
X388644846Y-50585954D01*
X388645846Y-50588954D01*
X388645846Y-50590954D01*
X388645846Y-50593954D01*
X388645846Y-51443954D01*
X388645846Y-51446954D01*
X388645846Y-51448954D01*
X388644846Y-51451954D01*
X388644846Y-51453954D01*
X388643846Y-51456954D01*
X388643846Y-51458954D01*
X388642846Y-51461954D01*
X388641846Y-51463954D01*
X388640846Y-51466954D01*
X388638846Y-51468954D01*
X388637846Y-51470954D01*
X388635846Y-51472954D01*
X388634846Y-51474954D01*
X388632846Y-51476954D01*
X388630846Y-51478954D01*
X388628846Y-51480954D01*
X388626846Y-51482954D01*
X388624846Y-51483954D01*
X388622846Y-51485954D01*
X388620846Y-51486954D01*
X388618846Y-51488954D01*
X388615846Y-51489954D01*
X388613846Y-51490954D01*
X388610846Y-51491954D01*
X388608846Y-51491954D01*
X388605846Y-51492954D01*
X388603846Y-51492954D01*
X388600846Y-51493954D01*
X388598846Y-51493954D01*
X388595846Y-51493954D01*
X388295846Y-51493954D01*
X388292846Y-51493954D01*
X388290846Y-51493954D01*
X388287846Y-51492954D01*
X388285846Y-51492954D01*
X388282846Y-51491954D01*
X388280846Y-51491954D01*
X388277846Y-51490954D01*
X388275846Y-51489954D01*
X388272846Y-51488954D01*
X388270846Y-51486954D01*
X388268846Y-51485954D01*
X388266846Y-51483954D01*
X388264846Y-51482954D01*
X388262846Y-51480954D01*
X388260846Y-51478954D01*
X388258846Y-51476954D01*
X388256846Y-51474954D01*
X388255846Y-51472954D01*
X388253846Y-51470954D01*
X388252846Y-51468954D01*
X388250846Y-51466954D01*
X388249846Y-51463954D01*
X388248846Y-51461954D01*
X388247846Y-51458954D01*
X388247846Y-51456954D01*
X388246846Y-51453954D01*
X388246846Y-51451954D01*
X388245846Y-51448954D01*
X388245846Y-51446954D01*
X388245846Y-51443954D01*
X388245846Y-50593954D01*
X388245846Y-50590954D01*
X388245846Y-50588954D01*
X388246846Y-50585954D01*
X388246846Y-50583954D01*
X388247846Y-50580954D01*
X388247846Y-50578954D01*
X388248846Y-50575954D01*
X388249846Y-50573954D01*
X388250846Y-50570954D01*
X388252846Y-50568954D01*
X388253846Y-50566954D01*
X388255846Y-50564954D01*
X388256846Y-50562954D01*
X388258846Y-50560954D01*
X388260846Y-50558954D01*
X388262846Y-50556954D01*
X388264846Y-50554954D01*
X388266846Y-50553954D01*
X388268846Y-50551954D01*
X388270846Y-50550954D01*
X388272846Y-50548954D01*
X388275846Y-50547954D01*
X388277846Y-50546954D01*
X388280846Y-50545954D01*
X388282846Y-50545954D01*
X388285846Y-50544954D01*
X388287846Y-50544954D01*
X388290846Y-50543954D01*
X388292846Y-50543954D01*
X388295846Y-50543954D01*
X388595846Y-50543954D01*
X388598846Y-50543954D01*
X388600846Y-50543954D01*
X388603846Y-50544954D01*
G36*
X388603846Y-50544954D02*
G01*
X388605846Y-50544954D01*
X388608846Y-50545954D01*
X388610846Y-50545954D01*
X388613846Y-50546954D01*
X388615846Y-50547954D01*
X388618846Y-50548954D01*
X388620846Y-50550954D01*
X388622846Y-50551954D01*
X388624846Y-50553954D01*
X388626846Y-50554954D01*
X388628846Y-50556954D01*
X388630846Y-50558954D01*
X388632846Y-50560954D01*
X388634846Y-50562954D01*
X388635846Y-50564954D01*
X388637846Y-50566954D01*
X388638846Y-50568954D01*
X388640846Y-50570954D01*
X388641846Y-50573954D01*
X388642846Y-50575954D01*
X388643846Y-50578954D01*
X388643846Y-50580954D01*
X388644846Y-50583954D01*
X388644846Y-50585954D01*
X388645846Y-50588954D01*
X388645846Y-50590954D01*
X388645846Y-50593954D01*
X388645846Y-51443954D01*
X388645846Y-51446954D01*
X388645846Y-51448954D01*
X388644846Y-51451954D01*
X388644846Y-51453954D01*
X388643846Y-51456954D01*
X388643846Y-51458954D01*
X388642846Y-51461954D01*
X388641846Y-51463954D01*
X388640846Y-51466954D01*
X388638846Y-51468954D01*
X388637846Y-51470954D01*
X388635846Y-51472954D01*
X388634846Y-51474954D01*
X388632846Y-51476954D01*
X388630846Y-51478954D01*
X388628846Y-51480954D01*
X388626846Y-51482954D01*
X388624846Y-51483954D01*
X388622846Y-51485954D01*
X388620846Y-51486954D01*
X388618846Y-51488954D01*
X388615846Y-51489954D01*
X388613846Y-51490954D01*
X388610846Y-51491954D01*
X388608846Y-51491954D01*
X388605846Y-51492954D01*
X388603846Y-51492954D01*
X388600846Y-51493954D01*
X388598846Y-51493954D01*
X388595846Y-51493954D01*
X388295846Y-51493954D01*
X388292846Y-51493954D01*
X388290846Y-51493954D01*
X388287846Y-51492954D01*
X388285846Y-51492954D01*
X388282846Y-51491954D01*
X388280846Y-51491954D01*
X388277846Y-51490954D01*
X388275846Y-51489954D01*
X388272846Y-51488954D01*
X388270846Y-51486954D01*
X388268846Y-51485954D01*
X388266846Y-51483954D01*
X388264846Y-51482954D01*
X388262846Y-51480954D01*
X388260846Y-51478954D01*
X388258846Y-51476954D01*
X388256846Y-51474954D01*
X388255846Y-51472954D01*
X388253846Y-51470954D01*
X388252846Y-51468954D01*
X388250846Y-51466954D01*
X388249846Y-51463954D01*
X388248846Y-51461954D01*
X388247846Y-51458954D01*
X388247846Y-51456954D01*
X388246846Y-51453954D01*
X388246846Y-51451954D01*
X388245846Y-51448954D01*
X388245846Y-51446954D01*
X388245846Y-51443954D01*
X388245846Y-50593954D01*
X388245846Y-50590954D01*
X388245846Y-50588954D01*
X388246846Y-50585954D01*
X388246846Y-50583954D01*
X388247846Y-50580954D01*
X388247846Y-50578954D01*
X388248846Y-50575954D01*
X388249846Y-50573954D01*
X388250846Y-50570954D01*
X388252846Y-50568954D01*
X388253846Y-50566954D01*
X388255846Y-50564954D01*
X388256846Y-50562954D01*
X388258846Y-50560954D01*
X388260846Y-50558954D01*
X388262846Y-50556954D01*
X388264846Y-50554954D01*
X388266846Y-50553954D01*
X388268846Y-50551954D01*
X388270846Y-50550954D01*
X388272846Y-50548954D01*
X388275846Y-50547954D01*
X388277846Y-50546954D01*
X388280846Y-50545954D01*
X388282846Y-50545954D01*
X388285846Y-50544954D01*
X388287846Y-50544954D01*
X388290846Y-50543954D01*
X388292846Y-50543954D01*
X388295846Y-50543954D01*
X388595846Y-50543954D01*
X388598846Y-50543954D01*
X388600846Y-50543954D01*
X388603846Y-50544954D01*
G37*
X388603846Y-51694954D02*
X388605846Y-51694954D01*
X388608846Y-51695954D01*
X388610846Y-51695954D01*
X388613846Y-51696954D01*
X388615846Y-51697954D01*
X388618846Y-51698954D01*
X388620846Y-51700954D01*
X388622846Y-51701954D01*
X388624846Y-51703954D01*
X388626846Y-51704954D01*
X388628846Y-51706954D01*
X388630846Y-51708954D01*
X388632846Y-51710954D01*
X388634846Y-51712954D01*
X388635846Y-51714954D01*
X388637846Y-51716954D01*
X388638846Y-51718954D01*
X388640846Y-51720954D01*
X388641846Y-51723954D01*
X388642846Y-51725954D01*
X388643846Y-51728954D01*
X388643846Y-51730954D01*
X388644846Y-51733954D01*
X388644846Y-51735954D01*
X388645846Y-51738954D01*
X388645846Y-51740954D01*
X388645846Y-51743954D01*
X388645846Y-52593954D01*
X388645846Y-52596954D01*
X388645846Y-52598954D01*
X388644846Y-52601954D01*
X388644846Y-52603954D01*
X388643846Y-52606954D01*
X388643846Y-52608954D01*
X388642846Y-52611954D01*
X388641846Y-52613954D01*
X388640846Y-52616954D01*
X388638846Y-52618954D01*
X388637846Y-52620954D01*
X388635846Y-52622954D01*
X388634846Y-52624954D01*
X388632846Y-52626954D01*
X388630846Y-52628954D01*
X388628846Y-52630954D01*
X388626846Y-52632954D01*
X388624846Y-52633954D01*
X388622846Y-52635954D01*
X388620846Y-52636954D01*
X388618846Y-52638954D01*
X388615846Y-52639954D01*
X388613846Y-52640954D01*
X388610846Y-52641954D01*
X388608846Y-52641954D01*
X388605846Y-52642954D01*
X388603846Y-52642954D01*
X388600846Y-52643954D01*
X388598846Y-52643954D01*
X388595846Y-52643954D01*
X388295846Y-52643954D01*
X388292846Y-52643954D01*
X388290846Y-52643954D01*
X388287846Y-52642954D01*
X388285846Y-52642954D01*
X388282846Y-52641954D01*
X388280846Y-52641954D01*
X388277846Y-52640954D01*
X388275846Y-52639954D01*
X388272846Y-52638954D01*
X388270846Y-52636954D01*
X388268846Y-52635954D01*
X388266846Y-52633954D01*
X388264846Y-52632954D01*
X388262846Y-52630954D01*
X388260846Y-52628954D01*
X388258846Y-52626954D01*
X388256846Y-52624954D01*
X388255846Y-52622954D01*
X388253846Y-52620954D01*
X388252846Y-52618954D01*
X388250846Y-52616954D01*
X388249846Y-52613954D01*
X388248846Y-52611954D01*
X388247846Y-52608954D01*
X388247846Y-52606954D01*
X388246846Y-52603954D01*
X388246846Y-52601954D01*
X388245846Y-52598954D01*
X388245846Y-52596954D01*
X388245846Y-52593954D01*
X388245846Y-51743954D01*
X388245846Y-51740954D01*
X388245846Y-51738954D01*
X388246846Y-51735954D01*
X388246846Y-51733954D01*
X388247846Y-51730954D01*
X388247846Y-51728954D01*
X388248846Y-51725954D01*
X388249846Y-51723954D01*
X388250846Y-51720954D01*
X388252846Y-51718954D01*
X388253846Y-51716954D01*
X388255846Y-51714954D01*
X388256846Y-51712954D01*
X388258846Y-51710954D01*
X388260846Y-51708954D01*
X388262846Y-51706954D01*
X388264846Y-51704954D01*
X388266846Y-51703954D01*
X388268846Y-51701954D01*
X388270846Y-51700954D01*
X388272846Y-51698954D01*
X388275846Y-51697954D01*
X388277846Y-51696954D01*
X388280846Y-51695954D01*
X388282846Y-51695954D01*
X388285846Y-51694954D01*
X388287846Y-51694954D01*
X388290846Y-51693954D01*
X388292846Y-51693954D01*
X388295846Y-51693954D01*
X388595846Y-51693954D01*
X388598846Y-51693954D01*
X388600846Y-51693954D01*
X388603846Y-51694954D01*
G36*
X388603846Y-51694954D02*
G01*
X388605846Y-51694954D01*
X388608846Y-51695954D01*
X388610846Y-51695954D01*
X388613846Y-51696954D01*
X388615846Y-51697954D01*
X388618846Y-51698954D01*
X388620846Y-51700954D01*
X388622846Y-51701954D01*
X388624846Y-51703954D01*
X388626846Y-51704954D01*
X388628846Y-51706954D01*
X388630846Y-51708954D01*
X388632846Y-51710954D01*
X388634846Y-51712954D01*
X388635846Y-51714954D01*
X388637846Y-51716954D01*
X388638846Y-51718954D01*
X388640846Y-51720954D01*
X388641846Y-51723954D01*
X388642846Y-51725954D01*
X388643846Y-51728954D01*
X388643846Y-51730954D01*
X388644846Y-51733954D01*
X388644846Y-51735954D01*
X388645846Y-51738954D01*
X388645846Y-51740954D01*
X388645846Y-51743954D01*
X388645846Y-52593954D01*
X388645846Y-52596954D01*
X388645846Y-52598954D01*
X388644846Y-52601954D01*
X388644846Y-52603954D01*
X388643846Y-52606954D01*
X388643846Y-52608954D01*
X388642846Y-52611954D01*
X388641846Y-52613954D01*
X388640846Y-52616954D01*
X388638846Y-52618954D01*
X388637846Y-52620954D01*
X388635846Y-52622954D01*
X388634846Y-52624954D01*
X388632846Y-52626954D01*
X388630846Y-52628954D01*
X388628846Y-52630954D01*
X388626846Y-52632954D01*
X388624846Y-52633954D01*
X388622846Y-52635954D01*
X388620846Y-52636954D01*
X388618846Y-52638954D01*
X388615846Y-52639954D01*
X388613846Y-52640954D01*
X388610846Y-52641954D01*
X388608846Y-52641954D01*
X388605846Y-52642954D01*
X388603846Y-52642954D01*
X388600846Y-52643954D01*
X388598846Y-52643954D01*
X388595846Y-52643954D01*
X388295846Y-52643954D01*
X388292846Y-52643954D01*
X388290846Y-52643954D01*
X388287846Y-52642954D01*
X388285846Y-52642954D01*
X388282846Y-52641954D01*
X388280846Y-52641954D01*
X388277846Y-52640954D01*
X388275846Y-52639954D01*
X388272846Y-52638954D01*
X388270846Y-52636954D01*
X388268846Y-52635954D01*
X388266846Y-52633954D01*
X388264846Y-52632954D01*
X388262846Y-52630954D01*
X388260846Y-52628954D01*
X388258846Y-52626954D01*
X388256846Y-52624954D01*
X388255846Y-52622954D01*
X388253846Y-52620954D01*
X388252846Y-52618954D01*
X388250846Y-52616954D01*
X388249846Y-52613954D01*
X388248846Y-52611954D01*
X388247846Y-52608954D01*
X388247846Y-52606954D01*
X388246846Y-52603954D01*
X388246846Y-52601954D01*
X388245846Y-52598954D01*
X388245846Y-52596954D01*
X388245846Y-52593954D01*
X388245846Y-51743954D01*
X388245846Y-51740954D01*
X388245846Y-51738954D01*
X388246846Y-51735954D01*
X388246846Y-51733954D01*
X388247846Y-51730954D01*
X388247846Y-51728954D01*
X388248846Y-51725954D01*
X388249846Y-51723954D01*
X388250846Y-51720954D01*
X388252846Y-51718954D01*
X388253846Y-51716954D01*
X388255846Y-51714954D01*
X388256846Y-51712954D01*
X388258846Y-51710954D01*
X388260846Y-51708954D01*
X388262846Y-51706954D01*
X388264846Y-51704954D01*
X388266846Y-51703954D01*
X388268846Y-51701954D01*
X388270846Y-51700954D01*
X388272846Y-51698954D01*
X388275846Y-51697954D01*
X388277846Y-51696954D01*
X388280846Y-51695954D01*
X388282846Y-51695954D01*
X388285846Y-51694954D01*
X388287846Y-51694954D01*
X388290846Y-51693954D01*
X388292846Y-51693954D01*
X388295846Y-51693954D01*
X388595846Y-51693954D01*
X388598846Y-51693954D01*
X388600846Y-51693954D01*
X388603846Y-51694954D01*
G37*
X389114846Y-52244954D02*
X389117846Y-52244954D01*
X389119846Y-52245954D01*
X389121846Y-52246954D01*
X389123846Y-52247954D01*
X389126846Y-52248954D01*
X389128846Y-52249954D01*
X389130846Y-52250954D01*
X389132846Y-52251954D01*
X389133846Y-52253954D01*
X389135846Y-52254954D01*
X389137846Y-52256954D01*
X389139846Y-52258954D01*
X389140846Y-52260954D01*
X389142846Y-52261954D01*
X389143846Y-52263954D01*
X389144846Y-52265954D01*
X389145846Y-52267954D01*
X389146846Y-52270954D01*
X389147846Y-52272954D01*
X389148846Y-52274954D01*
X389149846Y-52276954D01*
X389149846Y-52279954D01*
X389150846Y-52281954D01*
X389150846Y-52283954D01*
X389150846Y-52286954D01*
X389150846Y-52288954D01*
X389150846Y-52290954D01*
X389150846Y-52293954D01*
X389150846Y-52943954D01*
X389150846Y-52946954D01*
X389150846Y-52948954D01*
X389150846Y-52950954D01*
X389150846Y-52953954D01*
X389150846Y-52955954D01*
X389149846Y-52957954D01*
X389149846Y-52960954D01*
X389148846Y-52962954D01*
X389147846Y-52964954D01*
X389146846Y-52966954D01*
X389145846Y-52969954D01*
X389144846Y-52971954D01*
X389143846Y-52973954D01*
X389142846Y-52975954D01*
X389140846Y-52976954D01*
X389139846Y-52978954D01*
X389137846Y-52980954D01*
X389135846Y-52982954D01*
X389133846Y-52983954D01*
X389132846Y-52985954D01*
X389130846Y-52986954D01*
X389128846Y-52987954D01*
X389126846Y-52988954D01*
X389123846Y-52989954D01*
X389121846Y-52990954D01*
X389119846Y-52991954D01*
X389117846Y-52992954D01*
X389114846Y-52992954D01*
X389112846Y-52993954D01*
X389110846Y-52993954D01*
X388950846Y-52993954D01*
X388947846Y-52993954D01*
X388945846Y-52993954D01*
X388942846Y-52992954D01*
X388940846Y-52992954D01*
X388937846Y-52991954D01*
X388935846Y-52991954D01*
X388932846Y-52990954D01*
X388930846Y-52989954D01*
X388927846Y-52988954D01*
X388925846Y-52986954D01*
X388923846Y-52985954D01*
X388921846Y-52983954D01*
X388919846Y-52982954D01*
X388917846Y-52980954D01*
X388915846Y-52978954D01*
X388913846Y-52976954D01*
X388911846Y-52974954D01*
X388910846Y-52972954D01*
X388908846Y-52970954D01*
X388907846Y-52968954D01*
X388905846Y-52966954D01*
X388904846Y-52963954D01*
X388903846Y-52961954D01*
X388902846Y-52958954D01*
X388902846Y-52956954D01*
X388901846Y-52953954D01*
X388901846Y-52951954D01*
X388900846Y-52948954D01*
X388900846Y-52946954D01*
X388900846Y-52943954D01*
X388900846Y-52293954D01*
X388900846Y-52290954D01*
X388900846Y-52288954D01*
X388901846Y-52285954D01*
X388901846Y-52283954D01*
X388902846Y-52280954D01*
X388902846Y-52278954D01*
X388903846Y-52275954D01*
X388904846Y-52273954D01*
X388905846Y-52270954D01*
X388907846Y-52268954D01*
X388908846Y-52266954D01*
X388910846Y-52264954D01*
X388911846Y-52262954D01*
X388913846Y-52260954D01*
X388915846Y-52258954D01*
X388917846Y-52256954D01*
X388919846Y-52254954D01*
X388921846Y-52253954D01*
X388923846Y-52251954D01*
X388925846Y-52250954D01*
X388927846Y-52248954D01*
X388930846Y-52247954D01*
X388932846Y-52246954D01*
X388935846Y-52245954D01*
X388937846Y-52245954D01*
X388940846Y-52244954D01*
X388942846Y-52244954D01*
X388945846Y-52243954D01*
X388947846Y-52243954D01*
X388950846Y-52243954D01*
X389110846Y-52243954D01*
X389112846Y-52243954D01*
X389114846Y-52244954D01*
G36*
X389114846Y-52244954D02*
G01*
X389117846Y-52244954D01*
X389119846Y-52245954D01*
X389121846Y-52246954D01*
X389123846Y-52247954D01*
X389126846Y-52248954D01*
X389128846Y-52249954D01*
X389130846Y-52250954D01*
X389132846Y-52251954D01*
X389133846Y-52253954D01*
X389135846Y-52254954D01*
X389137846Y-52256954D01*
X389139846Y-52258954D01*
X389140846Y-52260954D01*
X389142846Y-52261954D01*
X389143846Y-52263954D01*
X389144846Y-52265954D01*
X389145846Y-52267954D01*
X389146846Y-52270954D01*
X389147846Y-52272954D01*
X389148846Y-52274954D01*
X389149846Y-52276954D01*
X389149846Y-52279954D01*
X389150846Y-52281954D01*
X389150846Y-52283954D01*
X389150846Y-52286954D01*
X389150846Y-52288954D01*
X389150846Y-52290954D01*
X389150846Y-52293954D01*
X389150846Y-52943954D01*
X389150846Y-52946954D01*
X389150846Y-52948954D01*
X389150846Y-52950954D01*
X389150846Y-52953954D01*
X389150846Y-52955954D01*
X389149846Y-52957954D01*
X389149846Y-52960954D01*
X389148846Y-52962954D01*
X389147846Y-52964954D01*
X389146846Y-52966954D01*
X389145846Y-52969954D01*
X389144846Y-52971954D01*
X389143846Y-52973954D01*
X389142846Y-52975954D01*
X389140846Y-52976954D01*
X389139846Y-52978954D01*
X389137846Y-52980954D01*
X389135846Y-52982954D01*
X389133846Y-52983954D01*
X389132846Y-52985954D01*
X389130846Y-52986954D01*
X389128846Y-52987954D01*
X389126846Y-52988954D01*
X389123846Y-52989954D01*
X389121846Y-52990954D01*
X389119846Y-52991954D01*
X389117846Y-52992954D01*
X389114846Y-52992954D01*
X389112846Y-52993954D01*
X389110846Y-52993954D01*
X388950846Y-52993954D01*
X388947846Y-52993954D01*
X388945846Y-52993954D01*
X388942846Y-52992954D01*
X388940846Y-52992954D01*
X388937846Y-52991954D01*
X388935846Y-52991954D01*
X388932846Y-52990954D01*
X388930846Y-52989954D01*
X388927846Y-52988954D01*
X388925846Y-52986954D01*
X388923846Y-52985954D01*
X388921846Y-52983954D01*
X388919846Y-52982954D01*
X388917846Y-52980954D01*
X388915846Y-52978954D01*
X388913846Y-52976954D01*
X388911846Y-52974954D01*
X388910846Y-52972954D01*
X388908846Y-52970954D01*
X388907846Y-52968954D01*
X388905846Y-52966954D01*
X388904846Y-52963954D01*
X388903846Y-52961954D01*
X388902846Y-52958954D01*
X388902846Y-52956954D01*
X388901846Y-52953954D01*
X388901846Y-52951954D01*
X388900846Y-52948954D01*
X388900846Y-52946954D01*
X388900846Y-52943954D01*
X388900846Y-52293954D01*
X388900846Y-52290954D01*
X388900846Y-52288954D01*
X388901846Y-52285954D01*
X388901846Y-52283954D01*
X388902846Y-52280954D01*
X388902846Y-52278954D01*
X388903846Y-52275954D01*
X388904846Y-52273954D01*
X388905846Y-52270954D01*
X388907846Y-52268954D01*
X388908846Y-52266954D01*
X388910846Y-52264954D01*
X388911846Y-52262954D01*
X388913846Y-52260954D01*
X388915846Y-52258954D01*
X388917846Y-52256954D01*
X388919846Y-52254954D01*
X388921846Y-52253954D01*
X388923846Y-52251954D01*
X388925846Y-52250954D01*
X388927846Y-52248954D01*
X388930846Y-52247954D01*
X388932846Y-52246954D01*
X388935846Y-52245954D01*
X388937846Y-52245954D01*
X388940846Y-52244954D01*
X388942846Y-52244954D01*
X388945846Y-52243954D01*
X388947846Y-52243954D01*
X388950846Y-52243954D01*
X389110846Y-52243954D01*
X389112846Y-52243954D01*
X389114846Y-52244954D01*
G37*
X389114846Y-53194954D02*
X389117846Y-53194954D01*
X389119846Y-53195954D01*
X389121846Y-53196954D01*
X389123846Y-53197954D01*
X389126846Y-53198954D01*
X389128846Y-53199954D01*
X389130846Y-53200954D01*
X389132846Y-53201954D01*
X389133846Y-53203954D01*
X389135846Y-53204954D01*
X389137846Y-53206954D01*
X389139846Y-53208954D01*
X389140846Y-53210954D01*
X389142846Y-53211954D01*
X389143846Y-53213954D01*
X389144846Y-53215954D01*
X389145846Y-53217954D01*
X389146846Y-53220954D01*
X389147846Y-53222954D01*
X389148846Y-53224954D01*
X389149846Y-53226954D01*
X389149846Y-53229954D01*
X389150846Y-53231954D01*
X389150846Y-53233954D01*
X389150846Y-53236954D01*
X389150846Y-53238954D01*
X389150846Y-53240954D01*
X389150846Y-53243954D01*
X389150846Y-53893954D01*
X389150846Y-53896954D01*
X389150846Y-53898954D01*
X389150846Y-53900954D01*
X389150846Y-53903954D01*
X389150846Y-53905954D01*
X389149846Y-53907954D01*
X389149846Y-53910954D01*
X389148846Y-53912954D01*
X389147846Y-53914954D01*
X389146846Y-53916954D01*
X389145846Y-53919954D01*
X389144846Y-53921954D01*
X389143846Y-53923954D01*
X389142846Y-53925954D01*
X389140846Y-53926954D01*
X389139846Y-53928954D01*
X389137846Y-53930954D01*
X389135846Y-53932954D01*
X389133846Y-53933954D01*
X389132846Y-53935954D01*
X389130846Y-53936954D01*
X389128846Y-53937954D01*
X389126846Y-53938954D01*
X389123846Y-53939954D01*
X389121846Y-53940954D01*
X389119846Y-53941954D01*
X389117846Y-53942954D01*
X389114846Y-53942954D01*
X389112846Y-53943954D01*
X389110846Y-53943954D01*
X388950846Y-53943954D01*
X388947846Y-53943954D01*
X388945846Y-53943954D01*
X388942846Y-53942954D01*
X388940846Y-53942954D01*
X388937846Y-53941954D01*
X388935846Y-53941954D01*
X388932846Y-53940954D01*
X388930846Y-53939954D01*
X388927846Y-53938954D01*
X388925846Y-53936954D01*
X388923846Y-53935954D01*
X388921846Y-53933954D01*
X388919846Y-53932954D01*
X388917846Y-53930954D01*
X388915846Y-53928954D01*
X388913846Y-53926954D01*
X388911846Y-53924954D01*
X388910846Y-53922954D01*
X388908846Y-53920954D01*
X388907846Y-53918954D01*
X388905846Y-53916954D01*
X388904846Y-53913954D01*
X388903846Y-53911954D01*
X388902846Y-53908954D01*
X388902846Y-53906954D01*
X388901846Y-53903954D01*
X388901846Y-53901954D01*
X388900846Y-53898954D01*
X388900846Y-53896954D01*
X388900846Y-53893954D01*
X388900846Y-53243954D01*
X388900846Y-53240954D01*
X388900846Y-53238954D01*
X388901846Y-53235954D01*
X388901846Y-53233954D01*
X388902846Y-53230954D01*
X388902846Y-53228954D01*
X388903846Y-53225954D01*
X388904846Y-53223954D01*
X388905846Y-53220954D01*
X388907846Y-53218954D01*
X388908846Y-53216954D01*
X388910846Y-53214954D01*
X388911846Y-53212954D01*
X388913846Y-53210954D01*
X388915846Y-53208954D01*
X388917846Y-53206954D01*
X388919846Y-53204954D01*
X388921846Y-53203954D01*
X388923846Y-53201954D01*
X388925846Y-53200954D01*
X388927846Y-53198954D01*
X388930846Y-53197954D01*
X388932846Y-53196954D01*
X388935846Y-53195954D01*
X388937846Y-53195954D01*
X388940846Y-53194954D01*
X388942846Y-53194954D01*
X388945846Y-53193954D01*
X388947846Y-53193954D01*
X388950846Y-53193954D01*
X389110846Y-53193954D01*
X389112846Y-53193954D01*
X389114846Y-53194954D01*
G36*
X389114846Y-53194954D02*
G01*
X389117846Y-53194954D01*
X389119846Y-53195954D01*
X389121846Y-53196954D01*
X389123846Y-53197954D01*
X389126846Y-53198954D01*
X389128846Y-53199954D01*
X389130846Y-53200954D01*
X389132846Y-53201954D01*
X389133846Y-53203954D01*
X389135846Y-53204954D01*
X389137846Y-53206954D01*
X389139846Y-53208954D01*
X389140846Y-53210954D01*
X389142846Y-53211954D01*
X389143846Y-53213954D01*
X389144846Y-53215954D01*
X389145846Y-53217954D01*
X389146846Y-53220954D01*
X389147846Y-53222954D01*
X389148846Y-53224954D01*
X389149846Y-53226954D01*
X389149846Y-53229954D01*
X389150846Y-53231954D01*
X389150846Y-53233954D01*
X389150846Y-53236954D01*
X389150846Y-53238954D01*
X389150846Y-53240954D01*
X389150846Y-53243954D01*
X389150846Y-53893954D01*
X389150846Y-53896954D01*
X389150846Y-53898954D01*
X389150846Y-53900954D01*
X389150846Y-53903954D01*
X389150846Y-53905954D01*
X389149846Y-53907954D01*
X389149846Y-53910954D01*
X389148846Y-53912954D01*
X389147846Y-53914954D01*
X389146846Y-53916954D01*
X389145846Y-53919954D01*
X389144846Y-53921954D01*
X389143846Y-53923954D01*
X389142846Y-53925954D01*
X389140846Y-53926954D01*
X389139846Y-53928954D01*
X389137846Y-53930954D01*
X389135846Y-53932954D01*
X389133846Y-53933954D01*
X389132846Y-53935954D01*
X389130846Y-53936954D01*
X389128846Y-53937954D01*
X389126846Y-53938954D01*
X389123846Y-53939954D01*
X389121846Y-53940954D01*
X389119846Y-53941954D01*
X389117846Y-53942954D01*
X389114846Y-53942954D01*
X389112846Y-53943954D01*
X389110846Y-53943954D01*
X388950846Y-53943954D01*
X388947846Y-53943954D01*
X388945846Y-53943954D01*
X388942846Y-53942954D01*
X388940846Y-53942954D01*
X388937846Y-53941954D01*
X388935846Y-53941954D01*
X388932846Y-53940954D01*
X388930846Y-53939954D01*
X388927846Y-53938954D01*
X388925846Y-53936954D01*
X388923846Y-53935954D01*
X388921846Y-53933954D01*
X388919846Y-53932954D01*
X388917846Y-53930954D01*
X388915846Y-53928954D01*
X388913846Y-53926954D01*
X388911846Y-53924954D01*
X388910846Y-53922954D01*
X388908846Y-53920954D01*
X388907846Y-53918954D01*
X388905846Y-53916954D01*
X388904846Y-53913954D01*
X388903846Y-53911954D01*
X388902846Y-53908954D01*
X388902846Y-53906954D01*
X388901846Y-53903954D01*
X388901846Y-53901954D01*
X388900846Y-53898954D01*
X388900846Y-53896954D01*
X388900846Y-53893954D01*
X388900846Y-53243954D01*
X388900846Y-53240954D01*
X388900846Y-53238954D01*
X388901846Y-53235954D01*
X388901846Y-53233954D01*
X388902846Y-53230954D01*
X388902846Y-53228954D01*
X388903846Y-53225954D01*
X388904846Y-53223954D01*
X388905846Y-53220954D01*
X388907846Y-53218954D01*
X388908846Y-53216954D01*
X388910846Y-53214954D01*
X388911846Y-53212954D01*
X388913846Y-53210954D01*
X388915846Y-53208954D01*
X388917846Y-53206954D01*
X388919846Y-53204954D01*
X388921846Y-53203954D01*
X388923846Y-53201954D01*
X388925846Y-53200954D01*
X388927846Y-53198954D01*
X388930846Y-53197954D01*
X388932846Y-53196954D01*
X388935846Y-53195954D01*
X388937846Y-53195954D01*
X388940846Y-53194954D01*
X388942846Y-53194954D01*
X388945846Y-53193954D01*
X388947846Y-53193954D01*
X388950846Y-53193954D01*
X389110846Y-53193954D01*
X389112846Y-53193954D01*
X389114846Y-53194954D01*
G37*
X389763846Y-50544954D02*
X389765846Y-50544954D01*
X389768846Y-50545954D01*
X389770846Y-50545954D01*
X389773846Y-50546954D01*
X389775846Y-50547954D01*
X389778846Y-50548954D01*
X389780846Y-50550954D01*
X389782846Y-50551954D01*
X389784846Y-50553954D01*
X389786846Y-50554954D01*
X389788846Y-50556954D01*
X389790846Y-50558954D01*
X389792846Y-50560954D01*
X389794846Y-50562954D01*
X389795846Y-50564954D01*
X389797846Y-50566954D01*
X389798846Y-50568954D01*
X389800846Y-50570954D01*
X389801846Y-50573954D01*
X389802846Y-50575954D01*
X389803846Y-50578954D01*
X389803846Y-50580954D01*
X389804846Y-50583954D01*
X389804846Y-50585954D01*
X389805846Y-50588954D01*
X389805846Y-50590954D01*
X389805846Y-50593954D01*
X389805846Y-51368954D01*
X390315846Y-51368954D01*
X390318846Y-51368954D01*
X390320846Y-51368954D01*
X390323846Y-51369954D01*
X390325846Y-51369954D01*
X390328846Y-51370954D01*
X390330846Y-51370954D01*
X390333846Y-51371954D01*
X390335846Y-51372954D01*
X390338846Y-51373954D01*
X390340846Y-51375954D01*
X390342846Y-51376954D01*
X390344846Y-51378954D01*
X390346846Y-51379954D01*
X390348846Y-51381954D01*
X390350846Y-51383954D01*
X390352846Y-51385954D01*
X390354846Y-51387954D01*
X390355846Y-51389954D01*
X390357846Y-51391954D01*
X390358846Y-51393954D01*
X390360846Y-51395954D01*
X390361846Y-51398954D01*
X390362846Y-51400954D01*
X390363846Y-51403954D01*
X390363846Y-51405954D01*
X390364846Y-51408954D01*
X390364846Y-51410954D01*
X390365846Y-51413954D01*
X390365846Y-51415954D01*
X390365846Y-51418954D01*
X390365846Y-51568954D01*
X390365846Y-51571954D01*
X390365846Y-51573954D01*
X390364846Y-51576954D01*
X390364846Y-51578954D01*
X390363846Y-51581954D01*
X390363846Y-51583954D01*
X390362846Y-51586954D01*
X390361846Y-51588954D01*
X390360846Y-51591954D01*
X390358846Y-51593954D01*
X390357846Y-51595954D01*
X390355846Y-51597954D01*
X390354846Y-51599954D01*
X390352846Y-51601954D01*
X390350846Y-51603954D01*
X390348846Y-51605954D01*
X390346846Y-51607954D01*
X390344846Y-51608954D01*
X390342846Y-51610954D01*
X390340846Y-51611954D01*
X390338846Y-51613954D01*
X390335846Y-51614954D01*
X390333846Y-51615954D01*
X390330846Y-51616954D01*
X390328846Y-51616954D01*
X390325846Y-51617954D01*
X390323846Y-51617954D01*
X390320846Y-51618954D01*
X390318846Y-51618954D01*
X390315846Y-51618954D01*
X389805846Y-51618954D01*
X389805846Y-51868954D01*
X390315846Y-51868954D01*
X390318846Y-51868954D01*
X390320846Y-51868954D01*
X390323846Y-51869954D01*
X390325846Y-51869954D01*
X390328846Y-51870954D01*
X390330846Y-51870954D01*
X390333846Y-51871954D01*
X390335846Y-51872954D01*
X390338846Y-51873954D01*
X390340846Y-51875954D01*
X390342846Y-51876954D01*
X390344846Y-51878954D01*
X390346846Y-51879954D01*
X390348846Y-51881954D01*
X390350846Y-51883954D01*
X390352846Y-51885954D01*
X390354846Y-51887954D01*
X390355846Y-51889954D01*
X390357846Y-51891954D01*
X390358846Y-51893954D01*
X390360846Y-51895954D01*
X390361846Y-51898954D01*
X390362846Y-51900954D01*
X390363846Y-51903954D01*
X390363846Y-51905954D01*
X390364846Y-51908954D01*
X390364846Y-51910954D01*
X390365846Y-51913954D01*
X390365846Y-51915954D01*
X390365846Y-51918954D01*
X390365846Y-52068954D01*
X390365846Y-52071954D01*
X390365846Y-52073954D01*
X390364846Y-52076954D01*
X390364846Y-52078954D01*
X390363846Y-52081954D01*
X390363846Y-52083954D01*
X390362846Y-52086954D01*
X390361846Y-52088954D01*
X390360846Y-52091954D01*
X390358846Y-52093954D01*
X390357846Y-52095954D01*
X390355846Y-52097954D01*
X390354846Y-52099954D01*
X390352846Y-52101954D01*
X390350846Y-52103954D01*
X390348846Y-52105954D01*
X390346846Y-52107954D01*
X390344846Y-52108954D01*
X390342846Y-52110954D01*
X390340846Y-52111954D01*
X390338846Y-52113954D01*
X390335846Y-52114954D01*
X390333846Y-52115954D01*
X390330846Y-52116954D01*
X390328846Y-52116954D01*
X390325846Y-52117954D01*
X390323846Y-52117954D01*
X390320846Y-52118954D01*
X390318846Y-52118954D01*
X390315846Y-52118954D01*
X389805846Y-52118954D01*
X389805846Y-52368954D01*
X390315846Y-52368954D01*
X390318846Y-52369954D01*
X390321846Y-52370954D01*
X390324846Y-52371954D01*
X390327846Y-52372954D01*
X390330846Y-52373954D01*
X390333846Y-52375954D01*
X390336846Y-52376954D01*
X390339846Y-52378954D01*
X390342846Y-52380954D01*
X390344846Y-52382954D01*
X390347846Y-52385954D01*
X390349846Y-52387954D01*
X390351846Y-52390954D01*
X390353846Y-52392954D01*
X390355846Y-52395954D01*
X390357846Y-52398954D01*
X390359846Y-52401954D01*
X390360846Y-52404954D01*
X390362846Y-52407954D01*
X390363846Y-52410954D01*
X390364846Y-52413954D01*
X390365846Y-52416954D01*
X390365846Y-52419954D01*
X390366846Y-52423954D01*
X390366846Y-52426954D01*
X390366846Y-52429954D01*
X390366846Y-52433954D01*
X390366846Y-52436954D01*
X390366846Y-52439954D01*
X390365846Y-52443954D01*
X390365846Y-52543954D01*
X390366846Y-52547954D01*
X390366846Y-52550954D01*
X390366846Y-52553954D01*
X390366846Y-52557954D01*
X390366846Y-52560954D01*
X390366846Y-52563954D01*
X390365846Y-52567954D01*
X390365846Y-52570954D01*
X390364846Y-52573954D01*
X390363846Y-52576954D01*
X390362846Y-52579954D01*
X390360846Y-52582954D01*
X390359846Y-52585954D01*
X390357846Y-52588954D01*
X390355846Y-52591954D01*
X390353846Y-52594954D01*
X390351846Y-52596954D01*
X390349846Y-52599954D01*
X390347846Y-52601954D01*
X390344846Y-52604954D01*
X390342846Y-52606954D01*
X390339846Y-52608954D01*
X390336846Y-52610954D01*
X390333846Y-52611954D01*
X390330846Y-52613954D01*
X390327846Y-52614954D01*
X390324846Y-52615954D01*
X390321846Y-52616954D01*
X390318846Y-52617954D01*
X390315846Y-52618954D01*
X389805846Y-52618954D01*
X389805846Y-52643954D01*
X389455846Y-52643954D01*
X389452846Y-52643954D01*
X389450846Y-52643954D01*
X389447846Y-52642954D01*
X389445846Y-52642954D01*
X389442846Y-52641954D01*
X389440846Y-52641954D01*
X389437846Y-52640954D01*
X389435846Y-52639954D01*
X389432846Y-52638954D01*
X389430846Y-52636954D01*
X389428846Y-52635954D01*
X389426846Y-52633954D01*
X389424846Y-52632954D01*
X389422846Y-52630954D01*
X389420846Y-52628954D01*
X389418846Y-52626954D01*
X389416846Y-52624954D01*
X389415846Y-52622954D01*
X389413846Y-52620954D01*
X389412846Y-52618954D01*
X389410846Y-52616954D01*
X389409846Y-52613954D01*
X389408846Y-52611954D01*
X389407846Y-52608954D01*
X389407846Y-52606954D01*
X389406846Y-52603954D01*
X389406846Y-52601954D01*
X389405846Y-52598954D01*
X389405846Y-52596954D01*
X389405846Y-52593954D01*
X389405846Y-50593954D01*
X389405846Y-50590954D01*
X389405846Y-50588954D01*
X389406846Y-50585954D01*
X389406846Y-50583954D01*
X389407846Y-50580954D01*
X389407846Y-50578954D01*
X389408846Y-50575954D01*
X389409846Y-50573954D01*
X389410846Y-50570954D01*
X389412846Y-50568954D01*
X389413846Y-50566954D01*
X389415846Y-50564954D01*
X389416846Y-50562954D01*
X389418846Y-50560954D01*
X389420846Y-50558954D01*
X389422846Y-50556954D01*
X389424846Y-50554954D01*
X389426846Y-50553954D01*
X389428846Y-50551954D01*
X389430846Y-50550954D01*
X389432846Y-50548954D01*
X389435846Y-50547954D01*
X389437846Y-50546954D01*
X389440846Y-50545954D01*
X389442846Y-50545954D01*
X389445846Y-50544954D01*
X389447846Y-50544954D01*
X389450846Y-50543954D01*
X389452846Y-50543954D01*
X389455846Y-50543954D01*
X389755846Y-50543954D01*
X389758846Y-50543954D01*
X389760846Y-50543954D01*
X389763846Y-50544954D01*
G36*
X389763846Y-50544954D02*
G01*
X389765846Y-50544954D01*
X389768846Y-50545954D01*
X389770846Y-50545954D01*
X389773846Y-50546954D01*
X389775846Y-50547954D01*
X389778846Y-50548954D01*
X389780846Y-50550954D01*
X389782846Y-50551954D01*
X389784846Y-50553954D01*
X389786846Y-50554954D01*
X389788846Y-50556954D01*
X389790846Y-50558954D01*
X389792846Y-50560954D01*
X389794846Y-50562954D01*
X389795846Y-50564954D01*
X389797846Y-50566954D01*
X389798846Y-50568954D01*
X389800846Y-50570954D01*
X389801846Y-50573954D01*
X389802846Y-50575954D01*
X389803846Y-50578954D01*
X389803846Y-50580954D01*
X389804846Y-50583954D01*
X389804846Y-50585954D01*
X389805846Y-50588954D01*
X389805846Y-50590954D01*
X389805846Y-50593954D01*
X389805846Y-51368954D01*
X390315846Y-51368954D01*
X390318846Y-51368954D01*
X390320846Y-51368954D01*
X390323846Y-51369954D01*
X390325846Y-51369954D01*
X390328846Y-51370954D01*
X390330846Y-51370954D01*
X390333846Y-51371954D01*
X390335846Y-51372954D01*
X390338846Y-51373954D01*
X390340846Y-51375954D01*
X390342846Y-51376954D01*
X390344846Y-51378954D01*
X390346846Y-51379954D01*
X390348846Y-51381954D01*
X390350846Y-51383954D01*
X390352846Y-51385954D01*
X390354846Y-51387954D01*
X390355846Y-51389954D01*
X390357846Y-51391954D01*
X390358846Y-51393954D01*
X390360846Y-51395954D01*
X390361846Y-51398954D01*
X390362846Y-51400954D01*
X390363846Y-51403954D01*
X390363846Y-51405954D01*
X390364846Y-51408954D01*
X390364846Y-51410954D01*
X390365846Y-51413954D01*
X390365846Y-51415954D01*
X390365846Y-51418954D01*
X390365846Y-51568954D01*
X390365846Y-51571954D01*
X390365846Y-51573954D01*
X390364846Y-51576954D01*
X390364846Y-51578954D01*
X390363846Y-51581954D01*
X390363846Y-51583954D01*
X390362846Y-51586954D01*
X390361846Y-51588954D01*
X390360846Y-51591954D01*
X390358846Y-51593954D01*
X390357846Y-51595954D01*
X390355846Y-51597954D01*
X390354846Y-51599954D01*
X390352846Y-51601954D01*
X390350846Y-51603954D01*
X390348846Y-51605954D01*
X390346846Y-51607954D01*
X390344846Y-51608954D01*
X390342846Y-51610954D01*
X390340846Y-51611954D01*
X390338846Y-51613954D01*
X390335846Y-51614954D01*
X390333846Y-51615954D01*
X390330846Y-51616954D01*
X390328846Y-51616954D01*
X390325846Y-51617954D01*
X390323846Y-51617954D01*
X390320846Y-51618954D01*
X390318846Y-51618954D01*
X390315846Y-51618954D01*
X389805846Y-51618954D01*
X389805846Y-51868954D01*
X390315846Y-51868954D01*
X390318846Y-51868954D01*
X390320846Y-51868954D01*
X390323846Y-51869954D01*
X390325846Y-51869954D01*
X390328846Y-51870954D01*
X390330846Y-51870954D01*
X390333846Y-51871954D01*
X390335846Y-51872954D01*
X390338846Y-51873954D01*
X390340846Y-51875954D01*
X390342846Y-51876954D01*
X390344846Y-51878954D01*
X390346846Y-51879954D01*
X390348846Y-51881954D01*
X390350846Y-51883954D01*
X390352846Y-51885954D01*
X390354846Y-51887954D01*
X390355846Y-51889954D01*
X390357846Y-51891954D01*
X390358846Y-51893954D01*
X390360846Y-51895954D01*
X390361846Y-51898954D01*
X390362846Y-51900954D01*
X390363846Y-51903954D01*
X390363846Y-51905954D01*
X390364846Y-51908954D01*
X390364846Y-51910954D01*
X390365846Y-51913954D01*
X390365846Y-51915954D01*
X390365846Y-51918954D01*
X390365846Y-52068954D01*
X390365846Y-52071954D01*
X390365846Y-52073954D01*
X390364846Y-52076954D01*
X390364846Y-52078954D01*
X390363846Y-52081954D01*
X390363846Y-52083954D01*
X390362846Y-52086954D01*
X390361846Y-52088954D01*
X390360846Y-52091954D01*
X390358846Y-52093954D01*
X390357846Y-52095954D01*
X390355846Y-52097954D01*
X390354846Y-52099954D01*
X390352846Y-52101954D01*
X390350846Y-52103954D01*
X390348846Y-52105954D01*
X390346846Y-52107954D01*
X390344846Y-52108954D01*
X390342846Y-52110954D01*
X390340846Y-52111954D01*
X390338846Y-52113954D01*
X390335846Y-52114954D01*
X390333846Y-52115954D01*
X390330846Y-52116954D01*
X390328846Y-52116954D01*
X390325846Y-52117954D01*
X390323846Y-52117954D01*
X390320846Y-52118954D01*
X390318846Y-52118954D01*
X390315846Y-52118954D01*
X389805846Y-52118954D01*
X389805846Y-52368954D01*
X390315846Y-52368954D01*
X390318846Y-52369954D01*
X390321846Y-52370954D01*
X390324846Y-52371954D01*
X390327846Y-52372954D01*
X390330846Y-52373954D01*
X390333846Y-52375954D01*
X390336846Y-52376954D01*
X390339846Y-52378954D01*
X390342846Y-52380954D01*
X390344846Y-52382954D01*
X390347846Y-52385954D01*
X390349846Y-52387954D01*
X390351846Y-52390954D01*
X390353846Y-52392954D01*
X390355846Y-52395954D01*
X390357846Y-52398954D01*
X390359846Y-52401954D01*
X390360846Y-52404954D01*
X390362846Y-52407954D01*
X390363846Y-52410954D01*
X390364846Y-52413954D01*
X390365846Y-52416954D01*
X390365846Y-52419954D01*
X390366846Y-52423954D01*
X390366846Y-52426954D01*
X390366846Y-52429954D01*
X390366846Y-52433954D01*
X390366846Y-52436954D01*
X390366846Y-52439954D01*
X390365846Y-52443954D01*
X390365846Y-52543954D01*
X390366846Y-52547954D01*
X390366846Y-52550954D01*
X390366846Y-52553954D01*
X390366846Y-52557954D01*
X390366846Y-52560954D01*
X390366846Y-52563954D01*
X390365846Y-52567954D01*
X390365846Y-52570954D01*
X390364846Y-52573954D01*
X390363846Y-52576954D01*
X390362846Y-52579954D01*
X390360846Y-52582954D01*
X390359846Y-52585954D01*
X390357846Y-52588954D01*
X390355846Y-52591954D01*
X390353846Y-52594954D01*
X390351846Y-52596954D01*
X390349846Y-52599954D01*
X390347846Y-52601954D01*
X390344846Y-52604954D01*
X390342846Y-52606954D01*
X390339846Y-52608954D01*
X390336846Y-52610954D01*
X390333846Y-52611954D01*
X390330846Y-52613954D01*
X390327846Y-52614954D01*
X390324846Y-52615954D01*
X390321846Y-52616954D01*
X390318846Y-52617954D01*
X390315846Y-52618954D01*
X389805846Y-52618954D01*
X389805846Y-52643954D01*
X389455846Y-52643954D01*
X389452846Y-52643954D01*
X389450846Y-52643954D01*
X389447846Y-52642954D01*
X389445846Y-52642954D01*
X389442846Y-52641954D01*
X389440846Y-52641954D01*
X389437846Y-52640954D01*
X389435846Y-52639954D01*
X389432846Y-52638954D01*
X389430846Y-52636954D01*
X389428846Y-52635954D01*
X389426846Y-52633954D01*
X389424846Y-52632954D01*
X389422846Y-52630954D01*
X389420846Y-52628954D01*
X389418846Y-52626954D01*
X389416846Y-52624954D01*
X389415846Y-52622954D01*
X389413846Y-52620954D01*
X389412846Y-52618954D01*
X389410846Y-52616954D01*
X389409846Y-52613954D01*
X389408846Y-52611954D01*
X389407846Y-52608954D01*
X389407846Y-52606954D01*
X389406846Y-52603954D01*
X389406846Y-52601954D01*
X389405846Y-52598954D01*
X389405846Y-52596954D01*
X389405846Y-52593954D01*
X389405846Y-50593954D01*
X389405846Y-50590954D01*
X389405846Y-50588954D01*
X389406846Y-50585954D01*
X389406846Y-50583954D01*
X389407846Y-50580954D01*
X389407846Y-50578954D01*
X389408846Y-50575954D01*
X389409846Y-50573954D01*
X389410846Y-50570954D01*
X389412846Y-50568954D01*
X389413846Y-50566954D01*
X389415846Y-50564954D01*
X389416846Y-50562954D01*
X389418846Y-50560954D01*
X389420846Y-50558954D01*
X389422846Y-50556954D01*
X389424846Y-50554954D01*
X389426846Y-50553954D01*
X389428846Y-50551954D01*
X389430846Y-50550954D01*
X389432846Y-50548954D01*
X389435846Y-50547954D01*
X389437846Y-50546954D01*
X389440846Y-50545954D01*
X389442846Y-50545954D01*
X389445846Y-50544954D01*
X389447846Y-50544954D01*
X389450846Y-50543954D01*
X389452846Y-50543954D01*
X389455846Y-50543954D01*
X389755846Y-50543954D01*
X389758846Y-50543954D01*
X389760846Y-50543954D01*
X389763846Y-50544954D01*
G37*
G04 #@! TO.C,U404*
X369568000Y-109639500D02*
X368556000Y-109639500D01*
X368556000Y-109007500D01*
X369568000Y-109007500D01*
X369568000Y-109639500D01*
G36*
X369568000Y-109639500D02*
G01*
X368556000Y-109639500D01*
X368556000Y-109007500D01*
X369568000Y-109007500D01*
X369568000Y-109639500D01*
G37*
G04 #@! TO.C,D402*
X374511097Y-78610840D02*
X374011097Y-78610840D01*
X374011097Y-78210840D01*
X374511097Y-78210840D01*
X374511097Y-78610840D01*
G36*
X374511097Y-78610840D02*
G01*
X374011097Y-78610840D01*
X374011097Y-78210840D01*
X374511097Y-78210840D01*
X374511097Y-78610840D01*
G37*
X374511097Y-80010840D02*
X374011097Y-80010840D01*
X374011097Y-79610840D01*
X374511097Y-79610840D01*
X374511097Y-80010840D01*
G36*
X374511097Y-80010840D02*
G01*
X374011097Y-80010840D01*
X374011097Y-79610840D01*
X374511097Y-79610840D01*
X374511097Y-80010840D01*
G37*
G04 #@! TO.C,D401*
X395126315Y-109351404D02*
X394626315Y-109351404D01*
X394626315Y-108951404D01*
X395126315Y-108951404D01*
X395126315Y-109351404D01*
G36*
X395126315Y-109351404D02*
G01*
X394626315Y-109351404D01*
X394626315Y-108951404D01*
X395126315Y-108951404D01*
X395126315Y-109351404D01*
G37*
X395126315Y-110751404D02*
X394626315Y-110751404D01*
X394626315Y-110351404D01*
X395126315Y-110351404D01*
X395126315Y-110751404D01*
G36*
X395126315Y-110751404D02*
G01*
X394626315Y-110751404D01*
X394626315Y-110351404D01*
X395126315Y-110351404D01*
X395126315Y-110751404D01*
G37*
G04 #@! TD*
D11*
G04 #@! TO.C,D908*
X125182000Y-30292000D03*
X125182000Y-32192000D03*
X127802000Y-31242000D03*
G04 #@! TD*
G04 #@! TO.C,D907*
X149820000Y-26990000D03*
X149820000Y-28890000D03*
X152440000Y-27940000D03*
G04 #@! TD*
D12*
G04 #@! TO.C,D906*
X157012000Y-28890000D03*
X157012000Y-26990000D03*
X154392000Y-27940000D03*
G04 #@! TD*
G04 #@! TO.C,D905*
X134152000Y-32192000D03*
X134152000Y-30292000D03*
X131532000Y-31242000D03*
G04 #@! TD*
G04 #@! TO.C,D904*
X147106000Y-28890000D03*
X147106000Y-26990000D03*
X144486000Y-27940000D03*
G04 #@! TD*
D11*
G04 #@! TO.C,D903*
X107910000Y-30546000D03*
X107910000Y-32446000D03*
X110530000Y-31496000D03*
G04 #@! TD*
G04 #@! TO.C,D902*
X159472000Y-26990000D03*
X159472000Y-28890000D03*
X162092000Y-27940000D03*
G04 #@! TD*
D12*
G04 #@! TO.C,D901*
X117050000Y-32380000D03*
X117050000Y-30480000D03*
X114430000Y-31430000D03*
G04 #@! TD*
G04 #@! TO.C,D804*
X145328000Y-5522000D03*
X145328000Y-3622000D03*
X142708000Y-4572000D03*
G04 #@! TD*
D13*
G04 #@! TO.C,D803*
X132522000Y-11898000D03*
X130622000Y-11898000D03*
X131572000Y-14518000D03*
G04 #@! TD*
G04 #@! TO.C,D802*
X95819000Y-11898000D03*
X93919000Y-11898000D03*
X94869000Y-14518000D03*
G04 #@! TD*
D11*
G04 #@! TO.C,D801*
X88606000Y-5000000D03*
X88606000Y-6900000D03*
X91226000Y-5950000D03*
G04 #@! TD*
D14*
G04 #@! TO.C,R502*
X22272000Y-16256000D03*
X20447000Y-16256000D03*
G04 #@! TD*
D15*
G04 #@! TO.C,R1303*
X125349000Y-99104500D03*
X125349000Y-102029500D03*
G04 #@! TD*
D16*
G04 #@! TO.C,S201*
X379978000Y-3302000D03*
X379978000Y-1602000D03*
X385578000Y-3302000D03*
X385578000Y-1602000D03*
G04 #@! TD*
D17*
G04 #@! TO.C,R919*
X115189000Y-50141500D03*
X115189000Y-51966500D03*
G04 #@! TD*
G04 #@! TO.C,R209*
X359918000Y-60809500D03*
X359918000Y-62634500D03*
G04 #@! TD*
D18*
G04 #@! TO.C,R713*
X199009000Y-11665000D03*
X199009000Y-8655000D03*
G04 #@! TD*
D19*
G04 #@! TO.C,C414*
X363662000Y-118534587D03*
X361762000Y-118534587D03*
G04 #@! TD*
D14*
G04 #@! TO.C,R735*
X172290955Y-44170005D03*
X170465955Y-44170005D03*
G04 #@! TD*
G04 #@! TO.C,R720*
X202461500Y-30480000D03*
X200636500Y-30480000D03*
G04 #@! TD*
D20*
G04 #@! TO.C,D705*
X209572045Y-14000995D03*
X209572045Y-15900995D03*
X211692045Y-14950995D03*
G04 #@! TD*
D21*
G04 #@! TO.C,R805*
X99822000Y-13970000D03*
X105747000Y-13970000D03*
G04 #@! TD*
D17*
G04 #@! TO.C,R932*
X153543000Y-20931500D03*
X153543000Y-22756500D03*
G04 #@! TD*
D22*
G04 #@! TO.C,R415*
X373737500Y-83942340D03*
X375562500Y-83942340D03*
G04 #@! TD*
D17*
G04 #@! TO.C,R902*
X160401000Y-14732000D03*
X160401000Y-16557000D03*
G04 #@! TD*
D14*
G04 #@! TO.C,R721*
X195476500Y-20066000D03*
X193651500Y-20066000D03*
G04 #@! TD*
G04 #@! TO.C,R516*
X33730000Y-48562500D03*
X31905000Y-48562500D03*
G04 #@! TD*
D20*
G04 #@! TO.C,D713*
X175615000Y-14036000D03*
X175615000Y-15936000D03*
X177735000Y-14986000D03*
G04 #@! TD*
D23*
G04 #@! TO.C,R303*
X360179500Y-45183000D03*
X360179500Y-43533000D03*
G04 #@! TD*
D24*
G04 #@! TO.C,U1202*
X200132582Y-111506542D03*
X200132582Y-108966542D03*
X193832582Y-108966542D03*
X193832582Y-111506542D03*
G04 #@! TD*
D17*
G04 #@! TO.C,R933*
X127537282Y-35409500D03*
X127537282Y-37234500D03*
G04 #@! TD*
D25*
G04 #@! TO.C,U703*
X208854045Y-10058995D03*
X210886045Y-10058995D03*
X209870045Y-8026995D03*
G04 #@! TD*
D26*
G04 #@! TO.C,R1206*
X205547500Y-106093500D03*
X208472500Y-106093500D03*
G04 #@! TD*
D17*
G04 #@! TO.C,R602*
X254830500Y-14232500D03*
X254830500Y-16057500D03*
G04 #@! TD*
D27*
G04 #@! TO.C,C1008*
X151049820Y-62611000D03*
X152949820Y-62611000D03*
G04 #@! TD*
D25*
G04 #@! TO.C,U701*
X225930111Y-9271000D03*
X227962111Y-9271000D03*
X226946111Y-7239000D03*
G04 #@! TD*
D12*
G04 #@! TO.C,D503*
X32814500Y-22842500D03*
X32814500Y-20942500D03*
X30194500Y-21892500D03*
G04 #@! TD*
D19*
G04 #@! TO.C,C205*
X385601129Y-8103363D03*
X383701129Y-8103363D03*
G04 #@! TD*
D14*
G04 #@! TO.C,R1012*
X91948000Y-27686000D03*
X90123000Y-27686000D03*
G04 #@! TD*
D28*
G04 #@! TO.C,C1002*
X239776000Y-18100000D03*
X239776000Y-20000000D03*
G04 #@! TD*
D12*
G04 #@! TO.C,D602*
X249849000Y-26604000D03*
X249849000Y-24704000D03*
X247229000Y-25654000D03*
G04 #@! TD*
D28*
G04 #@! TO.C,C901*
X161671000Y-43192157D03*
X161671000Y-45092157D03*
G04 #@! TD*
D22*
G04 #@! TO.C,R203*
X341583000Y-79248000D03*
X343408000Y-79248000D03*
G04 #@! TD*
D19*
G04 #@! TO.C,C506*
X21702500Y-50848500D03*
X19802500Y-50848500D03*
G04 #@! TD*
D14*
G04 #@! TO.C,R738*
X169205500Y-29972000D03*
X167380500Y-29972000D03*
G04 #@! TD*
D17*
G04 #@! TO.C,R1002*
X242697000Y-18137500D03*
X242697000Y-19962500D03*
G04 #@! TD*
D29*
G04 #@! TO.C,D712*
X184060455Y-51949005D03*
X184060455Y-55949005D03*
G04 #@! TD*
D22*
G04 #@! TO.C,R1101*
X131962500Y-101538500D03*
X133787500Y-101538500D03*
G04 #@! TD*
D19*
G04 #@! TO.C,C412*
X375577319Y-88254840D03*
X373677319Y-88254840D03*
G04 #@! TD*
D17*
G04 #@! TO.C,R1105*
X141224000Y-85081000D03*
X141224000Y-86906000D03*
G04 #@! TD*
D30*
G04 #@! TO.C,D1201*
X175006000Y-96536500D03*
X175006000Y-92536500D03*
G04 #@! TD*
D14*
G04 #@! TO.C,R1302*
X98956500Y-120777000D03*
X97131500Y-120777000D03*
G04 #@! TD*
D31*
G04 #@! TO.C,L302*
X370289000Y-23126000D03*
X367489000Y-23126000D03*
G04 #@! TD*
D29*
G04 #@! TO.C,D702*
X221612111Y-11335000D03*
X221612111Y-15335000D03*
G04 #@! TD*
D14*
G04 #@! TO.C,R739*
X225298000Y-20066000D03*
X223473000Y-20066000D03*
G04 #@! TD*
D25*
G04 #@! TO.C,U705*
X191897000Y-10033000D03*
X193929000Y-10033000D03*
X192913000Y-8001000D03*
G04 #@! TD*
D32*
G04 #@! TO.C,R826*
X95250000Y-40028500D03*
X95250000Y-38203500D03*
G04 #@! TD*
D22*
G04 #@! TO.C,R1106*
X143708000Y-101538500D03*
X145533000Y-101538500D03*
G04 #@! TD*
D17*
G04 #@! TO.C,R606*
X248158000Y-14200500D03*
X248158000Y-16025500D03*
G04 #@! TD*
D14*
G04 #@! TO.C,R302*
X350670500Y-11176000D03*
X348845500Y-11176000D03*
G04 #@! TD*
D17*
G04 #@! TO.C,R737*
X166370000Y-52173500D03*
X166370000Y-53998500D03*
G04 #@! TD*
D20*
G04 #@! TO.C,D703*
X226431566Y-47919005D03*
X226431566Y-49819005D03*
X228551566Y-48869005D03*
G04 #@! TD*
D17*
G04 #@! TO.C,R618*
X270891000Y-14232500D03*
X270891000Y-16057500D03*
G04 #@! TD*
D32*
G04 #@! TO.C,R1205*
X200152000Y-116912000D03*
X200152000Y-115087000D03*
G04 #@! TD*
D19*
G04 #@! TO.C,C1004*
X130744000Y-54483000D03*
X128844000Y-54483000D03*
G04 #@! TD*
D29*
G04 #@! TO.C,D708*
X201017500Y-51467000D03*
X201017500Y-55467000D03*
G04 #@! TD*
D11*
G04 #@! TO.C,D601*
X253019500Y-24909500D03*
X253019500Y-26809500D03*
X255639500Y-25859500D03*
G04 #@! TD*
D33*
G04 #@! TO.C,C501*
X24181500Y-35240000D03*
X24181500Y-33340000D03*
G04 #@! TD*
D32*
G04 #@! TO.C,R422*
X334536750Y-13866500D03*
X334536750Y-12041500D03*
G04 #@! TD*
D14*
G04 #@! TO.C,R419*
X366164500Y-83942340D03*
X364339500Y-83942340D03*
G04 #@! TD*
D28*
G04 #@! TO.C,C502*
X28753500Y-41976000D03*
X28753500Y-43876000D03*
G04 #@! TD*
D19*
G04 #@! TO.C,C606*
X255204000Y-57531000D03*
X253304000Y-57531000D03*
G04 #@! TD*
D14*
G04 #@! TO.C,R1003*
X80922500Y-30988000D03*
X79097500Y-30988000D03*
G04 #@! TD*
D22*
G04 #@! TO.C,R928*
X149328500Y-50673000D03*
X151153500Y-50673000D03*
G04 #@! TD*
D34*
G04 #@! TO.C,C201*
X342138000Y-48719000D03*
X342138000Y-45769000D03*
G04 #@! TD*
D22*
G04 #@! TO.C,R604*
X262104500Y-44069000D03*
X263929500Y-44069000D03*
G04 #@! TD*
D35*
G04 #@! TO.C,D302*
X350742000Y-7366000D03*
X346742000Y-7366000D03*
G04 #@! TD*
D36*
G04 #@! TO.C,R501*
X34280000Y-40894000D03*
X31355000Y-40894000D03*
G04 #@! TD*
D33*
G04 #@! TO.C,C804*
X62103000Y-27427000D03*
X62103000Y-25527000D03*
G04 #@! TD*
D37*
G04 #@! TO.C,C802*
X89154000Y-9701000D03*
X89154000Y-12651000D03*
G04 #@! TD*
D17*
G04 #@! TO.C,R909*
X110363000Y-24888782D03*
X110363000Y-26713782D03*
G04 #@! TD*
D32*
G04 #@! TO.C,R411*
X388112000Y-115151924D03*
X388112000Y-113326924D03*
G04 #@! TD*
D36*
G04 #@! TO.C,R702*
X180786500Y-60452000D03*
X177861500Y-60452000D03*
G04 #@! TD*
D28*
G04 #@! TO.C,C909*
X127635000Y-45548000D03*
X127635000Y-47448000D03*
G04 #@! TD*
D17*
G04 #@! TO.C,R1110*
X149000000Y-114087500D03*
X149000000Y-115912500D03*
G04 #@! TD*
G04 #@! TO.C,R901*
X114681000Y-24888782D03*
X114681000Y-26713782D03*
G04 #@! TD*
D38*
G04 #@! TO.C,C306*
X353242000Y-35214000D03*
X353242000Y-33664000D03*
G04 #@! TD*
D37*
G04 #@! TO.C,C407*
X380953428Y-60154954D03*
X380953428Y-63104954D03*
G04 #@! TD*
D36*
G04 #@! TO.C,R601*
X268821000Y-45339000D03*
X265896000Y-45339000D03*
G04 #@! TD*
D39*
G04 #@! TO.C,Q703*
X203769000Y-20144500D03*
X201869000Y-20144500D03*
X202819000Y-22019500D03*
G04 #@! TD*
D32*
G04 #@! TO.C,R406*
X379431846Y-53954346D03*
X379431846Y-52129346D03*
G04 #@! TD*
D33*
G04 #@! TO.C,C911*
X148043997Y-41209000D03*
X148043997Y-39309000D03*
G04 #@! TD*
D14*
G04 #@! TO.C,R705*
X221596486Y-7620959D03*
X219771486Y-7620959D03*
G04 #@! TD*
D33*
G04 #@! TO.C,C803*
X59055000Y-27493000D03*
X59055000Y-25593000D03*
G04 #@! TD*
D17*
G04 #@! TO.C,R925*
X157099000Y-33123500D03*
X157099000Y-34948500D03*
G04 #@! TD*
D14*
G04 #@! TO.C,R609*
X263699000Y-40005000D03*
X261874000Y-40005000D03*
G04 #@! TD*
D40*
G04 #@! TO.C,U1201*
X188341000Y-100862500D03*
X188341000Y-100362500D03*
X188341000Y-99862500D03*
X188341000Y-99362500D03*
X186871000Y-99362500D03*
X186871000Y-99862500D03*
X186871000Y-100362500D03*
X186871000Y-100862500D03*
G04 #@! TD*
D14*
G04 #@! TO.C,R1004*
X246149500Y-2413000D03*
X244324500Y-2413000D03*
G04 #@! TD*
D41*
G04 #@! TO.C,U401*
X387255846Y-51493954D03*
X387255846Y-51993954D03*
X387255846Y-52493954D03*
X387255846Y-52993954D03*
D42*
X387725846Y-53643954D03*
X389525846Y-53643954D03*
X387725846Y-50843954D03*
G04 #@! TD*
D18*
G04 #@! TO.C,R718*
X201017500Y-47352000D03*
X201017500Y-44342000D03*
G04 #@! TD*
D43*
G04 #@! TO.C,U301*
X357501000Y-14820200D03*
X356231000Y-14820200D03*
X354961000Y-14820200D03*
X353691000Y-14820200D03*
X353691000Y-19747800D03*
X354961000Y-19747800D03*
X356231000Y-19747800D03*
X357501000Y-19747800D03*
G04 #@! TD*
D44*
G04 #@! TO.C,U1301*
X119750000Y-99008500D03*
X119100000Y-99008500D03*
X118450000Y-99008500D03*
X117800000Y-99008500D03*
X117150000Y-99008500D03*
X116500000Y-99008500D03*
X115850000Y-99008500D03*
X115200000Y-99008500D03*
X115200000Y-104748500D03*
X115850000Y-104748500D03*
X116500000Y-104748500D03*
X117150000Y-104748500D03*
X117800000Y-104748500D03*
X118450000Y-104748500D03*
X119100000Y-104748500D03*
X119750000Y-104748500D03*
G04 #@! TD*
D17*
G04 #@! TO.C,R924*
X131855282Y-35409500D03*
X131855282Y-37234500D03*
G04 #@! TD*
D45*
G04 #@! TO.C,L402*
X375920000Y-73292000D03*
X375920000Y-75692000D03*
G04 #@! TD*
D22*
G04 #@! TO.C,R903*
X118885794Y-34036000D03*
X120710794Y-34036000D03*
G04 #@! TD*
D46*
G04 #@! TO.C,U404*
X368412000Y-110348500D03*
X369062000Y-110348500D03*
X369712000Y-110348500D03*
X369712000Y-108298500D03*
X369062000Y-108298500D03*
X368412000Y-108298500D03*
G04 #@! TD*
D28*
G04 #@! TO.C,C907*
X146011997Y-43192157D03*
X146011997Y-45092157D03*
G04 #@! TD*
D22*
G04 #@! TO.C,R723*
X185015500Y-25654000D03*
X186840500Y-25654000D03*
G04 #@! TD*
D17*
G04 #@! TO.C,R503*
X20863500Y-33345000D03*
X20863500Y-35170000D03*
G04 #@! TD*
D38*
G04 #@! TO.C,C307*
X350702000Y-35214000D03*
X350702000Y-33664000D03*
G04 #@! TD*
D32*
G04 #@! TO.C,R204*
X337415500Y-88542500D03*
X337415500Y-86717500D03*
G04 #@! TD*
D47*
G04 #@! TO.C,F801*
X106327000Y-3810000D03*
X104747000Y-3810000D03*
G04 #@! TD*
D17*
G04 #@! TO.C,R1109*
X132000000Y-114087500D03*
X132000000Y-115912500D03*
G04 #@! TD*
D37*
G04 #@! TO.C,C301*
X373207000Y-24699000D03*
X373207000Y-27649000D03*
G04 #@! TD*
D22*
G04 #@! TO.C,R508*
X17681000Y-38354000D03*
X19506000Y-38354000D03*
G04 #@! TD*
D48*
G04 #@! TO.C,C1201*
X185723000Y-103934500D03*
X188673000Y-103934500D03*
G04 #@! TD*
D49*
G04 #@! TO.C,U903*
X118881000Y-42942000D03*
X118881000Y-43442000D03*
X118881000Y-43942000D03*
X118881000Y-44442000D03*
X118881000Y-44942000D03*
X123181000Y-44942000D03*
X123181000Y-44442000D03*
X123181000Y-43942000D03*
X123181000Y-43442000D03*
X123181000Y-42942000D03*
G04 #@! TD*
D17*
G04 #@! TO.C,R407*
X376383846Y-52129346D03*
X376383846Y-53954346D03*
G04 #@! TD*
D22*
G04 #@! TO.C,R904*
X155170500Y-47371000D03*
X156995500Y-47371000D03*
G04 #@! TD*
D17*
G04 #@! TO.C,R1104*
X146050000Y-85081000D03*
X146050000Y-86906000D03*
G04 #@! TD*
D14*
G04 #@! TO.C,R726*
X189290955Y-44297005D03*
X187465955Y-44297005D03*
G04 #@! TD*
D28*
G04 #@! TO.C,C906*
X114681000Y-45770000D03*
X114681000Y-47670000D03*
G04 #@! TD*
D14*
G04 #@! TO.C,R827*
X130198500Y-9525000D03*
X128373500Y-9525000D03*
G04 #@! TD*
D32*
G04 #@! TO.C,R808*
X66929000Y-45212000D03*
X66929000Y-43387000D03*
G04 #@! TD*
D17*
G04 #@! TO.C,R813*
X51816000Y-28170500D03*
X51816000Y-29995500D03*
G04 #@! TD*
D14*
G04 #@! TO.C,R1203*
X192833000Y-128524000D03*
X191008000Y-128524000D03*
G04 #@! TD*
D17*
G04 #@! TO.C,R908*
X160401000Y-20931500D03*
X160401000Y-22756500D03*
G04 #@! TD*
D34*
G04 #@! TO.C,C1101*
X136652000Y-89359000D03*
X136652000Y-86409000D03*
G04 #@! TD*
D14*
G04 #@! TO.C,R734*
X177370955Y-44170005D03*
X175545955Y-44170005D03*
G04 #@! TD*
G04 #@! TO.C,R1108*
X144112500Y-115142000D03*
X142287500Y-115142000D03*
G04 #@! TD*
D27*
G04 #@! TO.C,C1003*
X83505000Y-34163000D03*
X85405000Y-34163000D03*
G04 #@! TD*
G04 #@! TO.C,C1006*
X244287000Y-8763000D03*
X246187000Y-8763000D03*
G04 #@! TD*
D50*
G04 #@! TO.C,U303*
X359664000Y-35396000D03*
X361044000Y-35396000D03*
X359664000Y-34016000D03*
X361044000Y-34016000D03*
D51*
X359104000Y-36681000D03*
X359604000Y-36681000D03*
X360104000Y-36681000D03*
X360604000Y-36681000D03*
X361104000Y-36681000D03*
X361604000Y-36681000D03*
D52*
X362329000Y-35956000D03*
X362329000Y-35456000D03*
X362329000Y-34956000D03*
X362329000Y-34456000D03*
X362329000Y-33956000D03*
X362329000Y-33456000D03*
D51*
X361604000Y-32731000D03*
X361104000Y-32731000D03*
X360604000Y-32731000D03*
X360104000Y-32731000D03*
X359604000Y-32731000D03*
X359104000Y-32731000D03*
D52*
X358379000Y-33456000D03*
X358379000Y-33956000D03*
X358379000Y-34456000D03*
X358379000Y-34956000D03*
X358379000Y-35456000D03*
X358379000Y-35956000D03*
G04 #@! TD*
D34*
G04 #@! TO.C,C807*
X137668000Y-14937000D03*
X137668000Y-11987000D03*
G04 #@! TD*
D17*
G04 #@! TO.C,R905*
X114681000Y-36171500D03*
X114681000Y-37996500D03*
G04 #@! TD*
D34*
G04 #@! TO.C,C202*
X337312000Y-48752275D03*
X337312000Y-45802275D03*
G04 #@! TD*
D33*
G04 #@! TO.C,C419*
X344932000Y-13904000D03*
X344932000Y-12004000D03*
G04 #@! TD*
D53*
G04 #@! TO.C,Q704*
X202235389Y-34626000D03*
X202235389Y-32726000D03*
X200360389Y-33676000D03*
G04 #@! TD*
D36*
G04 #@! TO.C,R707*
X177858242Y-64555100D03*
X174933242Y-64555100D03*
G04 #@! TD*
D14*
G04 #@! TO.C,R712*
X212645000Y-20066000D03*
X210820000Y-20066000D03*
G04 #@! TD*
G04 #@! TO.C,R504*
X17549500Y-16256000D03*
X15724500Y-16256000D03*
G04 #@! TD*
D19*
G04 #@! TO.C,C503*
X19543500Y-41958500D03*
X17643500Y-41958500D03*
G04 #@! TD*
D27*
G04 #@! TO.C,C406*
X382439500Y-49944945D03*
X384339500Y-49944945D03*
G04 #@! TD*
D54*
G04 #@! TO.C,R307*
X355607500Y-43533000D03*
X355607500Y-45183000D03*
G04 #@! TD*
D22*
G04 #@! TO.C,R517*
X30353000Y-16256000D03*
X32178000Y-16256000D03*
G04 #@! TD*
G04 #@! TO.C,R613*
X261874000Y-36703000D03*
X263699000Y-36703000D03*
G04 #@! TD*
D39*
G04 #@! TO.C,Q301*
X370960000Y-39606500D03*
X369060000Y-39606500D03*
X370010000Y-41481500D03*
G04 #@! TD*
D22*
G04 #@! TO.C,R732*
X167634500Y-25654000D03*
X169459500Y-25654000D03*
G04 #@! TD*
D14*
G04 #@! TO.C,R701*
X229616000Y-20066000D03*
X227791000Y-20066000D03*
G04 #@! TD*
D32*
G04 #@! TO.C,R922*
X110617000Y-51966500D03*
X110617000Y-50141500D03*
G04 #@! TD*
D29*
G04 #@! TO.C,D805*
X95250000Y-44990000D03*
X95250000Y-48990000D03*
G04 #@! TD*
D17*
G04 #@! TO.C,R1013*
X239649000Y-2389500D03*
X239649000Y-4214500D03*
G04 #@! TD*
G04 #@! TO.C,R207*
X337415500Y-81383500D03*
X337415500Y-83208500D03*
G04 #@! TD*
D55*
G04 #@! TO.C,R818*
X138598500Y-2794000D03*
X132673500Y-2794000D03*
G04 #@! TD*
D56*
G04 #@! TO.C,L1201*
X175006000Y-111503500D03*
X175006000Y-114653500D03*
G04 #@! TD*
D30*
G04 #@! TO.C,D1202*
X180975000Y-96409500D03*
X180975000Y-92409500D03*
G04 #@! TD*
D14*
G04 #@! TO.C,R804*
X84375000Y-5588000D03*
X82550000Y-5588000D03*
G04 #@! TD*
D20*
G04 #@! TO.C,D701*
X226648111Y-13655000D03*
X226648111Y-15555000D03*
X228768111Y-14605000D03*
G04 #@! TD*
D22*
G04 #@! TO.C,R512*
X8763000Y-16256000D03*
X10588000Y-16256000D03*
G04 #@! TD*
D32*
G04 #@! TO.C,R423*
X339852000Y-13866500D03*
X339852000Y-12041500D03*
G04 #@! TD*
D25*
G04 #@! TO.C,U702*
X226475566Y-55727005D03*
X228507566Y-55727005D03*
X227491566Y-53695005D03*
G04 #@! TD*
D17*
G04 #@! TO.C,R920*
X132207000Y-24892000D03*
X132207000Y-26717000D03*
G04 #@! TD*
D54*
G04 #@! TO.C,R314*
X365005500Y-48613000D03*
X365005500Y-50263000D03*
G04 #@! TD*
D33*
G04 #@! TO.C,C806*
X67696622Y-35875000D03*
X67696622Y-33975000D03*
G04 #@! TD*
D57*
G04 #@! TO.C,U403*
X370575000Y-77470000D03*
X370575000Y-76520000D03*
X370575000Y-75570000D03*
X368300000Y-75570000D03*
X368300000Y-77470000D03*
G04 #@! TD*
D14*
G04 #@! TO.C,R729*
X185567611Y-30713000D03*
X183742611Y-30713000D03*
G04 #@! TD*
D54*
G04 #@! TO.C,R311*
X355607500Y-48613000D03*
X355607500Y-50263000D03*
G04 #@! TD*
D32*
G04 #@! TO.C,R728*
X188505455Y-56258505D03*
X188505455Y-54433505D03*
G04 #@! TD*
D20*
G04 #@! TO.C,D707*
X209355500Y-47691000D03*
X209355500Y-49591000D03*
X211475500Y-48641000D03*
G04 #@! TD*
D14*
G04 #@! TO.C,R730*
X178308000Y-20320000D03*
X176483000Y-20320000D03*
G04 #@! TD*
D17*
G04 #@! TO.C,R201*
X300482000Y-123801500D03*
X300482000Y-125626500D03*
G04 #@! TD*
D29*
G04 #@! TO.C,D704*
X218601566Y-51441005D03*
X218601566Y-55441005D03*
G04 #@! TD*
D58*
G04 #@! TO.C,C402*
X389382000Y-33020000D03*
X386432000Y-33020000D03*
G04 #@! TD*
D48*
G04 #@! TO.C,C413*
X377239000Y-80380840D03*
X380189000Y-80380840D03*
G04 #@! TD*
D59*
G04 #@! TO.C,R731*
X166515000Y-11703000D03*
X166515000Y-14713000D03*
G04 #@! TD*
D33*
G04 #@! TO.C,C1302*
X112395000Y-95105500D03*
X112395000Y-93205500D03*
G04 #@! TD*
D32*
G04 #@! TO.C,R416*
X366522000Y-118500000D03*
X366522000Y-116675000D03*
G04 #@! TD*
D28*
G04 #@! TO.C,C203*
X350911413Y-83267776D03*
X350911413Y-85167776D03*
G04 #@! TD*
D20*
G04 #@! TO.C,D715*
X175398455Y-48344005D03*
X175398455Y-50244005D03*
X177518455Y-49294005D03*
G04 #@! TD*
D28*
G04 #@! TO.C,C1304*
X115697000Y-93332500D03*
X115697000Y-95232500D03*
G04 #@! TD*
D18*
G04 #@! TO.C,R736*
X167060455Y-47199005D03*
X167060455Y-44189005D03*
G04 #@! TD*
D60*
G04 #@! TO.C,C308*
X355287000Y-38516000D03*
X353737000Y-38516000D03*
G04 #@! TD*
D61*
G04 #@! TO.C,U203*
X351290000Y-65495811D03*
X351290000Y-66145811D03*
X351290000Y-66795811D03*
X351290000Y-67445811D03*
X354830000Y-67445811D03*
X354830000Y-66795811D03*
X354830000Y-66145811D03*
X354830000Y-65495811D03*
G04 #@! TD*
D14*
G04 #@! TO.C,R717*
X206248000Y-43815000D03*
X204423000Y-43815000D03*
G04 #@! TD*
D32*
G04 #@! TO.C,R913*
X106049434Y-26713782D03*
X106049434Y-24888782D03*
G04 #@! TD*
D17*
G04 #@! TO.C,R916*
X149098000Y-20931500D03*
X149098000Y-22756500D03*
G04 #@! TD*
D22*
G04 #@! TO.C,R1301*
X107545500Y-120777000D03*
X109370500Y-120777000D03*
G04 #@! TD*
D14*
G04 #@! TO.C,R1009*
X153058500Y-56769000D03*
X151233500Y-56769000D03*
G04 #@! TD*
D55*
G04 #@! TO.C,R817*
X127930500Y-14478000D03*
X122005500Y-14478000D03*
G04 #@! TD*
D33*
G04 #@! TO.C,C601*
X258722500Y-39685000D03*
X258722500Y-37785000D03*
G04 #@! TD*
D39*
G04 #@! TO.C,Q707*
X169479000Y-20144500D03*
X167579000Y-20144500D03*
X168529000Y-22019500D03*
G04 #@! TD*
D17*
G04 #@! TO.C,R931*
X152214894Y-33108926D03*
X152214894Y-34933926D03*
G04 #@! TD*
D62*
G04 #@! TO.C,R402*
X371856000Y-60136500D03*
X371856000Y-57211500D03*
G04 #@! TD*
D17*
G04 #@! TO.C,R614*
X262890000Y-14232500D03*
X262890000Y-16057500D03*
G04 #@! TD*
D32*
G04 #@! TO.C,R934*
X123579988Y-26713782D03*
X123579988Y-24888782D03*
G04 #@! TD*
D14*
G04 #@! TO.C,R509*
X29158000Y-35560000D03*
X27333000Y-35560000D03*
G04 #@! TD*
G04 #@! TO.C,R404*
X384302000Y-52992945D03*
X382477000Y-52992945D03*
G04 #@! TD*
D43*
G04 #@! TO.C,U802*
X85598000Y-9906000D03*
X84328000Y-9906000D03*
X83058000Y-9906000D03*
X81788000Y-9906000D03*
X81788000Y-14833600D03*
X83058000Y-14833600D03*
X84328000Y-14833600D03*
X85598000Y-14833600D03*
G04 #@! TD*
D17*
G04 #@! TO.C,R930*
X127889000Y-24892000D03*
X127889000Y-26717000D03*
G04 #@! TD*
D58*
G04 #@! TO.C,C403*
X389382000Y-36576000D03*
X386432000Y-36576000D03*
G04 #@! TD*
D14*
G04 #@! TO.C,R741*
X190904500Y-20066000D03*
X189079500Y-20066000D03*
G04 #@! TD*
D39*
G04 #@! TO.C,Q701*
X220816111Y-20144500D03*
X218916111Y-20144500D03*
X219866111Y-22019500D03*
G04 #@! TD*
D17*
G04 #@! TO.C,R1102*
X132313616Y-85081000D03*
X132313616Y-86906000D03*
G04 #@! TD*
D19*
G04 #@! TO.C,C417*
X368724750Y-105132500D03*
X366824750Y-105132500D03*
G04 #@! TD*
D33*
G04 #@! TO.C,C902*
X114681000Y-43860000D03*
X114681000Y-41960000D03*
G04 #@! TD*
D17*
G04 #@! TO.C,R421*
X362458000Y-112611000D03*
X362458000Y-114436000D03*
G04 #@! TD*
D19*
G04 #@! TO.C,C401*
X390973846Y-56089846D03*
X389073846Y-56089846D03*
G04 #@! TD*
D14*
G04 #@! TO.C,R615*
X263699000Y-33401000D03*
X261874000Y-33401000D03*
G04 #@! TD*
D63*
G04 #@! TO.C,D1301*
X120555000Y-113205500D03*
X124555000Y-113205500D03*
G04 #@! TD*
D22*
G04 #@! TO.C,R714*
X201652500Y-25654000D03*
X203477500Y-25654000D03*
G04 #@! TD*
D27*
G04 #@! TO.C,C1009*
X151196000Y-59817000D03*
X153096000Y-59817000D03*
G04 #@! TD*
D37*
G04 #@! TO.C,C415*
X376052657Y-108558645D03*
X376052657Y-111508645D03*
G04 #@! TD*
D64*
G04 #@! TO.C,J301*
X368452000Y-6250000D03*
X367652000Y-6250000D03*
D65*
X366502000Y-6250000D03*
X365502000Y-6250000D03*
X365002000Y-6250000D03*
X364002000Y-6250000D03*
D64*
X362052000Y-6250000D03*
X362852000Y-6250000D03*
D65*
X363502000Y-6250000D03*
X364502000Y-6250000D03*
X366002000Y-6250000D03*
X367002000Y-6250000D03*
G04 #@! TD*
D66*
G04 #@! TO.C,U502*
X25689500Y-40776000D03*
X25189500Y-40776000D03*
X24689500Y-40776000D03*
X24189500Y-40776000D03*
X23689500Y-40776000D03*
X23689500Y-45076000D03*
X24189500Y-45076000D03*
X24689500Y-45076000D03*
X25189500Y-45076000D03*
X25689500Y-45076000D03*
G04 #@! TD*
D28*
G04 #@! TO.C,C204*
X359951913Y-65464513D03*
X359951913Y-67364513D03*
G04 #@! TD*
D22*
G04 #@! TO.C,R801*
X50903500Y-34290000D03*
X52728500Y-34290000D03*
G04 #@! TD*
G04 #@! TO.C,R514*
X26035000Y-16256000D03*
X27860000Y-16256000D03*
G04 #@! TD*
D18*
G04 #@! TO.C,R709*
X218601566Y-47834005D03*
X218601566Y-44824005D03*
G04 #@! TD*
D67*
G04 #@! TO.C,F1202*
X180594000Y-102944500D03*
X180594000Y-105744500D03*
G04 #@! TD*
D22*
G04 #@! TO.C,R608*
X252222000Y-42799000D03*
X254047000Y-42799000D03*
G04 #@! TD*
D17*
G04 #@! TO.C,R1005*
X244475000Y-14073500D03*
X244475000Y-15898500D03*
G04 #@! TD*
D68*
G04 #@! TO.C,U302*
X374521000Y-7096000D03*
X374521000Y-6596000D03*
X374521000Y-6096000D03*
X374521000Y-5596000D03*
X374521000Y-5096000D03*
X373751000Y-5096000D03*
X373751000Y-5596000D03*
X373751000Y-6096000D03*
X373751000Y-6596000D03*
X373751000Y-7096000D03*
G04 #@! TD*
D22*
G04 #@! TO.C,R210*
X378309500Y-35306000D03*
X380134500Y-35306000D03*
G04 #@! TD*
D17*
G04 #@! TO.C,R910*
X149987000Y-14939000D03*
X149987000Y-16764000D03*
G04 #@! TD*
D69*
G04 #@! TO.C,R306*
X365375000Y-33178000D03*
X367025000Y-33178000D03*
G04 #@! TD*
D32*
G04 #@! TO.C,R809*
X63881000Y-45212000D03*
X63881000Y-43387000D03*
G04 #@! TD*
D14*
G04 #@! TO.C,R802*
X101115500Y-7874000D03*
X99290500Y-7874000D03*
G04 #@! TD*
G04 #@! TO.C,R706*
X228404066Y-43789005D03*
X226579066Y-43789005D03*
G04 #@! TD*
G04 #@! TO.C,R202*
X347726000Y-79248000D03*
X345901000Y-79248000D03*
G04 #@! TD*
D43*
G04 #@! TO.C,U804*
X141732000Y-16941800D03*
X143002000Y-16941800D03*
X144272000Y-16941800D03*
X145542000Y-16941800D03*
X145542000Y-12014200D03*
X144272000Y-12014200D03*
X143002000Y-12014200D03*
X141732000Y-12014200D03*
G04 #@! TD*
D28*
G04 #@! TO.C,C1305*
X118999000Y-93393500D03*
X118999000Y-95293500D03*
G04 #@! TD*
D22*
G04 #@! TO.C,R513*
X27333000Y-32258000D03*
X29158000Y-32258000D03*
G04 #@! TD*
D62*
G04 #@! TO.C,R403*
X366776000Y-60198000D03*
X366776000Y-57273000D03*
G04 #@! TD*
D70*
G04 #@! TO.C,F804*
X128496000Y-3556000D03*
X130076000Y-3556000D03*
G04 #@! TD*
D17*
G04 #@! TO.C,R906*
X161925000Y-33123500D03*
X161925000Y-34948500D03*
G04 #@! TD*
D48*
G04 #@! TO.C,C410*
X391700000Y-73072500D03*
X394650000Y-73072500D03*
G04 #@! TD*
D71*
G04 #@! TO.C,U1101*
X137653000Y-95496000D03*
X138303000Y-95496000D03*
X138953000Y-95496000D03*
X139603000Y-95496000D03*
X139603000Y-91956000D03*
X138953000Y-91956000D03*
X138303000Y-91956000D03*
X137653000Y-91956000D03*
G04 #@! TD*
D19*
G04 #@! TO.C,C605*
X255204000Y-54229000D03*
X253304000Y-54229000D03*
G04 #@! TD*
D20*
G04 #@! TO.C,D711*
X192398455Y-48173005D03*
X192398455Y-50073005D03*
X194518455Y-49123005D03*
G04 #@! TD*
D22*
G04 #@! TO.C,R305*
X368081500Y-44608000D03*
X369906500Y-44608000D03*
G04 #@! TD*
D17*
G04 #@! TO.C,R301*
X345952000Y-2123500D03*
X345952000Y-3948500D03*
G04 #@! TD*
D33*
G04 #@! TO.C,C912*
X127635000Y-43572000D03*
X127635000Y-41672000D03*
G04 #@! TD*
D14*
G04 #@! TO.C,R823*
X130325500Y-6604000D03*
X128500500Y-6604000D03*
G04 #@! TD*
D56*
G04 #@! TO.C,L1202*
X180594000Y-111503500D03*
X180594000Y-114653500D03*
G04 #@! TD*
D25*
G04 #@! TO.C,U708*
X175442455Y-56362005D03*
X177474455Y-56362005D03*
X176458455Y-54330005D03*
G04 #@! TD*
D32*
G04 #@! TO.C,R810*
X60833000Y-45212000D03*
X60833000Y-43387000D03*
G04 #@! TD*
D47*
G04 #@! TO.C,F802*
X110391000Y-14478000D03*
X108811000Y-14478000D03*
G04 #@! TD*
D22*
G04 #@! TO.C,R1107*
X137080500Y-115142000D03*
X138905500Y-115142000D03*
G04 #@! TD*
G04 #@! TO.C,R815*
X76049500Y-9144000D03*
X77874500Y-9144000D03*
G04 #@! TD*
D14*
G04 #@! TO.C,R205*
X356004500Y-60452000D03*
X354179500Y-60452000D03*
G04 #@! TD*
D20*
G04 #@! TO.C,D709*
X192615000Y-14163000D03*
X192615000Y-16063000D03*
X194735000Y-15113000D03*
G04 #@! TD*
D25*
G04 #@! TO.C,U707*
X174897000Y-10160000D03*
X176929000Y-10160000D03*
X175913000Y-8128000D03*
G04 #@! TD*
D11*
G04 #@! TO.C,D504*
X37321500Y-21069500D03*
X37321500Y-22969500D03*
X39941500Y-22019500D03*
G04 #@! TD*
D32*
G04 #@! TO.C,R715*
X204622363Y-8034086D03*
X204622363Y-6209086D03*
G04 #@! TD*
D19*
G04 #@! TO.C,C905*
X121727000Y-38608000D03*
X119827000Y-38608000D03*
G04 #@! TD*
D17*
G04 #@! TO.C,R927*
X156845000Y-20931500D03*
X156845000Y-22756500D03*
G04 #@! TD*
D58*
G04 #@! TO.C,C404*
X389382000Y-40132000D03*
X386432000Y-40132000D03*
G04 #@! TD*
D17*
G04 #@! TO.C,R420*
X370586000Y-112475000D03*
X370586000Y-114300000D03*
G04 #@! TD*
D54*
G04 #@! TO.C,R312*
X357893500Y-48550000D03*
X357893500Y-50200000D03*
G04 #@! TD*
D14*
G04 #@! TO.C,R708*
X223474458Y-43769153D03*
X221649458Y-43769153D03*
G04 #@! TD*
D53*
G04 #@! TO.C,Q706*
X185341500Y-34859000D03*
X185341500Y-32959000D03*
X183466500Y-33909000D03*
G04 #@! TD*
D14*
G04 #@! TO.C,R814*
X77874500Y-13462000D03*
X76049500Y-13462000D03*
G04 #@! TD*
D29*
G04 #@! TO.C,D716*
X161544000Y-51848000D03*
X161544000Y-55848000D03*
G04 #@! TD*
D17*
G04 #@! TO.C,R911*
X110363000Y-36171500D03*
X110363000Y-37996500D03*
G04 #@! TD*
D72*
G04 #@! TO.C,VR401*
X396254000Y-76496000D03*
X393954000Y-76496000D03*
X391654000Y-76496000D03*
D73*
X393954000Y-82296000D03*
G04 #@! TD*
D26*
G04 #@! TO.C,R424*
X386605346Y-46945846D03*
X389530346Y-46945846D03*
G04 #@! TD*
D70*
G04 #@! TO.C,F803*
X117828000Y-14478000D03*
X119408000Y-14478000D03*
G04 #@! TD*
D14*
G04 #@! TO.C,R716*
X211328000Y-43815000D03*
X209503000Y-43815000D03*
G04 #@! TD*
D54*
G04 #@! TO.C,R308*
X357893500Y-43533000D03*
X357893500Y-45183000D03*
G04 #@! TD*
D14*
G04 #@! TO.C,R405*
X384302000Y-56040945D03*
X382477000Y-56040945D03*
G04 #@! TD*
G04 #@! TO.C,R519*
X33730000Y-52880500D03*
X31905000Y-52880500D03*
G04 #@! TD*
D25*
G04 #@! TO.C,U704*
X209399500Y-55753000D03*
X211431500Y-55753000D03*
X210415500Y-53721000D03*
G04 #@! TD*
D14*
G04 #@! TO.C,R1201*
X193444500Y-98171000D03*
X191619500Y-98171000D03*
G04 #@! TD*
D17*
G04 #@! TO.C,R413*
X375573749Y-91152340D03*
X375573749Y-92977340D03*
G04 #@! TD*
D62*
G04 #@! TO.C,R1007*
X83507691Y-40578500D03*
X83507691Y-37653500D03*
G04 #@! TD*
D32*
G04 #@! TO.C,R724*
X186944000Y-8024500D03*
X186944000Y-6199500D03*
G04 #@! TD*
D59*
G04 #@! TO.C,R703*
X217548111Y-11322000D03*
X217548111Y-14332000D03*
G04 #@! TD*
D74*
G04 #@! TO.C,L303*
X364317000Y-22016000D03*
X364317000Y-16616000D03*
G04 #@! TD*
D22*
G04 #@! TO.C,R617*
X262874437Y-19780686D03*
X264699437Y-19780686D03*
G04 #@! TD*
D27*
G04 #@! TO.C,C409*
X392044076Y-113477424D03*
X393944076Y-113477424D03*
G04 #@! TD*
D26*
G04 #@! TO.C,R408*
X394015500Y-117795424D03*
X396940500Y-117795424D03*
G04 #@! TD*
D14*
G04 #@! TO.C,R620*
X270914500Y-19812000D03*
X269089500Y-19812000D03*
G04 #@! TD*
G04 #@! TO.C,R1014*
X153058500Y-53975000D03*
X151233500Y-53975000D03*
G04 #@! TD*
D38*
G04 #@! TO.C,C305*
X355782000Y-35214000D03*
X355782000Y-33664000D03*
G04 #@! TD*
D17*
G04 #@! TO.C,R208*
X350911413Y-78589500D03*
X350911413Y-80414500D03*
G04 #@! TD*
D14*
G04 #@! TO.C,R725*
X194370955Y-44297005D03*
X192545955Y-44297005D03*
G04 #@! TD*
D32*
G04 #@! TO.C,R710*
X222668455Y-56258505D03*
X222668455Y-54433505D03*
G04 #@! TD*
D17*
G04 #@! TO.C,R912*
X146050000Y-33077534D03*
X146050000Y-34902534D03*
G04 #@! TD*
G04 #@! TO.C,R1001*
X72771000Y-27662500D03*
X72771000Y-29487500D03*
G04 #@! TD*
D11*
G04 #@! TO.C,D502*
X16072000Y-20942500D03*
X16072000Y-22842500D03*
X18692000Y-21892500D03*
G04 #@! TD*
D14*
G04 #@! TO.C,R515*
X29158000Y-28956000D03*
X27333000Y-28956000D03*
G04 #@! TD*
D22*
G04 #@! TO.C,R612*
X248160181Y-19911333D03*
X249985181Y-19911333D03*
G04 #@! TD*
D28*
G04 #@! TO.C,C303*
X350524000Y-2086000D03*
X350524000Y-3986000D03*
G04 #@! TD*
D33*
G04 #@! TO.C,C910*
X159854997Y-40701000D03*
X159854997Y-38801000D03*
G04 #@! TD*
D19*
G04 #@! TO.C,C908*
X155382000Y-38354000D03*
X153482000Y-38354000D03*
G04 #@! TD*
D17*
G04 #@! TO.C,R412*
X383794000Y-113326924D03*
X383794000Y-115151924D03*
G04 #@! TD*
D32*
G04 #@! TO.C,R315*
X384302000Y-18184500D03*
X384302000Y-16359500D03*
G04 #@! TD*
D19*
G04 #@! TO.C,C416*
X366064000Y-76586000D03*
X364164000Y-76586000D03*
G04 #@! TD*
D75*
G04 #@! TO.C,U402*
X392036620Y-108275924D03*
X391086620Y-108275924D03*
X390136620Y-108275924D03*
X390136620Y-110550924D03*
X392036620Y-110550924D03*
G04 #@! TD*
D17*
G04 #@! TO.C,R518*
X39497000Y-11279500D03*
X39497000Y-13104500D03*
G04 #@! TD*
D14*
G04 #@! TO.C,R417*
X370597500Y-83942340D03*
X368772500Y-83942340D03*
G04 #@! TD*
G04 #@! TO.C,R619*
X265707500Y-57531000D03*
X263882500Y-57531000D03*
G04 #@! TD*
G04 #@! TO.C,R711*
X220238611Y-30378995D03*
X218413611Y-30378995D03*
G04 #@! TD*
G04 #@! TO.C,R1008*
X130579500Y-56769000D03*
X128754500Y-56769000D03*
G04 #@! TD*
G04 #@! TO.C,R410*
X389928838Y-117771759D03*
X388103838Y-117771759D03*
G04 #@! TD*
G04 #@! TO.C,R616*
X265580500Y-54356000D03*
X263755500Y-54356000D03*
G04 #@! TD*
D33*
G04 #@! TO.C,C1303*
X122428000Y-95232500D03*
X122428000Y-93332500D03*
G04 #@! TD*
D29*
G04 #@! TO.C,D706*
X203962000Y-11614995D03*
X203962000Y-15614995D03*
G04 #@! TD*
D37*
G04 #@! TO.C,C302*
X364317000Y-24699000D03*
X364317000Y-27649000D03*
G04 #@! TD*
D12*
G04 #@! TO.C,D501*
X11971000Y-22842500D03*
X11971000Y-20942500D03*
X9351000Y-21892500D03*
G04 #@! TD*
D29*
G04 #@! TO.C,D714*
X170579000Y-11684000D03*
X170579000Y-15684000D03*
G04 #@! TD*
D27*
G04 #@! TO.C,C1007*
X244287000Y-5461000D03*
X246187000Y-5461000D03*
G04 #@! TD*
D23*
G04 #@! TO.C,R309*
X362719500Y-45183000D03*
X362719500Y-43533000D03*
G04 #@! TD*
D22*
G04 #@! TO.C,R807*
X104116500Y-18796000D03*
X105941500Y-18796000D03*
G04 #@! TD*
D76*
G04 #@! TO.C,L403*
X368603000Y-99847000D03*
X372503000Y-99847000D03*
G04 #@! TD*
D30*
G04 #@! TO.C,D301*
X357124000Y-8826000D03*
X357124000Y-4826000D03*
G04 #@! TD*
D49*
G04 #@! TO.C,U904*
X152370997Y-41164000D03*
X152370997Y-41664000D03*
X152370997Y-42164000D03*
X152370997Y-42664000D03*
X152370997Y-43164000D03*
X156670997Y-43164000D03*
X156670997Y-42664000D03*
X156670997Y-42164000D03*
X156670997Y-41664000D03*
X156670997Y-41164000D03*
G04 #@! TD*
D17*
G04 #@! TO.C,R506*
X8763000Y-10263500D03*
X8763000Y-12088500D03*
G04 #@! TD*
D22*
G04 #@! TO.C,R1103*
X138120000Y-101538500D03*
X139945000Y-101538500D03*
G04 #@! TD*
D14*
G04 #@! TO.C,R520*
X39544000Y-16256000D03*
X37719000Y-16256000D03*
G04 #@! TD*
D77*
G04 #@! TO.C,R304*
X372613000Y-34956000D03*
X370963000Y-34956000D03*
G04 #@! TD*
D28*
G04 #@! TO.C,C1301*
X122682000Y-106365000D03*
X122682000Y-108265000D03*
G04 #@! TD*
D32*
G04 #@! TO.C,R733*
X170665318Y-8130008D03*
X170665318Y-6305008D03*
G04 #@! TD*
D29*
G04 #@! TO.C,D710*
X186944000Y-11843000D03*
X186944000Y-15843000D03*
G04 #@! TD*
D14*
G04 #@! TO.C,R812*
X52728500Y-40132000D03*
X50903500Y-40132000D03*
G04 #@! TD*
G04 #@! TO.C,R923*
X151153500Y-47244000D03*
X149328500Y-47244000D03*
G04 #@! TD*
D32*
G04 #@! TO.C,R907*
X118999000Y-26713782D03*
X118999000Y-24888782D03*
G04 #@! TD*
G04 #@! TO.C,R825*
X59055000Y-48918500D03*
X59055000Y-47093500D03*
G04 #@! TD*
D19*
G04 #@! TO.C,C405*
X389316000Y-43434000D03*
X387416000Y-43434000D03*
G04 #@! TD*
D17*
G04 #@! TO.C,R921*
X156845000Y-14939000D03*
X156845000Y-16764000D03*
G04 #@! TD*
D78*
G04 #@! TO.C,L401*
X390906000Y-61468000D03*
X385966000Y-61468000D03*
G04 #@! TD*
D28*
G04 #@! TO.C,C418*
X370586000Y-116510500D03*
X370586000Y-118410500D03*
G04 #@! TD*
D19*
G04 #@! TO.C,C408*
X389316000Y-105095424D03*
X387416000Y-105095424D03*
G04 #@! TD*
D54*
G04 #@! TO.C,R310*
X365005500Y-43533000D03*
X365005500Y-45183000D03*
G04 #@! TD*
D33*
G04 #@! TO.C,C805*
X64897000Y-35875000D03*
X64897000Y-33975000D03*
G04 #@! TD*
D22*
G04 #@! TO.C,R704*
X218667611Y-25654000D03*
X220492611Y-25654000D03*
G04 #@! TD*
D19*
G04 #@! TO.C,C602*
X265872000Y-48260000D03*
X263972000Y-48260000D03*
G04 #@! TD*
D17*
G04 #@! TO.C,R603*
X255420500Y-37822500D03*
X255420500Y-39647500D03*
G04 #@! TD*
G04 #@! TO.C,R929*
X153543000Y-14939000D03*
X153543000Y-16764000D03*
G04 #@! TD*
D26*
G04 #@! TO.C,R1202*
X186528684Y-111510568D03*
X189453684Y-111510568D03*
G04 #@! TD*
D15*
G04 #@! TO.C,R401*
X376174000Y-60198000D03*
X376174000Y-63123000D03*
G04 #@! TD*
D22*
G04 #@! TO.C,R505*
X27333000Y-38862000D03*
X29158000Y-38862000D03*
G04 #@! TD*
D32*
G04 #@! TO.C,R212*
X345694000Y-70508500D03*
X345694000Y-68683500D03*
G04 #@! TD*
D17*
G04 #@! TO.C,R819*
X131445000Y-18899500D03*
X131445000Y-20724500D03*
G04 #@! TD*
D32*
G04 #@! TO.C,R418*
X366522000Y-114427000D03*
X366522000Y-112602000D03*
G04 #@! TD*
G04 #@! TO.C,R811*
X57785000Y-45212000D03*
X57785000Y-43387000D03*
G04 #@! TD*
D14*
G04 #@! TO.C,R740*
X208176500Y-20066000D03*
X206351500Y-20066000D03*
G04 #@! TD*
D61*
G04 #@! TO.C,U202*
X343011500Y-83275811D03*
X343011500Y-83925811D03*
X343011500Y-84575811D03*
X343011500Y-85225811D03*
X346551500Y-85225811D03*
X346551500Y-84575811D03*
X346551500Y-83925811D03*
X346551500Y-83275811D03*
G04 #@! TD*
D39*
G04 #@! TO.C,Q705*
X186243000Y-20144500D03*
X184343000Y-20144500D03*
X185293000Y-22019500D03*
G04 #@! TD*
D22*
G04 #@! TO.C,R1010*
X128754500Y-58674000D03*
X130579500Y-58674000D03*
G04 #@! TD*
D79*
G04 #@! TO.C,D403*
X372364000Y-108264500D03*
X372364000Y-106064500D03*
G04 #@! TD*
D11*
G04 #@! TO.C,D604*
X269893500Y-24450000D03*
X269893500Y-26350000D03*
X272513500Y-25400000D03*
G04 #@! TD*
D27*
G04 #@! TO.C,C1005*
X83505000Y-30988000D03*
X85405000Y-30988000D03*
G04 #@! TD*
D14*
G04 #@! TO.C,R605*
X255420500Y-19812000D03*
X253595500Y-19812000D03*
G04 #@! TD*
D67*
G04 #@! TO.C,F1201*
X175006000Y-102944500D03*
X175006000Y-105744500D03*
G04 #@! TD*
D53*
G04 #@! TO.C,Q708*
X168979389Y-34224000D03*
X168979389Y-32324000D03*
X167104389Y-33274000D03*
G04 #@! TD*
D25*
G04 #@! TO.C,U706*
X192442455Y-56235005D03*
X194474455Y-56235005D03*
X193458455Y-54203005D03*
G04 #@! TD*
D64*
G04 #@! TO.C,J401*
X338734000Y-6350000D03*
X337934000Y-6350000D03*
D65*
X336784000Y-6350000D03*
X335784000Y-6350000D03*
X335284000Y-6350000D03*
X334284000Y-6350000D03*
D64*
X332334000Y-6350000D03*
X333134000Y-6350000D03*
D65*
X333784000Y-6350000D03*
X334784000Y-6350000D03*
X336284000Y-6350000D03*
X337284000Y-6350000D03*
G04 #@! TD*
D53*
G04 #@! TO.C,Q702*
X220012500Y-34605000D03*
X220012500Y-32705000D03*
X218137500Y-33655000D03*
G04 #@! TD*
D18*
G04 #@! TO.C,R722*
X181864000Y-11919000D03*
X181864000Y-8909000D03*
G04 #@! TD*
D34*
G04 #@! TO.C,C304*
X349504000Y-18747000D03*
X349504000Y-15797000D03*
G04 #@! TD*
D12*
G04 #@! TO.C,D603*
X265343000Y-26350000D03*
X265343000Y-24450000D03*
X262723000Y-25400000D03*
G04 #@! TD*
D58*
G04 #@! TO.C,C411*
X391111000Y-85090000D03*
X388161000Y-85090000D03*
G04 #@! TD*
D19*
G04 #@! TO.C,C603*
X254084500Y-46101000D03*
X252184500Y-46101000D03*
G04 #@! TD*
D22*
G04 #@! TO.C,R822*
X135087746Y-20769614D03*
X136912746Y-20769614D03*
G04 #@! TD*
D17*
G04 #@! TO.C,R211*
X345694000Y-63095500D03*
X345694000Y-64920500D03*
G04 #@! TD*
D54*
G04 #@! TO.C,R313*
X362719500Y-48613000D03*
X362719500Y-50263000D03*
G04 #@! TD*
D35*
G04 #@! TO.C,D1302*
X113633000Y-113205500D03*
X109633000Y-113205500D03*
G04 #@! TD*
D66*
G04 #@! TO.C,U602*
X260230500Y-45221000D03*
X259730500Y-45221000D03*
X259230500Y-45221000D03*
X258730500Y-45221000D03*
X258230500Y-45221000D03*
X258230500Y-49521000D03*
X258730500Y-49521000D03*
X259230500Y-49521000D03*
X259730500Y-49521000D03*
X260230500Y-49521000D03*
G04 #@! TD*
D32*
G04 #@! TO.C,R926*
X136568286Y-26722992D03*
X136568286Y-24897992D03*
G04 #@! TD*
G04 #@! TO.C,R719*
X206097500Y-56258505D03*
X206097500Y-54433505D03*
G04 #@! TD*
D62*
G04 #@! TO.C,R935*
X124968000Y-52008500D03*
X124968000Y-49083500D03*
G04 #@! TD*
D44*
G04 #@! TO.C,U803*
X60314000Y-31928000D03*
X59664000Y-31928000D03*
X59014000Y-31928000D03*
X58364000Y-31928000D03*
X57714000Y-31928000D03*
X57064000Y-31928000D03*
X56414000Y-31928000D03*
X55764000Y-31928000D03*
X55764000Y-37668000D03*
X56414000Y-37668000D03*
X57064000Y-37668000D03*
X57714000Y-37668000D03*
X58364000Y-37668000D03*
X59014000Y-37668000D03*
X59664000Y-37668000D03*
X60314000Y-37668000D03*
G04 #@! TD*
D22*
G04 #@! TO.C,R816*
X125302000Y-18889440D03*
X127127000Y-18889440D03*
G04 #@! TD*
D80*
G04 #@! TO.C,D304*
X373150000Y-2286000D03*
X376150000Y-2286000D03*
D81*
X374650000Y-2436000D03*
G04 #@! TD*
D62*
G04 #@! TO.C,R414*
X376052657Y-105917145D03*
X376052657Y-102992145D03*
G04 #@! TD*
D18*
G04 #@! TO.C,R727*
X184060455Y-47580005D03*
X184060455Y-44570005D03*
G04 #@! TD*
D21*
G04 #@! TO.C,R803*
X94319500Y-4064000D03*
X100244500Y-4064000D03*
G04 #@! TD*
D28*
G04 #@! TO.C,C1001*
X67818000Y-27625000D03*
X67818000Y-29525000D03*
G04 #@! TD*
D74*
G04 #@! TO.C,L301*
X373888000Y-15588000D03*
X373888000Y-20988000D03*
G04 #@! TD*
D14*
G04 #@! TO.C,R1204*
X192855014Y-125122099D03*
X191030014Y-125122099D03*
G04 #@! TD*
D22*
G04 #@! TO.C,R206*
X349861500Y-60452000D03*
X351686500Y-60452000D03*
G04 #@! TD*
D17*
G04 #@! TO.C,R824*
X134783046Y-7476199D03*
X134783046Y-9301199D03*
G04 #@! TD*
D14*
G04 #@! TO.C,R742*
X173886500Y-20320000D03*
X172061500Y-20320000D03*
G04 #@! TD*
D36*
G04 #@! TO.C,R1111*
X130748500Y-90170000D03*
X127823500Y-90170000D03*
G04 #@! TD*
D15*
G04 #@! TO.C,R409*
X391922000Y-87691500D03*
X391922000Y-90616500D03*
G04 #@! TD*
D14*
G04 #@! TO.C,R806*
X79688532Y-5599961D03*
X77863532Y-5599961D03*
G04 #@! TD*
D19*
G04 #@! TO.C,C505*
X21829500Y-47419500D03*
X19929500Y-47419500D03*
G04 #@! TD*
D14*
G04 #@! TO.C,R1011*
X91928402Y-24892000D03*
X90103402Y-24892000D03*
G04 #@! TD*
M02*
