G04 #@! TF.GenerationSoftware,KiCad,Pcbnew,9.0.2*
G04 #@! TF.CreationDate,2026-04-23T15:55:16+02:00*
G04 #@! TF.ProjectId,hardware-pruefadapter,68617264-7761-4726-952d-707275656661,V1.1*
G04 #@! TF.SameCoordinates,Original*
G04 #@! TF.FileFunction,Other,User*
%FSLAX46Y46*%
G04 Gerber Fmt 4.6, Leading zero omitted, Abs format (unit mm)*
G04 Created by KiCad (PCBNEW 9.0.2) date 2026-04-23 15:55:16*
%MOMM*%
%LPD*%
G01*
G04 APERTURE LIST*
%ADD10C,0.150000*%
%ADD11C,0.100000*%
G04 APERTURE END LIST*
D10*
X178309523Y-128209819D02*
X177738095Y-128209819D01*
X178023809Y-128209819D02*
X178023809Y-127209819D01*
X178023809Y-127209819D02*
X177928571Y-127352676D01*
X177928571Y-127352676D02*
X177833333Y-127447914D01*
X177833333Y-127447914D02*
X177738095Y-127495533D01*
X178642857Y-127209819D02*
X179309523Y-127209819D01*
X179309523Y-127209819D02*
X178880952Y-128209819D01*
D11*
X170000000Y-124950000D02*
X170000000Y-129491420D01*
X187000000Y-129491420D02*
X187000000Y-124820000D01*
X170000000Y-128905000D02*
X187000000Y-128905000D01*
X170000000Y-128905000D02*
X171126504Y-128318579D01*
X170000000Y-128905000D02*
X171126504Y-129491421D01*
X187000000Y-128905000D02*
X185873496Y-129491421D01*
X187000000Y-128905000D02*
X185873496Y-128318579D01*
D10*
X120738095Y-127305057D02*
X120785714Y-127257438D01*
X120785714Y-127257438D02*
X120880952Y-127209819D01*
X120880952Y-127209819D02*
X121119047Y-127209819D01*
X121119047Y-127209819D02*
X121214285Y-127257438D01*
X121214285Y-127257438D02*
X121261904Y-127305057D01*
X121261904Y-127305057D02*
X121309523Y-127400295D01*
X121309523Y-127400295D02*
X121309523Y-127495533D01*
X121309523Y-127495533D02*
X121261904Y-127638390D01*
X121261904Y-127638390D02*
X120690476Y-128209819D01*
X120690476Y-128209819D02*
X121309523Y-128209819D01*
X122261904Y-128209819D02*
X121690476Y-128209819D01*
X121976190Y-128209819D02*
X121976190Y-127209819D01*
X121976190Y-127209819D02*
X121880952Y-127352676D01*
X121880952Y-127352676D02*
X121785714Y-127447914D01*
X121785714Y-127447914D02*
X121690476Y-127495533D01*
D11*
X132000000Y-124820000D02*
X132000000Y-129491420D01*
X111000000Y-129491420D02*
X111000000Y-124820000D01*
X132000000Y-128905000D02*
X111000000Y-128905000D01*
X132000000Y-128905000D02*
X130873496Y-129491421D01*
X132000000Y-128905000D02*
X130873496Y-128318579D01*
X111000000Y-128905000D02*
X112126504Y-128318579D01*
X111000000Y-128905000D02*
X112126504Y-129491421D01*
D10*
X204028819Y-24190952D02*
X204028819Y-24762380D01*
X204028819Y-24476666D02*
X203028819Y-24476666D01*
X203028819Y-24476666D02*
X203171676Y-24571904D01*
X203171676Y-24571904D02*
X203266914Y-24667142D01*
X203266914Y-24667142D02*
X203314533Y-24762380D01*
X203028819Y-23286190D02*
X203028819Y-23762380D01*
X203028819Y-23762380D02*
X203505009Y-23809999D01*
X203505009Y-23809999D02*
X203457390Y-23762380D01*
X203457390Y-23762380D02*
X203409771Y-23667142D01*
X203409771Y-23667142D02*
X203409771Y-23429047D01*
X203409771Y-23429047D02*
X203457390Y-23333809D01*
X203457390Y-23333809D02*
X203505009Y-23286190D01*
X203505009Y-23286190D02*
X203600247Y-23238571D01*
X203600247Y-23238571D02*
X203838342Y-23238571D01*
X203838342Y-23238571D02*
X203933580Y-23286190D01*
X203933580Y-23286190D02*
X203981200Y-23333809D01*
X203981200Y-23333809D02*
X204028819Y-23429047D01*
X204028819Y-23429047D02*
X204028819Y-23667142D01*
X204028819Y-23667142D02*
X203981200Y-23762380D01*
X203981200Y-23762380D02*
X203933580Y-23809999D01*
X203981200Y-22762380D02*
X204028819Y-22762380D01*
X204028819Y-22762380D02*
X204124057Y-22809999D01*
X204124057Y-22809999D02*
X204171676Y-22857618D01*
X203028819Y-21905238D02*
X203028819Y-22095714D01*
X203028819Y-22095714D02*
X203076438Y-22190952D01*
X203076438Y-22190952D02*
X203124057Y-22238571D01*
X203124057Y-22238571D02*
X203266914Y-22333809D01*
X203266914Y-22333809D02*
X203457390Y-22381428D01*
X203457390Y-22381428D02*
X203838342Y-22381428D01*
X203838342Y-22381428D02*
X203933580Y-22333809D01*
X203933580Y-22333809D02*
X203981200Y-22286190D01*
X203981200Y-22286190D02*
X204028819Y-22190952D01*
X204028819Y-22190952D02*
X204028819Y-22000476D01*
X204028819Y-22000476D02*
X203981200Y-21905238D01*
X203981200Y-21905238D02*
X203933580Y-21857619D01*
X203933580Y-21857619D02*
X203838342Y-21810000D01*
X203838342Y-21810000D02*
X203600247Y-21810000D01*
X203600247Y-21810000D02*
X203505009Y-21857619D01*
X203505009Y-21857619D02*
X203457390Y-21905238D01*
X203457390Y-21905238D02*
X203409771Y-22000476D01*
X203409771Y-22000476D02*
X203409771Y-22190952D01*
X203409771Y-22190952D02*
X203457390Y-22286190D01*
X203457390Y-22286190D02*
X203505009Y-22333809D01*
X203505009Y-22333809D02*
X203600247Y-22381428D01*
X203124057Y-21429047D02*
X203076438Y-21381428D01*
X203076438Y-21381428D02*
X203028819Y-21286190D01*
X203028819Y-21286190D02*
X203028819Y-21048095D01*
X203028819Y-21048095D02*
X203076438Y-20952857D01*
X203076438Y-20952857D02*
X203124057Y-20905238D01*
X203124057Y-20905238D02*
X203219295Y-20857619D01*
X203219295Y-20857619D02*
X203314533Y-20857619D01*
X203314533Y-20857619D02*
X203457390Y-20905238D01*
X203457390Y-20905238D02*
X204028819Y-21476666D01*
X204028819Y-21476666D02*
X204028819Y-20857619D01*
D11*
X209000000Y-15000000D02*
X204137580Y-15000000D01*
X204137580Y-30620000D02*
X209000000Y-30620000D01*
X204724000Y-15000000D02*
X204724000Y-30620000D01*
X204724000Y-15000000D02*
X205310421Y-16126504D01*
X204724000Y-15000000D02*
X204137579Y-16126504D01*
X204724000Y-30620000D02*
X204137579Y-29493496D01*
X204724000Y-30620000D02*
X205310421Y-29493496D01*
D10*
X140309523Y-128209819D02*
X139738095Y-128209819D01*
X140023809Y-128209819D02*
X140023809Y-127209819D01*
X140023809Y-127209819D02*
X139928571Y-127352676D01*
X139928571Y-127352676D02*
X139833333Y-127447914D01*
X139833333Y-127447914D02*
X139738095Y-127495533D01*
X140642857Y-127209819D02*
X141309523Y-127209819D01*
X141309523Y-127209819D02*
X140880952Y-128209819D01*
D11*
X149000000Y-124820000D02*
X149000000Y-129491420D01*
X132000000Y-129491420D02*
X132000000Y-124820000D01*
X149000000Y-128905000D02*
X132000000Y-128905000D01*
X149000000Y-128905000D02*
X147873496Y-129491421D01*
X149000000Y-128905000D02*
X147873496Y-128318579D01*
X132000000Y-128905000D02*
X133126504Y-128318579D01*
X132000000Y-128905000D02*
X133126504Y-129491421D01*
D10*
X183809523Y-14304819D02*
X183238095Y-14304819D01*
X183523809Y-14304819D02*
X183523809Y-13304819D01*
X183523809Y-13304819D02*
X183428571Y-13447676D01*
X183428571Y-13447676D02*
X183333333Y-13542914D01*
X183333333Y-13542914D02*
X183238095Y-13590533D01*
X184142857Y-13304819D02*
X184809523Y-13304819D01*
X184809523Y-13304819D02*
X184380952Y-14304819D01*
D11*
X192500000Y-15000000D02*
X192500000Y-15000000D01*
X175500000Y-15000000D02*
X175500000Y-15000000D01*
X192500000Y-15000000D02*
X175500000Y-15000000D01*
X192500000Y-15000000D02*
X191373496Y-15586421D01*
X192500000Y-15000000D02*
X191373496Y-14413579D01*
X175500000Y-15000000D02*
X176626504Y-14413579D01*
X175500000Y-15000000D02*
X176626504Y-15586421D01*
D10*
X158738095Y-127305057D02*
X158785714Y-127257438D01*
X158785714Y-127257438D02*
X158880952Y-127209819D01*
X158880952Y-127209819D02*
X159119047Y-127209819D01*
X159119047Y-127209819D02*
X159214285Y-127257438D01*
X159214285Y-127257438D02*
X159261904Y-127305057D01*
X159261904Y-127305057D02*
X159309523Y-127400295D01*
X159309523Y-127400295D02*
X159309523Y-127495533D01*
X159309523Y-127495533D02*
X159261904Y-127638390D01*
X159261904Y-127638390D02*
X158690476Y-128209819D01*
X158690476Y-128209819D02*
X159309523Y-128209819D01*
X160261904Y-128209819D02*
X159690476Y-128209819D01*
X159976190Y-128209819D02*
X159976190Y-127209819D01*
X159976190Y-127209819D02*
X159880952Y-127352676D01*
X159880952Y-127352676D02*
X159785714Y-127447914D01*
X159785714Y-127447914D02*
X159690476Y-127495533D01*
D11*
X149000000Y-124950000D02*
X149000000Y-129491420D01*
X170000000Y-129491420D02*
X170000000Y-124820000D01*
X149000000Y-128905000D02*
X170000000Y-128905000D01*
X149000000Y-128905000D02*
X150126504Y-128318579D01*
X149000000Y-128905000D02*
X150126504Y-129491421D01*
X170000000Y-128905000D02*
X168873496Y-129491421D01*
X170000000Y-128905000D02*
X168873496Y-128318579D01*
D10*
X203457390Y-11095237D02*
X203409771Y-11190475D01*
X203409771Y-11190475D02*
X203362152Y-11238094D01*
X203362152Y-11238094D02*
X203266914Y-11285713D01*
X203266914Y-11285713D02*
X203219295Y-11285713D01*
X203219295Y-11285713D02*
X203124057Y-11238094D01*
X203124057Y-11238094D02*
X203076438Y-11190475D01*
X203076438Y-11190475D02*
X203028819Y-11095237D01*
X203028819Y-11095237D02*
X203028819Y-10904761D01*
X203028819Y-10904761D02*
X203076438Y-10809523D01*
X203076438Y-10809523D02*
X203124057Y-10761904D01*
X203124057Y-10761904D02*
X203219295Y-10714285D01*
X203219295Y-10714285D02*
X203266914Y-10714285D01*
X203266914Y-10714285D02*
X203362152Y-10761904D01*
X203362152Y-10761904D02*
X203409771Y-10809523D01*
X203409771Y-10809523D02*
X203457390Y-10904761D01*
X203457390Y-10904761D02*
X203457390Y-11095237D01*
X203457390Y-11095237D02*
X203505009Y-11190475D01*
X203505009Y-11190475D02*
X203552628Y-11238094D01*
X203552628Y-11238094D02*
X203647866Y-11285713D01*
X203647866Y-11285713D02*
X203838342Y-11285713D01*
X203838342Y-11285713D02*
X203933580Y-11238094D01*
X203933580Y-11238094D02*
X203981200Y-11190475D01*
X203981200Y-11190475D02*
X204028819Y-11095237D01*
X204028819Y-11095237D02*
X204028819Y-10904761D01*
X204028819Y-10904761D02*
X203981200Y-10809523D01*
X203981200Y-10809523D02*
X203933580Y-10761904D01*
X203933580Y-10761904D02*
X203838342Y-10714285D01*
X203838342Y-10714285D02*
X203647866Y-10714285D01*
X203647866Y-10714285D02*
X203552628Y-10761904D01*
X203552628Y-10761904D02*
X203505009Y-10809523D01*
X203505009Y-10809523D02*
X203457390Y-10904761D01*
D11*
X209000000Y-7000000D02*
X204137580Y-7000000D01*
X204137580Y-15000000D02*
X209000000Y-15000000D01*
X204724000Y-7000000D02*
X204724000Y-15000000D01*
X204724000Y-7000000D02*
X205310421Y-8126504D01*
X204724000Y-7000000D02*
X204137579Y-8126504D01*
X204724000Y-15000000D02*
X204137579Y-13873496D01*
X204724000Y-15000000D02*
X205310421Y-13873496D01*
D10*
X62809523Y-6304819D02*
X62238095Y-6304819D01*
X62523809Y-6304819D02*
X62523809Y-5304819D01*
X62523809Y-5304819D02*
X62428571Y-5447676D01*
X62428571Y-5447676D02*
X62333333Y-5542914D01*
X62333333Y-5542914D02*
X62238095Y-5590533D01*
X63142857Y-5304819D02*
X63809523Y-5304819D01*
X63809523Y-5304819D02*
X63380952Y-6304819D01*
D11*
X71500000Y-7000000D02*
X71500000Y-7000000D01*
X54500000Y-7000000D02*
X54500000Y-7000000D01*
X71500000Y-7000000D02*
X54500000Y-7000000D01*
X71500000Y-7000000D02*
X70373496Y-7586421D01*
X71500000Y-7000000D02*
X70373496Y-6413579D01*
X54500000Y-7000000D02*
X55626504Y-6413579D01*
X54500000Y-7000000D02*
X55626504Y-7586421D01*
D10*
X217809523Y-17846819D02*
X217238095Y-17846819D01*
X217523809Y-17846819D02*
X217523809Y-16846819D01*
X217523809Y-16846819D02*
X217428571Y-16989676D01*
X217428571Y-16989676D02*
X217333333Y-17084914D01*
X217333333Y-17084914D02*
X217238095Y-17132533D01*
X218142857Y-16846819D02*
X218809523Y-16846819D01*
X218809523Y-16846819D02*
X218380952Y-17846819D01*
D11*
X226500000Y-15500000D02*
X226500000Y-19128420D01*
X209500000Y-19128420D02*
X209500000Y-15500000D01*
X226500000Y-18542000D02*
X209500000Y-18542000D01*
X226500000Y-18542000D02*
X225373496Y-19128421D01*
X226500000Y-18542000D02*
X225373496Y-17955579D01*
X209500000Y-18542000D02*
X210626504Y-17955579D01*
X209500000Y-18542000D02*
X210626504Y-19128421D01*
D10*
X132924819Y-128112380D02*
X132924819Y-128588570D01*
X132924819Y-128588570D02*
X133401009Y-128636189D01*
X133401009Y-128636189D02*
X133353390Y-128588570D01*
X133353390Y-128588570D02*
X133305771Y-128493332D01*
X133305771Y-128493332D02*
X133305771Y-128255237D01*
X133305771Y-128255237D02*
X133353390Y-128159999D01*
X133353390Y-128159999D02*
X133401009Y-128112380D01*
X133401009Y-128112380D02*
X133496247Y-128064761D01*
X133496247Y-128064761D02*
X133734342Y-128064761D01*
X133734342Y-128064761D02*
X133829580Y-128112380D01*
X133829580Y-128112380D02*
X133877200Y-128159999D01*
X133877200Y-128159999D02*
X133924819Y-128255237D01*
X133924819Y-128255237D02*
X133924819Y-128493332D01*
X133924819Y-128493332D02*
X133877200Y-128588570D01*
X133877200Y-128588570D02*
X133829580Y-128636189D01*
X133877200Y-127588570D02*
X133924819Y-127588570D01*
X133924819Y-127588570D02*
X134020057Y-127636189D01*
X134020057Y-127636189D02*
X134067676Y-127683808D01*
X132924819Y-126731428D02*
X132924819Y-126921904D01*
X132924819Y-126921904D02*
X132972438Y-127017142D01*
X132972438Y-127017142D02*
X133020057Y-127064761D01*
X133020057Y-127064761D02*
X133162914Y-127159999D01*
X133162914Y-127159999D02*
X133353390Y-127207618D01*
X133353390Y-127207618D02*
X133734342Y-127207618D01*
X133734342Y-127207618D02*
X133829580Y-127159999D01*
X133829580Y-127159999D02*
X133877200Y-127112380D01*
X133877200Y-127112380D02*
X133924819Y-127017142D01*
X133924819Y-127017142D02*
X133924819Y-126826666D01*
X133924819Y-126826666D02*
X133877200Y-126731428D01*
X133877200Y-126731428D02*
X133829580Y-126683809D01*
X133829580Y-126683809D02*
X133734342Y-126636190D01*
X133734342Y-126636190D02*
X133496247Y-126636190D01*
X133496247Y-126636190D02*
X133401009Y-126683809D01*
X133401009Y-126683809D02*
X133353390Y-126731428D01*
X133353390Y-126731428D02*
X133305771Y-126826666D01*
X133305771Y-126826666D02*
X133305771Y-127017142D01*
X133305771Y-127017142D02*
X133353390Y-127112380D01*
X133353390Y-127112380D02*
X133401009Y-127159999D01*
X133401009Y-127159999D02*
X133496247Y-127207618D01*
X133353390Y-126064761D02*
X133305771Y-126159999D01*
X133305771Y-126159999D02*
X133258152Y-126207618D01*
X133258152Y-126207618D02*
X133162914Y-126255237D01*
X133162914Y-126255237D02*
X133115295Y-126255237D01*
X133115295Y-126255237D02*
X133020057Y-126207618D01*
X133020057Y-126207618D02*
X132972438Y-126159999D01*
X132972438Y-126159999D02*
X132924819Y-126064761D01*
X132924819Y-126064761D02*
X132924819Y-125874285D01*
X132924819Y-125874285D02*
X132972438Y-125779047D01*
X132972438Y-125779047D02*
X133020057Y-125731428D01*
X133020057Y-125731428D02*
X133115295Y-125683809D01*
X133115295Y-125683809D02*
X133162914Y-125683809D01*
X133162914Y-125683809D02*
X133258152Y-125731428D01*
X133258152Y-125731428D02*
X133305771Y-125779047D01*
X133305771Y-125779047D02*
X133353390Y-125874285D01*
X133353390Y-125874285D02*
X133353390Y-126064761D01*
X133353390Y-126064761D02*
X133401009Y-126159999D01*
X133401009Y-126159999D02*
X133448628Y-126207618D01*
X133448628Y-126207618D02*
X133543866Y-126255237D01*
X133543866Y-126255237D02*
X133734342Y-126255237D01*
X133734342Y-126255237D02*
X133829580Y-126207618D01*
X133829580Y-126207618D02*
X133877200Y-126159999D01*
X133877200Y-126159999D02*
X133924819Y-126064761D01*
X133924819Y-126064761D02*
X133924819Y-125874285D01*
X133924819Y-125874285D02*
X133877200Y-125779047D01*
X133877200Y-125779047D02*
X133829580Y-125731428D01*
X133829580Y-125731428D02*
X133734342Y-125683809D01*
X133734342Y-125683809D02*
X133543866Y-125683809D01*
X133543866Y-125683809D02*
X133448628Y-125731428D01*
X133448628Y-125731428D02*
X133401009Y-125779047D01*
X133401009Y-125779047D02*
X133353390Y-125874285D01*
D11*
X132500000Y-124320000D02*
X135206420Y-124320000D01*
X134033580Y-130000000D02*
X135644000Y-130000000D01*
X134620000Y-124320000D02*
X134620000Y-130000000D01*
X134620000Y-124320000D02*
X135206421Y-125446504D01*
X134620000Y-124320000D02*
X134033579Y-125446504D01*
X134620000Y-130000000D02*
X134033579Y-128873496D01*
X134620000Y-130000000D02*
X135206421Y-128873496D01*
D10*
X70233390Y-11095237D02*
X70185771Y-11190475D01*
X70185771Y-11190475D02*
X70138152Y-11238094D01*
X70138152Y-11238094D02*
X70042914Y-11285713D01*
X70042914Y-11285713D02*
X69995295Y-11285713D01*
X69995295Y-11285713D02*
X69900057Y-11238094D01*
X69900057Y-11238094D02*
X69852438Y-11190475D01*
X69852438Y-11190475D02*
X69804819Y-11095237D01*
X69804819Y-11095237D02*
X69804819Y-10904761D01*
X69804819Y-10904761D02*
X69852438Y-10809523D01*
X69852438Y-10809523D02*
X69900057Y-10761904D01*
X69900057Y-10761904D02*
X69995295Y-10714285D01*
X69995295Y-10714285D02*
X70042914Y-10714285D01*
X70042914Y-10714285D02*
X70138152Y-10761904D01*
X70138152Y-10761904D02*
X70185771Y-10809523D01*
X70185771Y-10809523D02*
X70233390Y-10904761D01*
X70233390Y-10904761D02*
X70233390Y-11095237D01*
X70233390Y-11095237D02*
X70281009Y-11190475D01*
X70281009Y-11190475D02*
X70328628Y-11238094D01*
X70328628Y-11238094D02*
X70423866Y-11285713D01*
X70423866Y-11285713D02*
X70614342Y-11285713D01*
X70614342Y-11285713D02*
X70709580Y-11238094D01*
X70709580Y-11238094D02*
X70757200Y-11190475D01*
X70757200Y-11190475D02*
X70804819Y-11095237D01*
X70804819Y-11095237D02*
X70804819Y-10904761D01*
X70804819Y-10904761D02*
X70757200Y-10809523D01*
X70757200Y-10809523D02*
X70709580Y-10761904D01*
X70709580Y-10761904D02*
X70614342Y-10714285D01*
X70614342Y-10714285D02*
X70423866Y-10714285D01*
X70423866Y-10714285D02*
X70328628Y-10761904D01*
X70328628Y-10761904D02*
X70281009Y-10809523D01*
X70281009Y-10809523D02*
X70233390Y-10904761D01*
D11*
X71500000Y-15000000D02*
X71500000Y-15000000D01*
X71500000Y-7000000D02*
X71500000Y-7000000D01*
X71500000Y-15000000D02*
X71500000Y-7000000D01*
X71500000Y-15000000D02*
X70913579Y-13873496D01*
X71500000Y-15000000D02*
X72086421Y-13873496D01*
X71500000Y-7000000D02*
X72086421Y-8126504D01*
X71500000Y-7000000D02*
X70913579Y-8126504D01*
D10*
X220808819Y-3833332D02*
X220808819Y-3166666D01*
X220808819Y-3166666D02*
X221808819Y-3595237D01*
D11*
X224250000Y-7000000D02*
X221917580Y-7000000D01*
X221917580Y0D02*
X224290000Y0D01*
X222504000Y-7000000D02*
X222504000Y0D01*
X222504000Y-7000000D02*
X221917579Y-5873496D01*
X222504000Y-7000000D02*
X223090421Y-5873496D01*
X222504000Y0D02*
X223090421Y-1126504D01*
X222504000Y0D02*
X221917579Y-1126504D01*
D10*
X191519390Y-19095237D02*
X191471771Y-19190475D01*
X191471771Y-19190475D02*
X191424152Y-19238094D01*
X191424152Y-19238094D02*
X191328914Y-19285713D01*
X191328914Y-19285713D02*
X191281295Y-19285713D01*
X191281295Y-19285713D02*
X191186057Y-19238094D01*
X191186057Y-19238094D02*
X191138438Y-19190475D01*
X191138438Y-19190475D02*
X191090819Y-19095237D01*
X191090819Y-19095237D02*
X191090819Y-18904761D01*
X191090819Y-18904761D02*
X191138438Y-18809523D01*
X191138438Y-18809523D02*
X191186057Y-18761904D01*
X191186057Y-18761904D02*
X191281295Y-18714285D01*
X191281295Y-18714285D02*
X191328914Y-18714285D01*
X191328914Y-18714285D02*
X191424152Y-18761904D01*
X191424152Y-18761904D02*
X191471771Y-18809523D01*
X191471771Y-18809523D02*
X191519390Y-18904761D01*
X191519390Y-18904761D02*
X191519390Y-19095237D01*
X191519390Y-19095237D02*
X191567009Y-19190475D01*
X191567009Y-19190475D02*
X191614628Y-19238094D01*
X191614628Y-19238094D02*
X191709866Y-19285713D01*
X191709866Y-19285713D02*
X191900342Y-19285713D01*
X191900342Y-19285713D02*
X191995580Y-19238094D01*
X191995580Y-19238094D02*
X192043200Y-19190475D01*
X192043200Y-19190475D02*
X192090819Y-19095237D01*
X192090819Y-19095237D02*
X192090819Y-18904761D01*
X192090819Y-18904761D02*
X192043200Y-18809523D01*
X192043200Y-18809523D02*
X191995580Y-18761904D01*
X191995580Y-18761904D02*
X191900342Y-18714285D01*
X191900342Y-18714285D02*
X191709866Y-18714285D01*
X191709866Y-18714285D02*
X191614628Y-18761904D01*
X191614628Y-18761904D02*
X191567009Y-18809523D01*
X191567009Y-18809523D02*
X191519390Y-18904761D01*
D11*
X193000000Y-15000000D02*
X193372420Y-15000000D01*
X193372420Y-23000000D02*
X193000000Y-23000000D01*
X192786000Y-15000000D02*
X192786000Y-23000000D01*
X192786000Y-15000000D02*
X193372421Y-16126504D01*
X192786000Y-15000000D02*
X192199579Y-16126504D01*
X192786000Y-23000000D02*
X192199579Y-21873496D01*
X192786000Y-23000000D02*
X193372421Y-21873496D01*
D10*
X69804819Y-3833332D02*
X69804819Y-3166666D01*
X69804819Y-3166666D02*
X70804819Y-3595237D01*
D11*
X71500000Y-7000000D02*
X71500000Y-7000000D01*
X72086420Y0D02*
X71874000Y0D01*
X71500000Y-7000000D02*
X71500000Y0D01*
X71500000Y-7000000D02*
X70913579Y-5873496D01*
X71500000Y-7000000D02*
X72086421Y-5873496D01*
X71500000Y0D02*
X72086421Y-1126504D01*
X71500000Y0D02*
X70913579Y-1126504D01*
D10*
X26297619Y-5304819D02*
X25821429Y-5304819D01*
X25821429Y-5304819D02*
X25773810Y-5781009D01*
X25773810Y-5781009D02*
X25821429Y-5733390D01*
X25821429Y-5733390D02*
X25916667Y-5685771D01*
X25916667Y-5685771D02*
X26154762Y-5685771D01*
X26154762Y-5685771D02*
X26250000Y-5733390D01*
X26250000Y-5733390D02*
X26297619Y-5781009D01*
X26297619Y-5781009D02*
X26345238Y-5876247D01*
X26345238Y-5876247D02*
X26345238Y-6114342D01*
X26345238Y-6114342D02*
X26297619Y-6209580D01*
X26297619Y-6209580D02*
X26250000Y-6257200D01*
X26250000Y-6257200D02*
X26154762Y-6304819D01*
X26154762Y-6304819D02*
X25916667Y-6304819D01*
X25916667Y-6304819D02*
X25821429Y-6257200D01*
X25821429Y-6257200D02*
X25773810Y-6209580D01*
X27202381Y-5638152D02*
X27202381Y-6304819D01*
X26964286Y-5257200D02*
X26726191Y-5971485D01*
X26726191Y-5971485D02*
X27345238Y-5971485D01*
X27773810Y-6257200D02*
X27773810Y-6304819D01*
X27773810Y-6304819D02*
X27726191Y-6400057D01*
X27726191Y-6400057D02*
X27678572Y-6447676D01*
X28678571Y-5304819D02*
X28202381Y-5304819D01*
X28202381Y-5304819D02*
X28154762Y-5781009D01*
X28154762Y-5781009D02*
X28202381Y-5733390D01*
X28202381Y-5733390D02*
X28297619Y-5685771D01*
X28297619Y-5685771D02*
X28535714Y-5685771D01*
X28535714Y-5685771D02*
X28630952Y-5733390D01*
X28630952Y-5733390D02*
X28678571Y-5781009D01*
X28678571Y-5781009D02*
X28726190Y-5876247D01*
X28726190Y-5876247D02*
X28726190Y-6114342D01*
X28726190Y-6114342D02*
X28678571Y-6209580D01*
X28678571Y-6209580D02*
X28630952Y-6257200D01*
X28630952Y-6257200D02*
X28535714Y-6304819D01*
X28535714Y-6304819D02*
X28297619Y-6304819D01*
X28297619Y-6304819D02*
X28202381Y-6257200D01*
X28202381Y-6257200D02*
X28154762Y-6209580D01*
D11*
X54500000Y-7000000D02*
X54500000Y-7000000D01*
X0Y-7000000D02*
X0Y-7000000D01*
X54500000Y-7000000D02*
X0Y-7000000D01*
X54500000Y-7000000D02*
X53373496Y-7586421D01*
X54500000Y-7000000D02*
X53373496Y-6413579D01*
X0Y-7000000D02*
X1126504Y-6413579D01*
X0Y-7000000D02*
X1126504Y-7586421D01*
D10*
X252797619Y-13798819D02*
X252321429Y-13798819D01*
X252321429Y-13798819D02*
X252273810Y-14275009D01*
X252273810Y-14275009D02*
X252321429Y-14227390D01*
X252321429Y-14227390D02*
X252416667Y-14179771D01*
X252416667Y-14179771D02*
X252654762Y-14179771D01*
X252654762Y-14179771D02*
X252750000Y-14227390D01*
X252750000Y-14227390D02*
X252797619Y-14275009D01*
X252797619Y-14275009D02*
X252845238Y-14370247D01*
X252845238Y-14370247D02*
X252845238Y-14608342D01*
X252845238Y-14608342D02*
X252797619Y-14703580D01*
X252797619Y-14703580D02*
X252750000Y-14751200D01*
X252750000Y-14751200D02*
X252654762Y-14798819D01*
X252654762Y-14798819D02*
X252416667Y-14798819D01*
X252416667Y-14798819D02*
X252321429Y-14751200D01*
X252321429Y-14751200D02*
X252273810Y-14703580D01*
X253702381Y-14132152D02*
X253702381Y-14798819D01*
X253464286Y-13751200D02*
X253226191Y-14465485D01*
X253226191Y-14465485D02*
X253845238Y-14465485D01*
X254273810Y-14751200D02*
X254273810Y-14798819D01*
X254273810Y-14798819D02*
X254226191Y-14894057D01*
X254226191Y-14894057D02*
X254178572Y-14941676D01*
X255178571Y-13798819D02*
X254702381Y-13798819D01*
X254702381Y-13798819D02*
X254654762Y-14275009D01*
X254654762Y-14275009D02*
X254702381Y-14227390D01*
X254702381Y-14227390D02*
X254797619Y-14179771D01*
X254797619Y-14179771D02*
X255035714Y-14179771D01*
X255035714Y-14179771D02*
X255130952Y-14227390D01*
X255130952Y-14227390D02*
X255178571Y-14275009D01*
X255178571Y-14275009D02*
X255226190Y-14370247D01*
X255226190Y-14370247D02*
X255226190Y-14608342D01*
X255226190Y-14608342D02*
X255178571Y-14703580D01*
X255178571Y-14703580D02*
X255130952Y-14751200D01*
X255130952Y-14751200D02*
X255035714Y-14798819D01*
X255035714Y-14798819D02*
X254797619Y-14798819D01*
X254797619Y-14798819D02*
X254702381Y-14751200D01*
X254702381Y-14751200D02*
X254654762Y-14703580D01*
D11*
X226500000Y-15500000D02*
X226500000Y-16080420D01*
X281000000Y-16080420D02*
X281000000Y-15697660D01*
X226500000Y-15494000D02*
X281000000Y-15494000D01*
X226500000Y-15494000D02*
X227626504Y-14907579D01*
X226500000Y-15494000D02*
X227626504Y-16080421D01*
X281000000Y-15494000D02*
X279873496Y-16080421D01*
X281000000Y-15494000D02*
X279873496Y-14907579D01*
D10*
X134544057Y-121922380D02*
X134496438Y-121874761D01*
X134496438Y-121874761D02*
X134448819Y-121779523D01*
X134448819Y-121779523D02*
X134448819Y-121541428D01*
X134448819Y-121541428D02*
X134496438Y-121446190D01*
X134496438Y-121446190D02*
X134544057Y-121398571D01*
X134544057Y-121398571D02*
X134639295Y-121350952D01*
X134639295Y-121350952D02*
X134734533Y-121350952D01*
X134734533Y-121350952D02*
X134877390Y-121398571D01*
X134877390Y-121398571D02*
X135448819Y-121969999D01*
X135448819Y-121969999D02*
X135448819Y-121350952D01*
X134448819Y-120731904D02*
X134448819Y-120636666D01*
X134448819Y-120636666D02*
X134496438Y-120541428D01*
X134496438Y-120541428D02*
X134544057Y-120493809D01*
X134544057Y-120493809D02*
X134639295Y-120446190D01*
X134639295Y-120446190D02*
X134829771Y-120398571D01*
X134829771Y-120398571D02*
X135067866Y-120398571D01*
X135067866Y-120398571D02*
X135258342Y-120446190D01*
X135258342Y-120446190D02*
X135353580Y-120493809D01*
X135353580Y-120493809D02*
X135401200Y-120541428D01*
X135401200Y-120541428D02*
X135448819Y-120636666D01*
X135448819Y-120636666D02*
X135448819Y-120731904D01*
X135448819Y-120731904D02*
X135401200Y-120827142D01*
X135401200Y-120827142D02*
X135353580Y-120874761D01*
X135353580Y-120874761D02*
X135258342Y-120922380D01*
X135258342Y-120922380D02*
X135067866Y-120969999D01*
X135067866Y-120969999D02*
X134829771Y-120969999D01*
X134829771Y-120969999D02*
X134639295Y-120922380D01*
X134639295Y-120922380D02*
X134544057Y-120874761D01*
X134544057Y-120874761D02*
X134496438Y-120827142D01*
X134496438Y-120827142D02*
X134448819Y-120731904D01*
X135401200Y-119922380D02*
X135448819Y-119922380D01*
X135448819Y-119922380D02*
X135544057Y-119969999D01*
X135544057Y-119969999D02*
X135591676Y-120017618D01*
X134448819Y-119303333D02*
X134448819Y-119208095D01*
X134448819Y-119208095D02*
X134496438Y-119112857D01*
X134496438Y-119112857D02*
X134544057Y-119065238D01*
X134544057Y-119065238D02*
X134639295Y-119017619D01*
X134639295Y-119017619D02*
X134829771Y-118970000D01*
X134829771Y-118970000D02*
X135067866Y-118970000D01*
X135067866Y-118970000D02*
X135258342Y-119017619D01*
X135258342Y-119017619D02*
X135353580Y-119065238D01*
X135353580Y-119065238D02*
X135401200Y-119112857D01*
X135401200Y-119112857D02*
X135448819Y-119208095D01*
X135448819Y-119208095D02*
X135448819Y-119303333D01*
X135448819Y-119303333D02*
X135401200Y-119398571D01*
X135401200Y-119398571D02*
X135353580Y-119446190D01*
X135353580Y-119446190D02*
X135258342Y-119493809D01*
X135258342Y-119493809D02*
X135067866Y-119541428D01*
X135067866Y-119541428D02*
X134829771Y-119541428D01*
X134829771Y-119541428D02*
X134639295Y-119493809D01*
X134639295Y-119493809D02*
X134544057Y-119446190D01*
X134544057Y-119446190D02*
X134496438Y-119398571D01*
X134496438Y-119398571D02*
X134448819Y-119303333D01*
X134448819Y-118112857D02*
X134448819Y-118303333D01*
X134448819Y-118303333D02*
X134496438Y-118398571D01*
X134496438Y-118398571D02*
X134544057Y-118446190D01*
X134544057Y-118446190D02*
X134686914Y-118541428D01*
X134686914Y-118541428D02*
X134877390Y-118589047D01*
X134877390Y-118589047D02*
X135258342Y-118589047D01*
X135258342Y-118589047D02*
X135353580Y-118541428D01*
X135353580Y-118541428D02*
X135401200Y-118493809D01*
X135401200Y-118493809D02*
X135448819Y-118398571D01*
X135448819Y-118398571D02*
X135448819Y-118208095D01*
X135448819Y-118208095D02*
X135401200Y-118112857D01*
X135401200Y-118112857D02*
X135353580Y-118065238D01*
X135353580Y-118065238D02*
X135258342Y-118017619D01*
X135258342Y-118017619D02*
X135020247Y-118017619D01*
X135020247Y-118017619D02*
X134925009Y-118065238D01*
X134925009Y-118065238D02*
X134877390Y-118112857D01*
X134877390Y-118112857D02*
X134829771Y-118208095D01*
X134829771Y-118208095D02*
X134829771Y-118398571D01*
X134829771Y-118398571D02*
X134877390Y-118493809D01*
X134877390Y-118493809D02*
X134925009Y-118541428D01*
X134925009Y-118541428D02*
X135020247Y-118589047D01*
D11*
X136660000Y-109940000D02*
X135557580Y-109940000D01*
X135557580Y-130000000D02*
X135938000Y-130000000D01*
X136144000Y-109940000D02*
X136144000Y-130000000D01*
X136144000Y-109940000D02*
X136730421Y-111066504D01*
X136144000Y-109940000D02*
X135557579Y-111066504D01*
X136144000Y-130000000D02*
X135557579Y-128873496D01*
X136144000Y-130000000D02*
X136730421Y-128873496D01*
D10*
X157190476Y-16338819D02*
X157809523Y-16338819D01*
X157809523Y-16338819D02*
X157476190Y-16719771D01*
X157476190Y-16719771D02*
X157619047Y-16719771D01*
X157619047Y-16719771D02*
X157714285Y-16767390D01*
X157714285Y-16767390D02*
X157761904Y-16815009D01*
X157761904Y-16815009D02*
X157809523Y-16910247D01*
X157809523Y-16910247D02*
X157809523Y-17148342D01*
X157809523Y-17148342D02*
X157761904Y-17243580D01*
X157761904Y-17243580D02*
X157714285Y-17291200D01*
X157714285Y-17291200D02*
X157619047Y-17338819D01*
X157619047Y-17338819D02*
X157333333Y-17338819D01*
X157333333Y-17338819D02*
X157238095Y-17291200D01*
X157238095Y-17291200D02*
X157190476Y-17243580D01*
X158714285Y-16338819D02*
X158238095Y-16338819D01*
X158238095Y-16338819D02*
X158190476Y-16815009D01*
X158190476Y-16815009D02*
X158238095Y-16767390D01*
X158238095Y-16767390D02*
X158333333Y-16719771D01*
X158333333Y-16719771D02*
X158571428Y-16719771D01*
X158571428Y-16719771D02*
X158666666Y-16767390D01*
X158666666Y-16767390D02*
X158714285Y-16815009D01*
X158714285Y-16815009D02*
X158761904Y-16910247D01*
X158761904Y-16910247D02*
X158761904Y-17148342D01*
X158761904Y-17148342D02*
X158714285Y-17243580D01*
X158714285Y-17243580D02*
X158666666Y-17291200D01*
X158666666Y-17291200D02*
X158571428Y-17338819D01*
X158571428Y-17338819D02*
X158333333Y-17338819D01*
X158333333Y-17338819D02*
X158238095Y-17291200D01*
X158238095Y-17291200D02*
X158190476Y-17243580D01*
D11*
X175500000Y-15500000D02*
X175500000Y-18620420D01*
X140500000Y-18620420D02*
X140500000Y-15500000D01*
X175500000Y-18034000D02*
X140500000Y-18034000D01*
X175500000Y-18034000D02*
X174373496Y-18620421D01*
X175500000Y-18034000D02*
X174373496Y-17447579D01*
X140500000Y-18034000D02*
X141626504Y-17447579D01*
X140500000Y-18034000D02*
X141626504Y-18620421D01*
D10*
X102309523Y-128209819D02*
X101738095Y-128209819D01*
X102023809Y-128209819D02*
X102023809Y-127209819D01*
X102023809Y-127209819D02*
X101928571Y-127352676D01*
X101928571Y-127352676D02*
X101833333Y-127447914D01*
X101833333Y-127447914D02*
X101738095Y-127495533D01*
X102642857Y-127209819D02*
X103309523Y-127209819D01*
X103309523Y-127209819D02*
X102880952Y-128209819D01*
D11*
X111000000Y-124950000D02*
X111000000Y-129491420D01*
X94000000Y-129491420D02*
X94000000Y-124950000D01*
X111000000Y-128905000D02*
X94000000Y-128905000D01*
X111000000Y-128905000D02*
X109873496Y-129491421D01*
X111000000Y-128905000D02*
X109873496Y-128318579D01*
X94000000Y-128905000D02*
X95126504Y-128318579D01*
X94000000Y-128905000D02*
X95126504Y-129491421D01*
M02*
