G04 #@! TF.GenerationSoftware,KiCad,Pcbnew,9.0.2*
G04 #@! TF.CreationDate,2026-04-23T15:55:16+02:00*
G04 #@! TF.ProjectId,hardware-pruefadapter,68617264-7761-4726-952d-707275656661,V1.1*
G04 #@! TF.SameCoordinates,Original*
G04 #@! TF.FileFunction,Legend,Bot*
G04 #@! TF.FilePolarity,Positive*
%FSLAX46Y46*%
G04 Gerber Fmt 4.6, Leading zero omitted, Abs format (unit mm)*
G04 Created by KiCad (PCBNEW 9.0.2) date 2026-04-23 15:55:16*
%MOMM*%
%LPD*%
G01*
G04 APERTURE LIST*
G04 Aperture macros list*
%AMRoundRect*
0 Rectangle with rounded corners*
0 $1 Rounding radius*
0 $2 $3 $4 $5 $6 $7 $8 $9 X,Y pos of 4 corners*
0 Add a 4 corners polygon primitive as box body*
4,1,4,$2,$3,$4,$5,$6,$7,$8,$9,$2,$3,0*
0 Add four circle primitives for the rounded corners*
1,1,$1+$1,$2,$3*
1,1,$1+$1,$4,$5*
1,1,$1+$1,$6,$7*
1,1,$1+$1,$8,$9*
0 Add four rect primitives between the rounded corners*
20,1,$1+$1,$2,$3,$4,$5,0*
20,1,$1+$1,$4,$5,$6,$7,0*
20,1,$1+$1,$6,$7,$8,$9,0*
20,1,$1+$1,$8,$9,$2,$3,0*%
G04 Aperture macros list end*
%ADD10C,0.150000*%
%ADD11C,0.200000*%
%ADD12C,0.100000*%
%ADD13C,0.127000*%
%ADD14RoundRect,0.049000X0.850000X0.850000X-0.850000X0.850000X-0.850000X-0.850000X0.850000X-0.850000X0*%
%ADD15C,1.798000*%
%ADD16C,0.848000*%
%ADD17C,1.854000*%
%ADD18C,3.298000*%
%ADD19RoundRect,0.049000X-0.850000X-0.850000X0.850000X-0.850000X0.850000X0.850000X-0.850000X0.850000X0*%
%ADD20C,0.748000*%
%ADD21O,1.254000X2.304000*%
%ADD22O,1.104000X2.004000*%
%ADD23RoundRect,0.102000X-1.125000X-1.125000X1.125000X-1.125000X1.125000X1.125000X-1.125000X1.125000X0*%
%ADD24C,2.454000*%
%ADD25RoundRect,0.102000X0.765000X0.765000X-0.765000X0.765000X-0.765000X-0.765000X0.765000X-0.765000X0*%
%ADD26C,1.734000*%
%ADD27RoundRect,0.102000X0.750000X0.450000X-0.750000X0.450000X-0.750000X-0.450000X0.750000X-0.450000X0*%
%ADD28RoundRect,0.102000X-0.400000X0.400000X-0.400000X-0.400000X0.400000X-0.400000X0.400000X0.400000X0*%
%ADD29RoundRect,0.102000X0.400000X-0.400000X0.400000X0.400000X-0.400000X0.400000X-0.400000X-0.400000X0*%
%ADD30RoundRect,0.053000X-0.519000X-0.159000X0.519000X-0.159000X0.519000X0.159000X-0.519000X0.159000X0*%
%ADD31RoundRect,0.053000X-0.159000X-0.519000X0.159000X-0.519000X0.159000X0.519000X-0.159000X0.519000X0*%
%ADD32RoundRect,0.102000X-1.400000X-1.400000X1.400000X-1.400000X1.400000X1.400000X-1.400000X1.400000X0*%
%ADD33C,0.804000*%
%ADD34RoundRect,0.053000X0.159000X-0.519000X0.159000X0.519000X-0.159000X0.519000X-0.159000X-0.519000X0*%
%ADD35RoundRect,0.053000X0.519000X-0.159000X0.519000X0.159000X-0.519000X0.159000X-0.519000X-0.159000X0*%
%ADD36RoundRect,0.102000X1.400000X-1.400000X1.400000X1.400000X-1.400000X1.400000X-1.400000X-1.400000X0*%
G04 APERTURE END LIST*
D10*
X210800000Y-4819819D02*
X210800000Y-3819819D01*
X210800000Y-3819819D02*
X210657143Y-3819819D01*
X210657143Y-3819819D02*
X210571429Y-3867438D01*
X210571429Y-3867438D02*
X210514286Y-3962676D01*
X210514286Y-3962676D02*
X210485715Y-4057914D01*
X210485715Y-4057914D02*
X210457143Y-4248390D01*
X210457143Y-4248390D02*
X210457143Y-4391247D01*
X210457143Y-4391247D02*
X210485715Y-4581723D01*
X210485715Y-4581723D02*
X210514286Y-4676961D01*
X210514286Y-4676961D02*
X210571429Y-4772200D01*
X210571429Y-4772200D02*
X210657143Y-4819819D01*
X210657143Y-4819819D02*
X210800000Y-4819819D01*
X209885715Y-4819819D02*
X210228572Y-4819819D01*
X210057143Y-4819819D02*
X210057143Y-3819819D01*
X210057143Y-3819819D02*
X210114286Y-3962676D01*
X210114286Y-3962676D02*
X210171429Y-4057914D01*
X210171429Y-4057914D02*
X210228572Y-4105533D01*
X209514286Y-3819819D02*
X209457143Y-3819819D01*
X209457143Y-3819819D02*
X209400000Y-3867438D01*
X209400000Y-3867438D02*
X209371429Y-3915057D01*
X209371429Y-3915057D02*
X209342857Y-4010295D01*
X209342857Y-4010295D02*
X209314286Y-4200771D01*
X209314286Y-4200771D02*
X209314286Y-4438866D01*
X209314286Y-4438866D02*
X209342857Y-4629342D01*
X209342857Y-4629342D02*
X209371429Y-4724580D01*
X209371429Y-4724580D02*
X209400000Y-4772200D01*
X209400000Y-4772200D02*
X209457143Y-4819819D01*
X209457143Y-4819819D02*
X209514286Y-4819819D01*
X209514286Y-4819819D02*
X209571429Y-4772200D01*
X209571429Y-4772200D02*
X209600000Y-4724580D01*
X209600000Y-4724580D02*
X209628571Y-4629342D01*
X209628571Y-4629342D02*
X209657143Y-4438866D01*
X209657143Y-4438866D02*
X209657143Y-4200771D01*
X209657143Y-4200771D02*
X209628571Y-4010295D01*
X209628571Y-4010295D02*
X209600000Y-3915057D01*
X209600000Y-3915057D02*
X209571429Y-3867438D01*
X209571429Y-3867438D02*
X209514286Y-3819819D01*
X208942857Y-3819819D02*
X208885714Y-3819819D01*
X208885714Y-3819819D02*
X208828571Y-3867438D01*
X208828571Y-3867438D02*
X208800000Y-3915057D01*
X208800000Y-3915057D02*
X208771428Y-4010295D01*
X208771428Y-4010295D02*
X208742857Y-4200771D01*
X208742857Y-4200771D02*
X208742857Y-4438866D01*
X208742857Y-4438866D02*
X208771428Y-4629342D01*
X208771428Y-4629342D02*
X208800000Y-4724580D01*
X208800000Y-4724580D02*
X208828571Y-4772200D01*
X208828571Y-4772200D02*
X208885714Y-4819819D01*
X208885714Y-4819819D02*
X208942857Y-4819819D01*
X208942857Y-4819819D02*
X209000000Y-4772200D01*
X209000000Y-4772200D02*
X209028571Y-4724580D01*
X209028571Y-4724580D02*
X209057142Y-4629342D01*
X209057142Y-4629342D02*
X209085714Y-4438866D01*
X209085714Y-4438866D02*
X209085714Y-4200771D01*
X209085714Y-4200771D02*
X209057142Y-4010295D01*
X209057142Y-4010295D02*
X209028571Y-3915057D01*
X209028571Y-3915057D02*
X209000000Y-3867438D01*
X209000000Y-3867438D02*
X208942857Y-3819819D01*
X208228571Y-3819819D02*
X208342856Y-3819819D01*
X208342856Y-3819819D02*
X208399999Y-3867438D01*
X208399999Y-3867438D02*
X208428571Y-3915057D01*
X208428571Y-3915057D02*
X208485713Y-4057914D01*
X208485713Y-4057914D02*
X208514285Y-4248390D01*
X208514285Y-4248390D02*
X208514285Y-4629342D01*
X208514285Y-4629342D02*
X208485713Y-4724580D01*
X208485713Y-4724580D02*
X208457142Y-4772200D01*
X208457142Y-4772200D02*
X208399999Y-4819819D01*
X208399999Y-4819819D02*
X208285713Y-4819819D01*
X208285713Y-4819819D02*
X208228571Y-4772200D01*
X208228571Y-4772200D02*
X208199999Y-4724580D01*
X208199999Y-4724580D02*
X208171428Y-4629342D01*
X208171428Y-4629342D02*
X208171428Y-4391247D01*
X208171428Y-4391247D02*
X208199999Y-4296009D01*
X208199999Y-4296009D02*
X208228571Y-4248390D01*
X208228571Y-4248390D02*
X208285713Y-4200771D01*
X208285713Y-4200771D02*
X208399999Y-4200771D01*
X208399999Y-4200771D02*
X208457142Y-4248390D01*
X208457142Y-4248390D02*
X208485713Y-4296009D01*
X208485713Y-4296009D02*
X208514285Y-4391247D01*
X206880951Y-5003866D02*
X206119047Y-5003866D01*
X206499999Y-5384819D02*
X206499999Y-4622914D01*
X187382819Y-33150570D02*
X188097104Y-33150570D01*
X188097104Y-33150570D02*
X188239961Y-33121999D01*
X188239961Y-33121999D02*
X188335200Y-33064856D01*
X188335200Y-33064856D02*
X188382819Y-32979142D01*
X188382819Y-32979142D02*
X188382819Y-32921999D01*
X187382819Y-33379142D02*
X187382819Y-33779142D01*
X187382819Y-33779142D02*
X188382819Y-33521999D01*
X187382819Y-34121999D02*
X187382819Y-34179142D01*
X187382819Y-34179142D02*
X187430438Y-34236285D01*
X187430438Y-34236285D02*
X187478057Y-34264857D01*
X187478057Y-34264857D02*
X187573295Y-34293428D01*
X187573295Y-34293428D02*
X187763771Y-34321999D01*
X187763771Y-34321999D02*
X188001866Y-34321999D01*
X188001866Y-34321999D02*
X188192342Y-34293428D01*
X188192342Y-34293428D02*
X188287580Y-34264857D01*
X188287580Y-34264857D02*
X188335200Y-34236285D01*
X188335200Y-34236285D02*
X188382819Y-34179142D01*
X188382819Y-34179142D02*
X188382819Y-34121999D01*
X188382819Y-34121999D02*
X188335200Y-34064857D01*
X188335200Y-34064857D02*
X188287580Y-34036285D01*
X188287580Y-34036285D02*
X188192342Y-34007714D01*
X188192342Y-34007714D02*
X188001866Y-33979142D01*
X188001866Y-33979142D02*
X187763771Y-33979142D01*
X187763771Y-33979142D02*
X187573295Y-34007714D01*
X187573295Y-34007714D02*
X187478057Y-34036285D01*
X187478057Y-34036285D02*
X187430438Y-34064857D01*
X187430438Y-34064857D02*
X187382819Y-34121999D01*
X187382819Y-34836286D02*
X187382819Y-34722000D01*
X187382819Y-34722000D02*
X187430438Y-34664857D01*
X187430438Y-34664857D02*
X187478057Y-34636286D01*
X187478057Y-34636286D02*
X187620914Y-34579143D01*
X187620914Y-34579143D02*
X187811390Y-34550571D01*
X187811390Y-34550571D02*
X188192342Y-34550571D01*
X188192342Y-34550571D02*
X188287580Y-34579143D01*
X188287580Y-34579143D02*
X188335200Y-34607714D01*
X188335200Y-34607714D02*
X188382819Y-34664857D01*
X188382819Y-34664857D02*
X188382819Y-34779143D01*
X188382819Y-34779143D02*
X188335200Y-34836286D01*
X188335200Y-34836286D02*
X188287580Y-34864857D01*
X188287580Y-34864857D02*
X188192342Y-34893428D01*
X188192342Y-34893428D02*
X187954247Y-34893428D01*
X187954247Y-34893428D02*
X187859009Y-34864857D01*
X187859009Y-34864857D02*
X187811390Y-34836286D01*
X187811390Y-34836286D02*
X187763771Y-34779143D01*
X187763771Y-34779143D02*
X187763771Y-34664857D01*
X187763771Y-34664857D02*
X187811390Y-34607714D01*
X187811390Y-34607714D02*
X187859009Y-34579143D01*
X187859009Y-34579143D02*
X187954247Y-34550571D01*
X186048419Y-123019999D02*
X185048419Y-123019999D01*
X185048419Y-123019999D02*
X185048419Y-123162856D01*
X185048419Y-123162856D02*
X185096038Y-123248570D01*
X185096038Y-123248570D02*
X185191276Y-123305713D01*
X185191276Y-123305713D02*
X185286514Y-123334284D01*
X185286514Y-123334284D02*
X185476990Y-123362856D01*
X185476990Y-123362856D02*
X185619847Y-123362856D01*
X185619847Y-123362856D02*
X185810323Y-123334284D01*
X185810323Y-123334284D02*
X185905561Y-123305713D01*
X185905561Y-123305713D02*
X186000800Y-123248570D01*
X186000800Y-123248570D02*
X186048419Y-123162856D01*
X186048419Y-123162856D02*
X186048419Y-123019999D01*
X186048419Y-123934284D02*
X186048419Y-123591427D01*
X186048419Y-123762856D02*
X185048419Y-123762856D01*
X185048419Y-123762856D02*
X185191276Y-123705713D01*
X185191276Y-123705713D02*
X185286514Y-123648570D01*
X185286514Y-123648570D02*
X185334133Y-123591427D01*
X185143657Y-124162856D02*
X185096038Y-124191428D01*
X185096038Y-124191428D02*
X185048419Y-124248571D01*
X185048419Y-124248571D02*
X185048419Y-124391428D01*
X185048419Y-124391428D02*
X185096038Y-124448571D01*
X185096038Y-124448571D02*
X185143657Y-124477142D01*
X185143657Y-124477142D02*
X185238895Y-124505713D01*
X185238895Y-124505713D02*
X185334133Y-124505713D01*
X185334133Y-124505713D02*
X185476990Y-124477142D01*
X185476990Y-124477142D02*
X186048419Y-124134285D01*
X186048419Y-124134285D02*
X186048419Y-124505713D01*
X185048419Y-124877142D02*
X185048419Y-124934285D01*
X185048419Y-124934285D02*
X185096038Y-124991428D01*
X185096038Y-124991428D02*
X185143657Y-125020000D01*
X185143657Y-125020000D02*
X185238895Y-125048571D01*
X185238895Y-125048571D02*
X185429371Y-125077142D01*
X185429371Y-125077142D02*
X185667466Y-125077142D01*
X185667466Y-125077142D02*
X185857942Y-125048571D01*
X185857942Y-125048571D02*
X185953180Y-125020000D01*
X185953180Y-125020000D02*
X186000800Y-124991428D01*
X186000800Y-124991428D02*
X186048419Y-124934285D01*
X186048419Y-124934285D02*
X186048419Y-124877142D01*
X186048419Y-124877142D02*
X186000800Y-124820000D01*
X186000800Y-124820000D02*
X185953180Y-124791428D01*
X185953180Y-124791428D02*
X185857942Y-124762857D01*
X185857942Y-124762857D02*
X185667466Y-124734285D01*
X185667466Y-124734285D02*
X185429371Y-124734285D01*
X185429371Y-124734285D02*
X185238895Y-124762857D01*
X185238895Y-124762857D02*
X185143657Y-124791428D01*
X185143657Y-124791428D02*
X185096038Y-124820000D01*
X185096038Y-124820000D02*
X185048419Y-124877142D01*
X185381752Y-125591429D02*
X186048419Y-125591429D01*
X185000800Y-125448571D02*
X185715085Y-125305714D01*
X185715085Y-125305714D02*
X185715085Y-125677143D01*
X187913866Y-125609048D02*
X187913866Y-126370953D01*
X188294819Y-125990000D02*
X187532914Y-125990000D01*
X210800000Y-12819819D02*
X210800000Y-11819819D01*
X210800000Y-11819819D02*
X210657143Y-11819819D01*
X210657143Y-11819819D02*
X210571429Y-11867438D01*
X210571429Y-11867438D02*
X210514286Y-11962676D01*
X210514286Y-11962676D02*
X210485715Y-12057914D01*
X210485715Y-12057914D02*
X210457143Y-12248390D01*
X210457143Y-12248390D02*
X210457143Y-12391247D01*
X210457143Y-12391247D02*
X210485715Y-12581723D01*
X210485715Y-12581723D02*
X210514286Y-12676961D01*
X210514286Y-12676961D02*
X210571429Y-12772200D01*
X210571429Y-12772200D02*
X210657143Y-12819819D01*
X210657143Y-12819819D02*
X210800000Y-12819819D01*
X209885715Y-12819819D02*
X210228572Y-12819819D01*
X210057143Y-12819819D02*
X210057143Y-11819819D01*
X210057143Y-11819819D02*
X210114286Y-11962676D01*
X210114286Y-11962676D02*
X210171429Y-12057914D01*
X210171429Y-12057914D02*
X210228572Y-12105533D01*
X209514286Y-11819819D02*
X209457143Y-11819819D01*
X209457143Y-11819819D02*
X209400000Y-11867438D01*
X209400000Y-11867438D02*
X209371429Y-11915057D01*
X209371429Y-11915057D02*
X209342857Y-12010295D01*
X209342857Y-12010295D02*
X209314286Y-12200771D01*
X209314286Y-12200771D02*
X209314286Y-12438866D01*
X209314286Y-12438866D02*
X209342857Y-12629342D01*
X209342857Y-12629342D02*
X209371429Y-12724580D01*
X209371429Y-12724580D02*
X209400000Y-12772200D01*
X209400000Y-12772200D02*
X209457143Y-12819819D01*
X209457143Y-12819819D02*
X209514286Y-12819819D01*
X209514286Y-12819819D02*
X209571429Y-12772200D01*
X209571429Y-12772200D02*
X209600000Y-12724580D01*
X209600000Y-12724580D02*
X209628571Y-12629342D01*
X209628571Y-12629342D02*
X209657143Y-12438866D01*
X209657143Y-12438866D02*
X209657143Y-12200771D01*
X209657143Y-12200771D02*
X209628571Y-12010295D01*
X209628571Y-12010295D02*
X209600000Y-11915057D01*
X209600000Y-11915057D02*
X209571429Y-11867438D01*
X209571429Y-11867438D02*
X209514286Y-11819819D01*
X208942857Y-11819819D02*
X208885714Y-11819819D01*
X208885714Y-11819819D02*
X208828571Y-11867438D01*
X208828571Y-11867438D02*
X208800000Y-11915057D01*
X208800000Y-11915057D02*
X208771428Y-12010295D01*
X208771428Y-12010295D02*
X208742857Y-12200771D01*
X208742857Y-12200771D02*
X208742857Y-12438866D01*
X208742857Y-12438866D02*
X208771428Y-12629342D01*
X208771428Y-12629342D02*
X208800000Y-12724580D01*
X208800000Y-12724580D02*
X208828571Y-12772200D01*
X208828571Y-12772200D02*
X208885714Y-12819819D01*
X208885714Y-12819819D02*
X208942857Y-12819819D01*
X208942857Y-12819819D02*
X209000000Y-12772200D01*
X209000000Y-12772200D02*
X209028571Y-12724580D01*
X209028571Y-12724580D02*
X209057142Y-12629342D01*
X209057142Y-12629342D02*
X209085714Y-12438866D01*
X209085714Y-12438866D02*
X209085714Y-12200771D01*
X209085714Y-12200771D02*
X209057142Y-12010295D01*
X209057142Y-12010295D02*
X209028571Y-11915057D01*
X209028571Y-11915057D02*
X209000000Y-11867438D01*
X209000000Y-11867438D02*
X208942857Y-11819819D01*
X208399999Y-12248390D02*
X208457142Y-12200771D01*
X208457142Y-12200771D02*
X208485713Y-12153152D01*
X208485713Y-12153152D02*
X208514285Y-12057914D01*
X208514285Y-12057914D02*
X208514285Y-12010295D01*
X208514285Y-12010295D02*
X208485713Y-11915057D01*
X208485713Y-11915057D02*
X208457142Y-11867438D01*
X208457142Y-11867438D02*
X208399999Y-11819819D01*
X208399999Y-11819819D02*
X208285713Y-11819819D01*
X208285713Y-11819819D02*
X208228571Y-11867438D01*
X208228571Y-11867438D02*
X208199999Y-11915057D01*
X208199999Y-11915057D02*
X208171428Y-12010295D01*
X208171428Y-12010295D02*
X208171428Y-12057914D01*
X208171428Y-12057914D02*
X208199999Y-12153152D01*
X208199999Y-12153152D02*
X208228571Y-12200771D01*
X208228571Y-12200771D02*
X208285713Y-12248390D01*
X208285713Y-12248390D02*
X208399999Y-12248390D01*
X208399999Y-12248390D02*
X208457142Y-12296009D01*
X208457142Y-12296009D02*
X208485713Y-12343628D01*
X208485713Y-12343628D02*
X208514285Y-12438866D01*
X208514285Y-12438866D02*
X208514285Y-12629342D01*
X208514285Y-12629342D02*
X208485713Y-12724580D01*
X208485713Y-12724580D02*
X208457142Y-12772200D01*
X208457142Y-12772200D02*
X208399999Y-12819819D01*
X208399999Y-12819819D02*
X208285713Y-12819819D01*
X208285713Y-12819819D02*
X208228571Y-12772200D01*
X208228571Y-12772200D02*
X208199999Y-12724580D01*
X208199999Y-12724580D02*
X208171428Y-12629342D01*
X208171428Y-12629342D02*
X208171428Y-12438866D01*
X208171428Y-12438866D02*
X208199999Y-12343628D01*
X208199999Y-12343628D02*
X208228571Y-12296009D01*
X208228571Y-12296009D02*
X208285713Y-12248390D01*
X206880951Y-13003866D02*
X206119047Y-13003866D01*
X206499999Y-13384819D02*
X206499999Y-12622914D01*
X106800000Y-12819819D02*
X106800000Y-11819819D01*
X106800000Y-11819819D02*
X106657143Y-11819819D01*
X106657143Y-11819819D02*
X106571429Y-11867438D01*
X106571429Y-11867438D02*
X106514286Y-11962676D01*
X106514286Y-11962676D02*
X106485715Y-12057914D01*
X106485715Y-12057914D02*
X106457143Y-12248390D01*
X106457143Y-12248390D02*
X106457143Y-12391247D01*
X106457143Y-12391247D02*
X106485715Y-12581723D01*
X106485715Y-12581723D02*
X106514286Y-12676961D01*
X106514286Y-12676961D02*
X106571429Y-12772200D01*
X106571429Y-12772200D02*
X106657143Y-12819819D01*
X106657143Y-12819819D02*
X106800000Y-12819819D01*
X105885715Y-12819819D02*
X106228572Y-12819819D01*
X106057143Y-12819819D02*
X106057143Y-11819819D01*
X106057143Y-11819819D02*
X106114286Y-11962676D01*
X106114286Y-11962676D02*
X106171429Y-12057914D01*
X106171429Y-12057914D02*
X106228572Y-12105533D01*
X105514286Y-11819819D02*
X105457143Y-11819819D01*
X105457143Y-11819819D02*
X105400000Y-11867438D01*
X105400000Y-11867438D02*
X105371429Y-11915057D01*
X105371429Y-11915057D02*
X105342857Y-12010295D01*
X105342857Y-12010295D02*
X105314286Y-12200771D01*
X105314286Y-12200771D02*
X105314286Y-12438866D01*
X105314286Y-12438866D02*
X105342857Y-12629342D01*
X105342857Y-12629342D02*
X105371429Y-12724580D01*
X105371429Y-12724580D02*
X105400000Y-12772200D01*
X105400000Y-12772200D02*
X105457143Y-12819819D01*
X105457143Y-12819819D02*
X105514286Y-12819819D01*
X105514286Y-12819819D02*
X105571429Y-12772200D01*
X105571429Y-12772200D02*
X105600000Y-12724580D01*
X105600000Y-12724580D02*
X105628571Y-12629342D01*
X105628571Y-12629342D02*
X105657143Y-12438866D01*
X105657143Y-12438866D02*
X105657143Y-12200771D01*
X105657143Y-12200771D02*
X105628571Y-12010295D01*
X105628571Y-12010295D02*
X105600000Y-11915057D01*
X105600000Y-11915057D02*
X105571429Y-11867438D01*
X105571429Y-11867438D02*
X105514286Y-11819819D01*
X104942857Y-11819819D02*
X104885714Y-11819819D01*
X104885714Y-11819819D02*
X104828571Y-11867438D01*
X104828571Y-11867438D02*
X104800000Y-11915057D01*
X104800000Y-11915057D02*
X104771428Y-12010295D01*
X104771428Y-12010295D02*
X104742857Y-12200771D01*
X104742857Y-12200771D02*
X104742857Y-12438866D01*
X104742857Y-12438866D02*
X104771428Y-12629342D01*
X104771428Y-12629342D02*
X104800000Y-12724580D01*
X104800000Y-12724580D02*
X104828571Y-12772200D01*
X104828571Y-12772200D02*
X104885714Y-12819819D01*
X104885714Y-12819819D02*
X104942857Y-12819819D01*
X104942857Y-12819819D02*
X105000000Y-12772200D01*
X105000000Y-12772200D02*
X105028571Y-12724580D01*
X105028571Y-12724580D02*
X105057142Y-12629342D01*
X105057142Y-12629342D02*
X105085714Y-12438866D01*
X105085714Y-12438866D02*
X105085714Y-12200771D01*
X105085714Y-12200771D02*
X105057142Y-12010295D01*
X105057142Y-12010295D02*
X105028571Y-11915057D01*
X105028571Y-11915057D02*
X105000000Y-11867438D01*
X105000000Y-11867438D02*
X104942857Y-11819819D01*
X104542856Y-11819819D02*
X104171428Y-11819819D01*
X104171428Y-11819819D02*
X104371428Y-12200771D01*
X104371428Y-12200771D02*
X104285713Y-12200771D01*
X104285713Y-12200771D02*
X104228571Y-12248390D01*
X104228571Y-12248390D02*
X104199999Y-12296009D01*
X104199999Y-12296009D02*
X104171428Y-12391247D01*
X104171428Y-12391247D02*
X104171428Y-12629342D01*
X104171428Y-12629342D02*
X104199999Y-12724580D01*
X104199999Y-12724580D02*
X104228571Y-12772200D01*
X104228571Y-12772200D02*
X104285713Y-12819819D01*
X104285713Y-12819819D02*
X104457142Y-12819819D01*
X104457142Y-12819819D02*
X104514285Y-12772200D01*
X104514285Y-12772200D02*
X104542856Y-12724580D01*
X102880951Y-13003866D02*
X102119047Y-13003866D01*
X102499999Y-13384819D02*
X102499999Y-12622914D01*
X89927000Y-3803819D02*
X89927000Y-2803819D01*
X89927000Y-2803819D02*
X89784143Y-2803819D01*
X89784143Y-2803819D02*
X89698429Y-2851438D01*
X89698429Y-2851438D02*
X89641286Y-2946676D01*
X89641286Y-2946676D02*
X89612715Y-3041914D01*
X89612715Y-3041914D02*
X89584143Y-3232390D01*
X89584143Y-3232390D02*
X89584143Y-3375247D01*
X89584143Y-3375247D02*
X89612715Y-3565723D01*
X89612715Y-3565723D02*
X89641286Y-3660961D01*
X89641286Y-3660961D02*
X89698429Y-3756200D01*
X89698429Y-3756200D02*
X89784143Y-3803819D01*
X89784143Y-3803819D02*
X89927000Y-3803819D01*
X89012715Y-3803819D02*
X89355572Y-3803819D01*
X89184143Y-3803819D02*
X89184143Y-2803819D01*
X89184143Y-2803819D02*
X89241286Y-2946676D01*
X89241286Y-2946676D02*
X89298429Y-3041914D01*
X89298429Y-3041914D02*
X89355572Y-3089533D01*
X88641286Y-2803819D02*
X88584143Y-2803819D01*
X88584143Y-2803819D02*
X88527000Y-2851438D01*
X88527000Y-2851438D02*
X88498429Y-2899057D01*
X88498429Y-2899057D02*
X88469857Y-2994295D01*
X88469857Y-2994295D02*
X88441286Y-3184771D01*
X88441286Y-3184771D02*
X88441286Y-3422866D01*
X88441286Y-3422866D02*
X88469857Y-3613342D01*
X88469857Y-3613342D02*
X88498429Y-3708580D01*
X88498429Y-3708580D02*
X88527000Y-3756200D01*
X88527000Y-3756200D02*
X88584143Y-3803819D01*
X88584143Y-3803819D02*
X88641286Y-3803819D01*
X88641286Y-3803819D02*
X88698429Y-3756200D01*
X88698429Y-3756200D02*
X88727000Y-3708580D01*
X88727000Y-3708580D02*
X88755571Y-3613342D01*
X88755571Y-3613342D02*
X88784143Y-3422866D01*
X88784143Y-3422866D02*
X88784143Y-3184771D01*
X88784143Y-3184771D02*
X88755571Y-2994295D01*
X88755571Y-2994295D02*
X88727000Y-2899057D01*
X88727000Y-2899057D02*
X88698429Y-2851438D01*
X88698429Y-2851438D02*
X88641286Y-2803819D01*
X88069857Y-2803819D02*
X88012714Y-2803819D01*
X88012714Y-2803819D02*
X87955571Y-2851438D01*
X87955571Y-2851438D02*
X87927000Y-2899057D01*
X87927000Y-2899057D02*
X87898428Y-2994295D01*
X87898428Y-2994295D02*
X87869857Y-3184771D01*
X87869857Y-3184771D02*
X87869857Y-3422866D01*
X87869857Y-3422866D02*
X87898428Y-3613342D01*
X87898428Y-3613342D02*
X87927000Y-3708580D01*
X87927000Y-3708580D02*
X87955571Y-3756200D01*
X87955571Y-3756200D02*
X88012714Y-3803819D01*
X88012714Y-3803819D02*
X88069857Y-3803819D01*
X88069857Y-3803819D02*
X88127000Y-3756200D01*
X88127000Y-3756200D02*
X88155571Y-3708580D01*
X88155571Y-3708580D02*
X88184142Y-3613342D01*
X88184142Y-3613342D02*
X88212714Y-3422866D01*
X88212714Y-3422866D02*
X88212714Y-3184771D01*
X88212714Y-3184771D02*
X88184142Y-2994295D01*
X88184142Y-2994295D02*
X88155571Y-2899057D01*
X88155571Y-2899057D02*
X88127000Y-2851438D01*
X88127000Y-2851438D02*
X88069857Y-2803819D01*
X87326999Y-2803819D02*
X87612713Y-2803819D01*
X87612713Y-2803819D02*
X87641285Y-3280009D01*
X87641285Y-3280009D02*
X87612713Y-3232390D01*
X87612713Y-3232390D02*
X87555571Y-3184771D01*
X87555571Y-3184771D02*
X87412713Y-3184771D01*
X87412713Y-3184771D02*
X87355571Y-3232390D01*
X87355571Y-3232390D02*
X87326999Y-3280009D01*
X87326999Y-3280009D02*
X87298428Y-3375247D01*
X87298428Y-3375247D02*
X87298428Y-3613342D01*
X87298428Y-3613342D02*
X87326999Y-3708580D01*
X87326999Y-3708580D02*
X87355571Y-3756200D01*
X87355571Y-3756200D02*
X87412713Y-3803819D01*
X87412713Y-3803819D02*
X87555571Y-3803819D01*
X87555571Y-3803819D02*
X87612713Y-3756200D01*
X87612713Y-3756200D02*
X87641285Y-3708580D01*
X86007951Y-3987866D02*
X85246047Y-3987866D01*
X85626999Y-4368819D02*
X85626999Y-3606914D01*
X112861219Y-123019999D02*
X111861219Y-123019999D01*
X111861219Y-123019999D02*
X111861219Y-123162856D01*
X111861219Y-123162856D02*
X111908838Y-123248570D01*
X111908838Y-123248570D02*
X112004076Y-123305713D01*
X112004076Y-123305713D02*
X112099314Y-123334284D01*
X112099314Y-123334284D02*
X112289790Y-123362856D01*
X112289790Y-123362856D02*
X112432647Y-123362856D01*
X112432647Y-123362856D02*
X112623123Y-123334284D01*
X112623123Y-123334284D02*
X112718361Y-123305713D01*
X112718361Y-123305713D02*
X112813600Y-123248570D01*
X112813600Y-123248570D02*
X112861219Y-123162856D01*
X112861219Y-123162856D02*
X112861219Y-123019999D01*
X112861219Y-123934284D02*
X112861219Y-123591427D01*
X112861219Y-123762856D02*
X111861219Y-123762856D01*
X111861219Y-123762856D02*
X112004076Y-123705713D01*
X112004076Y-123705713D02*
X112099314Y-123648570D01*
X112099314Y-123648570D02*
X112146933Y-123591427D01*
X111861219Y-124134285D02*
X111861219Y-124505713D01*
X111861219Y-124505713D02*
X112242171Y-124305713D01*
X112242171Y-124305713D02*
X112242171Y-124391428D01*
X112242171Y-124391428D02*
X112289790Y-124448571D01*
X112289790Y-124448571D02*
X112337409Y-124477142D01*
X112337409Y-124477142D02*
X112432647Y-124505713D01*
X112432647Y-124505713D02*
X112670742Y-124505713D01*
X112670742Y-124505713D02*
X112765980Y-124477142D01*
X112765980Y-124477142D02*
X112813600Y-124448571D01*
X112813600Y-124448571D02*
X112861219Y-124391428D01*
X112861219Y-124391428D02*
X112861219Y-124219999D01*
X112861219Y-124219999D02*
X112813600Y-124162856D01*
X112813600Y-124162856D02*
X112765980Y-124134285D01*
X111861219Y-124877142D02*
X111861219Y-124934285D01*
X111861219Y-124934285D02*
X111908838Y-124991428D01*
X111908838Y-124991428D02*
X111956457Y-125020000D01*
X111956457Y-125020000D02*
X112051695Y-125048571D01*
X112051695Y-125048571D02*
X112242171Y-125077142D01*
X112242171Y-125077142D02*
X112480266Y-125077142D01*
X112480266Y-125077142D02*
X112670742Y-125048571D01*
X112670742Y-125048571D02*
X112765980Y-125020000D01*
X112765980Y-125020000D02*
X112813600Y-124991428D01*
X112813600Y-124991428D02*
X112861219Y-124934285D01*
X112861219Y-124934285D02*
X112861219Y-124877142D01*
X112861219Y-124877142D02*
X112813600Y-124820000D01*
X112813600Y-124820000D02*
X112765980Y-124791428D01*
X112765980Y-124791428D02*
X112670742Y-124762857D01*
X112670742Y-124762857D02*
X112480266Y-124734285D01*
X112480266Y-124734285D02*
X112242171Y-124734285D01*
X112242171Y-124734285D02*
X112051695Y-124762857D01*
X112051695Y-124762857D02*
X111956457Y-124791428D01*
X111956457Y-124791428D02*
X111908838Y-124820000D01*
X111908838Y-124820000D02*
X111861219Y-124877142D01*
X111861219Y-125277143D02*
X111861219Y-125648571D01*
X111861219Y-125648571D02*
X112242171Y-125448571D01*
X112242171Y-125448571D02*
X112242171Y-125534286D01*
X112242171Y-125534286D02*
X112289790Y-125591429D01*
X112289790Y-125591429D02*
X112337409Y-125620000D01*
X112337409Y-125620000D02*
X112432647Y-125648571D01*
X112432647Y-125648571D02*
X112670742Y-125648571D01*
X112670742Y-125648571D02*
X112765980Y-125620000D01*
X112765980Y-125620000D02*
X112813600Y-125591429D01*
X112813600Y-125591429D02*
X112861219Y-125534286D01*
X112861219Y-125534286D02*
X112861219Y-125362857D01*
X112861219Y-125362857D02*
X112813600Y-125305714D01*
X112813600Y-125305714D02*
X112765980Y-125277143D01*
X110233866Y-122269048D02*
X110233866Y-123030953D01*
X110614819Y-122650000D02*
X109852914Y-122650000D01*
X144458761Y-53342819D02*
X144458761Y-52342819D01*
X143411143Y-53247580D02*
X143458762Y-53295200D01*
X143458762Y-53295200D02*
X143601619Y-53342819D01*
X143601619Y-53342819D02*
X143696857Y-53342819D01*
X143696857Y-53342819D02*
X143839714Y-53295200D01*
X143839714Y-53295200D02*
X143934952Y-53199961D01*
X143934952Y-53199961D02*
X143982571Y-53104723D01*
X143982571Y-53104723D02*
X144030190Y-52914247D01*
X144030190Y-52914247D02*
X144030190Y-52771390D01*
X144030190Y-52771390D02*
X143982571Y-52580914D01*
X143982571Y-52580914D02*
X143934952Y-52485676D01*
X143934952Y-52485676D02*
X143839714Y-52390438D01*
X143839714Y-52390438D02*
X143696857Y-52342819D01*
X143696857Y-52342819D02*
X143601619Y-52342819D01*
X143601619Y-52342819D02*
X143458762Y-52390438D01*
X143458762Y-52390438D02*
X143411143Y-52438057D01*
X142458762Y-53342819D02*
X143030190Y-53342819D01*
X142744476Y-53342819D02*
X142744476Y-52342819D01*
X142744476Y-52342819D02*
X142839714Y-52485676D01*
X142839714Y-52485676D02*
X142934952Y-52580914D01*
X142934952Y-52580914D02*
X143030190Y-52628533D01*
X141839714Y-52342819D02*
X141744476Y-52342819D01*
X141744476Y-52342819D02*
X141649238Y-52390438D01*
X141649238Y-52390438D02*
X141601619Y-52438057D01*
X141601619Y-52438057D02*
X141554000Y-52533295D01*
X141554000Y-52533295D02*
X141506381Y-52723771D01*
X141506381Y-52723771D02*
X141506381Y-52961866D01*
X141506381Y-52961866D02*
X141554000Y-53152342D01*
X141554000Y-53152342D02*
X141601619Y-53247580D01*
X141601619Y-53247580D02*
X141649238Y-53295200D01*
X141649238Y-53295200D02*
X141744476Y-53342819D01*
X141744476Y-53342819D02*
X141839714Y-53342819D01*
X141839714Y-53342819D02*
X141934952Y-53295200D01*
X141934952Y-53295200D02*
X141982571Y-53247580D01*
X141982571Y-53247580D02*
X142030190Y-53152342D01*
X142030190Y-53152342D02*
X142077809Y-52961866D01*
X142077809Y-52961866D02*
X142077809Y-52723771D01*
X142077809Y-52723771D02*
X142030190Y-52533295D01*
X142030190Y-52533295D02*
X141982571Y-52438057D01*
X141982571Y-52438057D02*
X141934952Y-52390438D01*
X141934952Y-52390438D02*
X141839714Y-52342819D01*
X140887333Y-52342819D02*
X140792095Y-52342819D01*
X140792095Y-52342819D02*
X140696857Y-52390438D01*
X140696857Y-52390438D02*
X140649238Y-52438057D01*
X140649238Y-52438057D02*
X140601619Y-52533295D01*
X140601619Y-52533295D02*
X140554000Y-52723771D01*
X140554000Y-52723771D02*
X140554000Y-52961866D01*
X140554000Y-52961866D02*
X140601619Y-53152342D01*
X140601619Y-53152342D02*
X140649238Y-53247580D01*
X140649238Y-53247580D02*
X140696857Y-53295200D01*
X140696857Y-53295200D02*
X140792095Y-53342819D01*
X140792095Y-53342819D02*
X140887333Y-53342819D01*
X140887333Y-53342819D02*
X140982571Y-53295200D01*
X140982571Y-53295200D02*
X141030190Y-53247580D01*
X141030190Y-53247580D02*
X141077809Y-53152342D01*
X141077809Y-53152342D02*
X141125428Y-52961866D01*
X141125428Y-52961866D02*
X141125428Y-52723771D01*
X141125428Y-52723771D02*
X141077809Y-52533295D01*
X141077809Y-52533295D02*
X141030190Y-52438057D01*
X141030190Y-52438057D02*
X140982571Y-52390438D01*
X140982571Y-52390438D02*
X140887333Y-52342819D01*
X140220666Y-52342819D02*
X139601619Y-52342819D01*
X139601619Y-52342819D02*
X139934952Y-52723771D01*
X139934952Y-52723771D02*
X139792095Y-52723771D01*
X139792095Y-52723771D02*
X139696857Y-52771390D01*
X139696857Y-52771390D02*
X139649238Y-52819009D01*
X139649238Y-52819009D02*
X139601619Y-52914247D01*
X139601619Y-52914247D02*
X139601619Y-53152342D01*
X139601619Y-53152342D02*
X139649238Y-53247580D01*
X139649238Y-53247580D02*
X139696857Y-53295200D01*
X139696857Y-53295200D02*
X139792095Y-53342819D01*
X139792095Y-53342819D02*
X140077809Y-53342819D01*
X140077809Y-53342819D02*
X140173047Y-53295200D01*
X140173047Y-53295200D02*
X140220666Y-53247580D01*
X227800000Y-12819819D02*
X227800000Y-11819819D01*
X227800000Y-11819819D02*
X227657143Y-11819819D01*
X227657143Y-11819819D02*
X227571429Y-11867438D01*
X227571429Y-11867438D02*
X227514286Y-11962676D01*
X227514286Y-11962676D02*
X227485715Y-12057914D01*
X227485715Y-12057914D02*
X227457143Y-12248390D01*
X227457143Y-12248390D02*
X227457143Y-12391247D01*
X227457143Y-12391247D02*
X227485715Y-12581723D01*
X227485715Y-12581723D02*
X227514286Y-12676961D01*
X227514286Y-12676961D02*
X227571429Y-12772200D01*
X227571429Y-12772200D02*
X227657143Y-12819819D01*
X227657143Y-12819819D02*
X227800000Y-12819819D01*
X226885715Y-12819819D02*
X227228572Y-12819819D01*
X227057143Y-12819819D02*
X227057143Y-11819819D01*
X227057143Y-11819819D02*
X227114286Y-11962676D01*
X227114286Y-11962676D02*
X227171429Y-12057914D01*
X227171429Y-12057914D02*
X227228572Y-12105533D01*
X226514286Y-11819819D02*
X226457143Y-11819819D01*
X226457143Y-11819819D02*
X226400000Y-11867438D01*
X226400000Y-11867438D02*
X226371429Y-11915057D01*
X226371429Y-11915057D02*
X226342857Y-12010295D01*
X226342857Y-12010295D02*
X226314286Y-12200771D01*
X226314286Y-12200771D02*
X226314286Y-12438866D01*
X226314286Y-12438866D02*
X226342857Y-12629342D01*
X226342857Y-12629342D02*
X226371429Y-12724580D01*
X226371429Y-12724580D02*
X226400000Y-12772200D01*
X226400000Y-12772200D02*
X226457143Y-12819819D01*
X226457143Y-12819819D02*
X226514286Y-12819819D01*
X226514286Y-12819819D02*
X226571429Y-12772200D01*
X226571429Y-12772200D02*
X226600000Y-12724580D01*
X226600000Y-12724580D02*
X226628571Y-12629342D01*
X226628571Y-12629342D02*
X226657143Y-12438866D01*
X226657143Y-12438866D02*
X226657143Y-12200771D01*
X226657143Y-12200771D02*
X226628571Y-12010295D01*
X226628571Y-12010295D02*
X226600000Y-11915057D01*
X226600000Y-11915057D02*
X226571429Y-11867438D01*
X226571429Y-11867438D02*
X226514286Y-11819819D01*
X225942857Y-11819819D02*
X225885714Y-11819819D01*
X225885714Y-11819819D02*
X225828571Y-11867438D01*
X225828571Y-11867438D02*
X225800000Y-11915057D01*
X225800000Y-11915057D02*
X225771428Y-12010295D01*
X225771428Y-12010295D02*
X225742857Y-12200771D01*
X225742857Y-12200771D02*
X225742857Y-12438866D01*
X225742857Y-12438866D02*
X225771428Y-12629342D01*
X225771428Y-12629342D02*
X225800000Y-12724580D01*
X225800000Y-12724580D02*
X225828571Y-12772200D01*
X225828571Y-12772200D02*
X225885714Y-12819819D01*
X225885714Y-12819819D02*
X225942857Y-12819819D01*
X225942857Y-12819819D02*
X226000000Y-12772200D01*
X226000000Y-12772200D02*
X226028571Y-12724580D01*
X226028571Y-12724580D02*
X226057142Y-12629342D01*
X226057142Y-12629342D02*
X226085714Y-12438866D01*
X226085714Y-12438866D02*
X226085714Y-12200771D01*
X226085714Y-12200771D02*
X226057142Y-12010295D01*
X226057142Y-12010295D02*
X226028571Y-11915057D01*
X226028571Y-11915057D02*
X226000000Y-11867438D01*
X226000000Y-11867438D02*
X225942857Y-11819819D01*
X225228571Y-12153152D02*
X225228571Y-12819819D01*
X225371428Y-11772200D02*
X225514285Y-12486485D01*
X225514285Y-12486485D02*
X225142856Y-12486485D01*
X223880951Y-13003866D02*
X223119047Y-13003866D01*
X223499999Y-13384819D02*
X223499999Y-12622914D01*
X171144819Y-33912570D02*
X171859104Y-33912570D01*
X171859104Y-33912570D02*
X172001961Y-33883999D01*
X172001961Y-33883999D02*
X172097200Y-33826856D01*
X172097200Y-33826856D02*
X172144819Y-33741142D01*
X172144819Y-33741142D02*
X172144819Y-33683999D01*
X171144819Y-34141142D02*
X171144819Y-34541142D01*
X171144819Y-34541142D02*
X172144819Y-34283999D01*
X171144819Y-34883999D02*
X171144819Y-34941142D01*
X171144819Y-34941142D02*
X171192438Y-34998285D01*
X171192438Y-34998285D02*
X171240057Y-35026857D01*
X171240057Y-35026857D02*
X171335295Y-35055428D01*
X171335295Y-35055428D02*
X171525771Y-35083999D01*
X171525771Y-35083999D02*
X171763866Y-35083999D01*
X171763866Y-35083999D02*
X171954342Y-35055428D01*
X171954342Y-35055428D02*
X172049580Y-35026857D01*
X172049580Y-35026857D02*
X172097200Y-34998285D01*
X172097200Y-34998285D02*
X172144819Y-34941142D01*
X172144819Y-34941142D02*
X172144819Y-34883999D01*
X172144819Y-34883999D02*
X172097200Y-34826857D01*
X172097200Y-34826857D02*
X172049580Y-34798285D01*
X172049580Y-34798285D02*
X171954342Y-34769714D01*
X171954342Y-34769714D02*
X171763866Y-34741142D01*
X171763866Y-34741142D02*
X171525771Y-34741142D01*
X171525771Y-34741142D02*
X171335295Y-34769714D01*
X171335295Y-34769714D02*
X171240057Y-34798285D01*
X171240057Y-34798285D02*
X171192438Y-34826857D01*
X171192438Y-34826857D02*
X171144819Y-34883999D01*
X171573390Y-35426857D02*
X171525771Y-35369714D01*
X171525771Y-35369714D02*
X171478152Y-35341143D01*
X171478152Y-35341143D02*
X171382914Y-35312571D01*
X171382914Y-35312571D02*
X171335295Y-35312571D01*
X171335295Y-35312571D02*
X171240057Y-35341143D01*
X171240057Y-35341143D02*
X171192438Y-35369714D01*
X171192438Y-35369714D02*
X171144819Y-35426857D01*
X171144819Y-35426857D02*
X171144819Y-35541143D01*
X171144819Y-35541143D02*
X171192438Y-35598286D01*
X171192438Y-35598286D02*
X171240057Y-35626857D01*
X171240057Y-35626857D02*
X171335295Y-35655428D01*
X171335295Y-35655428D02*
X171382914Y-35655428D01*
X171382914Y-35655428D02*
X171478152Y-35626857D01*
X171478152Y-35626857D02*
X171525771Y-35598286D01*
X171525771Y-35598286D02*
X171573390Y-35541143D01*
X171573390Y-35541143D02*
X171573390Y-35426857D01*
X171573390Y-35426857D02*
X171621009Y-35369714D01*
X171621009Y-35369714D02*
X171668628Y-35341143D01*
X171668628Y-35341143D02*
X171763866Y-35312571D01*
X171763866Y-35312571D02*
X171954342Y-35312571D01*
X171954342Y-35312571D02*
X172049580Y-35341143D01*
X172049580Y-35341143D02*
X172097200Y-35369714D01*
X172097200Y-35369714D02*
X172144819Y-35426857D01*
X172144819Y-35426857D02*
X172144819Y-35541143D01*
X172144819Y-35541143D02*
X172097200Y-35598286D01*
X172097200Y-35598286D02*
X172049580Y-35626857D01*
X172049580Y-35626857D02*
X171954342Y-35655428D01*
X171954342Y-35655428D02*
X171763866Y-35655428D01*
X171763866Y-35655428D02*
X171668628Y-35626857D01*
X171668628Y-35626857D02*
X171621009Y-35598286D01*
X171621009Y-35598286D02*
X171573390Y-35541143D01*
X203924819Y-29454570D02*
X204639104Y-29454570D01*
X204639104Y-29454570D02*
X204781961Y-29425999D01*
X204781961Y-29425999D02*
X204877200Y-29368856D01*
X204877200Y-29368856D02*
X204924819Y-29283142D01*
X204924819Y-29283142D02*
X204924819Y-29225999D01*
X203924819Y-29683142D02*
X203924819Y-30083142D01*
X203924819Y-30083142D02*
X204924819Y-29825999D01*
X203924819Y-30425999D02*
X203924819Y-30483142D01*
X203924819Y-30483142D02*
X203972438Y-30540285D01*
X203972438Y-30540285D02*
X204020057Y-30568857D01*
X204020057Y-30568857D02*
X204115295Y-30597428D01*
X204115295Y-30597428D02*
X204305771Y-30625999D01*
X204305771Y-30625999D02*
X204543866Y-30625999D01*
X204543866Y-30625999D02*
X204734342Y-30597428D01*
X204734342Y-30597428D02*
X204829580Y-30568857D01*
X204829580Y-30568857D02*
X204877200Y-30540285D01*
X204877200Y-30540285D02*
X204924819Y-30483142D01*
X204924819Y-30483142D02*
X204924819Y-30425999D01*
X204924819Y-30425999D02*
X204877200Y-30368857D01*
X204877200Y-30368857D02*
X204829580Y-30340285D01*
X204829580Y-30340285D02*
X204734342Y-30311714D01*
X204734342Y-30311714D02*
X204543866Y-30283142D01*
X204543866Y-30283142D02*
X204305771Y-30283142D01*
X204305771Y-30283142D02*
X204115295Y-30311714D01*
X204115295Y-30311714D02*
X204020057Y-30340285D01*
X204020057Y-30340285D02*
X203972438Y-30368857D01*
X203972438Y-30368857D02*
X203924819Y-30425999D01*
X204258152Y-31140286D02*
X204924819Y-31140286D01*
X203877200Y-30997428D02*
X204591485Y-30854571D01*
X204591485Y-30854571D02*
X204591485Y-31226000D01*
X150861219Y-123019999D02*
X149861219Y-123019999D01*
X149861219Y-123019999D02*
X149861219Y-123162856D01*
X149861219Y-123162856D02*
X149908838Y-123248570D01*
X149908838Y-123248570D02*
X150004076Y-123305713D01*
X150004076Y-123305713D02*
X150099314Y-123334284D01*
X150099314Y-123334284D02*
X150289790Y-123362856D01*
X150289790Y-123362856D02*
X150432647Y-123362856D01*
X150432647Y-123362856D02*
X150623123Y-123334284D01*
X150623123Y-123334284D02*
X150718361Y-123305713D01*
X150718361Y-123305713D02*
X150813600Y-123248570D01*
X150813600Y-123248570D02*
X150861219Y-123162856D01*
X150861219Y-123162856D02*
X150861219Y-123019999D01*
X150861219Y-123934284D02*
X150861219Y-123591427D01*
X150861219Y-123762856D02*
X149861219Y-123762856D01*
X149861219Y-123762856D02*
X150004076Y-123705713D01*
X150004076Y-123705713D02*
X150099314Y-123648570D01*
X150099314Y-123648570D02*
X150146933Y-123591427D01*
X150861219Y-124505713D02*
X150861219Y-124162856D01*
X150861219Y-124334285D02*
X149861219Y-124334285D01*
X149861219Y-124334285D02*
X150004076Y-124277142D01*
X150004076Y-124277142D02*
X150099314Y-124219999D01*
X150099314Y-124219999D02*
X150146933Y-124162856D01*
X149861219Y-124877142D02*
X149861219Y-124934285D01*
X149861219Y-124934285D02*
X149908838Y-124991428D01*
X149908838Y-124991428D02*
X149956457Y-125020000D01*
X149956457Y-125020000D02*
X150051695Y-125048571D01*
X150051695Y-125048571D02*
X150242171Y-125077142D01*
X150242171Y-125077142D02*
X150480266Y-125077142D01*
X150480266Y-125077142D02*
X150670742Y-125048571D01*
X150670742Y-125048571D02*
X150765980Y-125020000D01*
X150765980Y-125020000D02*
X150813600Y-124991428D01*
X150813600Y-124991428D02*
X150861219Y-124934285D01*
X150861219Y-124934285D02*
X150861219Y-124877142D01*
X150861219Y-124877142D02*
X150813600Y-124820000D01*
X150813600Y-124820000D02*
X150765980Y-124791428D01*
X150765980Y-124791428D02*
X150670742Y-124762857D01*
X150670742Y-124762857D02*
X150480266Y-124734285D01*
X150480266Y-124734285D02*
X150242171Y-124734285D01*
X150242171Y-124734285D02*
X150051695Y-124762857D01*
X150051695Y-124762857D02*
X149956457Y-124791428D01*
X149956457Y-124791428D02*
X149908838Y-124820000D01*
X149908838Y-124820000D02*
X149861219Y-124877142D01*
X149956457Y-125305714D02*
X149908838Y-125334286D01*
X149908838Y-125334286D02*
X149861219Y-125391429D01*
X149861219Y-125391429D02*
X149861219Y-125534286D01*
X149861219Y-125534286D02*
X149908838Y-125591429D01*
X149908838Y-125591429D02*
X149956457Y-125620000D01*
X149956457Y-125620000D02*
X150051695Y-125648571D01*
X150051695Y-125648571D02*
X150146933Y-125648571D01*
X150146933Y-125648571D02*
X150289790Y-125620000D01*
X150289790Y-125620000D02*
X150861219Y-125277143D01*
X150861219Y-125277143D02*
X150861219Y-125648571D01*
X148233866Y-122269048D02*
X148233866Y-123030953D01*
X148614819Y-122650000D02*
X147852914Y-122650000D01*
X72800000Y-4819819D02*
X72800000Y-3819819D01*
X72800000Y-3819819D02*
X72657143Y-3819819D01*
X72657143Y-3819819D02*
X72571429Y-3867438D01*
X72571429Y-3867438D02*
X72514286Y-3962676D01*
X72514286Y-3962676D02*
X72485715Y-4057914D01*
X72485715Y-4057914D02*
X72457143Y-4248390D01*
X72457143Y-4248390D02*
X72457143Y-4391247D01*
X72457143Y-4391247D02*
X72485715Y-4581723D01*
X72485715Y-4581723D02*
X72514286Y-4676961D01*
X72514286Y-4676961D02*
X72571429Y-4772200D01*
X72571429Y-4772200D02*
X72657143Y-4819819D01*
X72657143Y-4819819D02*
X72800000Y-4819819D01*
X71885715Y-4819819D02*
X72228572Y-4819819D01*
X72057143Y-4819819D02*
X72057143Y-3819819D01*
X72057143Y-3819819D02*
X72114286Y-3962676D01*
X72114286Y-3962676D02*
X72171429Y-4057914D01*
X72171429Y-4057914D02*
X72228572Y-4105533D01*
X71514286Y-3819819D02*
X71457143Y-3819819D01*
X71457143Y-3819819D02*
X71400000Y-3867438D01*
X71400000Y-3867438D02*
X71371429Y-3915057D01*
X71371429Y-3915057D02*
X71342857Y-4010295D01*
X71342857Y-4010295D02*
X71314286Y-4200771D01*
X71314286Y-4200771D02*
X71314286Y-4438866D01*
X71314286Y-4438866D02*
X71342857Y-4629342D01*
X71342857Y-4629342D02*
X71371429Y-4724580D01*
X71371429Y-4724580D02*
X71400000Y-4772200D01*
X71400000Y-4772200D02*
X71457143Y-4819819D01*
X71457143Y-4819819D02*
X71514286Y-4819819D01*
X71514286Y-4819819D02*
X71571429Y-4772200D01*
X71571429Y-4772200D02*
X71600000Y-4724580D01*
X71600000Y-4724580D02*
X71628571Y-4629342D01*
X71628571Y-4629342D02*
X71657143Y-4438866D01*
X71657143Y-4438866D02*
X71657143Y-4200771D01*
X71657143Y-4200771D02*
X71628571Y-4010295D01*
X71628571Y-4010295D02*
X71600000Y-3915057D01*
X71600000Y-3915057D02*
X71571429Y-3867438D01*
X71571429Y-3867438D02*
X71514286Y-3819819D01*
X70942857Y-3819819D02*
X70885714Y-3819819D01*
X70885714Y-3819819D02*
X70828571Y-3867438D01*
X70828571Y-3867438D02*
X70800000Y-3915057D01*
X70800000Y-3915057D02*
X70771428Y-4010295D01*
X70771428Y-4010295D02*
X70742857Y-4200771D01*
X70742857Y-4200771D02*
X70742857Y-4438866D01*
X70742857Y-4438866D02*
X70771428Y-4629342D01*
X70771428Y-4629342D02*
X70800000Y-4724580D01*
X70800000Y-4724580D02*
X70828571Y-4772200D01*
X70828571Y-4772200D02*
X70885714Y-4819819D01*
X70885714Y-4819819D02*
X70942857Y-4819819D01*
X70942857Y-4819819D02*
X71000000Y-4772200D01*
X71000000Y-4772200D02*
X71028571Y-4724580D01*
X71028571Y-4724580D02*
X71057142Y-4629342D01*
X71057142Y-4629342D02*
X71085714Y-4438866D01*
X71085714Y-4438866D02*
X71085714Y-4200771D01*
X71085714Y-4200771D02*
X71057142Y-4010295D01*
X71057142Y-4010295D02*
X71028571Y-3915057D01*
X71028571Y-3915057D02*
X71000000Y-3867438D01*
X71000000Y-3867438D02*
X70942857Y-3819819D01*
X70457142Y-4819819D02*
X70342856Y-4819819D01*
X70342856Y-4819819D02*
X70285713Y-4772200D01*
X70285713Y-4772200D02*
X70257142Y-4724580D01*
X70257142Y-4724580D02*
X70199999Y-4581723D01*
X70199999Y-4581723D02*
X70171428Y-4391247D01*
X70171428Y-4391247D02*
X70171428Y-4010295D01*
X70171428Y-4010295D02*
X70199999Y-3915057D01*
X70199999Y-3915057D02*
X70228571Y-3867438D01*
X70228571Y-3867438D02*
X70285713Y-3819819D01*
X70285713Y-3819819D02*
X70399999Y-3819819D01*
X70399999Y-3819819D02*
X70457142Y-3867438D01*
X70457142Y-3867438D02*
X70485713Y-3915057D01*
X70485713Y-3915057D02*
X70514285Y-4010295D01*
X70514285Y-4010295D02*
X70514285Y-4248390D01*
X70514285Y-4248390D02*
X70485713Y-4343628D01*
X70485713Y-4343628D02*
X70457142Y-4391247D01*
X70457142Y-4391247D02*
X70399999Y-4438866D01*
X70399999Y-4438866D02*
X70285713Y-4438866D01*
X70285713Y-4438866D02*
X70228571Y-4391247D01*
X70228571Y-4391247D02*
X70199999Y-4343628D01*
X70199999Y-4343628D02*
X70171428Y-4248390D01*
X68880951Y-5003866D02*
X68119047Y-5003866D01*
X68499999Y-5384819D02*
X68499999Y-4622914D01*
X106800000Y-4819819D02*
X106800000Y-3819819D01*
X106800000Y-3819819D02*
X106657143Y-3819819D01*
X106657143Y-3819819D02*
X106571429Y-3867438D01*
X106571429Y-3867438D02*
X106514286Y-3962676D01*
X106514286Y-3962676D02*
X106485715Y-4057914D01*
X106485715Y-4057914D02*
X106457143Y-4248390D01*
X106457143Y-4248390D02*
X106457143Y-4391247D01*
X106457143Y-4391247D02*
X106485715Y-4581723D01*
X106485715Y-4581723D02*
X106514286Y-4676961D01*
X106514286Y-4676961D02*
X106571429Y-4772200D01*
X106571429Y-4772200D02*
X106657143Y-4819819D01*
X106657143Y-4819819D02*
X106800000Y-4819819D01*
X105885715Y-4819819D02*
X106228572Y-4819819D01*
X106057143Y-4819819D02*
X106057143Y-3819819D01*
X106057143Y-3819819D02*
X106114286Y-3962676D01*
X106114286Y-3962676D02*
X106171429Y-4057914D01*
X106171429Y-4057914D02*
X106228572Y-4105533D01*
X105514286Y-3819819D02*
X105457143Y-3819819D01*
X105457143Y-3819819D02*
X105400000Y-3867438D01*
X105400000Y-3867438D02*
X105371429Y-3915057D01*
X105371429Y-3915057D02*
X105342857Y-4010295D01*
X105342857Y-4010295D02*
X105314286Y-4200771D01*
X105314286Y-4200771D02*
X105314286Y-4438866D01*
X105314286Y-4438866D02*
X105342857Y-4629342D01*
X105342857Y-4629342D02*
X105371429Y-4724580D01*
X105371429Y-4724580D02*
X105400000Y-4772200D01*
X105400000Y-4772200D02*
X105457143Y-4819819D01*
X105457143Y-4819819D02*
X105514286Y-4819819D01*
X105514286Y-4819819D02*
X105571429Y-4772200D01*
X105571429Y-4772200D02*
X105600000Y-4724580D01*
X105600000Y-4724580D02*
X105628571Y-4629342D01*
X105628571Y-4629342D02*
X105657143Y-4438866D01*
X105657143Y-4438866D02*
X105657143Y-4200771D01*
X105657143Y-4200771D02*
X105628571Y-4010295D01*
X105628571Y-4010295D02*
X105600000Y-3915057D01*
X105600000Y-3915057D02*
X105571429Y-3867438D01*
X105571429Y-3867438D02*
X105514286Y-3819819D01*
X104942857Y-3819819D02*
X104885714Y-3819819D01*
X104885714Y-3819819D02*
X104828571Y-3867438D01*
X104828571Y-3867438D02*
X104800000Y-3915057D01*
X104800000Y-3915057D02*
X104771428Y-4010295D01*
X104771428Y-4010295D02*
X104742857Y-4200771D01*
X104742857Y-4200771D02*
X104742857Y-4438866D01*
X104742857Y-4438866D02*
X104771428Y-4629342D01*
X104771428Y-4629342D02*
X104800000Y-4724580D01*
X104800000Y-4724580D02*
X104828571Y-4772200D01*
X104828571Y-4772200D02*
X104885714Y-4819819D01*
X104885714Y-4819819D02*
X104942857Y-4819819D01*
X104942857Y-4819819D02*
X105000000Y-4772200D01*
X105000000Y-4772200D02*
X105028571Y-4724580D01*
X105028571Y-4724580D02*
X105057142Y-4629342D01*
X105057142Y-4629342D02*
X105085714Y-4438866D01*
X105085714Y-4438866D02*
X105085714Y-4200771D01*
X105085714Y-4200771D02*
X105057142Y-4010295D01*
X105057142Y-4010295D02*
X105028571Y-3915057D01*
X105028571Y-3915057D02*
X105000000Y-3867438D01*
X105000000Y-3867438D02*
X104942857Y-3819819D01*
X104171428Y-4819819D02*
X104514285Y-4819819D01*
X104342856Y-4819819D02*
X104342856Y-3819819D01*
X104342856Y-3819819D02*
X104399999Y-3962676D01*
X104399999Y-3962676D02*
X104457142Y-4057914D01*
X104457142Y-4057914D02*
X104514285Y-4105533D01*
X102880951Y-5003866D02*
X102119047Y-5003866D01*
X102499999Y-5384819D02*
X102499999Y-4622914D01*
X241070115Y-6876440D02*
X240070115Y-6876440D01*
X240974876Y-7924058D02*
X241022496Y-7876439D01*
X241022496Y-7876439D02*
X241070115Y-7733582D01*
X241070115Y-7733582D02*
X241070115Y-7638344D01*
X241070115Y-7638344D02*
X241022496Y-7495487D01*
X241022496Y-7495487D02*
X240927257Y-7400249D01*
X240927257Y-7400249D02*
X240832019Y-7352630D01*
X240832019Y-7352630D02*
X240641543Y-7305011D01*
X240641543Y-7305011D02*
X240498686Y-7305011D01*
X240498686Y-7305011D02*
X240308210Y-7352630D01*
X240308210Y-7352630D02*
X240212972Y-7400249D01*
X240212972Y-7400249D02*
X240117734Y-7495487D01*
X240117734Y-7495487D02*
X240070115Y-7638344D01*
X240070115Y-7638344D02*
X240070115Y-7733582D01*
X240070115Y-7733582D02*
X240117734Y-7876439D01*
X240117734Y-7876439D02*
X240165353Y-7924058D01*
X241070115Y-8876439D02*
X241070115Y-8305011D01*
X241070115Y-8590725D02*
X240070115Y-8590725D01*
X240070115Y-8590725D02*
X240212972Y-8495487D01*
X240212972Y-8495487D02*
X240308210Y-8400249D01*
X240308210Y-8400249D02*
X240355829Y-8305011D01*
X240070115Y-9495487D02*
X240070115Y-9590725D01*
X240070115Y-9590725D02*
X240117734Y-9685963D01*
X240117734Y-9685963D02*
X240165353Y-9733582D01*
X240165353Y-9733582D02*
X240260591Y-9781201D01*
X240260591Y-9781201D02*
X240451067Y-9828820D01*
X240451067Y-9828820D02*
X240689162Y-9828820D01*
X240689162Y-9828820D02*
X240879638Y-9781201D01*
X240879638Y-9781201D02*
X240974876Y-9733582D01*
X240974876Y-9733582D02*
X241022496Y-9685963D01*
X241022496Y-9685963D02*
X241070115Y-9590725D01*
X241070115Y-9590725D02*
X241070115Y-9495487D01*
X241070115Y-9495487D02*
X241022496Y-9400249D01*
X241022496Y-9400249D02*
X240974876Y-9352630D01*
X240974876Y-9352630D02*
X240879638Y-9305011D01*
X240879638Y-9305011D02*
X240689162Y-9257392D01*
X240689162Y-9257392D02*
X240451067Y-9257392D01*
X240451067Y-9257392D02*
X240260591Y-9305011D01*
X240260591Y-9305011D02*
X240165353Y-9352630D01*
X240165353Y-9352630D02*
X240117734Y-9400249D01*
X240117734Y-9400249D02*
X240070115Y-9495487D01*
X240070115Y-10447868D02*
X240070115Y-10543106D01*
X240070115Y-10543106D02*
X240117734Y-10638344D01*
X240117734Y-10638344D02*
X240165353Y-10685963D01*
X240165353Y-10685963D02*
X240260591Y-10733582D01*
X240260591Y-10733582D02*
X240451067Y-10781201D01*
X240451067Y-10781201D02*
X240689162Y-10781201D01*
X240689162Y-10781201D02*
X240879638Y-10733582D01*
X240879638Y-10733582D02*
X240974876Y-10685963D01*
X240974876Y-10685963D02*
X241022496Y-10638344D01*
X241022496Y-10638344D02*
X241070115Y-10543106D01*
X241070115Y-10543106D02*
X241070115Y-10447868D01*
X241070115Y-10447868D02*
X241022496Y-10352630D01*
X241022496Y-10352630D02*
X240974876Y-10305011D01*
X240974876Y-10305011D02*
X240879638Y-10257392D01*
X240879638Y-10257392D02*
X240689162Y-10209773D01*
X240689162Y-10209773D02*
X240451067Y-10209773D01*
X240451067Y-10209773D02*
X240260591Y-10257392D01*
X240260591Y-10257392D02*
X240165353Y-10305011D01*
X240165353Y-10305011D02*
X240117734Y-10352630D01*
X240117734Y-10352630D02*
X240070115Y-10447868D01*
X240165353Y-11162154D02*
X240117734Y-11209773D01*
X240117734Y-11209773D02*
X240070115Y-11305011D01*
X240070115Y-11305011D02*
X240070115Y-11543106D01*
X240070115Y-11543106D02*
X240117734Y-11638344D01*
X240117734Y-11638344D02*
X240165353Y-11685963D01*
X240165353Y-11685963D02*
X240260591Y-11733582D01*
X240260591Y-11733582D02*
X240355829Y-11733582D01*
X240355829Y-11733582D02*
X240498686Y-11685963D01*
X240498686Y-11685963D02*
X241070115Y-11114535D01*
X241070115Y-11114535D02*
X241070115Y-11733582D01*
X55800000Y-4819819D02*
X55800000Y-3819819D01*
X55800000Y-3819819D02*
X55657143Y-3819819D01*
X55657143Y-3819819D02*
X55571429Y-3867438D01*
X55571429Y-3867438D02*
X55514286Y-3962676D01*
X55514286Y-3962676D02*
X55485715Y-4057914D01*
X55485715Y-4057914D02*
X55457143Y-4248390D01*
X55457143Y-4248390D02*
X55457143Y-4391247D01*
X55457143Y-4391247D02*
X55485715Y-4581723D01*
X55485715Y-4581723D02*
X55514286Y-4676961D01*
X55514286Y-4676961D02*
X55571429Y-4772200D01*
X55571429Y-4772200D02*
X55657143Y-4819819D01*
X55657143Y-4819819D02*
X55800000Y-4819819D01*
X54885715Y-4819819D02*
X55228572Y-4819819D01*
X55057143Y-4819819D02*
X55057143Y-3819819D01*
X55057143Y-3819819D02*
X55114286Y-3962676D01*
X55114286Y-3962676D02*
X55171429Y-4057914D01*
X55171429Y-4057914D02*
X55228572Y-4105533D01*
X54514286Y-3819819D02*
X54457143Y-3819819D01*
X54457143Y-3819819D02*
X54400000Y-3867438D01*
X54400000Y-3867438D02*
X54371429Y-3915057D01*
X54371429Y-3915057D02*
X54342857Y-4010295D01*
X54342857Y-4010295D02*
X54314286Y-4200771D01*
X54314286Y-4200771D02*
X54314286Y-4438866D01*
X54314286Y-4438866D02*
X54342857Y-4629342D01*
X54342857Y-4629342D02*
X54371429Y-4724580D01*
X54371429Y-4724580D02*
X54400000Y-4772200D01*
X54400000Y-4772200D02*
X54457143Y-4819819D01*
X54457143Y-4819819D02*
X54514286Y-4819819D01*
X54514286Y-4819819D02*
X54571429Y-4772200D01*
X54571429Y-4772200D02*
X54600000Y-4724580D01*
X54600000Y-4724580D02*
X54628571Y-4629342D01*
X54628571Y-4629342D02*
X54657143Y-4438866D01*
X54657143Y-4438866D02*
X54657143Y-4200771D01*
X54657143Y-4200771D02*
X54628571Y-4010295D01*
X54628571Y-4010295D02*
X54600000Y-3915057D01*
X54600000Y-3915057D02*
X54571429Y-3867438D01*
X54571429Y-3867438D02*
X54514286Y-3819819D01*
X53742857Y-4819819D02*
X54085714Y-4819819D01*
X53914285Y-4819819D02*
X53914285Y-3819819D01*
X53914285Y-3819819D02*
X53971428Y-3962676D01*
X53971428Y-3962676D02*
X54028571Y-4057914D01*
X54028571Y-4057914D02*
X54085714Y-4105533D01*
X53542856Y-3819819D02*
X53171428Y-3819819D01*
X53171428Y-3819819D02*
X53371428Y-4200771D01*
X53371428Y-4200771D02*
X53285713Y-4200771D01*
X53285713Y-4200771D02*
X53228571Y-4248390D01*
X53228571Y-4248390D02*
X53199999Y-4296009D01*
X53199999Y-4296009D02*
X53171428Y-4391247D01*
X53171428Y-4391247D02*
X53171428Y-4629342D01*
X53171428Y-4629342D02*
X53199999Y-4724580D01*
X53199999Y-4724580D02*
X53228571Y-4772200D01*
X53228571Y-4772200D02*
X53285713Y-4819819D01*
X53285713Y-4819819D02*
X53457142Y-4819819D01*
X53457142Y-4819819D02*
X53514285Y-4772200D01*
X53514285Y-4772200D02*
X53542856Y-4724580D01*
X51880951Y-5003866D02*
X51119047Y-5003866D01*
X51499999Y-5384819D02*
X51499999Y-4622914D01*
X231530429Y-30061819D02*
X231530429Y-30776104D01*
X231530429Y-30776104D02*
X231559000Y-30918961D01*
X231559000Y-30918961D02*
X231616143Y-31014200D01*
X231616143Y-31014200D02*
X231701857Y-31061819D01*
X231701857Y-31061819D02*
X231759000Y-31061819D01*
X231301857Y-30061819D02*
X230901857Y-30061819D01*
X230901857Y-30061819D02*
X231159000Y-31061819D01*
X230559000Y-30061819D02*
X230501857Y-30061819D01*
X230501857Y-30061819D02*
X230444714Y-30109438D01*
X230444714Y-30109438D02*
X230416143Y-30157057D01*
X230416143Y-30157057D02*
X230387571Y-30252295D01*
X230387571Y-30252295D02*
X230359000Y-30442771D01*
X230359000Y-30442771D02*
X230359000Y-30680866D01*
X230359000Y-30680866D02*
X230387571Y-30871342D01*
X230387571Y-30871342D02*
X230416143Y-30966580D01*
X230416143Y-30966580D02*
X230444714Y-31014200D01*
X230444714Y-31014200D02*
X230501857Y-31061819D01*
X230501857Y-31061819D02*
X230559000Y-31061819D01*
X230559000Y-31061819D02*
X230616143Y-31014200D01*
X230616143Y-31014200D02*
X230644714Y-30966580D01*
X230644714Y-30966580D02*
X230673285Y-30871342D01*
X230673285Y-30871342D02*
X230701857Y-30680866D01*
X230701857Y-30680866D02*
X230701857Y-30442771D01*
X230701857Y-30442771D02*
X230673285Y-30252295D01*
X230673285Y-30252295D02*
X230644714Y-30157057D01*
X230644714Y-30157057D02*
X230616143Y-30109438D01*
X230616143Y-30109438D02*
X230559000Y-30061819D01*
X230130428Y-30157057D02*
X230101856Y-30109438D01*
X230101856Y-30109438D02*
X230044714Y-30061819D01*
X230044714Y-30061819D02*
X229901856Y-30061819D01*
X229901856Y-30061819D02*
X229844714Y-30109438D01*
X229844714Y-30109438D02*
X229816142Y-30157057D01*
X229816142Y-30157057D02*
X229787571Y-30252295D01*
X229787571Y-30252295D02*
X229787571Y-30347533D01*
X229787571Y-30347533D02*
X229816142Y-30490390D01*
X229816142Y-30490390D02*
X230158999Y-31061819D01*
X230158999Y-31061819D02*
X229787571Y-31061819D01*
X55800000Y-12819819D02*
X55800000Y-11819819D01*
X55800000Y-11819819D02*
X55657143Y-11819819D01*
X55657143Y-11819819D02*
X55571429Y-11867438D01*
X55571429Y-11867438D02*
X55514286Y-11962676D01*
X55514286Y-11962676D02*
X55485715Y-12057914D01*
X55485715Y-12057914D02*
X55457143Y-12248390D01*
X55457143Y-12248390D02*
X55457143Y-12391247D01*
X55457143Y-12391247D02*
X55485715Y-12581723D01*
X55485715Y-12581723D02*
X55514286Y-12676961D01*
X55514286Y-12676961D02*
X55571429Y-12772200D01*
X55571429Y-12772200D02*
X55657143Y-12819819D01*
X55657143Y-12819819D02*
X55800000Y-12819819D01*
X54885715Y-12819819D02*
X55228572Y-12819819D01*
X55057143Y-12819819D02*
X55057143Y-11819819D01*
X55057143Y-11819819D02*
X55114286Y-11962676D01*
X55114286Y-11962676D02*
X55171429Y-12057914D01*
X55171429Y-12057914D02*
X55228572Y-12105533D01*
X54514286Y-11819819D02*
X54457143Y-11819819D01*
X54457143Y-11819819D02*
X54400000Y-11867438D01*
X54400000Y-11867438D02*
X54371429Y-11915057D01*
X54371429Y-11915057D02*
X54342857Y-12010295D01*
X54342857Y-12010295D02*
X54314286Y-12200771D01*
X54314286Y-12200771D02*
X54314286Y-12438866D01*
X54314286Y-12438866D02*
X54342857Y-12629342D01*
X54342857Y-12629342D02*
X54371429Y-12724580D01*
X54371429Y-12724580D02*
X54400000Y-12772200D01*
X54400000Y-12772200D02*
X54457143Y-12819819D01*
X54457143Y-12819819D02*
X54514286Y-12819819D01*
X54514286Y-12819819D02*
X54571429Y-12772200D01*
X54571429Y-12772200D02*
X54600000Y-12724580D01*
X54600000Y-12724580D02*
X54628571Y-12629342D01*
X54628571Y-12629342D02*
X54657143Y-12438866D01*
X54657143Y-12438866D02*
X54657143Y-12200771D01*
X54657143Y-12200771D02*
X54628571Y-12010295D01*
X54628571Y-12010295D02*
X54600000Y-11915057D01*
X54600000Y-11915057D02*
X54571429Y-11867438D01*
X54571429Y-11867438D02*
X54514286Y-11819819D01*
X53742857Y-12819819D02*
X54085714Y-12819819D01*
X53914285Y-12819819D02*
X53914285Y-11819819D01*
X53914285Y-11819819D02*
X53971428Y-11962676D01*
X53971428Y-11962676D02*
X54028571Y-12057914D01*
X54028571Y-12057914D02*
X54085714Y-12105533D01*
X53199999Y-11819819D02*
X53485713Y-11819819D01*
X53485713Y-11819819D02*
X53514285Y-12296009D01*
X53514285Y-12296009D02*
X53485713Y-12248390D01*
X53485713Y-12248390D02*
X53428571Y-12200771D01*
X53428571Y-12200771D02*
X53285713Y-12200771D01*
X53285713Y-12200771D02*
X53228571Y-12248390D01*
X53228571Y-12248390D02*
X53199999Y-12296009D01*
X53199999Y-12296009D02*
X53171428Y-12391247D01*
X53171428Y-12391247D02*
X53171428Y-12629342D01*
X53171428Y-12629342D02*
X53199999Y-12724580D01*
X53199999Y-12724580D02*
X53228571Y-12772200D01*
X53228571Y-12772200D02*
X53285713Y-12819819D01*
X53285713Y-12819819D02*
X53428571Y-12819819D01*
X53428571Y-12819819D02*
X53485713Y-12772200D01*
X53485713Y-12772200D02*
X53514285Y-12724580D01*
X51880951Y-13003866D02*
X51119047Y-13003866D01*
X51499999Y-13384819D02*
X51499999Y-12622914D01*
X133861219Y-123019999D02*
X132861219Y-123019999D01*
X132861219Y-123019999D02*
X132861219Y-123162856D01*
X132861219Y-123162856D02*
X132908838Y-123248570D01*
X132908838Y-123248570D02*
X133004076Y-123305713D01*
X133004076Y-123305713D02*
X133099314Y-123334284D01*
X133099314Y-123334284D02*
X133289790Y-123362856D01*
X133289790Y-123362856D02*
X133432647Y-123362856D01*
X133432647Y-123362856D02*
X133623123Y-123334284D01*
X133623123Y-123334284D02*
X133718361Y-123305713D01*
X133718361Y-123305713D02*
X133813600Y-123248570D01*
X133813600Y-123248570D02*
X133861219Y-123162856D01*
X133861219Y-123162856D02*
X133861219Y-123019999D01*
X133861219Y-123934284D02*
X133861219Y-123591427D01*
X133861219Y-123762856D02*
X132861219Y-123762856D01*
X132861219Y-123762856D02*
X133004076Y-123705713D01*
X133004076Y-123705713D02*
X133099314Y-123648570D01*
X133099314Y-123648570D02*
X133146933Y-123591427D01*
X133861219Y-124505713D02*
X133861219Y-124162856D01*
X133861219Y-124334285D02*
X132861219Y-124334285D01*
X132861219Y-124334285D02*
X133004076Y-124277142D01*
X133004076Y-124277142D02*
X133099314Y-124219999D01*
X133099314Y-124219999D02*
X133146933Y-124162856D01*
X132861219Y-124877142D02*
X132861219Y-124934285D01*
X132861219Y-124934285D02*
X132908838Y-124991428D01*
X132908838Y-124991428D02*
X132956457Y-125020000D01*
X132956457Y-125020000D02*
X133051695Y-125048571D01*
X133051695Y-125048571D02*
X133242171Y-125077142D01*
X133242171Y-125077142D02*
X133480266Y-125077142D01*
X133480266Y-125077142D02*
X133670742Y-125048571D01*
X133670742Y-125048571D02*
X133765980Y-125020000D01*
X133765980Y-125020000D02*
X133813600Y-124991428D01*
X133813600Y-124991428D02*
X133861219Y-124934285D01*
X133861219Y-124934285D02*
X133861219Y-124877142D01*
X133861219Y-124877142D02*
X133813600Y-124820000D01*
X133813600Y-124820000D02*
X133765980Y-124791428D01*
X133765980Y-124791428D02*
X133670742Y-124762857D01*
X133670742Y-124762857D02*
X133480266Y-124734285D01*
X133480266Y-124734285D02*
X133242171Y-124734285D01*
X133242171Y-124734285D02*
X133051695Y-124762857D01*
X133051695Y-124762857D02*
X132956457Y-124791428D01*
X132956457Y-124791428D02*
X132908838Y-124820000D01*
X132908838Y-124820000D02*
X132861219Y-124877142D01*
X133861219Y-125648571D02*
X133861219Y-125305714D01*
X133861219Y-125477143D02*
X132861219Y-125477143D01*
X132861219Y-125477143D02*
X133004076Y-125420000D01*
X133004076Y-125420000D02*
X133099314Y-125362857D01*
X133099314Y-125362857D02*
X133146933Y-125305714D01*
X131233866Y-122269048D02*
X131233866Y-123030953D01*
X131614819Y-122650000D02*
X130852914Y-122650000D01*
X193800000Y-12819819D02*
X193800000Y-11819819D01*
X193800000Y-11819819D02*
X193657143Y-11819819D01*
X193657143Y-11819819D02*
X193571429Y-11867438D01*
X193571429Y-11867438D02*
X193514286Y-11962676D01*
X193514286Y-11962676D02*
X193485715Y-12057914D01*
X193485715Y-12057914D02*
X193457143Y-12248390D01*
X193457143Y-12248390D02*
X193457143Y-12391247D01*
X193457143Y-12391247D02*
X193485715Y-12581723D01*
X193485715Y-12581723D02*
X193514286Y-12676961D01*
X193514286Y-12676961D02*
X193571429Y-12772200D01*
X193571429Y-12772200D02*
X193657143Y-12819819D01*
X193657143Y-12819819D02*
X193800000Y-12819819D01*
X192885715Y-12819819D02*
X193228572Y-12819819D01*
X193057143Y-12819819D02*
X193057143Y-11819819D01*
X193057143Y-11819819D02*
X193114286Y-11962676D01*
X193114286Y-11962676D02*
X193171429Y-12057914D01*
X193171429Y-12057914D02*
X193228572Y-12105533D01*
X192514286Y-11819819D02*
X192457143Y-11819819D01*
X192457143Y-11819819D02*
X192400000Y-11867438D01*
X192400000Y-11867438D02*
X192371429Y-11915057D01*
X192371429Y-11915057D02*
X192342857Y-12010295D01*
X192342857Y-12010295D02*
X192314286Y-12200771D01*
X192314286Y-12200771D02*
X192314286Y-12438866D01*
X192314286Y-12438866D02*
X192342857Y-12629342D01*
X192342857Y-12629342D02*
X192371429Y-12724580D01*
X192371429Y-12724580D02*
X192400000Y-12772200D01*
X192400000Y-12772200D02*
X192457143Y-12819819D01*
X192457143Y-12819819D02*
X192514286Y-12819819D01*
X192514286Y-12819819D02*
X192571429Y-12772200D01*
X192571429Y-12772200D02*
X192600000Y-12724580D01*
X192600000Y-12724580D02*
X192628571Y-12629342D01*
X192628571Y-12629342D02*
X192657143Y-12438866D01*
X192657143Y-12438866D02*
X192657143Y-12200771D01*
X192657143Y-12200771D02*
X192628571Y-12010295D01*
X192628571Y-12010295D02*
X192600000Y-11915057D01*
X192600000Y-11915057D02*
X192571429Y-11867438D01*
X192571429Y-11867438D02*
X192514286Y-11819819D01*
X191742857Y-12819819D02*
X192085714Y-12819819D01*
X191914285Y-12819819D02*
X191914285Y-11819819D01*
X191914285Y-11819819D02*
X191971428Y-11962676D01*
X191971428Y-11962676D02*
X192028571Y-12057914D01*
X192028571Y-12057914D02*
X192085714Y-12105533D01*
X191514285Y-11915057D02*
X191485713Y-11867438D01*
X191485713Y-11867438D02*
X191428571Y-11819819D01*
X191428571Y-11819819D02*
X191285713Y-11819819D01*
X191285713Y-11819819D02*
X191228571Y-11867438D01*
X191228571Y-11867438D02*
X191199999Y-11915057D01*
X191199999Y-11915057D02*
X191171428Y-12010295D01*
X191171428Y-12010295D02*
X191171428Y-12105533D01*
X191171428Y-12105533D02*
X191199999Y-12248390D01*
X191199999Y-12248390D02*
X191542856Y-12819819D01*
X191542856Y-12819819D02*
X191171428Y-12819819D01*
X189880951Y-13003866D02*
X189119047Y-13003866D01*
X189499999Y-13384819D02*
X189499999Y-12622914D01*
X89800000Y-12819819D02*
X89800000Y-11819819D01*
X89800000Y-11819819D02*
X89657143Y-11819819D01*
X89657143Y-11819819D02*
X89571429Y-11867438D01*
X89571429Y-11867438D02*
X89514286Y-11962676D01*
X89514286Y-11962676D02*
X89485715Y-12057914D01*
X89485715Y-12057914D02*
X89457143Y-12248390D01*
X89457143Y-12248390D02*
X89457143Y-12391247D01*
X89457143Y-12391247D02*
X89485715Y-12581723D01*
X89485715Y-12581723D02*
X89514286Y-12676961D01*
X89514286Y-12676961D02*
X89571429Y-12772200D01*
X89571429Y-12772200D02*
X89657143Y-12819819D01*
X89657143Y-12819819D02*
X89800000Y-12819819D01*
X88885715Y-12819819D02*
X89228572Y-12819819D01*
X89057143Y-12819819D02*
X89057143Y-11819819D01*
X89057143Y-11819819D02*
X89114286Y-11962676D01*
X89114286Y-11962676D02*
X89171429Y-12057914D01*
X89171429Y-12057914D02*
X89228572Y-12105533D01*
X88514286Y-11819819D02*
X88457143Y-11819819D01*
X88457143Y-11819819D02*
X88400000Y-11867438D01*
X88400000Y-11867438D02*
X88371429Y-11915057D01*
X88371429Y-11915057D02*
X88342857Y-12010295D01*
X88342857Y-12010295D02*
X88314286Y-12200771D01*
X88314286Y-12200771D02*
X88314286Y-12438866D01*
X88314286Y-12438866D02*
X88342857Y-12629342D01*
X88342857Y-12629342D02*
X88371429Y-12724580D01*
X88371429Y-12724580D02*
X88400000Y-12772200D01*
X88400000Y-12772200D02*
X88457143Y-12819819D01*
X88457143Y-12819819D02*
X88514286Y-12819819D01*
X88514286Y-12819819D02*
X88571429Y-12772200D01*
X88571429Y-12772200D02*
X88600000Y-12724580D01*
X88600000Y-12724580D02*
X88628571Y-12629342D01*
X88628571Y-12629342D02*
X88657143Y-12438866D01*
X88657143Y-12438866D02*
X88657143Y-12200771D01*
X88657143Y-12200771D02*
X88628571Y-12010295D01*
X88628571Y-12010295D02*
X88600000Y-11915057D01*
X88600000Y-11915057D02*
X88571429Y-11867438D01*
X88571429Y-11867438D02*
X88514286Y-11819819D01*
X87942857Y-11819819D02*
X87885714Y-11819819D01*
X87885714Y-11819819D02*
X87828571Y-11867438D01*
X87828571Y-11867438D02*
X87800000Y-11915057D01*
X87800000Y-11915057D02*
X87771428Y-12010295D01*
X87771428Y-12010295D02*
X87742857Y-12200771D01*
X87742857Y-12200771D02*
X87742857Y-12438866D01*
X87742857Y-12438866D02*
X87771428Y-12629342D01*
X87771428Y-12629342D02*
X87800000Y-12724580D01*
X87800000Y-12724580D02*
X87828571Y-12772200D01*
X87828571Y-12772200D02*
X87885714Y-12819819D01*
X87885714Y-12819819D02*
X87942857Y-12819819D01*
X87942857Y-12819819D02*
X88000000Y-12772200D01*
X88000000Y-12772200D02*
X88028571Y-12724580D01*
X88028571Y-12724580D02*
X88057142Y-12629342D01*
X88057142Y-12629342D02*
X88085714Y-12438866D01*
X88085714Y-12438866D02*
X88085714Y-12200771D01*
X88085714Y-12200771D02*
X88057142Y-12010295D01*
X88057142Y-12010295D02*
X88028571Y-11915057D01*
X88028571Y-11915057D02*
X88000000Y-11867438D01*
X88000000Y-11867438D02*
X87942857Y-11819819D01*
X87542856Y-11819819D02*
X87142856Y-11819819D01*
X87142856Y-11819819D02*
X87399999Y-12819819D01*
X85880951Y-13003866D02*
X85119047Y-13003866D01*
X85499999Y-13384819D02*
X85499999Y-12622914D01*
X72800000Y-12819819D02*
X72800000Y-11819819D01*
X72800000Y-11819819D02*
X72657143Y-11819819D01*
X72657143Y-11819819D02*
X72571429Y-11867438D01*
X72571429Y-11867438D02*
X72514286Y-11962676D01*
X72514286Y-11962676D02*
X72485715Y-12057914D01*
X72485715Y-12057914D02*
X72457143Y-12248390D01*
X72457143Y-12248390D02*
X72457143Y-12391247D01*
X72457143Y-12391247D02*
X72485715Y-12581723D01*
X72485715Y-12581723D02*
X72514286Y-12676961D01*
X72514286Y-12676961D02*
X72571429Y-12772200D01*
X72571429Y-12772200D02*
X72657143Y-12819819D01*
X72657143Y-12819819D02*
X72800000Y-12819819D01*
X71885715Y-12819819D02*
X72228572Y-12819819D01*
X72057143Y-12819819D02*
X72057143Y-11819819D01*
X72057143Y-11819819D02*
X72114286Y-11962676D01*
X72114286Y-11962676D02*
X72171429Y-12057914D01*
X72171429Y-12057914D02*
X72228572Y-12105533D01*
X71514286Y-11819819D02*
X71457143Y-11819819D01*
X71457143Y-11819819D02*
X71400000Y-11867438D01*
X71400000Y-11867438D02*
X71371429Y-11915057D01*
X71371429Y-11915057D02*
X71342857Y-12010295D01*
X71342857Y-12010295D02*
X71314286Y-12200771D01*
X71314286Y-12200771D02*
X71314286Y-12438866D01*
X71314286Y-12438866D02*
X71342857Y-12629342D01*
X71342857Y-12629342D02*
X71371429Y-12724580D01*
X71371429Y-12724580D02*
X71400000Y-12772200D01*
X71400000Y-12772200D02*
X71457143Y-12819819D01*
X71457143Y-12819819D02*
X71514286Y-12819819D01*
X71514286Y-12819819D02*
X71571429Y-12772200D01*
X71571429Y-12772200D02*
X71600000Y-12724580D01*
X71600000Y-12724580D02*
X71628571Y-12629342D01*
X71628571Y-12629342D02*
X71657143Y-12438866D01*
X71657143Y-12438866D02*
X71657143Y-12200771D01*
X71657143Y-12200771D02*
X71628571Y-12010295D01*
X71628571Y-12010295D02*
X71600000Y-11915057D01*
X71600000Y-11915057D02*
X71571429Y-11867438D01*
X71571429Y-11867438D02*
X71514286Y-11819819D01*
X70742857Y-12819819D02*
X71085714Y-12819819D01*
X70914285Y-12819819D02*
X70914285Y-11819819D01*
X70914285Y-11819819D02*
X70971428Y-11962676D01*
X70971428Y-11962676D02*
X71028571Y-12057914D01*
X71028571Y-12057914D02*
X71085714Y-12105533D01*
X70171428Y-12819819D02*
X70514285Y-12819819D01*
X70342856Y-12819819D02*
X70342856Y-11819819D01*
X70342856Y-11819819D02*
X70399999Y-11962676D01*
X70399999Y-11962676D02*
X70457142Y-12057914D01*
X70457142Y-12057914D02*
X70514285Y-12105533D01*
X68880951Y-13003866D02*
X68119047Y-13003866D01*
X68499999Y-13384819D02*
X68499999Y-12622914D01*
X79751761Y-24358819D02*
X79751761Y-23358819D01*
X78704143Y-24263580D02*
X78751762Y-24311200D01*
X78751762Y-24311200D02*
X78894619Y-24358819D01*
X78894619Y-24358819D02*
X78989857Y-24358819D01*
X78989857Y-24358819D02*
X79132714Y-24311200D01*
X79132714Y-24311200D02*
X79227952Y-24215961D01*
X79227952Y-24215961D02*
X79275571Y-24120723D01*
X79275571Y-24120723D02*
X79323190Y-23930247D01*
X79323190Y-23930247D02*
X79323190Y-23787390D01*
X79323190Y-23787390D02*
X79275571Y-23596914D01*
X79275571Y-23596914D02*
X79227952Y-23501676D01*
X79227952Y-23501676D02*
X79132714Y-23406438D01*
X79132714Y-23406438D02*
X78989857Y-23358819D01*
X78989857Y-23358819D02*
X78894619Y-23358819D01*
X78894619Y-23358819D02*
X78751762Y-23406438D01*
X78751762Y-23406438D02*
X78704143Y-23454057D01*
X77751762Y-24358819D02*
X78323190Y-24358819D01*
X78037476Y-24358819D02*
X78037476Y-23358819D01*
X78037476Y-23358819D02*
X78132714Y-23501676D01*
X78132714Y-23501676D02*
X78227952Y-23596914D01*
X78227952Y-23596914D02*
X78323190Y-23644533D01*
X77132714Y-23358819D02*
X77037476Y-23358819D01*
X77037476Y-23358819D02*
X76942238Y-23406438D01*
X76942238Y-23406438D02*
X76894619Y-23454057D01*
X76894619Y-23454057D02*
X76847000Y-23549295D01*
X76847000Y-23549295D02*
X76799381Y-23739771D01*
X76799381Y-23739771D02*
X76799381Y-23977866D01*
X76799381Y-23977866D02*
X76847000Y-24168342D01*
X76847000Y-24168342D02*
X76894619Y-24263580D01*
X76894619Y-24263580D02*
X76942238Y-24311200D01*
X76942238Y-24311200D02*
X77037476Y-24358819D01*
X77037476Y-24358819D02*
X77132714Y-24358819D01*
X77132714Y-24358819D02*
X77227952Y-24311200D01*
X77227952Y-24311200D02*
X77275571Y-24263580D01*
X77275571Y-24263580D02*
X77323190Y-24168342D01*
X77323190Y-24168342D02*
X77370809Y-23977866D01*
X77370809Y-23977866D02*
X77370809Y-23739771D01*
X77370809Y-23739771D02*
X77323190Y-23549295D01*
X77323190Y-23549295D02*
X77275571Y-23454057D01*
X77275571Y-23454057D02*
X77227952Y-23406438D01*
X77227952Y-23406438D02*
X77132714Y-23358819D01*
X76180333Y-23358819D02*
X76085095Y-23358819D01*
X76085095Y-23358819D02*
X75989857Y-23406438D01*
X75989857Y-23406438D02*
X75942238Y-23454057D01*
X75942238Y-23454057D02*
X75894619Y-23549295D01*
X75894619Y-23549295D02*
X75847000Y-23739771D01*
X75847000Y-23739771D02*
X75847000Y-23977866D01*
X75847000Y-23977866D02*
X75894619Y-24168342D01*
X75894619Y-24168342D02*
X75942238Y-24263580D01*
X75942238Y-24263580D02*
X75989857Y-24311200D01*
X75989857Y-24311200D02*
X76085095Y-24358819D01*
X76085095Y-24358819D02*
X76180333Y-24358819D01*
X76180333Y-24358819D02*
X76275571Y-24311200D01*
X76275571Y-24311200D02*
X76323190Y-24263580D01*
X76323190Y-24263580D02*
X76370809Y-24168342D01*
X76370809Y-24168342D02*
X76418428Y-23977866D01*
X76418428Y-23977866D02*
X76418428Y-23739771D01*
X76418428Y-23739771D02*
X76370809Y-23549295D01*
X76370809Y-23549295D02*
X76323190Y-23454057D01*
X76323190Y-23454057D02*
X76275571Y-23406438D01*
X76275571Y-23406438D02*
X76180333Y-23358819D01*
X74894619Y-24358819D02*
X75466047Y-24358819D01*
X75180333Y-24358819D02*
X75180333Y-23358819D01*
X75180333Y-23358819D02*
X75275571Y-23501676D01*
X75275571Y-23501676D02*
X75370809Y-23596914D01*
X75370809Y-23596914D02*
X75466047Y-23644533D01*
X169048419Y-123019999D02*
X168048419Y-123019999D01*
X168048419Y-123019999D02*
X168048419Y-123162856D01*
X168048419Y-123162856D02*
X168096038Y-123248570D01*
X168096038Y-123248570D02*
X168191276Y-123305713D01*
X168191276Y-123305713D02*
X168286514Y-123334284D01*
X168286514Y-123334284D02*
X168476990Y-123362856D01*
X168476990Y-123362856D02*
X168619847Y-123362856D01*
X168619847Y-123362856D02*
X168810323Y-123334284D01*
X168810323Y-123334284D02*
X168905561Y-123305713D01*
X168905561Y-123305713D02*
X169000800Y-123248570D01*
X169000800Y-123248570D02*
X169048419Y-123162856D01*
X169048419Y-123162856D02*
X169048419Y-123019999D01*
X169048419Y-123934284D02*
X169048419Y-123591427D01*
X169048419Y-123762856D02*
X168048419Y-123762856D01*
X168048419Y-123762856D02*
X168191276Y-123705713D01*
X168191276Y-123705713D02*
X168286514Y-123648570D01*
X168286514Y-123648570D02*
X168334133Y-123591427D01*
X168143657Y-124162856D02*
X168096038Y-124191428D01*
X168096038Y-124191428D02*
X168048419Y-124248571D01*
X168048419Y-124248571D02*
X168048419Y-124391428D01*
X168048419Y-124391428D02*
X168096038Y-124448571D01*
X168096038Y-124448571D02*
X168143657Y-124477142D01*
X168143657Y-124477142D02*
X168238895Y-124505713D01*
X168238895Y-124505713D02*
X168334133Y-124505713D01*
X168334133Y-124505713D02*
X168476990Y-124477142D01*
X168476990Y-124477142D02*
X169048419Y-124134285D01*
X169048419Y-124134285D02*
X169048419Y-124505713D01*
X168048419Y-124877142D02*
X168048419Y-124934285D01*
X168048419Y-124934285D02*
X168096038Y-124991428D01*
X168096038Y-124991428D02*
X168143657Y-125020000D01*
X168143657Y-125020000D02*
X168238895Y-125048571D01*
X168238895Y-125048571D02*
X168429371Y-125077142D01*
X168429371Y-125077142D02*
X168667466Y-125077142D01*
X168667466Y-125077142D02*
X168857942Y-125048571D01*
X168857942Y-125048571D02*
X168953180Y-125020000D01*
X168953180Y-125020000D02*
X169000800Y-124991428D01*
X169000800Y-124991428D02*
X169048419Y-124934285D01*
X169048419Y-124934285D02*
X169048419Y-124877142D01*
X169048419Y-124877142D02*
X169000800Y-124820000D01*
X169000800Y-124820000D02*
X168953180Y-124791428D01*
X168953180Y-124791428D02*
X168857942Y-124762857D01*
X168857942Y-124762857D02*
X168667466Y-124734285D01*
X168667466Y-124734285D02*
X168429371Y-124734285D01*
X168429371Y-124734285D02*
X168238895Y-124762857D01*
X168238895Y-124762857D02*
X168143657Y-124791428D01*
X168143657Y-124791428D02*
X168096038Y-124820000D01*
X168096038Y-124820000D02*
X168048419Y-124877142D01*
X168048419Y-125277143D02*
X168048419Y-125648571D01*
X168048419Y-125648571D02*
X168429371Y-125448571D01*
X168429371Y-125448571D02*
X168429371Y-125534286D01*
X168429371Y-125534286D02*
X168476990Y-125591429D01*
X168476990Y-125591429D02*
X168524609Y-125620000D01*
X168524609Y-125620000D02*
X168619847Y-125648571D01*
X168619847Y-125648571D02*
X168857942Y-125648571D01*
X168857942Y-125648571D02*
X168953180Y-125620000D01*
X168953180Y-125620000D02*
X169000800Y-125591429D01*
X169000800Y-125591429D02*
X169048419Y-125534286D01*
X169048419Y-125534286D02*
X169048419Y-125362857D01*
X169048419Y-125362857D02*
X169000800Y-125305714D01*
X169000800Y-125305714D02*
X168953180Y-125277143D01*
X170913866Y-125609048D02*
X170913866Y-126370953D01*
X171294819Y-125990000D02*
X170532914Y-125990000D01*
X193927000Y-4819819D02*
X193927000Y-3819819D01*
X193927000Y-3819819D02*
X193784143Y-3819819D01*
X193784143Y-3819819D02*
X193698429Y-3867438D01*
X193698429Y-3867438D02*
X193641286Y-3962676D01*
X193641286Y-3962676D02*
X193612715Y-4057914D01*
X193612715Y-4057914D02*
X193584143Y-4248390D01*
X193584143Y-4248390D02*
X193584143Y-4391247D01*
X193584143Y-4391247D02*
X193612715Y-4581723D01*
X193612715Y-4581723D02*
X193641286Y-4676961D01*
X193641286Y-4676961D02*
X193698429Y-4772200D01*
X193698429Y-4772200D02*
X193784143Y-4819819D01*
X193784143Y-4819819D02*
X193927000Y-4819819D01*
X193012715Y-4819819D02*
X193355572Y-4819819D01*
X193184143Y-4819819D02*
X193184143Y-3819819D01*
X193184143Y-3819819D02*
X193241286Y-3962676D01*
X193241286Y-3962676D02*
X193298429Y-4057914D01*
X193298429Y-4057914D02*
X193355572Y-4105533D01*
X192641286Y-3819819D02*
X192584143Y-3819819D01*
X192584143Y-3819819D02*
X192527000Y-3867438D01*
X192527000Y-3867438D02*
X192498429Y-3915057D01*
X192498429Y-3915057D02*
X192469857Y-4010295D01*
X192469857Y-4010295D02*
X192441286Y-4200771D01*
X192441286Y-4200771D02*
X192441286Y-4438866D01*
X192441286Y-4438866D02*
X192469857Y-4629342D01*
X192469857Y-4629342D02*
X192498429Y-4724580D01*
X192498429Y-4724580D02*
X192527000Y-4772200D01*
X192527000Y-4772200D02*
X192584143Y-4819819D01*
X192584143Y-4819819D02*
X192641286Y-4819819D01*
X192641286Y-4819819D02*
X192698429Y-4772200D01*
X192698429Y-4772200D02*
X192727000Y-4724580D01*
X192727000Y-4724580D02*
X192755571Y-4629342D01*
X192755571Y-4629342D02*
X192784143Y-4438866D01*
X192784143Y-4438866D02*
X192784143Y-4200771D01*
X192784143Y-4200771D02*
X192755571Y-4010295D01*
X192755571Y-4010295D02*
X192727000Y-3915057D01*
X192727000Y-3915057D02*
X192698429Y-3867438D01*
X192698429Y-3867438D02*
X192641286Y-3819819D01*
X191869857Y-4819819D02*
X192212714Y-4819819D01*
X192041285Y-4819819D02*
X192041285Y-3819819D01*
X192041285Y-3819819D02*
X192098428Y-3962676D01*
X192098428Y-3962676D02*
X192155571Y-4057914D01*
X192155571Y-4057914D02*
X192212714Y-4105533D01*
X191498428Y-3819819D02*
X191441285Y-3819819D01*
X191441285Y-3819819D02*
X191384142Y-3867438D01*
X191384142Y-3867438D02*
X191355571Y-3915057D01*
X191355571Y-3915057D02*
X191326999Y-4010295D01*
X191326999Y-4010295D02*
X191298428Y-4200771D01*
X191298428Y-4200771D02*
X191298428Y-4438866D01*
X191298428Y-4438866D02*
X191326999Y-4629342D01*
X191326999Y-4629342D02*
X191355571Y-4724580D01*
X191355571Y-4724580D02*
X191384142Y-4772200D01*
X191384142Y-4772200D02*
X191441285Y-4819819D01*
X191441285Y-4819819D02*
X191498428Y-4819819D01*
X191498428Y-4819819D02*
X191555571Y-4772200D01*
X191555571Y-4772200D02*
X191584142Y-4724580D01*
X191584142Y-4724580D02*
X191612713Y-4629342D01*
X191612713Y-4629342D02*
X191641285Y-4438866D01*
X191641285Y-4438866D02*
X191641285Y-4200771D01*
X191641285Y-4200771D02*
X191612713Y-4010295D01*
X191612713Y-4010295D02*
X191584142Y-3915057D01*
X191584142Y-3915057D02*
X191555571Y-3867438D01*
X191555571Y-3867438D02*
X191498428Y-3819819D01*
X190007951Y-5003866D02*
X189246047Y-5003866D01*
X189626999Y-5384819D02*
X189626999Y-4622914D01*
X176800000Y-12819819D02*
X176800000Y-11819819D01*
X176800000Y-11819819D02*
X176657143Y-11819819D01*
X176657143Y-11819819D02*
X176571429Y-11867438D01*
X176571429Y-11867438D02*
X176514286Y-11962676D01*
X176514286Y-11962676D02*
X176485715Y-12057914D01*
X176485715Y-12057914D02*
X176457143Y-12248390D01*
X176457143Y-12248390D02*
X176457143Y-12391247D01*
X176457143Y-12391247D02*
X176485715Y-12581723D01*
X176485715Y-12581723D02*
X176514286Y-12676961D01*
X176514286Y-12676961D02*
X176571429Y-12772200D01*
X176571429Y-12772200D02*
X176657143Y-12819819D01*
X176657143Y-12819819D02*
X176800000Y-12819819D01*
X175885715Y-12819819D02*
X176228572Y-12819819D01*
X176057143Y-12819819D02*
X176057143Y-11819819D01*
X176057143Y-11819819D02*
X176114286Y-11962676D01*
X176114286Y-11962676D02*
X176171429Y-12057914D01*
X176171429Y-12057914D02*
X176228572Y-12105533D01*
X175514286Y-11819819D02*
X175457143Y-11819819D01*
X175457143Y-11819819D02*
X175400000Y-11867438D01*
X175400000Y-11867438D02*
X175371429Y-11915057D01*
X175371429Y-11915057D02*
X175342857Y-12010295D01*
X175342857Y-12010295D02*
X175314286Y-12200771D01*
X175314286Y-12200771D02*
X175314286Y-12438866D01*
X175314286Y-12438866D02*
X175342857Y-12629342D01*
X175342857Y-12629342D02*
X175371429Y-12724580D01*
X175371429Y-12724580D02*
X175400000Y-12772200D01*
X175400000Y-12772200D02*
X175457143Y-12819819D01*
X175457143Y-12819819D02*
X175514286Y-12819819D01*
X175514286Y-12819819D02*
X175571429Y-12772200D01*
X175571429Y-12772200D02*
X175600000Y-12724580D01*
X175600000Y-12724580D02*
X175628571Y-12629342D01*
X175628571Y-12629342D02*
X175657143Y-12438866D01*
X175657143Y-12438866D02*
X175657143Y-12200771D01*
X175657143Y-12200771D02*
X175628571Y-12010295D01*
X175628571Y-12010295D02*
X175600000Y-11915057D01*
X175600000Y-11915057D02*
X175571429Y-11867438D01*
X175571429Y-11867438D02*
X175514286Y-11819819D01*
X174742857Y-12819819D02*
X175085714Y-12819819D01*
X174914285Y-12819819D02*
X174914285Y-11819819D01*
X174914285Y-11819819D02*
X174971428Y-11962676D01*
X174971428Y-11962676D02*
X175028571Y-12057914D01*
X175028571Y-12057914D02*
X175085714Y-12105533D01*
X174228571Y-11819819D02*
X174342856Y-11819819D01*
X174342856Y-11819819D02*
X174399999Y-11867438D01*
X174399999Y-11867438D02*
X174428571Y-11915057D01*
X174428571Y-11915057D02*
X174485713Y-12057914D01*
X174485713Y-12057914D02*
X174514285Y-12248390D01*
X174514285Y-12248390D02*
X174514285Y-12629342D01*
X174514285Y-12629342D02*
X174485713Y-12724580D01*
X174485713Y-12724580D02*
X174457142Y-12772200D01*
X174457142Y-12772200D02*
X174399999Y-12819819D01*
X174399999Y-12819819D02*
X174285713Y-12819819D01*
X174285713Y-12819819D02*
X174228571Y-12772200D01*
X174228571Y-12772200D02*
X174199999Y-12724580D01*
X174199999Y-12724580D02*
X174171428Y-12629342D01*
X174171428Y-12629342D02*
X174171428Y-12391247D01*
X174171428Y-12391247D02*
X174199999Y-12296009D01*
X174199999Y-12296009D02*
X174228571Y-12248390D01*
X174228571Y-12248390D02*
X174285713Y-12200771D01*
X174285713Y-12200771D02*
X174399999Y-12200771D01*
X174399999Y-12200771D02*
X174457142Y-12248390D01*
X174457142Y-12248390D02*
X174485713Y-12296009D01*
X174485713Y-12296009D02*
X174514285Y-12391247D01*
X172880951Y-13003866D02*
X172119047Y-13003866D01*
X172499999Y-13384819D02*
X172499999Y-12622914D01*
X141800000Y-12819819D02*
X141800000Y-11819819D01*
X141800000Y-11819819D02*
X141657143Y-11819819D01*
X141657143Y-11819819D02*
X141571429Y-11867438D01*
X141571429Y-11867438D02*
X141514286Y-11962676D01*
X141514286Y-11962676D02*
X141485715Y-12057914D01*
X141485715Y-12057914D02*
X141457143Y-12248390D01*
X141457143Y-12248390D02*
X141457143Y-12391247D01*
X141457143Y-12391247D02*
X141485715Y-12581723D01*
X141485715Y-12581723D02*
X141514286Y-12676961D01*
X141514286Y-12676961D02*
X141571429Y-12772200D01*
X141571429Y-12772200D02*
X141657143Y-12819819D01*
X141657143Y-12819819D02*
X141800000Y-12819819D01*
X140885715Y-12819819D02*
X141228572Y-12819819D01*
X141057143Y-12819819D02*
X141057143Y-11819819D01*
X141057143Y-11819819D02*
X141114286Y-11962676D01*
X141114286Y-11962676D02*
X141171429Y-12057914D01*
X141171429Y-12057914D02*
X141228572Y-12105533D01*
X140514286Y-11819819D02*
X140457143Y-11819819D01*
X140457143Y-11819819D02*
X140400000Y-11867438D01*
X140400000Y-11867438D02*
X140371429Y-11915057D01*
X140371429Y-11915057D02*
X140342857Y-12010295D01*
X140342857Y-12010295D02*
X140314286Y-12200771D01*
X140314286Y-12200771D02*
X140314286Y-12438866D01*
X140314286Y-12438866D02*
X140342857Y-12629342D01*
X140342857Y-12629342D02*
X140371429Y-12724580D01*
X140371429Y-12724580D02*
X140400000Y-12772200D01*
X140400000Y-12772200D02*
X140457143Y-12819819D01*
X140457143Y-12819819D02*
X140514286Y-12819819D01*
X140514286Y-12819819D02*
X140571429Y-12772200D01*
X140571429Y-12772200D02*
X140600000Y-12724580D01*
X140600000Y-12724580D02*
X140628571Y-12629342D01*
X140628571Y-12629342D02*
X140657143Y-12438866D01*
X140657143Y-12438866D02*
X140657143Y-12200771D01*
X140657143Y-12200771D02*
X140628571Y-12010295D01*
X140628571Y-12010295D02*
X140600000Y-11915057D01*
X140600000Y-11915057D02*
X140571429Y-11867438D01*
X140571429Y-11867438D02*
X140514286Y-11819819D01*
X139742857Y-12819819D02*
X140085714Y-12819819D01*
X139914285Y-12819819D02*
X139914285Y-11819819D01*
X139914285Y-11819819D02*
X139971428Y-11962676D01*
X139971428Y-11962676D02*
X140028571Y-12057914D01*
X140028571Y-12057914D02*
X140085714Y-12105533D01*
X139542856Y-11819819D02*
X139142856Y-11819819D01*
X139142856Y-11819819D02*
X139399999Y-12819819D01*
X137880951Y-13003866D02*
X137119047Y-13003866D01*
X137499999Y-13384819D02*
X137499999Y-12622914D01*
X176927000Y-4819819D02*
X176927000Y-3819819D01*
X176927000Y-3819819D02*
X176784143Y-3819819D01*
X176784143Y-3819819D02*
X176698429Y-3867438D01*
X176698429Y-3867438D02*
X176641286Y-3962676D01*
X176641286Y-3962676D02*
X176612715Y-4057914D01*
X176612715Y-4057914D02*
X176584143Y-4248390D01*
X176584143Y-4248390D02*
X176584143Y-4391247D01*
X176584143Y-4391247D02*
X176612715Y-4581723D01*
X176612715Y-4581723D02*
X176641286Y-4676961D01*
X176641286Y-4676961D02*
X176698429Y-4772200D01*
X176698429Y-4772200D02*
X176784143Y-4819819D01*
X176784143Y-4819819D02*
X176927000Y-4819819D01*
X176012715Y-4819819D02*
X176355572Y-4819819D01*
X176184143Y-4819819D02*
X176184143Y-3819819D01*
X176184143Y-3819819D02*
X176241286Y-3962676D01*
X176241286Y-3962676D02*
X176298429Y-4057914D01*
X176298429Y-4057914D02*
X176355572Y-4105533D01*
X175641286Y-3819819D02*
X175584143Y-3819819D01*
X175584143Y-3819819D02*
X175527000Y-3867438D01*
X175527000Y-3867438D02*
X175498429Y-3915057D01*
X175498429Y-3915057D02*
X175469857Y-4010295D01*
X175469857Y-4010295D02*
X175441286Y-4200771D01*
X175441286Y-4200771D02*
X175441286Y-4438866D01*
X175441286Y-4438866D02*
X175469857Y-4629342D01*
X175469857Y-4629342D02*
X175498429Y-4724580D01*
X175498429Y-4724580D02*
X175527000Y-4772200D01*
X175527000Y-4772200D02*
X175584143Y-4819819D01*
X175584143Y-4819819D02*
X175641286Y-4819819D01*
X175641286Y-4819819D02*
X175698429Y-4772200D01*
X175698429Y-4772200D02*
X175727000Y-4724580D01*
X175727000Y-4724580D02*
X175755571Y-4629342D01*
X175755571Y-4629342D02*
X175784143Y-4438866D01*
X175784143Y-4438866D02*
X175784143Y-4200771D01*
X175784143Y-4200771D02*
X175755571Y-4010295D01*
X175755571Y-4010295D02*
X175727000Y-3915057D01*
X175727000Y-3915057D02*
X175698429Y-3867438D01*
X175698429Y-3867438D02*
X175641286Y-3819819D01*
X174869857Y-4819819D02*
X175212714Y-4819819D01*
X175041285Y-4819819D02*
X175041285Y-3819819D01*
X175041285Y-3819819D02*
X175098428Y-3962676D01*
X175098428Y-3962676D02*
X175155571Y-4057914D01*
X175155571Y-4057914D02*
X175212714Y-4105533D01*
X174355571Y-4153152D02*
X174355571Y-4819819D01*
X174498428Y-3772200D02*
X174641285Y-4486485D01*
X174641285Y-4486485D02*
X174269856Y-4486485D01*
X173007951Y-5003866D02*
X172246047Y-5003866D01*
X172626999Y-5384819D02*
X172626999Y-4622914D01*
X95861219Y-123019999D02*
X94861219Y-123019999D01*
X94861219Y-123019999D02*
X94861219Y-123162856D01*
X94861219Y-123162856D02*
X94908838Y-123248570D01*
X94908838Y-123248570D02*
X95004076Y-123305713D01*
X95004076Y-123305713D02*
X95099314Y-123334284D01*
X95099314Y-123334284D02*
X95289790Y-123362856D01*
X95289790Y-123362856D02*
X95432647Y-123362856D01*
X95432647Y-123362856D02*
X95623123Y-123334284D01*
X95623123Y-123334284D02*
X95718361Y-123305713D01*
X95718361Y-123305713D02*
X95813600Y-123248570D01*
X95813600Y-123248570D02*
X95861219Y-123162856D01*
X95861219Y-123162856D02*
X95861219Y-123019999D01*
X95861219Y-123934284D02*
X95861219Y-123591427D01*
X95861219Y-123762856D02*
X94861219Y-123762856D01*
X94861219Y-123762856D02*
X95004076Y-123705713D01*
X95004076Y-123705713D02*
X95099314Y-123648570D01*
X95099314Y-123648570D02*
X95146933Y-123591427D01*
X94861219Y-124134285D02*
X94861219Y-124505713D01*
X94861219Y-124505713D02*
X95242171Y-124305713D01*
X95242171Y-124305713D02*
X95242171Y-124391428D01*
X95242171Y-124391428D02*
X95289790Y-124448571D01*
X95289790Y-124448571D02*
X95337409Y-124477142D01*
X95337409Y-124477142D02*
X95432647Y-124505713D01*
X95432647Y-124505713D02*
X95670742Y-124505713D01*
X95670742Y-124505713D02*
X95765980Y-124477142D01*
X95765980Y-124477142D02*
X95813600Y-124448571D01*
X95813600Y-124448571D02*
X95861219Y-124391428D01*
X95861219Y-124391428D02*
X95861219Y-124219999D01*
X95861219Y-124219999D02*
X95813600Y-124162856D01*
X95813600Y-124162856D02*
X95765980Y-124134285D01*
X94861219Y-124877142D02*
X94861219Y-124934285D01*
X94861219Y-124934285D02*
X94908838Y-124991428D01*
X94908838Y-124991428D02*
X94956457Y-125020000D01*
X94956457Y-125020000D02*
X95051695Y-125048571D01*
X95051695Y-125048571D02*
X95242171Y-125077142D01*
X95242171Y-125077142D02*
X95480266Y-125077142D01*
X95480266Y-125077142D02*
X95670742Y-125048571D01*
X95670742Y-125048571D02*
X95765980Y-125020000D01*
X95765980Y-125020000D02*
X95813600Y-124991428D01*
X95813600Y-124991428D02*
X95861219Y-124934285D01*
X95861219Y-124934285D02*
X95861219Y-124877142D01*
X95861219Y-124877142D02*
X95813600Y-124820000D01*
X95813600Y-124820000D02*
X95765980Y-124791428D01*
X95765980Y-124791428D02*
X95670742Y-124762857D01*
X95670742Y-124762857D02*
X95480266Y-124734285D01*
X95480266Y-124734285D02*
X95242171Y-124734285D01*
X95242171Y-124734285D02*
X95051695Y-124762857D01*
X95051695Y-124762857D02*
X94956457Y-124791428D01*
X94956457Y-124791428D02*
X94908838Y-124820000D01*
X94908838Y-124820000D02*
X94861219Y-124877142D01*
X95194552Y-125591429D02*
X95861219Y-125591429D01*
X94813600Y-125448571D02*
X95527885Y-125305714D01*
X95527885Y-125305714D02*
X95527885Y-125677143D01*
X93233866Y-122269048D02*
X93233866Y-123030953D01*
X93614819Y-122650000D02*
X92852914Y-122650000D01*
X227800000Y-4819819D02*
X227800000Y-3819819D01*
X227800000Y-3819819D02*
X227657143Y-3819819D01*
X227657143Y-3819819D02*
X227571429Y-3867438D01*
X227571429Y-3867438D02*
X227514286Y-3962676D01*
X227514286Y-3962676D02*
X227485715Y-4057914D01*
X227485715Y-4057914D02*
X227457143Y-4248390D01*
X227457143Y-4248390D02*
X227457143Y-4391247D01*
X227457143Y-4391247D02*
X227485715Y-4581723D01*
X227485715Y-4581723D02*
X227514286Y-4676961D01*
X227514286Y-4676961D02*
X227571429Y-4772200D01*
X227571429Y-4772200D02*
X227657143Y-4819819D01*
X227657143Y-4819819D02*
X227800000Y-4819819D01*
X226885715Y-4819819D02*
X227228572Y-4819819D01*
X227057143Y-4819819D02*
X227057143Y-3819819D01*
X227057143Y-3819819D02*
X227114286Y-3962676D01*
X227114286Y-3962676D02*
X227171429Y-4057914D01*
X227171429Y-4057914D02*
X227228572Y-4105533D01*
X226514286Y-3819819D02*
X226457143Y-3819819D01*
X226457143Y-3819819D02*
X226400000Y-3867438D01*
X226400000Y-3867438D02*
X226371429Y-3915057D01*
X226371429Y-3915057D02*
X226342857Y-4010295D01*
X226342857Y-4010295D02*
X226314286Y-4200771D01*
X226314286Y-4200771D02*
X226314286Y-4438866D01*
X226314286Y-4438866D02*
X226342857Y-4629342D01*
X226342857Y-4629342D02*
X226371429Y-4724580D01*
X226371429Y-4724580D02*
X226400000Y-4772200D01*
X226400000Y-4772200D02*
X226457143Y-4819819D01*
X226457143Y-4819819D02*
X226514286Y-4819819D01*
X226514286Y-4819819D02*
X226571429Y-4772200D01*
X226571429Y-4772200D02*
X226600000Y-4724580D01*
X226600000Y-4724580D02*
X226628571Y-4629342D01*
X226628571Y-4629342D02*
X226657143Y-4438866D01*
X226657143Y-4438866D02*
X226657143Y-4200771D01*
X226657143Y-4200771D02*
X226628571Y-4010295D01*
X226628571Y-4010295D02*
X226600000Y-3915057D01*
X226600000Y-3915057D02*
X226571429Y-3867438D01*
X226571429Y-3867438D02*
X226514286Y-3819819D01*
X225942857Y-3819819D02*
X225885714Y-3819819D01*
X225885714Y-3819819D02*
X225828571Y-3867438D01*
X225828571Y-3867438D02*
X225800000Y-3915057D01*
X225800000Y-3915057D02*
X225771428Y-4010295D01*
X225771428Y-4010295D02*
X225742857Y-4200771D01*
X225742857Y-4200771D02*
X225742857Y-4438866D01*
X225742857Y-4438866D02*
X225771428Y-4629342D01*
X225771428Y-4629342D02*
X225800000Y-4724580D01*
X225800000Y-4724580D02*
X225828571Y-4772200D01*
X225828571Y-4772200D02*
X225885714Y-4819819D01*
X225885714Y-4819819D02*
X225942857Y-4819819D01*
X225942857Y-4819819D02*
X226000000Y-4772200D01*
X226000000Y-4772200D02*
X226028571Y-4724580D01*
X226028571Y-4724580D02*
X226057142Y-4629342D01*
X226057142Y-4629342D02*
X226085714Y-4438866D01*
X226085714Y-4438866D02*
X226085714Y-4200771D01*
X226085714Y-4200771D02*
X226057142Y-4010295D01*
X226057142Y-4010295D02*
X226028571Y-3915057D01*
X226028571Y-3915057D02*
X226000000Y-3867438D01*
X226000000Y-3867438D02*
X225942857Y-3819819D01*
X225514285Y-3915057D02*
X225485713Y-3867438D01*
X225485713Y-3867438D02*
X225428571Y-3819819D01*
X225428571Y-3819819D02*
X225285713Y-3819819D01*
X225285713Y-3819819D02*
X225228571Y-3867438D01*
X225228571Y-3867438D02*
X225199999Y-3915057D01*
X225199999Y-3915057D02*
X225171428Y-4010295D01*
X225171428Y-4010295D02*
X225171428Y-4105533D01*
X225171428Y-4105533D02*
X225199999Y-4248390D01*
X225199999Y-4248390D02*
X225542856Y-4819819D01*
X225542856Y-4819819D02*
X225171428Y-4819819D01*
X223880951Y-5003866D02*
X223119047Y-5003866D01*
X223499999Y-5384819D02*
X223499999Y-4622914D01*
X147557143Y-105954819D02*
X147557143Y-106669104D01*
X147557143Y-106669104D02*
X147585714Y-106811961D01*
X147585714Y-106811961D02*
X147642857Y-106907200D01*
X147642857Y-106907200D02*
X147728571Y-106954819D01*
X147728571Y-106954819D02*
X147785714Y-106954819D01*
X146957143Y-106954819D02*
X147300000Y-106954819D01*
X147128571Y-106954819D02*
X147128571Y-105954819D01*
X147128571Y-105954819D02*
X147185714Y-106097676D01*
X147185714Y-106097676D02*
X147242857Y-106192914D01*
X147242857Y-106192914D02*
X147300000Y-106240533D01*
X146385714Y-106954819D02*
X146728571Y-106954819D01*
X146557142Y-106954819D02*
X146557142Y-105954819D01*
X146557142Y-105954819D02*
X146614285Y-106097676D01*
X146614285Y-106097676D02*
X146671428Y-106192914D01*
X146671428Y-106192914D02*
X146728571Y-106240533D01*
X146014285Y-105954819D02*
X145957142Y-105954819D01*
X145957142Y-105954819D02*
X145899999Y-106002438D01*
X145899999Y-106002438D02*
X145871428Y-106050057D01*
X145871428Y-106050057D02*
X145842856Y-106145295D01*
X145842856Y-106145295D02*
X145814285Y-106335771D01*
X145814285Y-106335771D02*
X145814285Y-106573866D01*
X145814285Y-106573866D02*
X145842856Y-106764342D01*
X145842856Y-106764342D02*
X145871428Y-106859580D01*
X145871428Y-106859580D02*
X145899999Y-106907200D01*
X145899999Y-106907200D02*
X145957142Y-106954819D01*
X145957142Y-106954819D02*
X146014285Y-106954819D01*
X146014285Y-106954819D02*
X146071428Y-106907200D01*
X146071428Y-106907200D02*
X146099999Y-106859580D01*
X146099999Y-106859580D02*
X146128570Y-106764342D01*
X146128570Y-106764342D02*
X146157142Y-106573866D01*
X146157142Y-106573866D02*
X146157142Y-106335771D01*
X146157142Y-106335771D02*
X146128570Y-106145295D01*
X146128570Y-106145295D02*
X146099999Y-106050057D01*
X146099999Y-106050057D02*
X146071428Y-106002438D01*
X146071428Y-106002438D02*
X146014285Y-105954819D01*
X145242856Y-106954819D02*
X145585713Y-106954819D01*
X145414284Y-106954819D02*
X145414284Y-105954819D01*
X145414284Y-105954819D02*
X145471427Y-106097676D01*
X145471427Y-106097676D02*
X145528570Y-106192914D01*
X145528570Y-106192914D02*
X145585713Y-106240533D01*
D11*
G04 #@! TO.C,D1006*
X209900000Y-5500000D02*
X209100000Y-5500000D01*
X209900000Y-8500000D02*
X209100000Y-8500000D01*
G04 #@! TO.C,J706*
X189860000Y-22900000D02*
X189860000Y-38340000D01*
X189860000Y-38340000D02*
X195140000Y-38340000D01*
X195140000Y-22900000D02*
X189860000Y-22900000D01*
X195140000Y-38340000D02*
X195140000Y-22900000D01*
X190400000Y-37900000D02*
G75*
G02*
X190200000Y-37900000I-100000J0D01*
G01*
X190200000Y-37900000D02*
G75*
G02*
X190400000Y-37900000I100000J0D01*
G01*
G04 #@! TO.C,D1204*
X186500000Y-124220000D02*
X186500000Y-124420000D01*
D12*
X186860000Y-124430000D02*
X187150000Y-124430000D01*
X187000000Y-124190000D02*
X186860000Y-124430000D01*
X187150000Y-124430000D02*
X187000000Y-124190000D01*
D11*
X187500000Y-124420000D02*
X187500000Y-124220000D01*
G04 #@! TO.C,D1008*
X209900000Y-13500000D02*
X209100000Y-13500000D01*
X209900000Y-16500000D02*
X209100000Y-16500000D01*
G04 #@! TO.C,D1003*
X105900000Y-13500000D02*
X105100000Y-13500000D01*
X105900000Y-16500000D02*
X105100000Y-16500000D01*
G04 #@! TO.C,D1005*
X89027000Y-4484000D02*
X88227000Y-4484000D01*
X89027000Y-7484000D02*
X88227000Y-7484000D01*
G04 #@! TO.C,D1303*
X110500000Y-124220000D02*
X110500000Y-124420000D01*
D12*
X110850000Y-124210000D02*
X111000000Y-124450000D01*
X111000000Y-124450000D02*
X111140000Y-124210000D01*
X111140000Y-124210000D02*
X110850000Y-124210000D01*
D11*
X111500000Y-124420000D02*
X111500000Y-124220000D01*
D13*
G04 #@! TO.C,IC1003*
X139669000Y-47438000D02*
X139669000Y-47608000D01*
X139669000Y-47438000D02*
X139839000Y-47438000D01*
X139669000Y-51438000D02*
X139669000Y-51268000D01*
X139669000Y-51438000D02*
X139839000Y-51438000D01*
X143669000Y-47438000D02*
X143499000Y-47438000D01*
X143669000Y-47438000D02*
X143669000Y-47608000D01*
X143669000Y-51438000D02*
X143499000Y-51438000D01*
X143669000Y-51438000D02*
X143669000Y-51268000D01*
D11*
X138834000Y-50838000D02*
G75*
G02*
X138634000Y-50838000I-100000J0D01*
G01*
X138634000Y-50838000D02*
G75*
G02*
X138834000Y-50838000I100000J0D01*
G01*
G04 #@! TO.C,D1004*
X226900000Y-13500000D02*
X226100000Y-13500000D01*
X226900000Y-16500000D02*
X226100000Y-16500000D01*
G04 #@! TO.C,J708*
X172860000Y-22900000D02*
X172860000Y-38340000D01*
X172860000Y-38340000D02*
X178140000Y-38340000D01*
X178140000Y-22900000D02*
X172860000Y-22900000D01*
X178140000Y-38340000D02*
X178140000Y-22900000D01*
X173400000Y-37900000D02*
G75*
G02*
X173200000Y-37900000I-100000J0D01*
G01*
X173200000Y-37900000D02*
G75*
G02*
X173400000Y-37900000I100000J0D01*
G01*
G04 #@! TO.C,J704*
X206860000Y-22900000D02*
X206860000Y-38340000D01*
X206860000Y-38340000D02*
X212140000Y-38340000D01*
X212140000Y-22900000D02*
X206860000Y-22900000D01*
X212140000Y-38340000D02*
X212140000Y-22900000D01*
X207400000Y-37900000D02*
G75*
G02*
X207200000Y-37900000I-100000J0D01*
G01*
X207200000Y-37900000D02*
G75*
G02*
X207400000Y-37900000I100000J0D01*
G01*
G04 #@! TO.C,D1102*
X148500000Y-124220000D02*
X148500000Y-124420000D01*
D12*
X148850000Y-124210000D02*
X149000000Y-124450000D01*
X149000000Y-124450000D02*
X149140000Y-124210000D01*
X149140000Y-124210000D02*
X148850000Y-124210000D01*
D11*
X149500000Y-124420000D02*
X149500000Y-124220000D01*
G04 #@! TO.C,D1009*
X71900000Y-5500000D02*
X71100000Y-5500000D01*
X71900000Y-8500000D02*
X71100000Y-8500000D01*
G04 #@! TO.C,D1001*
X105900000Y-5500000D02*
X105100000Y-5500000D01*
X105900000Y-8500000D02*
X105100000Y-8500000D01*
D13*
G04 #@! TO.C,IC1002*
X235165296Y-7666202D02*
X235165296Y-7836202D01*
X235165296Y-7666202D02*
X235335296Y-7666202D01*
X235165296Y-11666202D02*
X235165296Y-11496202D01*
X235165296Y-11666202D02*
X235335296Y-11666202D01*
X239165296Y-7666202D02*
X238995296Y-7666202D01*
X239165296Y-7666202D02*
X239165296Y-7836202D01*
X239165296Y-11666202D02*
X238995296Y-11666202D01*
X239165296Y-11666202D02*
X239165296Y-11496202D01*
D11*
X238665296Y-12601202D02*
G75*
G02*
X238465296Y-12601202I-100000J0D01*
G01*
X238465296Y-12601202D02*
G75*
G02*
X238665296Y-12601202I100000J0D01*
G01*
G04 #@! TO.C,D1013*
X54900000Y-5500000D02*
X54100000Y-5500000D01*
X54900000Y-8500000D02*
X54100000Y-8500000D01*
G04 #@! TO.C,J702*
X223860000Y-22900000D02*
X223860000Y-38340000D01*
X223860000Y-38340000D02*
X229140000Y-38340000D01*
X229140000Y-22900000D02*
X223860000Y-22900000D01*
X229140000Y-38340000D02*
X229140000Y-22900000D01*
X224400000Y-37900000D02*
G75*
G02*
X224200000Y-37900000I-100000J0D01*
G01*
X224200000Y-37900000D02*
G75*
G02*
X224400000Y-37900000I100000J0D01*
G01*
G04 #@! TO.C,D1015*
X54900000Y-13500000D02*
X54100000Y-13500000D01*
X54900000Y-16500000D02*
X54100000Y-16500000D01*
G04 #@! TO.C,D1101*
X131500000Y-124220000D02*
X131500000Y-124420000D01*
D12*
X131850000Y-124210000D02*
X132000000Y-124450000D01*
X132000000Y-124450000D02*
X132140000Y-124210000D01*
X132140000Y-124210000D02*
X131850000Y-124210000D01*
D11*
X132500000Y-124420000D02*
X132500000Y-124220000D01*
G04 #@! TO.C,D1012*
X192900000Y-13500000D02*
X192100000Y-13500000D01*
X192900000Y-16500000D02*
X192100000Y-16500000D01*
G04 #@! TO.C,D1007*
X88900000Y-13500000D02*
X88100000Y-13500000D01*
X88900000Y-16500000D02*
X88100000Y-16500000D01*
G04 #@! TO.C,D1011*
X71900000Y-13500000D02*
X71100000Y-13500000D01*
X71900000Y-16500000D02*
X71100000Y-16500000D01*
D13*
G04 #@! TO.C,IC1001*
X74962000Y-18454000D02*
X74962000Y-18624000D01*
X74962000Y-18454000D02*
X75132000Y-18454000D01*
X74962000Y-22454000D02*
X74962000Y-22284000D01*
X74962000Y-22454000D02*
X75132000Y-22454000D01*
X78962000Y-18454000D02*
X78792000Y-18454000D01*
X78962000Y-18454000D02*
X78962000Y-18624000D01*
X78962000Y-22454000D02*
X78792000Y-22454000D01*
X78962000Y-22454000D02*
X78962000Y-22284000D01*
D11*
X74127000Y-21854000D02*
G75*
G02*
X73927000Y-21854000I-100000J0D01*
G01*
X73927000Y-21854000D02*
G75*
G02*
X74127000Y-21854000I100000J0D01*
G01*
G04 #@! TO.C,D1203*
X169500000Y-124220000D02*
X169500000Y-124420000D01*
D12*
X169860000Y-124430000D02*
X170150000Y-124430000D01*
X170000000Y-124190000D02*
X169860000Y-124430000D01*
X170150000Y-124430000D02*
X170000000Y-124190000D01*
D11*
X170500000Y-124420000D02*
X170500000Y-124220000D01*
G04 #@! TO.C,D1010*
X193027000Y-5500000D02*
X192227000Y-5500000D01*
X193027000Y-8500000D02*
X192227000Y-8500000D01*
G04 #@! TO.C,D1016*
X175900000Y-13500000D02*
X175100000Y-13500000D01*
X175900000Y-16500000D02*
X175100000Y-16500000D01*
G04 #@! TO.C,D1017*
X140900000Y-13500000D02*
X140100000Y-13500000D01*
X140900000Y-16500000D02*
X140100000Y-16500000D01*
G04 #@! TO.C,D1014*
X176027000Y-5500000D02*
X175227000Y-5500000D01*
X176027000Y-8500000D02*
X175227000Y-8500000D01*
G04 #@! TO.C,D1304*
X93500000Y-124220000D02*
X93500000Y-124420000D01*
D12*
X93850000Y-124210000D02*
X94000000Y-124450000D01*
X94000000Y-124450000D02*
X94140000Y-124210000D01*
X94140000Y-124210000D02*
X93850000Y-124210000D01*
D11*
X94500000Y-124420000D02*
X94500000Y-124220000D01*
G04 #@! TO.C,D1002*
X226900000Y-5500000D02*
X226100000Y-5500000D01*
X226900000Y-8500000D02*
X226100000Y-8500000D01*
G04 #@! TO.C,J1101*
X136661000Y-104660000D02*
X136661000Y-109940000D01*
X136661000Y-109940000D02*
X144481000Y-109940000D01*
X144481000Y-104660000D02*
X136661000Y-104660000D01*
X144481000Y-109940000D02*
X144481000Y-104660000D01*
X144141000Y-109500000D02*
G75*
G02*
X143941000Y-109500000I-100000J0D01*
G01*
X143941000Y-109500000D02*
G75*
G02*
X144141000Y-109500000I100000J0D01*
G01*
G04 #@! TD*
%LPC*%
D14*
G04 #@! TO.C,J403*
X319786000Y-14986000D03*
D15*
X319786000Y-12446000D03*
X319786000Y-9906000D03*
X319786000Y-7366000D03*
G04 #@! TD*
D16*
G04 #@! TO.C,S201*
X382778000Y-3827000D03*
X382778000Y-1077000D03*
G04 #@! TD*
D17*
G04 #@! TO.C,J601*
X263342000Y-8302000D03*
X263342000Y-3302000D03*
X259842000Y-8302000D03*
X259842000Y-3302000D03*
X256342000Y-8302000D03*
X256342000Y-3302000D03*
X252842000Y-8302000D03*
X252842000Y-3302000D03*
G04 #@! TD*
G04 #@! TO.C,J1102*
X138966000Y-121714500D03*
X138966000Y-126714500D03*
X142466000Y-121714500D03*
X142466000Y-126714500D03*
G04 #@! TD*
D18*
G04 #@! TO.C,H203*
X275190000Y-44500000D03*
G04 #@! TD*
G04 #@! TO.C,H206*
X390235000Y-7740000D03*
G04 #@! TD*
D19*
G04 #@! TO.C,J1302*
X102235000Y-95377000D03*
D15*
X102235000Y-97917000D03*
X102235000Y-100457000D03*
X102235000Y-102997000D03*
X102235000Y-105537000D03*
X102235000Y-108077000D03*
G04 #@! TD*
D17*
G04 #@! TO.C,J1301*
X116642000Y-121714500D03*
X116642000Y-126714500D03*
X120142000Y-121714500D03*
X120142000Y-126714500D03*
G04 #@! TD*
G04 #@! TO.C,J205*
X290322000Y-118364000D03*
X290322000Y-115824000D03*
X292862000Y-118364000D03*
X292862000Y-115824000D03*
X295402000Y-118364000D03*
X295402000Y-115824000D03*
X297942000Y-118364000D03*
X297942000Y-115824000D03*
X300482000Y-118364000D03*
X300482000Y-115824000D03*
X303022000Y-118364000D03*
X303022000Y-115824000D03*
X305562000Y-118364000D03*
X305562000Y-115824000D03*
G04 #@! TD*
D18*
G04 #@! TO.C,H205*
X312420000Y-7740000D03*
G04 #@! TD*
G04 #@! TO.C,H201*
X5810000Y-44500000D03*
G04 #@! TD*
G04 #@! TO.C,H202*
X5810000Y-124320000D03*
G04 #@! TD*
D17*
G04 #@! TO.C,J501*
X29464000Y-8302000D03*
X29464000Y-3302000D03*
X25964000Y-8302000D03*
X25964000Y-3302000D03*
X22464000Y-8302000D03*
X22464000Y-3302000D03*
X18964000Y-8302000D03*
X18964000Y-3302000D03*
G04 #@! TD*
G04 #@! TO.C,J202*
X19304000Y-126436000D03*
X19304000Y-123896000D03*
X21844000Y-126436000D03*
X21844000Y-123896000D03*
X24384000Y-126436000D03*
X24384000Y-123896000D03*
X26924000Y-126436000D03*
X26924000Y-123896000D03*
X29464000Y-126436000D03*
X29464000Y-123896000D03*
X32004000Y-126436000D03*
X32004000Y-123896000D03*
X34544000Y-126436000D03*
X34544000Y-123896000D03*
X37084000Y-126436000D03*
X37084000Y-123896000D03*
G04 #@! TD*
G04 #@! TO.C,J402*
X155448000Y-121714500D03*
X155448000Y-126714500D03*
X158948000Y-121714500D03*
X158948000Y-126714500D03*
X162448000Y-121714500D03*
X162448000Y-126714500D03*
G04 #@! TD*
D18*
G04 #@! TO.C,H208*
X408195000Y-115000000D03*
G04 #@! TD*
G04 #@! TO.C,H204*
X275190000Y-124320000D03*
G04 #@! TD*
D20*
G04 #@! TO.C,J301*
X368142000Y-5180000D03*
X362362000Y-5180000D03*
D21*
X369572000Y-5680000D03*
X360932000Y-5680000D03*
D22*
X369572000Y-1500000D03*
X360932000Y-1500000D03*
G04 #@! TD*
D17*
G04 #@! TO.C,J204*
X309626000Y-20574000D03*
X309626000Y-23114000D03*
X307086000Y-20574000D03*
X307086000Y-23114000D03*
X304546000Y-20574000D03*
X304546000Y-23114000D03*
X302006000Y-20574000D03*
X302006000Y-23114000D03*
X299466000Y-20574000D03*
X299466000Y-23114000D03*
X296926000Y-20574000D03*
X296926000Y-23114000D03*
X294386000Y-20574000D03*
X294386000Y-23114000D03*
X291846000Y-20574000D03*
X291846000Y-23114000D03*
G04 #@! TD*
G04 #@! TO.C,J801*
X122682000Y-8302000D03*
X122682000Y-3302000D03*
X119182000Y-8302000D03*
X119182000Y-3302000D03*
X115682000Y-8302000D03*
X115682000Y-3302000D03*
X112182000Y-8302000D03*
X112182000Y-3302000D03*
G04 #@! TD*
G04 #@! TO.C,J201*
X339344000Y-20574000D03*
X339344000Y-23114000D03*
X336804000Y-20574000D03*
X336804000Y-23114000D03*
X334264000Y-20574000D03*
X334264000Y-23114000D03*
X331724000Y-20574000D03*
X331724000Y-23114000D03*
X329184000Y-20574000D03*
X329184000Y-23114000D03*
X326644000Y-20574000D03*
X326644000Y-23114000D03*
X324104000Y-20574000D03*
X324104000Y-23114000D03*
X321564000Y-20574000D03*
X321564000Y-23114000D03*
G04 #@! TD*
D18*
G04 #@! TO.C,H207*
X408195000Y-35180000D03*
G04 #@! TD*
D23*
G04 #@! TO.C,J1202*
X197311000Y-121079500D03*
D24*
X202311000Y-121079500D03*
X207311000Y-121079500D03*
G04 #@! TD*
D17*
G04 #@! TO.C,J710*
X160528000Y-8302000D03*
X160528000Y-3302000D03*
X157028000Y-8302000D03*
X157028000Y-3302000D03*
X153528000Y-8302000D03*
X153528000Y-3302000D03*
X150028000Y-8302000D03*
X150028000Y-3302000D03*
G04 #@! TD*
G04 #@! TO.C,J1201*
X176530000Y-121746000D03*
X176530000Y-126746000D03*
X180030000Y-121746000D03*
X180030000Y-126746000D03*
G04 #@! TD*
D25*
G04 #@! TO.C,U201*
X332627000Y-102360000D03*
D26*
X332627000Y-99820000D03*
X332627000Y-97280000D03*
X332627000Y-94740000D03*
X332627000Y-92200000D03*
X332627000Y-89660000D03*
X332627000Y-87120000D03*
X332627000Y-84580000D03*
X332627000Y-82040000D03*
X332627000Y-79500000D03*
X332627000Y-76960000D03*
X332627000Y-74420000D03*
X332627000Y-71880000D03*
X332627000Y-69340000D03*
X332627000Y-66800000D03*
X332627000Y-64260000D03*
X332627000Y-61720000D03*
X332627000Y-59180000D03*
X332627000Y-56640000D03*
X332627000Y-54100000D03*
X332627000Y-51560000D03*
X332627000Y-49020000D03*
X309767000Y-102360000D03*
X309767000Y-99820000D03*
X309767000Y-97280000D03*
X309767000Y-94740000D03*
X309767000Y-92200000D03*
X309767000Y-89660000D03*
X309767000Y-87120000D03*
X309767000Y-84580000D03*
X309767000Y-82040000D03*
X309767000Y-79500000D03*
X309767000Y-76960000D03*
X309767000Y-74420000D03*
X309767000Y-71880000D03*
X309767000Y-69340000D03*
X309767000Y-66800000D03*
X309767000Y-64260000D03*
X309767000Y-61720000D03*
X309767000Y-59180000D03*
X309767000Y-56640000D03*
X309767000Y-54100000D03*
X309767000Y-51560000D03*
X309767000Y-49020000D03*
G04 #@! TD*
D20*
G04 #@! TO.C,J401*
X338424000Y-5280000D03*
X332644000Y-5280000D03*
D21*
X339854000Y-5780000D03*
X331214000Y-5780000D03*
D22*
X339854000Y-1600000D03*
X331214000Y-1600000D03*
G04 #@! TD*
D17*
G04 #@! TO.C,J203*
X53086000Y-126338000D03*
X53086000Y-123798000D03*
X55626000Y-126338000D03*
X55626000Y-123798000D03*
X58166000Y-126338000D03*
X58166000Y-123798000D03*
X60706000Y-126338000D03*
X60706000Y-123798000D03*
X63246000Y-126338000D03*
X63246000Y-123798000D03*
X65786000Y-126338000D03*
X65786000Y-123798000D03*
X68326000Y-126338000D03*
X68326000Y-123798000D03*
X70866000Y-126338000D03*
X70866000Y-123798000D03*
G04 #@! TD*
D27*
G04 #@! TO.C,D1006*
X207950000Y-6300000D03*
X207950000Y-7700000D03*
X211050000Y-6300000D03*
X211050000Y-7700000D03*
G04 #@! TD*
D17*
G04 #@! TO.C,J706*
X191230000Y-36970000D03*
X193770000Y-36970000D03*
X191230000Y-34430000D03*
X193770000Y-34430000D03*
X191230000Y-31890000D03*
X193770000Y-31890000D03*
X191230000Y-29350000D03*
X193770000Y-29350000D03*
X191230000Y-26810000D03*
X193770000Y-26810000D03*
X191230000Y-24270000D03*
X193770000Y-24270000D03*
G04 #@! TD*
D28*
G04 #@! TO.C,D1204*
X187000000Y-123520000D03*
X187000000Y-125120000D03*
G04 #@! TD*
D27*
G04 #@! TO.C,D1008*
X207950000Y-14300000D03*
X207950000Y-15700000D03*
X211050000Y-14300000D03*
X211050000Y-15700000D03*
G04 #@! TD*
G04 #@! TO.C,D1003*
X103950000Y-14300000D03*
X103950000Y-15700000D03*
X107050000Y-14300000D03*
X107050000Y-15700000D03*
G04 #@! TD*
G04 #@! TO.C,D1005*
X87077000Y-5284000D03*
X87077000Y-6684000D03*
X90177000Y-5284000D03*
X90177000Y-6684000D03*
G04 #@! TD*
D29*
G04 #@! TO.C,D1303*
X111000000Y-125120000D03*
X111000000Y-123520000D03*
G04 #@! TD*
D30*
G04 #@! TO.C,IC1003*
X139574000Y-50838000D03*
X139574000Y-50438000D03*
X139574000Y-50038000D03*
X139574000Y-49638000D03*
X139574000Y-49238000D03*
X139574000Y-48838000D03*
X139574000Y-48438000D03*
X139574000Y-48038000D03*
D31*
X140269000Y-47343000D03*
X140669000Y-47343000D03*
X141069000Y-47343000D03*
X141469000Y-47343000D03*
X141869000Y-47343000D03*
X142269000Y-47343000D03*
X142669000Y-47343000D03*
X143069000Y-47343000D03*
D30*
X143764000Y-48038000D03*
X143764000Y-48438000D03*
X143764000Y-48838000D03*
X143764000Y-49238000D03*
X143764000Y-49638000D03*
X143764000Y-50038000D03*
X143764000Y-50438000D03*
X143764000Y-50838000D03*
D31*
X143069000Y-51533000D03*
X142669000Y-51533000D03*
X142269000Y-51533000D03*
X141869000Y-51533000D03*
X141469000Y-51533000D03*
X141069000Y-51533000D03*
X140669000Y-51533000D03*
X140269000Y-51533000D03*
D32*
X141669000Y-49438000D03*
D33*
X141669000Y-49438000D03*
X141669000Y-50238000D03*
X142469000Y-49438000D03*
X141669000Y-48638000D03*
X140869000Y-49438000D03*
G04 #@! TD*
D27*
G04 #@! TO.C,D1004*
X224950000Y-14300000D03*
X224950000Y-15700000D03*
X228050000Y-14300000D03*
X228050000Y-15700000D03*
G04 #@! TD*
D17*
G04 #@! TO.C,J708*
X174230000Y-36970000D03*
X176770000Y-36970000D03*
X174230000Y-34430000D03*
X176770000Y-34430000D03*
X174230000Y-31890000D03*
X176770000Y-31890000D03*
X174230000Y-29350000D03*
X176770000Y-29350000D03*
X174230000Y-26810000D03*
X176770000Y-26810000D03*
X174230000Y-24270000D03*
X176770000Y-24270000D03*
G04 #@! TD*
G04 #@! TO.C,J704*
X208230000Y-36970000D03*
X210770000Y-36970000D03*
X208230000Y-34430000D03*
X210770000Y-34430000D03*
X208230000Y-31890000D03*
X210770000Y-31890000D03*
X208230000Y-29350000D03*
X210770000Y-29350000D03*
X208230000Y-26810000D03*
X210770000Y-26810000D03*
X208230000Y-24270000D03*
X210770000Y-24270000D03*
G04 #@! TD*
D29*
G04 #@! TO.C,D1102*
X149000000Y-125120000D03*
X149000000Y-123520000D03*
G04 #@! TD*
D27*
G04 #@! TO.C,D1009*
X69950000Y-6300000D03*
X69950000Y-7700000D03*
X73050000Y-6300000D03*
X73050000Y-7700000D03*
G04 #@! TD*
G04 #@! TO.C,D1001*
X103950000Y-6300000D03*
X103950000Y-7700000D03*
X107050000Y-6300000D03*
X107050000Y-7700000D03*
G04 #@! TD*
D34*
G04 #@! TO.C,IC1002*
X238565296Y-11761202D03*
X238165296Y-11761202D03*
X237765296Y-11761202D03*
X237365296Y-11761202D03*
X236965296Y-11761202D03*
X236565296Y-11761202D03*
X236165296Y-11761202D03*
X235765296Y-11761202D03*
D35*
X235070296Y-11066202D03*
X235070296Y-10666202D03*
X235070296Y-10266202D03*
X235070296Y-9866202D03*
X235070296Y-9466202D03*
X235070296Y-9066202D03*
X235070296Y-8666202D03*
X235070296Y-8266202D03*
D34*
X235765296Y-7571202D03*
X236165296Y-7571202D03*
X236565296Y-7571202D03*
X236965296Y-7571202D03*
X237365296Y-7571202D03*
X237765296Y-7571202D03*
X238165296Y-7571202D03*
X238565296Y-7571202D03*
D35*
X239260296Y-8266202D03*
X239260296Y-8666202D03*
X239260296Y-9066202D03*
X239260296Y-9466202D03*
X239260296Y-9866202D03*
X239260296Y-10266202D03*
X239260296Y-10666202D03*
X239260296Y-11066202D03*
D36*
X237165296Y-9666202D03*
D33*
X237165296Y-9666202D03*
X237965296Y-9666202D03*
X237165296Y-8866202D03*
X236365296Y-9666202D03*
X237165296Y-10466202D03*
G04 #@! TD*
D27*
G04 #@! TO.C,D1013*
X52950000Y-6300000D03*
X52950000Y-7700000D03*
X56050000Y-6300000D03*
X56050000Y-7700000D03*
G04 #@! TD*
D17*
G04 #@! TO.C,J702*
X225230000Y-36970000D03*
X227770000Y-36970000D03*
X225230000Y-34430000D03*
X227770000Y-34430000D03*
X225230000Y-31890000D03*
X227770000Y-31890000D03*
X225230000Y-29350000D03*
X227770000Y-29350000D03*
X225230000Y-26810000D03*
X227770000Y-26810000D03*
X225230000Y-24270000D03*
X227770000Y-24270000D03*
G04 #@! TD*
D27*
G04 #@! TO.C,D1015*
X52950000Y-14300000D03*
X52950000Y-15700000D03*
X56050000Y-14300000D03*
X56050000Y-15700000D03*
G04 #@! TD*
D29*
G04 #@! TO.C,D1101*
X132000000Y-125120000D03*
X132000000Y-123520000D03*
G04 #@! TD*
D27*
G04 #@! TO.C,D1012*
X190950000Y-14300000D03*
X190950000Y-15700000D03*
X194050000Y-14300000D03*
X194050000Y-15700000D03*
G04 #@! TD*
G04 #@! TO.C,D1007*
X86950000Y-14300000D03*
X86950000Y-15700000D03*
X90050000Y-14300000D03*
X90050000Y-15700000D03*
G04 #@! TD*
G04 #@! TO.C,D1011*
X69950000Y-14300000D03*
X69950000Y-15700000D03*
X73050000Y-14300000D03*
X73050000Y-15700000D03*
G04 #@! TD*
D30*
G04 #@! TO.C,IC1001*
X74867000Y-21854000D03*
X74867000Y-21454000D03*
X74867000Y-21054000D03*
X74867000Y-20654000D03*
X74867000Y-20254000D03*
X74867000Y-19854000D03*
X74867000Y-19454000D03*
X74867000Y-19054000D03*
D31*
X75562000Y-18359000D03*
X75962000Y-18359000D03*
X76362000Y-18359000D03*
X76762000Y-18359000D03*
X77162000Y-18359000D03*
X77562000Y-18359000D03*
X77962000Y-18359000D03*
X78362000Y-18359000D03*
D30*
X79057000Y-19054000D03*
X79057000Y-19454000D03*
X79057000Y-19854000D03*
X79057000Y-20254000D03*
X79057000Y-20654000D03*
X79057000Y-21054000D03*
X79057000Y-21454000D03*
X79057000Y-21854000D03*
D31*
X78362000Y-22549000D03*
X77962000Y-22549000D03*
X77562000Y-22549000D03*
X77162000Y-22549000D03*
X76762000Y-22549000D03*
X76362000Y-22549000D03*
X75962000Y-22549000D03*
X75562000Y-22549000D03*
D32*
X76962000Y-20454000D03*
D33*
X76962000Y-20454000D03*
X76962000Y-21254000D03*
X77762000Y-20454000D03*
X76962000Y-19654000D03*
X76162000Y-20454000D03*
G04 #@! TD*
D28*
G04 #@! TO.C,D1203*
X170000000Y-123520000D03*
X170000000Y-125120000D03*
G04 #@! TD*
D27*
G04 #@! TO.C,D1010*
X191077000Y-6300000D03*
X191077000Y-7700000D03*
X194177000Y-6300000D03*
X194177000Y-7700000D03*
G04 #@! TD*
G04 #@! TO.C,D1016*
X173950000Y-14300000D03*
X173950000Y-15700000D03*
X177050000Y-14300000D03*
X177050000Y-15700000D03*
G04 #@! TD*
G04 #@! TO.C,D1017*
X138950000Y-14300000D03*
X138950000Y-15700000D03*
X142050000Y-14300000D03*
X142050000Y-15700000D03*
G04 #@! TD*
G04 #@! TO.C,D1014*
X174077000Y-6300000D03*
X174077000Y-7700000D03*
X177177000Y-6300000D03*
X177177000Y-7700000D03*
G04 #@! TD*
D29*
G04 #@! TO.C,D1304*
X94000000Y-125120000D03*
X94000000Y-123520000D03*
G04 #@! TD*
D27*
G04 #@! TO.C,D1002*
X224950000Y-6300000D03*
X224950000Y-7700000D03*
X228050000Y-6300000D03*
X228050000Y-7700000D03*
G04 #@! TD*
D17*
G04 #@! TO.C,J1101*
X143111000Y-108570000D03*
X143111000Y-106030000D03*
X140571000Y-108570000D03*
X140571000Y-106030000D03*
X138031000Y-108570000D03*
X138031000Y-106030000D03*
G04 #@! TD*
%LPD*%
M02*
