G04 #@! TF.GenerationSoftware,KiCad,Pcbnew,9.0.2*
G04 #@! TF.CreationDate,2026-04-23T15:55:16+02:00*
G04 #@! TF.ProjectId,hardware-pruefadapter,68617264-7761-4726-952d-707275656661,V1.1*
G04 #@! TF.SameCoordinates,Original*
G04 #@! TF.FileFunction,Other,User*
%FSLAX46Y46*%
G04 Gerber Fmt 4.6, Leading zero omitted, Abs format (unit mm)*
G04 Created by KiCad (PCBNEW 9.0.2) date 2026-04-23 15:55:16*
%MOMM*%
%LPD*%
G01*
G04 APERTURE LIST*
%ADD10C,0.100000*%
%ADD11C,0.150000*%
%ADD12C,0.050000*%
G04 APERTURE END LIST*
D10*
X389128000Y-49784000D02*
X391160000Y-49784000D01*
X391160000Y-52832000D01*
X389128000Y-52832000D01*
X389128000Y-49784000D01*
D11*
X399116819Y-3572380D02*
X399116819Y-4048570D01*
X399116819Y-4048570D02*
X399593009Y-4096189D01*
X399593009Y-4096189D02*
X399545390Y-4048570D01*
X399545390Y-4048570D02*
X399497771Y-3953332D01*
X399497771Y-3953332D02*
X399497771Y-3715237D01*
X399497771Y-3715237D02*
X399545390Y-3619999D01*
X399545390Y-3619999D02*
X399593009Y-3572380D01*
X399593009Y-3572380D02*
X399688247Y-3524761D01*
X399688247Y-3524761D02*
X399926342Y-3524761D01*
X399926342Y-3524761D02*
X400021580Y-3572380D01*
X400021580Y-3572380D02*
X400069200Y-3619999D01*
X400069200Y-3619999D02*
X400116819Y-3715237D01*
X400116819Y-3715237D02*
X400116819Y-3953332D01*
X400116819Y-3953332D02*
X400069200Y-4048570D01*
X400069200Y-4048570D02*
X400021580Y-4096189D01*
X400069200Y-3048570D02*
X400116819Y-3048570D01*
X400116819Y-3048570D02*
X400212057Y-3096189D01*
X400212057Y-3096189D02*
X400259676Y-3143808D01*
X399212057Y-2667618D02*
X399164438Y-2619999D01*
X399164438Y-2619999D02*
X399116819Y-2524761D01*
X399116819Y-2524761D02*
X399116819Y-2286666D01*
X399116819Y-2286666D02*
X399164438Y-2191428D01*
X399164438Y-2191428D02*
X399212057Y-2143809D01*
X399212057Y-2143809D02*
X399307295Y-2096190D01*
X399307295Y-2096190D02*
X399402533Y-2096190D01*
X399402533Y-2096190D02*
X399545390Y-2143809D01*
X399545390Y-2143809D02*
X400116819Y-2715237D01*
X400116819Y-2715237D02*
X400116819Y-2096190D01*
X399450152Y-1239047D02*
X400116819Y-1239047D01*
X399069200Y-1477142D02*
X399783485Y-1715237D01*
X399783485Y-1715237D02*
X399783485Y-1096190D01*
D10*
X392735000Y-5240000D02*
X401398420Y-5240000D01*
X401398420Y0D02*
X399250000Y0D01*
X400812000Y-5240000D02*
X400812000Y0D01*
X400812000Y-5240000D02*
X400225579Y-4113496D01*
X400812000Y-5240000D02*
X401398421Y-4113496D01*
X400812000Y0D02*
X401398421Y-1126504D01*
X400812000Y0D02*
X400225579Y-1126504D01*
D11*
X282540910Y-115418178D02*
X283207576Y-115418178D01*
X283207576Y-115418178D02*
X282779005Y-116418178D01*
X283636148Y-116370559D02*
X283636148Y-116418178D01*
X283636148Y-116418178D02*
X283588529Y-116513416D01*
X283588529Y-116513416D02*
X283540910Y-116561035D01*
X284207576Y-115846749D02*
X284112338Y-115799130D01*
X284112338Y-115799130D02*
X284064719Y-115751511D01*
X284064719Y-115751511D02*
X284017100Y-115656273D01*
X284017100Y-115656273D02*
X284017100Y-115608654D01*
X284017100Y-115608654D02*
X284064719Y-115513416D01*
X284064719Y-115513416D02*
X284112338Y-115465797D01*
X284112338Y-115465797D02*
X284207576Y-115418178D01*
X284207576Y-115418178D02*
X284398052Y-115418178D01*
X284398052Y-115418178D02*
X284493290Y-115465797D01*
X284493290Y-115465797D02*
X284540909Y-115513416D01*
X284540909Y-115513416D02*
X284588528Y-115608654D01*
X284588528Y-115608654D02*
X284588528Y-115656273D01*
X284588528Y-115656273D02*
X284540909Y-115751511D01*
X284540909Y-115751511D02*
X284493290Y-115799130D01*
X284493290Y-115799130D02*
X284398052Y-115846749D01*
X284398052Y-115846749D02*
X284207576Y-115846749D01*
X284207576Y-115846749D02*
X284112338Y-115894368D01*
X284112338Y-115894368D02*
X284064719Y-115941987D01*
X284064719Y-115941987D02*
X284017100Y-116037225D01*
X284017100Y-116037225D02*
X284017100Y-116227701D01*
X284017100Y-116227701D02*
X284064719Y-116322939D01*
X284064719Y-116322939D02*
X284112338Y-116370559D01*
X284112338Y-116370559D02*
X284207576Y-116418178D01*
X284207576Y-116418178D02*
X284398052Y-116418178D01*
X284398052Y-116418178D02*
X284493290Y-116370559D01*
X284493290Y-116370559D02*
X284540909Y-116322939D01*
X284540909Y-116322939D02*
X284588528Y-116227701D01*
X284588528Y-116227701D02*
X284588528Y-116037225D01*
X284588528Y-116037225D02*
X284540909Y-115941987D01*
X284540909Y-115941987D02*
X284493290Y-115894368D01*
X284493290Y-115894368D02*
X284398052Y-115846749D01*
X285445671Y-115418178D02*
X285255195Y-115418178D01*
X285255195Y-115418178D02*
X285159957Y-115465797D01*
X285159957Y-115465797D02*
X285112338Y-115513416D01*
X285112338Y-115513416D02*
X285017100Y-115656273D01*
X285017100Y-115656273D02*
X284969481Y-115846749D01*
X284969481Y-115846749D02*
X284969481Y-116227701D01*
X284969481Y-116227701D02*
X285017100Y-116322939D01*
X285017100Y-116322939D02*
X285064719Y-116370559D01*
X285064719Y-116370559D02*
X285159957Y-116418178D01*
X285159957Y-116418178D02*
X285350433Y-116418178D01*
X285350433Y-116418178D02*
X285445671Y-116370559D01*
X285445671Y-116370559D02*
X285493290Y-116322939D01*
X285493290Y-116322939D02*
X285540909Y-116227701D01*
X285540909Y-116227701D02*
X285540909Y-115989606D01*
X285540909Y-115989606D02*
X285493290Y-115894368D01*
X285493290Y-115894368D02*
X285445671Y-115846749D01*
X285445671Y-115846749D02*
X285350433Y-115799130D01*
X285350433Y-115799130D02*
X285159957Y-115799130D01*
X285159957Y-115799130D02*
X285064719Y-115846749D01*
X285064719Y-115846749D02*
X285017100Y-115894368D01*
X285017100Y-115894368D02*
X284969481Y-115989606D01*
X286017100Y-116418178D02*
X286207576Y-116418178D01*
X286207576Y-116418178D02*
X286302814Y-116370559D01*
X286302814Y-116370559D02*
X286350433Y-116322939D01*
X286350433Y-116322939D02*
X286445671Y-116180082D01*
X286445671Y-116180082D02*
X286493290Y-115989606D01*
X286493290Y-115989606D02*
X286493290Y-115608654D01*
X286493290Y-115608654D02*
X286445671Y-115513416D01*
X286445671Y-115513416D02*
X286398052Y-115465797D01*
X286398052Y-115465797D02*
X286302814Y-115418178D01*
X286302814Y-115418178D02*
X286112338Y-115418178D01*
X286112338Y-115418178D02*
X286017100Y-115465797D01*
X286017100Y-115465797D02*
X285969481Y-115513416D01*
X285969481Y-115513416D02*
X285921862Y-115608654D01*
X285921862Y-115608654D02*
X285921862Y-115846749D01*
X285921862Y-115846749D02*
X285969481Y-115941987D01*
X285969481Y-115941987D02*
X286017100Y-115989606D01*
X286017100Y-115989606D02*
X286112338Y-116037225D01*
X286112338Y-116037225D02*
X286302814Y-116037225D01*
X286302814Y-116037225D02*
X286398052Y-115989606D01*
X286398052Y-115989606D02*
X286445671Y-115941987D01*
X286445671Y-115941987D02*
X286493290Y-115846749D01*
X287064719Y-115846749D02*
X286969481Y-115799130D01*
X286969481Y-115799130D02*
X286921862Y-115751511D01*
X286921862Y-115751511D02*
X286874243Y-115656273D01*
X286874243Y-115656273D02*
X286874243Y-115608654D01*
X286874243Y-115608654D02*
X286921862Y-115513416D01*
X286921862Y-115513416D02*
X286969481Y-115465797D01*
X286969481Y-115465797D02*
X287064719Y-115418178D01*
X287064719Y-115418178D02*
X287255195Y-115418178D01*
X287255195Y-115418178D02*
X287350433Y-115465797D01*
X287350433Y-115465797D02*
X287398052Y-115513416D01*
X287398052Y-115513416D02*
X287445671Y-115608654D01*
X287445671Y-115608654D02*
X287445671Y-115656273D01*
X287445671Y-115656273D02*
X287398052Y-115751511D01*
X287398052Y-115751511D02*
X287350433Y-115799130D01*
X287350433Y-115799130D02*
X287255195Y-115846749D01*
X287255195Y-115846749D02*
X287064719Y-115846749D01*
X287064719Y-115846749D02*
X286969481Y-115894368D01*
X286969481Y-115894368D02*
X286921862Y-115941987D01*
X286921862Y-115941987D02*
X286874243Y-116037225D01*
X286874243Y-116037225D02*
X286874243Y-116227701D01*
X286874243Y-116227701D02*
X286921862Y-116322939D01*
X286921862Y-116322939D02*
X286969481Y-116370559D01*
X286969481Y-116370559D02*
X287064719Y-116418178D01*
X287064719Y-116418178D02*
X287255195Y-116418178D01*
X287255195Y-116418178D02*
X287350433Y-116370559D01*
X287350433Y-116370559D02*
X287398052Y-116322939D01*
X287398052Y-116322939D02*
X287445671Y-116227701D01*
X287445671Y-116227701D02*
X287445671Y-116037225D01*
X287445671Y-116037225D02*
X287398052Y-115941987D01*
X287398052Y-115941987D02*
X287350433Y-115894368D01*
X287350433Y-115894368D02*
X287255195Y-115846749D01*
D10*
X281082199Y-117113359D02*
X281082199Y-117113359D01*
X288952000Y-117699779D02*
X288952000Y-117594000D01*
X281082199Y-117113359D02*
X288952000Y-117113359D01*
X281082199Y-117113359D02*
X282208703Y-116526938D01*
X281082199Y-117113359D02*
X282208703Y-117699780D01*
X288952000Y-117113359D02*
X287825496Y-117699780D01*
X288952000Y-117113359D02*
X287825496Y-116526938D01*
D11*
X281959338Y-18152940D02*
X281483148Y-18152940D01*
X281483148Y-18152940D02*
X281435529Y-18629130D01*
X281435529Y-18629130D02*
X281483148Y-18581511D01*
X281483148Y-18581511D02*
X281578386Y-18533892D01*
X281578386Y-18533892D02*
X281816481Y-18533892D01*
X281816481Y-18533892D02*
X281911719Y-18581511D01*
X281911719Y-18581511D02*
X281959338Y-18629130D01*
X281959338Y-18629130D02*
X282006957Y-18724368D01*
X282006957Y-18724368D02*
X282006957Y-18962463D01*
X282006957Y-18962463D02*
X281959338Y-19057701D01*
X281959338Y-19057701D02*
X281911719Y-19105321D01*
X281911719Y-19105321D02*
X281816481Y-19152940D01*
X281816481Y-19152940D02*
X281578386Y-19152940D01*
X281578386Y-19152940D02*
X281483148Y-19105321D01*
X281483148Y-19105321D02*
X281435529Y-19057701D01*
X282483148Y-19105321D02*
X282483148Y-19152940D01*
X282483148Y-19152940D02*
X282435529Y-19248178D01*
X282435529Y-19248178D02*
X282387910Y-19295797D01*
X283387909Y-18152940D02*
X282911719Y-18152940D01*
X282911719Y-18152940D02*
X282864100Y-18629130D01*
X282864100Y-18629130D02*
X282911719Y-18581511D01*
X282911719Y-18581511D02*
X283006957Y-18533892D01*
X283006957Y-18533892D02*
X283245052Y-18533892D01*
X283245052Y-18533892D02*
X283340290Y-18581511D01*
X283340290Y-18581511D02*
X283387909Y-18629130D01*
X283387909Y-18629130D02*
X283435528Y-18724368D01*
X283435528Y-18724368D02*
X283435528Y-18962463D01*
X283435528Y-18962463D02*
X283387909Y-19057701D01*
X283387909Y-19057701D02*
X283340290Y-19105321D01*
X283340290Y-19105321D02*
X283245052Y-19152940D01*
X283245052Y-19152940D02*
X283006957Y-19152940D01*
X283006957Y-19152940D02*
X282911719Y-19105321D01*
X282911719Y-19105321D02*
X282864100Y-19057701D01*
X284292671Y-18152940D02*
X284102195Y-18152940D01*
X284102195Y-18152940D02*
X284006957Y-18200559D01*
X284006957Y-18200559D02*
X283959338Y-18248178D01*
X283959338Y-18248178D02*
X283864100Y-18391035D01*
X283864100Y-18391035D02*
X283816481Y-18581511D01*
X283816481Y-18581511D02*
X283816481Y-18962463D01*
X283816481Y-18962463D02*
X283864100Y-19057701D01*
X283864100Y-19057701D02*
X283911719Y-19105321D01*
X283911719Y-19105321D02*
X284006957Y-19152940D01*
X284006957Y-19152940D02*
X284197433Y-19152940D01*
X284197433Y-19152940D02*
X284292671Y-19105321D01*
X284292671Y-19105321D02*
X284340290Y-19057701D01*
X284340290Y-19057701D02*
X284387909Y-18962463D01*
X284387909Y-18962463D02*
X284387909Y-18724368D01*
X284387909Y-18724368D02*
X284340290Y-18629130D01*
X284340290Y-18629130D02*
X284292671Y-18581511D01*
X284292671Y-18581511D02*
X284197433Y-18533892D01*
X284197433Y-18533892D02*
X284006957Y-18533892D01*
X284006957Y-18533892D02*
X283911719Y-18581511D01*
X283911719Y-18581511D02*
X283864100Y-18629130D01*
X283864100Y-18629130D02*
X283816481Y-18724368D01*
X284721243Y-18152940D02*
X285340290Y-18152940D01*
X285340290Y-18152940D02*
X285006957Y-18533892D01*
X285006957Y-18533892D02*
X285149814Y-18533892D01*
X285149814Y-18533892D02*
X285245052Y-18581511D01*
X285245052Y-18581511D02*
X285292671Y-18629130D01*
X285292671Y-18629130D02*
X285340290Y-18724368D01*
X285340290Y-18724368D02*
X285340290Y-18962463D01*
X285340290Y-18962463D02*
X285292671Y-19057701D01*
X285292671Y-19057701D02*
X285245052Y-19105321D01*
X285245052Y-19105321D02*
X285149814Y-19152940D01*
X285149814Y-19152940D02*
X284864100Y-19152940D01*
X284864100Y-19152940D02*
X284768862Y-19105321D01*
X284768862Y-19105321D02*
X284721243Y-19057701D01*
X285911719Y-18581511D02*
X285816481Y-18533892D01*
X285816481Y-18533892D02*
X285768862Y-18486273D01*
X285768862Y-18486273D02*
X285721243Y-18391035D01*
X285721243Y-18391035D02*
X285721243Y-18343416D01*
X285721243Y-18343416D02*
X285768862Y-18248178D01*
X285768862Y-18248178D02*
X285816481Y-18200559D01*
X285816481Y-18200559D02*
X285911719Y-18152940D01*
X285911719Y-18152940D02*
X286102195Y-18152940D01*
X286102195Y-18152940D02*
X286197433Y-18200559D01*
X286197433Y-18200559D02*
X286245052Y-18248178D01*
X286245052Y-18248178D02*
X286292671Y-18343416D01*
X286292671Y-18343416D02*
X286292671Y-18391035D01*
X286292671Y-18391035D02*
X286245052Y-18486273D01*
X286245052Y-18486273D02*
X286197433Y-18533892D01*
X286197433Y-18533892D02*
X286102195Y-18581511D01*
X286102195Y-18581511D02*
X285911719Y-18581511D01*
X285911719Y-18581511D02*
X285816481Y-18629130D01*
X285816481Y-18629130D02*
X285768862Y-18676749D01*
X285768862Y-18676749D02*
X285721243Y-18771987D01*
X285721243Y-18771987D02*
X285721243Y-18962463D01*
X285721243Y-18962463D02*
X285768862Y-19057701D01*
X285768862Y-19057701D02*
X285816481Y-19105321D01*
X285816481Y-19105321D02*
X285911719Y-19152940D01*
X285911719Y-19152940D02*
X286102195Y-19152940D01*
X286102195Y-19152940D02*
X286197433Y-19105321D01*
X286197433Y-19105321D02*
X286245052Y-19057701D01*
X286245052Y-19057701D02*
X286292671Y-18962463D01*
X286292671Y-18962463D02*
X286292671Y-18771987D01*
X286292671Y-18771987D02*
X286245052Y-18676749D01*
X286245052Y-18676749D02*
X286197433Y-18629130D01*
X286197433Y-18629130D02*
X286102195Y-18581511D01*
D10*
X281082199Y-19848121D02*
X281082199Y-19848121D01*
X286646000Y-19261701D02*
X286646000Y-19350861D01*
X281082199Y-19848121D02*
X286646000Y-19848121D01*
X281082199Y-19848121D02*
X282208703Y-19261700D01*
X281082199Y-19848121D02*
X282208703Y-20434542D01*
X286646000Y-19848121D02*
X285519496Y-20434542D01*
X286646000Y-19848121D02*
X285519496Y-19261700D01*
D11*
X54737666Y-133670819D02*
X54166238Y-133670819D01*
X54451952Y-133670819D02*
X54451952Y-132670819D01*
X54451952Y-132670819D02*
X54356714Y-132813676D01*
X54356714Y-132813676D02*
X54261476Y-132908914D01*
X54261476Y-132908914D02*
X54166238Y-132956533D01*
X55690047Y-133670819D02*
X55118619Y-133670819D01*
X55404333Y-133670819D02*
X55404333Y-132670819D01*
X55404333Y-132670819D02*
X55309095Y-132813676D01*
X55309095Y-132813676D02*
X55213857Y-132908914D01*
X55213857Y-132908914D02*
X55118619Y-132956533D01*
X56547190Y-133004152D02*
X56547190Y-133670819D01*
X56309095Y-132623200D02*
X56071000Y-133337485D01*
X56071000Y-133337485D02*
X56690047Y-133337485D01*
X57118619Y-133623200D02*
X57118619Y-133670819D01*
X57118619Y-133670819D02*
X57071000Y-133766057D01*
X57071000Y-133766057D02*
X57023381Y-133813676D01*
X58070999Y-133670819D02*
X57499571Y-133670819D01*
X57785285Y-133670819D02*
X57785285Y-132670819D01*
X57785285Y-132670819D02*
X57690047Y-132813676D01*
X57690047Y-132813676D02*
X57594809Y-132908914D01*
X57594809Y-132908914D02*
X57499571Y-132956533D01*
X58928142Y-133004152D02*
X58928142Y-133670819D01*
X58690047Y-132623200D02*
X58451952Y-133337485D01*
X58451952Y-133337485D02*
X59070999Y-133337485D01*
X59404333Y-132766057D02*
X59451952Y-132718438D01*
X59451952Y-132718438D02*
X59547190Y-132670819D01*
X59547190Y-132670819D02*
X59785285Y-132670819D01*
X59785285Y-132670819D02*
X59880523Y-132718438D01*
X59880523Y-132718438D02*
X59928142Y-132766057D01*
X59928142Y-132766057D02*
X59975761Y-132861295D01*
X59975761Y-132861295D02*
X59975761Y-132956533D01*
X59975761Y-132956533D02*
X59928142Y-133099390D01*
X59928142Y-133099390D02*
X59356714Y-133670819D01*
X59356714Y-133670819D02*
X59975761Y-133670819D01*
D10*
X114142000Y-130214500D02*
X114142000Y-134952420D01*
X0Y-134952420D02*
X0Y-130214500D01*
X114142000Y-134366000D02*
X0Y-134366000D01*
X114142000Y-134366000D02*
X113015496Y-134952421D01*
X114142000Y-134366000D02*
X113015496Y-133779579D01*
X0Y-134366000D02*
X1126504Y-133779579D01*
X0Y-134366000D02*
X1126504Y-134952421D01*
D11*
X138071429Y-140386057D02*
X138119048Y-140338438D01*
X138119048Y-140338438D02*
X138214286Y-140290819D01*
X138214286Y-140290819D02*
X138452381Y-140290819D01*
X138452381Y-140290819D02*
X138547619Y-140338438D01*
X138547619Y-140338438D02*
X138595238Y-140386057D01*
X138595238Y-140386057D02*
X138642857Y-140481295D01*
X138642857Y-140481295D02*
X138642857Y-140576533D01*
X138642857Y-140576533D02*
X138595238Y-140719390D01*
X138595238Y-140719390D02*
X138023810Y-141290819D01*
X138023810Y-141290819D02*
X138642857Y-141290819D01*
X139500000Y-140290819D02*
X139309524Y-140290819D01*
X139309524Y-140290819D02*
X139214286Y-140338438D01*
X139214286Y-140338438D02*
X139166667Y-140386057D01*
X139166667Y-140386057D02*
X139071429Y-140528914D01*
X139071429Y-140528914D02*
X139023810Y-140719390D01*
X139023810Y-140719390D02*
X139023810Y-141100342D01*
X139023810Y-141100342D02*
X139071429Y-141195580D01*
X139071429Y-141195580D02*
X139119048Y-141243200D01*
X139119048Y-141243200D02*
X139214286Y-141290819D01*
X139214286Y-141290819D02*
X139404762Y-141290819D01*
X139404762Y-141290819D02*
X139500000Y-141243200D01*
X139500000Y-141243200D02*
X139547619Y-141195580D01*
X139547619Y-141195580D02*
X139595238Y-141100342D01*
X139595238Y-141100342D02*
X139595238Y-140862247D01*
X139595238Y-140862247D02*
X139547619Y-140767009D01*
X139547619Y-140767009D02*
X139500000Y-140719390D01*
X139500000Y-140719390D02*
X139404762Y-140671771D01*
X139404762Y-140671771D02*
X139214286Y-140671771D01*
X139214286Y-140671771D02*
X139119048Y-140719390D01*
X139119048Y-140719390D02*
X139071429Y-140767009D01*
X139071429Y-140767009D02*
X139023810Y-140862247D01*
X140071429Y-141290819D02*
X140261905Y-141290819D01*
X140261905Y-141290819D02*
X140357143Y-141243200D01*
X140357143Y-141243200D02*
X140404762Y-141195580D01*
X140404762Y-141195580D02*
X140500000Y-141052723D01*
X140500000Y-141052723D02*
X140547619Y-140862247D01*
X140547619Y-140862247D02*
X140547619Y-140481295D01*
X140547619Y-140481295D02*
X140500000Y-140386057D01*
X140500000Y-140386057D02*
X140452381Y-140338438D01*
X140452381Y-140338438D02*
X140357143Y-140290819D01*
X140357143Y-140290819D02*
X140166667Y-140290819D01*
X140166667Y-140290819D02*
X140071429Y-140338438D01*
X140071429Y-140338438D02*
X140023810Y-140386057D01*
X140023810Y-140386057D02*
X139976191Y-140481295D01*
X139976191Y-140481295D02*
X139976191Y-140719390D01*
X139976191Y-140719390D02*
X140023810Y-140814628D01*
X140023810Y-140814628D02*
X140071429Y-140862247D01*
X140071429Y-140862247D02*
X140166667Y-140909866D01*
X140166667Y-140909866D02*
X140357143Y-140909866D01*
X140357143Y-140909866D02*
X140452381Y-140862247D01*
X140452381Y-140862247D02*
X140500000Y-140814628D01*
X140500000Y-140814628D02*
X140547619Y-140719390D01*
X141023810Y-141243200D02*
X141023810Y-141290819D01*
X141023810Y-141290819D02*
X140976191Y-141386057D01*
X140976191Y-141386057D02*
X140928572Y-141433676D01*
X141357143Y-140290819D02*
X141976190Y-140290819D01*
X141976190Y-140290819D02*
X141642857Y-140671771D01*
X141642857Y-140671771D02*
X141785714Y-140671771D01*
X141785714Y-140671771D02*
X141880952Y-140719390D01*
X141880952Y-140719390D02*
X141928571Y-140767009D01*
X141928571Y-140767009D02*
X141976190Y-140862247D01*
X141976190Y-140862247D02*
X141976190Y-141100342D01*
X141976190Y-141100342D02*
X141928571Y-141195580D01*
X141928571Y-141195580D02*
X141880952Y-141243200D01*
X141880952Y-141243200D02*
X141785714Y-141290819D01*
X141785714Y-141290819D02*
X141500000Y-141290819D01*
X141500000Y-141290819D02*
X141404762Y-141243200D01*
X141404762Y-141243200D02*
X141357143Y-141195580D01*
X142547619Y-140719390D02*
X142452381Y-140671771D01*
X142452381Y-140671771D02*
X142404762Y-140624152D01*
X142404762Y-140624152D02*
X142357143Y-140528914D01*
X142357143Y-140528914D02*
X142357143Y-140481295D01*
X142357143Y-140481295D02*
X142404762Y-140386057D01*
X142404762Y-140386057D02*
X142452381Y-140338438D01*
X142452381Y-140338438D02*
X142547619Y-140290819D01*
X142547619Y-140290819D02*
X142738095Y-140290819D01*
X142738095Y-140290819D02*
X142833333Y-140338438D01*
X142833333Y-140338438D02*
X142880952Y-140386057D01*
X142880952Y-140386057D02*
X142928571Y-140481295D01*
X142928571Y-140481295D02*
X142928571Y-140528914D01*
X142928571Y-140528914D02*
X142880952Y-140624152D01*
X142880952Y-140624152D02*
X142833333Y-140671771D01*
X142833333Y-140671771D02*
X142738095Y-140719390D01*
X142738095Y-140719390D02*
X142547619Y-140719390D01*
X142547619Y-140719390D02*
X142452381Y-140767009D01*
X142452381Y-140767009D02*
X142404762Y-140814628D01*
X142404762Y-140814628D02*
X142357143Y-140909866D01*
X142357143Y-140909866D02*
X142357143Y-141100342D01*
X142357143Y-141100342D02*
X142404762Y-141195580D01*
X142404762Y-141195580D02*
X142452381Y-141243200D01*
X142452381Y-141243200D02*
X142547619Y-141290819D01*
X142547619Y-141290819D02*
X142738095Y-141290819D01*
X142738095Y-141290819D02*
X142833333Y-141243200D01*
X142833333Y-141243200D02*
X142880952Y-141195580D01*
X142880952Y-141195580D02*
X142928571Y-141100342D01*
X142928571Y-141100342D02*
X142928571Y-140909866D01*
X142928571Y-140909866D02*
X142880952Y-140814628D01*
X142880952Y-140814628D02*
X142833333Y-140767009D01*
X142833333Y-140767009D02*
X142738095Y-140719390D01*
D10*
X5810000Y-124820000D02*
X5810000Y-142572420D01*
X275190000Y-142572420D02*
X275190000Y-124820000D01*
X5810000Y-141986000D02*
X275190000Y-141986000D01*
X5810000Y-141986000D02*
X6936504Y-141399579D01*
X5810000Y-141986000D02*
X6936504Y-142572421D01*
X275190000Y-141986000D02*
X274063496Y-142572421D01*
X275190000Y-141986000D02*
X274063496Y-141399579D01*
D11*
X126128810Y6521181D02*
X126747857Y6521181D01*
X126747857Y6521181D02*
X126414524Y6140229D01*
X126414524Y6140229D02*
X126557381Y6140229D01*
X126557381Y6140229D02*
X126652619Y6092610D01*
X126652619Y6092610D02*
X126700238Y6044991D01*
X126700238Y6044991D02*
X126747857Y5949753D01*
X126747857Y5949753D02*
X126747857Y5711658D01*
X126747857Y5711658D02*
X126700238Y5616420D01*
X126700238Y5616420D02*
X126652619Y5568800D01*
X126652619Y5568800D02*
X126557381Y5521181D01*
X126557381Y5521181D02*
X126271667Y5521181D01*
X126271667Y5521181D02*
X126176429Y5568800D01*
X126176429Y5568800D02*
X126128810Y5616420D01*
X127081191Y6521181D02*
X127747857Y6521181D01*
X127747857Y6521181D02*
X127319286Y5521181D01*
X128176429Y5568800D02*
X128176429Y5521181D01*
X128176429Y5521181D02*
X128128810Y5425943D01*
X128128810Y5425943D02*
X128081191Y5378324D01*
X128747857Y6092610D02*
X128652619Y6140229D01*
X128652619Y6140229D02*
X128605000Y6187848D01*
X128605000Y6187848D02*
X128557381Y6283086D01*
X128557381Y6283086D02*
X128557381Y6330705D01*
X128557381Y6330705D02*
X128605000Y6425943D01*
X128605000Y6425943D02*
X128652619Y6473562D01*
X128652619Y6473562D02*
X128747857Y6521181D01*
X128747857Y6521181D02*
X128938333Y6521181D01*
X128938333Y6521181D02*
X129033571Y6473562D01*
X129033571Y6473562D02*
X129081190Y6425943D01*
X129081190Y6425943D02*
X129128809Y6330705D01*
X129128809Y6330705D02*
X129128809Y6283086D01*
X129128809Y6283086D02*
X129081190Y6187848D01*
X129081190Y6187848D02*
X129033571Y6140229D01*
X129033571Y6140229D02*
X128938333Y6092610D01*
X128938333Y6092610D02*
X128747857Y6092610D01*
X128747857Y6092610D02*
X128652619Y6044991D01*
X128652619Y6044991D02*
X128605000Y5997372D01*
X128605000Y5997372D02*
X128557381Y5902134D01*
X128557381Y5902134D02*
X128557381Y5711658D01*
X128557381Y5711658D02*
X128605000Y5616420D01*
X128605000Y5616420D02*
X128652619Y5568800D01*
X128652619Y5568800D02*
X128747857Y5521181D01*
X128747857Y5521181D02*
X128938333Y5521181D01*
X128938333Y5521181D02*
X129033571Y5568800D01*
X129033571Y5568800D02*
X129081190Y5616420D01*
X129081190Y5616420D02*
X129128809Y5711658D01*
X129128809Y5711658D02*
X129128809Y5902134D01*
X129128809Y5902134D02*
X129081190Y5997372D01*
X129081190Y5997372D02*
X129033571Y6044991D01*
X129033571Y6044991D02*
X128938333Y6092610D01*
X129985952Y6187848D02*
X129985952Y5521181D01*
X129747857Y6568800D02*
X129509762Y5854515D01*
X129509762Y5854515D02*
X130128809Y5854515D01*
X130938333Y6521181D02*
X130747857Y6521181D01*
X130747857Y6521181D02*
X130652619Y6473562D01*
X130652619Y6473562D02*
X130605000Y6425943D01*
X130605000Y6425943D02*
X130509762Y6283086D01*
X130509762Y6283086D02*
X130462143Y6092610D01*
X130462143Y6092610D02*
X130462143Y5711658D01*
X130462143Y5711658D02*
X130509762Y5616420D01*
X130509762Y5616420D02*
X130557381Y5568800D01*
X130557381Y5568800D02*
X130652619Y5521181D01*
X130652619Y5521181D02*
X130843095Y5521181D01*
X130843095Y5521181D02*
X130938333Y5568800D01*
X130938333Y5568800D02*
X130985952Y5616420D01*
X130985952Y5616420D02*
X131033571Y5711658D01*
X131033571Y5711658D02*
X131033571Y5949753D01*
X131033571Y5949753D02*
X130985952Y6044991D01*
X130985952Y6044991D02*
X130938333Y6092610D01*
X130938333Y6092610D02*
X130843095Y6140229D01*
X130843095Y6140229D02*
X130652619Y6140229D01*
X130652619Y6140229D02*
X130557381Y6092610D01*
X130557381Y6092610D02*
X130509762Y6044991D01*
X130509762Y6044991D02*
X130462143Y5949753D01*
D10*
X109682000Y198000D02*
X109682000Y5412420D01*
X147528000Y5412420D02*
X147528000Y198000D01*
X109682000Y4826000D02*
X147528000Y4826000D01*
X109682000Y4826000D02*
X110808504Y5412421D01*
X109682000Y4826000D02*
X110808504Y4239579D01*
X147528000Y4826000D02*
X146401496Y4239579D01*
X147528000Y4826000D02*
X146401496Y5412421D01*
D11*
X389389031Y9331181D02*
X388817603Y9331181D01*
X389103317Y9331181D02*
X389103317Y10331181D01*
X389103317Y10331181D02*
X389008079Y10188324D01*
X389008079Y10188324D02*
X388912841Y10093086D01*
X388912841Y10093086D02*
X388817603Y10045467D01*
X390293793Y10331181D02*
X389817603Y10331181D01*
X389817603Y10331181D02*
X389769984Y9854991D01*
X389769984Y9854991D02*
X389817603Y9902610D01*
X389817603Y9902610D02*
X389912841Y9950229D01*
X389912841Y9950229D02*
X390150936Y9950229D01*
X390150936Y9950229D02*
X390246174Y9902610D01*
X390246174Y9902610D02*
X390293793Y9854991D01*
X390293793Y9854991D02*
X390341412Y9759753D01*
X390341412Y9759753D02*
X390341412Y9521658D01*
X390341412Y9521658D02*
X390293793Y9426420D01*
X390293793Y9426420D02*
X390246174Y9378800D01*
X390246174Y9378800D02*
X390150936Y9331181D01*
X390150936Y9331181D02*
X389912841Y9331181D01*
X389912841Y9331181D02*
X389817603Y9378800D01*
X389817603Y9378800D02*
X389769984Y9426420D01*
X390817603Y9378800D02*
X390817603Y9331181D01*
X390817603Y9331181D02*
X390769984Y9235943D01*
X390769984Y9235943D02*
X390722365Y9188324D01*
X391293793Y9331181D02*
X391484269Y9331181D01*
X391484269Y9331181D02*
X391579507Y9378800D01*
X391579507Y9378800D02*
X391627126Y9426420D01*
X391627126Y9426420D02*
X391722364Y9569277D01*
X391722364Y9569277D02*
X391769983Y9759753D01*
X391769983Y9759753D02*
X391769983Y10140705D01*
X391769983Y10140705D02*
X391722364Y10235943D01*
X391722364Y10235943D02*
X391674745Y10283562D01*
X391674745Y10283562D02*
X391579507Y10331181D01*
X391579507Y10331181D02*
X391389031Y10331181D01*
X391389031Y10331181D02*
X391293793Y10283562D01*
X391293793Y10283562D02*
X391246174Y10235943D01*
X391246174Y10235943D02*
X391198555Y10140705D01*
X391198555Y10140705D02*
X391198555Y9902610D01*
X391198555Y9902610D02*
X391246174Y9807372D01*
X391246174Y9807372D02*
X391293793Y9759753D01*
X391293793Y9759753D02*
X391389031Y9712134D01*
X391389031Y9712134D02*
X391579507Y9712134D01*
X391579507Y9712134D02*
X391674745Y9759753D01*
X391674745Y9759753D02*
X391722364Y9807372D01*
X391722364Y9807372D02*
X391769983Y9902610D01*
X392627126Y10331181D02*
X392436650Y10331181D01*
X392436650Y10331181D02*
X392341412Y10283562D01*
X392341412Y10283562D02*
X392293793Y10235943D01*
X392293793Y10235943D02*
X392198555Y10093086D01*
X392198555Y10093086D02*
X392150936Y9902610D01*
X392150936Y9902610D02*
X392150936Y9521658D01*
X392150936Y9521658D02*
X392198555Y9426420D01*
X392198555Y9426420D02*
X392246174Y9378800D01*
X392246174Y9378800D02*
X392341412Y9331181D01*
X392341412Y9331181D02*
X392531888Y9331181D01*
X392531888Y9331181D02*
X392627126Y9378800D01*
X392627126Y9378800D02*
X392674745Y9426420D01*
X392674745Y9426420D02*
X392722364Y9521658D01*
X392722364Y9521658D02*
X392722364Y9759753D01*
X392722364Y9759753D02*
X392674745Y9854991D01*
X392674745Y9854991D02*
X392627126Y9902610D01*
X392627126Y9902610D02*
X392531888Y9950229D01*
X392531888Y9950229D02*
X392341412Y9950229D01*
X392341412Y9950229D02*
X392246174Y9902610D01*
X392246174Y9902610D02*
X392198555Y9854991D01*
X392198555Y9854991D02*
X392150936Y9759753D01*
D10*
X398750000Y500000D02*
X398750000Y9222420D01*
X382789969Y9222420D02*
X382789969Y2089755D01*
X398750000Y8636000D02*
X382789969Y8636000D01*
X398750000Y8636000D02*
X397623496Y8049579D01*
X398750000Y8636000D02*
X397623496Y9222421D01*
X382789969Y8636000D02*
X383916473Y9222421D01*
X382789969Y8636000D02*
X383916473Y8049579D01*
D11*
X276768152Y-23249999D02*
X277434819Y-23249999D01*
X276387200Y-23488094D02*
X277101485Y-23726189D01*
X277101485Y-23726189D02*
X277101485Y-23107142D01*
X276768152Y-22297618D02*
X277434819Y-22297618D01*
X276387200Y-22535713D02*
X277101485Y-22773808D01*
X277101485Y-22773808D02*
X277101485Y-22154761D01*
X277387200Y-21726189D02*
X277434819Y-21726189D01*
X277434819Y-21726189D02*
X277530057Y-21773808D01*
X277530057Y-21773808D02*
X277577676Y-21821427D01*
X276434819Y-20821428D02*
X276434819Y-21297618D01*
X276434819Y-21297618D02*
X276911009Y-21345237D01*
X276911009Y-21345237D02*
X276863390Y-21297618D01*
X276863390Y-21297618D02*
X276815771Y-21202380D01*
X276815771Y-21202380D02*
X276815771Y-20964285D01*
X276815771Y-20964285D02*
X276863390Y-20869047D01*
X276863390Y-20869047D02*
X276911009Y-20821428D01*
X276911009Y-20821428D02*
X277006247Y-20773809D01*
X277006247Y-20773809D02*
X277244342Y-20773809D01*
X277244342Y-20773809D02*
X277339580Y-20821428D01*
X277339580Y-20821428D02*
X277387200Y-20869047D01*
X277387200Y-20869047D02*
X277434819Y-20964285D01*
X277434819Y-20964285D02*
X277434819Y-21202380D01*
X277434819Y-21202380D02*
X277387200Y-21297618D01*
X277387200Y-21297618D02*
X277339580Y-21345237D01*
D10*
X275690000Y-44500000D02*
X278716420Y-44500000D01*
X277543580Y0D02*
X277687370Y0D01*
X278130000Y-44500000D02*
X278130000Y0D01*
X278130000Y-44500000D02*
X277543579Y-43373496D01*
X278130000Y-44500000D02*
X278716421Y-43373496D01*
X278130000Y0D02*
X278716421Y-1126504D01*
X278130000Y0D02*
X277543579Y-1126504D01*
D11*
X424754819Y-79232142D02*
X424754819Y-79803570D01*
X424754819Y-79517856D02*
X423754819Y-79517856D01*
X423754819Y-79517856D02*
X423897676Y-79613094D01*
X423897676Y-79613094D02*
X423992914Y-79708332D01*
X423992914Y-79708332D02*
X424040533Y-79803570D01*
X423754819Y-78613094D02*
X423754819Y-78517856D01*
X423754819Y-78517856D02*
X423802438Y-78422618D01*
X423802438Y-78422618D02*
X423850057Y-78374999D01*
X423850057Y-78374999D02*
X423945295Y-78327380D01*
X423945295Y-78327380D02*
X424135771Y-78279761D01*
X424135771Y-78279761D02*
X424373866Y-78279761D01*
X424373866Y-78279761D02*
X424564342Y-78327380D01*
X424564342Y-78327380D02*
X424659580Y-78374999D01*
X424659580Y-78374999D02*
X424707200Y-78422618D01*
X424707200Y-78422618D02*
X424754819Y-78517856D01*
X424754819Y-78517856D02*
X424754819Y-78613094D01*
X424754819Y-78613094D02*
X424707200Y-78708332D01*
X424707200Y-78708332D02*
X424659580Y-78755951D01*
X424659580Y-78755951D02*
X424564342Y-78803570D01*
X424564342Y-78803570D02*
X424373866Y-78851189D01*
X424373866Y-78851189D02*
X424135771Y-78851189D01*
X424135771Y-78851189D02*
X423945295Y-78803570D01*
X423945295Y-78803570D02*
X423850057Y-78755951D01*
X423850057Y-78755951D02*
X423802438Y-78708332D01*
X423802438Y-78708332D02*
X423754819Y-78613094D01*
X423754819Y-77374999D02*
X423754819Y-77851189D01*
X423754819Y-77851189D02*
X424231009Y-77898808D01*
X424231009Y-77898808D02*
X424183390Y-77851189D01*
X424183390Y-77851189D02*
X424135771Y-77755951D01*
X424135771Y-77755951D02*
X424135771Y-77517856D01*
X424135771Y-77517856D02*
X424183390Y-77422618D01*
X424183390Y-77422618D02*
X424231009Y-77374999D01*
X424231009Y-77374999D02*
X424326247Y-77327380D01*
X424326247Y-77327380D02*
X424564342Y-77327380D01*
X424564342Y-77327380D02*
X424659580Y-77374999D01*
X424659580Y-77374999D02*
X424707200Y-77422618D01*
X424707200Y-77422618D02*
X424754819Y-77517856D01*
X424754819Y-77517856D02*
X424754819Y-77755951D01*
X424754819Y-77755951D02*
X424707200Y-77851189D01*
X424707200Y-77851189D02*
X424659580Y-77898808D01*
X424707200Y-76851189D02*
X424754819Y-76851189D01*
X424754819Y-76851189D02*
X424850057Y-76898808D01*
X424850057Y-76898808D02*
X424897676Y-76946427D01*
X423850057Y-76470237D02*
X423802438Y-76422618D01*
X423802438Y-76422618D02*
X423754819Y-76327380D01*
X423754819Y-76327380D02*
X423754819Y-76089285D01*
X423754819Y-76089285D02*
X423802438Y-75994047D01*
X423802438Y-75994047D02*
X423850057Y-75946428D01*
X423850057Y-75946428D02*
X423945295Y-75898809D01*
X423945295Y-75898809D02*
X424040533Y-75898809D01*
X424040533Y-75898809D02*
X424183390Y-75946428D01*
X424183390Y-75946428D02*
X424754819Y-76517856D01*
X424754819Y-76517856D02*
X424754819Y-75898809D01*
X423754819Y-74994047D02*
X423754819Y-75470237D01*
X423754819Y-75470237D02*
X424231009Y-75517856D01*
X424231009Y-75517856D02*
X424183390Y-75470237D01*
X424183390Y-75470237D02*
X424135771Y-75374999D01*
X424135771Y-75374999D02*
X424135771Y-75136904D01*
X424135771Y-75136904D02*
X424183390Y-75041666D01*
X424183390Y-75041666D02*
X424231009Y-74994047D01*
X424231009Y-74994047D02*
X424326247Y-74946428D01*
X424326247Y-74946428D02*
X424564342Y-74946428D01*
X424564342Y-74946428D02*
X424659580Y-74994047D01*
X424659580Y-74994047D02*
X424707200Y-75041666D01*
X424707200Y-75041666D02*
X424754819Y-75136904D01*
X424754819Y-75136904D02*
X424754819Y-75374999D01*
X424754819Y-75374999D02*
X424707200Y-75470237D01*
X424707200Y-75470237D02*
X424659580Y-75517856D01*
D10*
X416500000Y-24750000D02*
X426036420Y-24750000D01*
X426036420Y-130000000D02*
X416500000Y-130000000D01*
X425450000Y-24750000D02*
X425450000Y-130000000D01*
X425450000Y-24750000D02*
X426036421Y-25876504D01*
X425450000Y-24750000D02*
X424863579Y-25876504D01*
X425450000Y-130000000D02*
X424863579Y-128873496D01*
X425450000Y-130000000D02*
X426036421Y-128873496D01*
D11*
X392730595Y6092610D02*
X392635357Y6140229D01*
X392635357Y6140229D02*
X392587738Y6187848D01*
X392587738Y6187848D02*
X392540119Y6283086D01*
X392540119Y6283086D02*
X392540119Y6330705D01*
X392540119Y6330705D02*
X392587738Y6425943D01*
X392587738Y6425943D02*
X392635357Y6473562D01*
X392635357Y6473562D02*
X392730595Y6521181D01*
X392730595Y6521181D02*
X392921071Y6521181D01*
X392921071Y6521181D02*
X393016309Y6473562D01*
X393016309Y6473562D02*
X393063928Y6425943D01*
X393063928Y6425943D02*
X393111547Y6330705D01*
X393111547Y6330705D02*
X393111547Y6283086D01*
X393111547Y6283086D02*
X393063928Y6187848D01*
X393063928Y6187848D02*
X393016309Y6140229D01*
X393016309Y6140229D02*
X392921071Y6092610D01*
X392921071Y6092610D02*
X392730595Y6092610D01*
X392730595Y6092610D02*
X392635357Y6044991D01*
X392635357Y6044991D02*
X392587738Y5997372D01*
X392587738Y5997372D02*
X392540119Y5902134D01*
X392540119Y5902134D02*
X392540119Y5711658D01*
X392540119Y5711658D02*
X392587738Y5616420D01*
X392587738Y5616420D02*
X392635357Y5568800D01*
X392635357Y5568800D02*
X392730595Y5521181D01*
X392730595Y5521181D02*
X392921071Y5521181D01*
X392921071Y5521181D02*
X393016309Y5568800D01*
X393016309Y5568800D02*
X393063928Y5616420D01*
X393063928Y5616420D02*
X393111547Y5711658D01*
X393111547Y5711658D02*
X393111547Y5902134D01*
X393111547Y5902134D02*
X393063928Y5997372D01*
X393063928Y5997372D02*
X393016309Y6044991D01*
X393016309Y6044991D02*
X392921071Y6092610D01*
X393587738Y5568800D02*
X393587738Y5521181D01*
X393587738Y5521181D02*
X393540119Y5425943D01*
X393540119Y5425943D02*
X393492500Y5378324D01*
X394492499Y6521181D02*
X394016309Y6521181D01*
X394016309Y6521181D02*
X393968690Y6044991D01*
X393968690Y6044991D02*
X394016309Y6092610D01*
X394016309Y6092610D02*
X394111547Y6140229D01*
X394111547Y6140229D02*
X394349642Y6140229D01*
X394349642Y6140229D02*
X394444880Y6092610D01*
X394444880Y6092610D02*
X394492499Y6044991D01*
X394492499Y6044991D02*
X394540118Y5949753D01*
X394540118Y5949753D02*
X394540118Y5711658D01*
X394540118Y5711658D02*
X394492499Y5616420D01*
X394492499Y5616420D02*
X394444880Y5568800D01*
X394444880Y5568800D02*
X394349642Y5521181D01*
X394349642Y5521181D02*
X394111547Y5521181D01*
X394111547Y5521181D02*
X394016309Y5568800D01*
X394016309Y5568800D02*
X393968690Y5616420D01*
X395492499Y5521181D02*
X394921071Y5521181D01*
X395206785Y5521181D02*
X395206785Y6521181D01*
X395206785Y6521181D02*
X395111547Y6378324D01*
X395111547Y6378324D02*
X395016309Y6283086D01*
X395016309Y6283086D02*
X394921071Y6235467D01*
X396397261Y6521181D02*
X395921071Y6521181D01*
X395921071Y6521181D02*
X395873452Y6044991D01*
X395873452Y6044991D02*
X395921071Y6092610D01*
X395921071Y6092610D02*
X396016309Y6140229D01*
X396016309Y6140229D02*
X396254404Y6140229D01*
X396254404Y6140229D02*
X396349642Y6092610D01*
X396349642Y6092610D02*
X396397261Y6044991D01*
X396397261Y6044991D02*
X396444880Y5949753D01*
X396444880Y5949753D02*
X396444880Y5711658D01*
X396444880Y5711658D02*
X396397261Y5616420D01*
X396397261Y5616420D02*
X396349642Y5568800D01*
X396349642Y5568800D02*
X396254404Y5521181D01*
X396254404Y5521181D02*
X396016309Y5521181D01*
X396016309Y5521181D02*
X395921071Y5568800D01*
X395921071Y5568800D02*
X395873452Y5616420D01*
D10*
X390235000Y-4740000D02*
X390235000Y5412420D01*
X398750000Y5412420D02*
X398750000Y500000D01*
X390235000Y4826000D02*
X398750000Y4826000D01*
X390235000Y4826000D02*
X391361504Y5412421D01*
X390235000Y4826000D02*
X391361504Y4239579D01*
X398750000Y4826000D02*
X397623496Y4239579D01*
X398750000Y4826000D02*
X397623496Y5412421D01*
D11*
X271563857Y5521181D02*
X270992429Y5521181D01*
X271278143Y5521181D02*
X271278143Y6521181D01*
X271278143Y6521181D02*
X271182905Y6378324D01*
X271182905Y6378324D02*
X271087667Y6283086D01*
X271087667Y6283086D02*
X270992429Y6235467D01*
X272468619Y6521181D02*
X271992429Y6521181D01*
X271992429Y6521181D02*
X271944810Y6044991D01*
X271944810Y6044991D02*
X271992429Y6092610D01*
X271992429Y6092610D02*
X272087667Y6140229D01*
X272087667Y6140229D02*
X272325762Y6140229D01*
X272325762Y6140229D02*
X272421000Y6092610D01*
X272421000Y6092610D02*
X272468619Y6044991D01*
X272468619Y6044991D02*
X272516238Y5949753D01*
X272516238Y5949753D02*
X272516238Y5711658D01*
X272516238Y5711658D02*
X272468619Y5616420D01*
X272468619Y5616420D02*
X272421000Y5568800D01*
X272421000Y5568800D02*
X272325762Y5521181D01*
X272325762Y5521181D02*
X272087667Y5521181D01*
X272087667Y5521181D02*
X271992429Y5568800D01*
X271992429Y5568800D02*
X271944810Y5616420D01*
X272992429Y5568800D02*
X272992429Y5521181D01*
X272992429Y5521181D02*
X272944810Y5425943D01*
X272944810Y5425943D02*
X272897191Y5378324D01*
X273944809Y5521181D02*
X273373381Y5521181D01*
X273659095Y5521181D02*
X273659095Y6521181D01*
X273659095Y6521181D02*
X273563857Y6378324D01*
X273563857Y6378324D02*
X273468619Y6283086D01*
X273468619Y6283086D02*
X273373381Y6235467D01*
X274849571Y6521181D02*
X274373381Y6521181D01*
X274373381Y6521181D02*
X274325762Y6044991D01*
X274325762Y6044991D02*
X274373381Y6092610D01*
X274373381Y6092610D02*
X274468619Y6140229D01*
X274468619Y6140229D02*
X274706714Y6140229D01*
X274706714Y6140229D02*
X274801952Y6092610D01*
X274801952Y6092610D02*
X274849571Y6044991D01*
X274849571Y6044991D02*
X274897190Y5949753D01*
X274897190Y5949753D02*
X274897190Y5711658D01*
X274897190Y5711658D02*
X274849571Y5616420D01*
X274849571Y5616420D02*
X274801952Y5568800D01*
X274801952Y5568800D02*
X274706714Y5521181D01*
X274706714Y5521181D02*
X274468619Y5521181D01*
X274468619Y5521181D02*
X274373381Y5568800D01*
X274373381Y5568800D02*
X274325762Y5616420D01*
X275468619Y6092610D02*
X275373381Y6140229D01*
X275373381Y6140229D02*
X275325762Y6187848D01*
X275325762Y6187848D02*
X275278143Y6283086D01*
X275278143Y6283086D02*
X275278143Y6330705D01*
X275278143Y6330705D02*
X275325762Y6425943D01*
X275325762Y6425943D02*
X275373381Y6473562D01*
X275373381Y6473562D02*
X275468619Y6521181D01*
X275468619Y6521181D02*
X275659095Y6521181D01*
X275659095Y6521181D02*
X275754333Y6473562D01*
X275754333Y6473562D02*
X275801952Y6425943D01*
X275801952Y6425943D02*
X275849571Y6330705D01*
X275849571Y6330705D02*
X275849571Y6283086D01*
X275849571Y6283086D02*
X275801952Y6187848D01*
X275801952Y6187848D02*
X275754333Y6140229D01*
X275754333Y6140229D02*
X275659095Y6092610D01*
X275659095Y6092610D02*
X275468619Y6092610D01*
X275468619Y6092610D02*
X275373381Y6044991D01*
X275373381Y6044991D02*
X275325762Y5997372D01*
X275325762Y5997372D02*
X275278143Y5902134D01*
X275278143Y5902134D02*
X275278143Y5711658D01*
X275278143Y5711658D02*
X275325762Y5616420D01*
X275325762Y5616420D02*
X275373381Y5568800D01*
X275373381Y5568800D02*
X275468619Y5521181D01*
X275468619Y5521181D02*
X275659095Y5521181D01*
X275659095Y5521181D02*
X275754333Y5568800D01*
X275754333Y5568800D02*
X275801952Y5616420D01*
X275801952Y5616420D02*
X275849571Y5711658D01*
X275849571Y5711658D02*
X275849571Y5902134D01*
X275849571Y5902134D02*
X275801952Y5997372D01*
X275801952Y5997372D02*
X275754333Y6044991D01*
X275754333Y6044991D02*
X275659095Y6092610D01*
D10*
X265842000Y198000D02*
X265842000Y5412420D01*
X281000000Y5412420D02*
X281000000Y198000D01*
X265842000Y4826000D02*
X281000000Y4826000D01*
X265842000Y4826000D02*
X266968504Y5412421D01*
X265842000Y4826000D02*
X266968504Y4239579D01*
X281000000Y4826000D02*
X279873496Y4239579D01*
X281000000Y4826000D02*
X279873496Y5412421D01*
D11*
X277142619Y-140290819D02*
X276666429Y-140290819D01*
X276666429Y-140290819D02*
X276618810Y-140767009D01*
X276618810Y-140767009D02*
X276666429Y-140719390D01*
X276666429Y-140719390D02*
X276761667Y-140671771D01*
X276761667Y-140671771D02*
X276999762Y-140671771D01*
X276999762Y-140671771D02*
X277095000Y-140719390D01*
X277095000Y-140719390D02*
X277142619Y-140767009D01*
X277142619Y-140767009D02*
X277190238Y-140862247D01*
X277190238Y-140862247D02*
X277190238Y-141100342D01*
X277190238Y-141100342D02*
X277142619Y-141195580D01*
X277142619Y-141195580D02*
X277095000Y-141243200D01*
X277095000Y-141243200D02*
X276999762Y-141290819D01*
X276999762Y-141290819D02*
X276761667Y-141290819D01*
X276761667Y-141290819D02*
X276666429Y-141243200D01*
X276666429Y-141243200D02*
X276618810Y-141195580D01*
X277666429Y-141243200D02*
X277666429Y-141290819D01*
X277666429Y-141290819D02*
X277618810Y-141386057D01*
X277618810Y-141386057D02*
X277571191Y-141433676D01*
X278237857Y-140719390D02*
X278142619Y-140671771D01*
X278142619Y-140671771D02*
X278095000Y-140624152D01*
X278095000Y-140624152D02*
X278047381Y-140528914D01*
X278047381Y-140528914D02*
X278047381Y-140481295D01*
X278047381Y-140481295D02*
X278095000Y-140386057D01*
X278095000Y-140386057D02*
X278142619Y-140338438D01*
X278142619Y-140338438D02*
X278237857Y-140290819D01*
X278237857Y-140290819D02*
X278428333Y-140290819D01*
X278428333Y-140290819D02*
X278523571Y-140338438D01*
X278523571Y-140338438D02*
X278571190Y-140386057D01*
X278571190Y-140386057D02*
X278618809Y-140481295D01*
X278618809Y-140481295D02*
X278618809Y-140528914D01*
X278618809Y-140528914D02*
X278571190Y-140624152D01*
X278571190Y-140624152D02*
X278523571Y-140671771D01*
X278523571Y-140671771D02*
X278428333Y-140719390D01*
X278428333Y-140719390D02*
X278237857Y-140719390D01*
X278237857Y-140719390D02*
X278142619Y-140767009D01*
X278142619Y-140767009D02*
X278095000Y-140814628D01*
X278095000Y-140814628D02*
X278047381Y-140909866D01*
X278047381Y-140909866D02*
X278047381Y-141100342D01*
X278047381Y-141100342D02*
X278095000Y-141195580D01*
X278095000Y-141195580D02*
X278142619Y-141243200D01*
X278142619Y-141243200D02*
X278237857Y-141290819D01*
X278237857Y-141290819D02*
X278428333Y-141290819D01*
X278428333Y-141290819D02*
X278523571Y-141243200D01*
X278523571Y-141243200D02*
X278571190Y-141195580D01*
X278571190Y-141195580D02*
X278618809Y-141100342D01*
X278618809Y-141100342D02*
X278618809Y-140909866D01*
X278618809Y-140909866D02*
X278571190Y-140814628D01*
X278571190Y-140814628D02*
X278523571Y-140767009D01*
X278523571Y-140767009D02*
X278428333Y-140719390D01*
X279571190Y-141290819D02*
X278999762Y-141290819D01*
X279285476Y-141290819D02*
X279285476Y-140290819D01*
X279285476Y-140290819D02*
X279190238Y-140433676D01*
X279190238Y-140433676D02*
X279095000Y-140528914D01*
X279095000Y-140528914D02*
X278999762Y-140576533D01*
D12*
X275190000Y-124820000D02*
X275190000Y-142572420D01*
X281000000Y-142572420D02*
X281000000Y-130630000D01*
X275190000Y-141986000D02*
X281000000Y-141986000D01*
X275190000Y-141986000D02*
X276316504Y-141399579D01*
X275190000Y-141986000D02*
X276316504Y-142572421D01*
X281000000Y-141986000D02*
X279873496Y-142572421D01*
X281000000Y-141986000D02*
X279873496Y-141399579D01*
D11*
X343494429Y10235943D02*
X343542048Y10283562D01*
X343542048Y10283562D02*
X343637286Y10331181D01*
X343637286Y10331181D02*
X343875381Y10331181D01*
X343875381Y10331181D02*
X343970619Y10283562D01*
X343970619Y10283562D02*
X344018238Y10235943D01*
X344018238Y10235943D02*
X344065857Y10140705D01*
X344065857Y10140705D02*
X344065857Y10045467D01*
X344065857Y10045467D02*
X344018238Y9902610D01*
X344018238Y9902610D02*
X343446810Y9331181D01*
X343446810Y9331181D02*
X344065857Y9331181D01*
X344542048Y9331181D02*
X344732524Y9331181D01*
X344732524Y9331181D02*
X344827762Y9378800D01*
X344827762Y9378800D02*
X344875381Y9426420D01*
X344875381Y9426420D02*
X344970619Y9569277D01*
X344970619Y9569277D02*
X345018238Y9759753D01*
X345018238Y9759753D02*
X345018238Y10140705D01*
X345018238Y10140705D02*
X344970619Y10235943D01*
X344970619Y10235943D02*
X344923000Y10283562D01*
X344923000Y10283562D02*
X344827762Y10331181D01*
X344827762Y10331181D02*
X344637286Y10331181D01*
X344637286Y10331181D02*
X344542048Y10283562D01*
X344542048Y10283562D02*
X344494429Y10235943D01*
X344494429Y10235943D02*
X344446810Y10140705D01*
X344446810Y10140705D02*
X344446810Y9902610D01*
X344446810Y9902610D02*
X344494429Y9807372D01*
X344494429Y9807372D02*
X344542048Y9759753D01*
X344542048Y9759753D02*
X344637286Y9712134D01*
X344637286Y9712134D02*
X344827762Y9712134D01*
X344827762Y9712134D02*
X344923000Y9759753D01*
X344923000Y9759753D02*
X344970619Y9807372D01*
X344970619Y9807372D02*
X345018238Y9902610D01*
X345494429Y9378800D02*
X345494429Y9331181D01*
X345494429Y9331181D02*
X345446810Y9235943D01*
X345446810Y9235943D02*
X345399191Y9188324D01*
X345827762Y10331181D02*
X346494428Y10331181D01*
X346494428Y10331181D02*
X346065857Y9331181D01*
X347399190Y9331181D02*
X346827762Y9331181D01*
X347113476Y9331181D02*
X347113476Y10331181D01*
X347113476Y10331181D02*
X347018238Y10188324D01*
X347018238Y10188324D02*
X346923000Y10093086D01*
X346923000Y10093086D02*
X346827762Y10045467D01*
X347970619Y9902610D02*
X347875381Y9950229D01*
X347875381Y9950229D02*
X347827762Y9997848D01*
X347827762Y9997848D02*
X347780143Y10093086D01*
X347780143Y10093086D02*
X347780143Y10140705D01*
X347780143Y10140705D02*
X347827762Y10235943D01*
X347827762Y10235943D02*
X347875381Y10283562D01*
X347875381Y10283562D02*
X347970619Y10331181D01*
X347970619Y10331181D02*
X348161095Y10331181D01*
X348161095Y10331181D02*
X348256333Y10283562D01*
X348256333Y10283562D02*
X348303952Y10235943D01*
X348303952Y10235943D02*
X348351571Y10140705D01*
X348351571Y10140705D02*
X348351571Y10093086D01*
X348351571Y10093086D02*
X348303952Y9997848D01*
X348303952Y9997848D02*
X348256333Y9950229D01*
X348256333Y9950229D02*
X348161095Y9902610D01*
X348161095Y9902610D02*
X347970619Y9902610D01*
X347970619Y9902610D02*
X347875381Y9854991D01*
X347875381Y9854991D02*
X347827762Y9807372D01*
X347827762Y9807372D02*
X347780143Y9712134D01*
X347780143Y9712134D02*
X347780143Y9521658D01*
X347780143Y9521658D02*
X347827762Y9426420D01*
X347827762Y9426420D02*
X347875381Y9378800D01*
X347875381Y9378800D02*
X347970619Y9331181D01*
X347970619Y9331181D02*
X348161095Y9331181D01*
X348161095Y9331181D02*
X348256333Y9378800D01*
X348256333Y9378800D02*
X348303952Y9426420D01*
X348303952Y9426420D02*
X348351571Y9521658D01*
X348351571Y9521658D02*
X348351571Y9712134D01*
X348351571Y9712134D02*
X348303952Y9807372D01*
X348303952Y9807372D02*
X348256333Y9854991D01*
X348256333Y9854991D02*
X348161095Y9902610D01*
D10*
X331064000Y1500000D02*
X331064000Y9222420D01*
X360782000Y9222420D02*
X360782000Y1500000D01*
X331064000Y8636000D02*
X360782000Y8636000D01*
X331064000Y8636000D02*
X332190504Y9222421D01*
X331064000Y8636000D02*
X332190504Y8049579D01*
X360782000Y8636000D02*
X359655496Y8049579D01*
X360782000Y8636000D02*
X359655496Y9222421D01*
D11*
X-6267181Y-128112380D02*
X-6267181Y-128588570D01*
X-6267181Y-128588570D02*
X-5790991Y-128636189D01*
X-5790991Y-128636189D02*
X-5838610Y-128588570D01*
X-5838610Y-128588570D02*
X-5886229Y-128493332D01*
X-5886229Y-128493332D02*
X-5886229Y-128255237D01*
X-5886229Y-128255237D02*
X-5838610Y-128159999D01*
X-5838610Y-128159999D02*
X-5790991Y-128112380D01*
X-5790991Y-128112380D02*
X-5695753Y-128064761D01*
X-5695753Y-128064761D02*
X-5457658Y-128064761D01*
X-5457658Y-128064761D02*
X-5362420Y-128112380D01*
X-5362420Y-128112380D02*
X-5314800Y-128159999D01*
X-5314800Y-128159999D02*
X-5267181Y-128255237D01*
X-5267181Y-128255237D02*
X-5267181Y-128493332D01*
X-5267181Y-128493332D02*
X-5314800Y-128588570D01*
X-5314800Y-128588570D02*
X-5362420Y-128636189D01*
X-5314800Y-127588570D02*
X-5267181Y-127588570D01*
X-5267181Y-127588570D02*
X-5171943Y-127636189D01*
X-5171943Y-127636189D02*
X-5124324Y-127683808D01*
X-6267181Y-126731428D02*
X-6267181Y-126921904D01*
X-6267181Y-126921904D02*
X-6219562Y-127017142D01*
X-6219562Y-127017142D02*
X-6171943Y-127064761D01*
X-6171943Y-127064761D02*
X-6029086Y-127159999D01*
X-6029086Y-127159999D02*
X-5838610Y-127207618D01*
X-5838610Y-127207618D02*
X-5457658Y-127207618D01*
X-5457658Y-127207618D02*
X-5362420Y-127159999D01*
X-5362420Y-127159999D02*
X-5314800Y-127112380D01*
X-5314800Y-127112380D02*
X-5267181Y-127017142D01*
X-5267181Y-127017142D02*
X-5267181Y-126826666D01*
X-5267181Y-126826666D02*
X-5314800Y-126731428D01*
X-5314800Y-126731428D02*
X-5362420Y-126683809D01*
X-5362420Y-126683809D02*
X-5457658Y-126636190D01*
X-5457658Y-126636190D02*
X-5695753Y-126636190D01*
X-5695753Y-126636190D02*
X-5790991Y-126683809D01*
X-5790991Y-126683809D02*
X-5838610Y-126731428D01*
X-5838610Y-126731428D02*
X-5886229Y-126826666D01*
X-5886229Y-126826666D02*
X-5886229Y-127017142D01*
X-5886229Y-127017142D02*
X-5838610Y-127112380D01*
X-5838610Y-127112380D02*
X-5790991Y-127159999D01*
X-5790991Y-127159999D02*
X-5695753Y-127207618D01*
X-5838610Y-126064761D02*
X-5886229Y-126159999D01*
X-5886229Y-126159999D02*
X-5933848Y-126207618D01*
X-5933848Y-126207618D02*
X-6029086Y-126255237D01*
X-6029086Y-126255237D02*
X-6076705Y-126255237D01*
X-6076705Y-126255237D02*
X-6171943Y-126207618D01*
X-6171943Y-126207618D02*
X-6219562Y-126159999D01*
X-6219562Y-126159999D02*
X-6267181Y-126064761D01*
X-6267181Y-126064761D02*
X-6267181Y-125874285D01*
X-6267181Y-125874285D02*
X-6219562Y-125779047D01*
X-6219562Y-125779047D02*
X-6171943Y-125731428D01*
X-6171943Y-125731428D02*
X-6076705Y-125683809D01*
X-6076705Y-125683809D02*
X-6029086Y-125683809D01*
X-6029086Y-125683809D02*
X-5933848Y-125731428D01*
X-5933848Y-125731428D02*
X-5886229Y-125779047D01*
X-5886229Y-125779047D02*
X-5838610Y-125874285D01*
X-5838610Y-125874285D02*
X-5838610Y-126064761D01*
X-5838610Y-126064761D02*
X-5790991Y-126159999D01*
X-5790991Y-126159999D02*
X-5743372Y-126207618D01*
X-5743372Y-126207618D02*
X-5648134Y-126255237D01*
X-5648134Y-126255237D02*
X-5457658Y-126255237D01*
X-5457658Y-126255237D02*
X-5362420Y-126207618D01*
X-5362420Y-126207618D02*
X-5314800Y-126159999D01*
X-5314800Y-126159999D02*
X-5267181Y-126064761D01*
X-5267181Y-126064761D02*
X-5267181Y-125874285D01*
X-5267181Y-125874285D02*
X-5314800Y-125779047D01*
X-5314800Y-125779047D02*
X-5362420Y-125731428D01*
X-5362420Y-125731428D02*
X-5457658Y-125683809D01*
X-5457658Y-125683809D02*
X-5648134Y-125683809D01*
X-5648134Y-125683809D02*
X-5743372Y-125731428D01*
X-5743372Y-125731428D02*
X-5790991Y-125779047D01*
X-5790991Y-125779047D02*
X-5838610Y-125874285D01*
D10*
X5310000Y-124320000D02*
X-5158420Y-124320000D01*
X-5158420Y-130000000D02*
X-500000Y-130000000D01*
X-4572000Y-124320000D02*
X-4572000Y-130000000D01*
X-4572000Y-124320000D02*
X-3985579Y-125446504D01*
X-4572000Y-124320000D02*
X-5158421Y-125446504D01*
X-4572000Y-130000000D02*
X-5158421Y-128873496D01*
X-4572000Y-130000000D02*
X-3985579Y-128873496D01*
D11*
X405994047Y-20132819D02*
X405422619Y-20132819D01*
X405708333Y-20132819D02*
X405708333Y-19132819D01*
X405708333Y-19132819D02*
X405613095Y-19275676D01*
X405613095Y-19275676D02*
X405517857Y-19370914D01*
X405517857Y-19370914D02*
X405422619Y-19418533D01*
X406327381Y-19132819D02*
X406994047Y-19132819D01*
X406994047Y-19132819D02*
X406565476Y-20132819D01*
X407422619Y-20085200D02*
X407422619Y-20132819D01*
X407422619Y-20132819D02*
X407375000Y-20228057D01*
X407375000Y-20228057D02*
X407327381Y-20275676D01*
X407803571Y-19228057D02*
X407851190Y-19180438D01*
X407851190Y-19180438D02*
X407946428Y-19132819D01*
X407946428Y-19132819D02*
X408184523Y-19132819D01*
X408184523Y-19132819D02*
X408279761Y-19180438D01*
X408279761Y-19180438D02*
X408327380Y-19228057D01*
X408327380Y-19228057D02*
X408374999Y-19323295D01*
X408374999Y-19323295D02*
X408374999Y-19418533D01*
X408374999Y-19418533D02*
X408327380Y-19561390D01*
X408327380Y-19561390D02*
X407755952Y-20132819D01*
X407755952Y-20132819D02*
X408374999Y-20132819D01*
X409279761Y-19132819D02*
X408803571Y-19132819D01*
X408803571Y-19132819D02*
X408755952Y-19609009D01*
X408755952Y-19609009D02*
X408803571Y-19561390D01*
X408803571Y-19561390D02*
X408898809Y-19513771D01*
X408898809Y-19513771D02*
X409136904Y-19513771D01*
X409136904Y-19513771D02*
X409232142Y-19561390D01*
X409232142Y-19561390D02*
X409279761Y-19609009D01*
X409279761Y-19609009D02*
X409327380Y-19704247D01*
X409327380Y-19704247D02*
X409327380Y-19942342D01*
X409327380Y-19942342D02*
X409279761Y-20037580D01*
X409279761Y-20037580D02*
X409232142Y-20085200D01*
X409232142Y-20085200D02*
X409136904Y-20132819D01*
X409136904Y-20132819D02*
X408898809Y-20132819D01*
X408898809Y-20132819D02*
X408803571Y-20085200D01*
X408803571Y-20085200D02*
X408755952Y-20037580D01*
D10*
X416000000Y-24250000D02*
X416000000Y-20241580D01*
X398750000Y-20241580D02*
X398750000Y-21399420D01*
X416000000Y-20828000D02*
X398750000Y-20828000D01*
X416000000Y-20828000D02*
X414873496Y-21414421D01*
X416000000Y-20828000D02*
X414873496Y-20241579D01*
X398750000Y-20828000D02*
X399876504Y-20241579D01*
X398750000Y-20828000D02*
X399876504Y-21414421D01*
D11*
X276434819Y-86409999D02*
X276434819Y-85743333D01*
X276434819Y-85743333D02*
X277434819Y-86171904D01*
X277434819Y-85314761D02*
X277434819Y-85124285D01*
X277434819Y-85124285D02*
X277387200Y-85029047D01*
X277387200Y-85029047D02*
X277339580Y-84981428D01*
X277339580Y-84981428D02*
X277196723Y-84886190D01*
X277196723Y-84886190D02*
X277006247Y-84838571D01*
X277006247Y-84838571D02*
X276625295Y-84838571D01*
X276625295Y-84838571D02*
X276530057Y-84886190D01*
X276530057Y-84886190D02*
X276482438Y-84933809D01*
X276482438Y-84933809D02*
X276434819Y-85029047D01*
X276434819Y-85029047D02*
X276434819Y-85219523D01*
X276434819Y-85219523D02*
X276482438Y-85314761D01*
X276482438Y-85314761D02*
X276530057Y-85362380D01*
X276530057Y-85362380D02*
X276625295Y-85409999D01*
X276625295Y-85409999D02*
X276863390Y-85409999D01*
X276863390Y-85409999D02*
X276958628Y-85362380D01*
X276958628Y-85362380D02*
X277006247Y-85314761D01*
X277006247Y-85314761D02*
X277053866Y-85219523D01*
X277053866Y-85219523D02*
X277053866Y-85029047D01*
X277053866Y-85029047D02*
X277006247Y-84933809D01*
X277006247Y-84933809D02*
X276958628Y-84886190D01*
X276958628Y-84886190D02*
X276863390Y-84838571D01*
X277387200Y-84362380D02*
X277434819Y-84362380D01*
X277434819Y-84362380D02*
X277530057Y-84409999D01*
X277530057Y-84409999D02*
X277577676Y-84457618D01*
X276863390Y-83790952D02*
X276815771Y-83886190D01*
X276815771Y-83886190D02*
X276768152Y-83933809D01*
X276768152Y-83933809D02*
X276672914Y-83981428D01*
X276672914Y-83981428D02*
X276625295Y-83981428D01*
X276625295Y-83981428D02*
X276530057Y-83933809D01*
X276530057Y-83933809D02*
X276482438Y-83886190D01*
X276482438Y-83886190D02*
X276434819Y-83790952D01*
X276434819Y-83790952D02*
X276434819Y-83600476D01*
X276434819Y-83600476D02*
X276482438Y-83505238D01*
X276482438Y-83505238D02*
X276530057Y-83457619D01*
X276530057Y-83457619D02*
X276625295Y-83410000D01*
X276625295Y-83410000D02*
X276672914Y-83410000D01*
X276672914Y-83410000D02*
X276768152Y-83457619D01*
X276768152Y-83457619D02*
X276815771Y-83505238D01*
X276815771Y-83505238D02*
X276863390Y-83600476D01*
X276863390Y-83600476D02*
X276863390Y-83790952D01*
X276863390Y-83790952D02*
X276911009Y-83886190D01*
X276911009Y-83886190D02*
X276958628Y-83933809D01*
X276958628Y-83933809D02*
X277053866Y-83981428D01*
X277053866Y-83981428D02*
X277244342Y-83981428D01*
X277244342Y-83981428D02*
X277339580Y-83933809D01*
X277339580Y-83933809D02*
X277387200Y-83886190D01*
X277387200Y-83886190D02*
X277434819Y-83790952D01*
X277434819Y-83790952D02*
X277434819Y-83600476D01*
X277434819Y-83600476D02*
X277387200Y-83505238D01*
X277387200Y-83505238D02*
X277339580Y-83457619D01*
X277339580Y-83457619D02*
X277244342Y-83410000D01*
X277244342Y-83410000D02*
X277053866Y-83410000D01*
X277053866Y-83410000D02*
X276958628Y-83457619D01*
X276958628Y-83457619D02*
X276911009Y-83505238D01*
X276911009Y-83505238D02*
X276863390Y-83600476D01*
X276530057Y-83029047D02*
X276482438Y-82981428D01*
X276482438Y-82981428D02*
X276434819Y-82886190D01*
X276434819Y-82886190D02*
X276434819Y-82648095D01*
X276434819Y-82648095D02*
X276482438Y-82552857D01*
X276482438Y-82552857D02*
X276530057Y-82505238D01*
X276530057Y-82505238D02*
X276625295Y-82457619D01*
X276625295Y-82457619D02*
X276720533Y-82457619D01*
X276720533Y-82457619D02*
X276863390Y-82505238D01*
X276863390Y-82505238D02*
X277434819Y-83076666D01*
X277434819Y-83076666D02*
X277434819Y-82457619D01*
D10*
X275690000Y-44500000D02*
X278716420Y-44500000D01*
X278716420Y-124320000D02*
X275690000Y-124320000D01*
X278130000Y-44500000D02*
X278130000Y-124320000D01*
X278130000Y-44500000D02*
X278716421Y-45626504D01*
X278130000Y-44500000D02*
X277543579Y-45626504D01*
X278130000Y-124320000D02*
X277543579Y-123193496D01*
X278130000Y-124320000D02*
X278716421Y-123193496D01*
D11*
X142849857Y-133670819D02*
X142278429Y-133670819D01*
X142564143Y-133670819D02*
X142564143Y-132670819D01*
X142564143Y-132670819D02*
X142468905Y-132813676D01*
X142468905Y-132813676D02*
X142373667Y-132908914D01*
X142373667Y-132908914D02*
X142278429Y-132956533D01*
X143707000Y-132670819D02*
X143516524Y-132670819D01*
X143516524Y-132670819D02*
X143421286Y-132718438D01*
X143421286Y-132718438D02*
X143373667Y-132766057D01*
X143373667Y-132766057D02*
X143278429Y-132908914D01*
X143278429Y-132908914D02*
X143230810Y-133099390D01*
X143230810Y-133099390D02*
X143230810Y-133480342D01*
X143230810Y-133480342D02*
X143278429Y-133575580D01*
X143278429Y-133575580D02*
X143326048Y-133623200D01*
X143326048Y-133623200D02*
X143421286Y-133670819D01*
X143421286Y-133670819D02*
X143611762Y-133670819D01*
X143611762Y-133670819D02*
X143707000Y-133623200D01*
X143707000Y-133623200D02*
X143754619Y-133575580D01*
X143754619Y-133575580D02*
X143802238Y-133480342D01*
X143802238Y-133480342D02*
X143802238Y-133242247D01*
X143802238Y-133242247D02*
X143754619Y-133147009D01*
X143754619Y-133147009D02*
X143707000Y-133099390D01*
X143707000Y-133099390D02*
X143611762Y-133051771D01*
X143611762Y-133051771D02*
X143421286Y-133051771D01*
X143421286Y-133051771D02*
X143326048Y-133099390D01*
X143326048Y-133099390D02*
X143278429Y-133147009D01*
X143278429Y-133147009D02*
X143230810Y-133242247D01*
X144278429Y-133623200D02*
X144278429Y-133670819D01*
X144278429Y-133670819D02*
X144230810Y-133766057D01*
X144230810Y-133766057D02*
X144183191Y-133813676D01*
X145135571Y-133004152D02*
X145135571Y-133670819D01*
X144897476Y-132623200D02*
X144659381Y-133337485D01*
X144659381Y-133337485D02*
X145278428Y-133337485D01*
X145802238Y-133099390D02*
X145707000Y-133051771D01*
X145707000Y-133051771D02*
X145659381Y-133004152D01*
X145659381Y-133004152D02*
X145611762Y-132908914D01*
X145611762Y-132908914D02*
X145611762Y-132861295D01*
X145611762Y-132861295D02*
X145659381Y-132766057D01*
X145659381Y-132766057D02*
X145707000Y-132718438D01*
X145707000Y-132718438D02*
X145802238Y-132670819D01*
X145802238Y-132670819D02*
X145992714Y-132670819D01*
X145992714Y-132670819D02*
X146087952Y-132718438D01*
X146087952Y-132718438D02*
X146135571Y-132766057D01*
X146135571Y-132766057D02*
X146183190Y-132861295D01*
X146183190Y-132861295D02*
X146183190Y-132908914D01*
X146183190Y-132908914D02*
X146135571Y-133004152D01*
X146135571Y-133004152D02*
X146087952Y-133051771D01*
X146087952Y-133051771D02*
X145992714Y-133099390D01*
X145992714Y-133099390D02*
X145802238Y-133099390D01*
X145802238Y-133099390D02*
X145707000Y-133147009D01*
X145707000Y-133147009D02*
X145659381Y-133194628D01*
X145659381Y-133194628D02*
X145611762Y-133289866D01*
X145611762Y-133289866D02*
X145611762Y-133480342D01*
X145611762Y-133480342D02*
X145659381Y-133575580D01*
X145659381Y-133575580D02*
X145707000Y-133623200D01*
X145707000Y-133623200D02*
X145802238Y-133670819D01*
X145802238Y-133670819D02*
X145992714Y-133670819D01*
X145992714Y-133670819D02*
X146087952Y-133623200D01*
X146087952Y-133623200D02*
X146135571Y-133575580D01*
X146135571Y-133575580D02*
X146183190Y-133480342D01*
X146183190Y-133480342D02*
X146183190Y-133289866D01*
X146183190Y-133289866D02*
X146135571Y-133194628D01*
X146135571Y-133194628D02*
X146087952Y-133147009D01*
X146087952Y-133147009D02*
X145992714Y-133099390D01*
X146564143Y-132766057D02*
X146611762Y-132718438D01*
X146611762Y-132718438D02*
X146707000Y-132670819D01*
X146707000Y-132670819D02*
X146945095Y-132670819D01*
X146945095Y-132670819D02*
X147040333Y-132718438D01*
X147040333Y-132718438D02*
X147087952Y-132766057D01*
X147087952Y-132766057D02*
X147135571Y-132861295D01*
X147135571Y-132861295D02*
X147135571Y-132956533D01*
X147135571Y-132956533D02*
X147087952Y-133099390D01*
X147087952Y-133099390D02*
X146516524Y-133670819D01*
X146516524Y-133670819D02*
X147135571Y-133670819D01*
D10*
X152948000Y-130214500D02*
X152948000Y-134952420D01*
X136466000Y-134952420D02*
X136466000Y-130214500D01*
X152948000Y-134366000D02*
X136466000Y-134366000D01*
X152948000Y-134366000D02*
X151821496Y-134952421D01*
X152948000Y-134366000D02*
X151821496Y-133779579D01*
X136466000Y-134366000D02*
X137592504Y-133779579D01*
X136466000Y-134366000D02*
X137592504Y-134952421D01*
D11*
X402006057Y-14327380D02*
X401958438Y-14279761D01*
X401958438Y-14279761D02*
X401910819Y-14184523D01*
X401910819Y-14184523D02*
X401910819Y-13946428D01*
X401910819Y-13946428D02*
X401958438Y-13851190D01*
X401958438Y-13851190D02*
X402006057Y-13803571D01*
X402006057Y-13803571D02*
X402101295Y-13755952D01*
X402101295Y-13755952D02*
X402196533Y-13755952D01*
X402196533Y-13755952D02*
X402339390Y-13803571D01*
X402339390Y-13803571D02*
X402910819Y-14374999D01*
X402910819Y-14374999D02*
X402910819Y-13755952D01*
X402244152Y-12898809D02*
X402910819Y-12898809D01*
X401863200Y-13136904D02*
X402577485Y-13374999D01*
X402577485Y-13374999D02*
X402577485Y-12755952D01*
X402863200Y-12327380D02*
X402910819Y-12327380D01*
X402910819Y-12327380D02*
X403006057Y-12374999D01*
X403006057Y-12374999D02*
X403053676Y-12422618D01*
X401910819Y-11994047D02*
X401910819Y-11327381D01*
X401910819Y-11327381D02*
X402910819Y-11755952D01*
X401910819Y-10470238D02*
X401910819Y-10946428D01*
X401910819Y-10946428D02*
X402387009Y-10994047D01*
X402387009Y-10994047D02*
X402339390Y-10946428D01*
X402339390Y-10946428D02*
X402291771Y-10851190D01*
X402291771Y-10851190D02*
X402291771Y-10613095D01*
X402291771Y-10613095D02*
X402339390Y-10517857D01*
X402339390Y-10517857D02*
X402387009Y-10470238D01*
X402387009Y-10470238D02*
X402482247Y-10422619D01*
X402482247Y-10422619D02*
X402720342Y-10422619D01*
X402720342Y-10422619D02*
X402815580Y-10470238D01*
X402815580Y-10470238D02*
X402863200Y-10517857D01*
X402863200Y-10517857D02*
X402910819Y-10613095D01*
X402910819Y-10613095D02*
X402910819Y-10851190D01*
X402910819Y-10851190D02*
X402863200Y-10946428D01*
X402863200Y-10946428D02*
X402815580Y-10994047D01*
D10*
X403160862Y-24750000D02*
X404192420Y-24750000D01*
X404192420Y0D02*
X399250000Y0D01*
X403606000Y-24750000D02*
X403606000Y0D01*
X403606000Y-24750000D02*
X403019579Y-23623496D01*
X403606000Y-24750000D02*
X404192421Y-23623496D01*
X403606000Y0D02*
X404192421Y-1126504D01*
X403606000Y0D02*
X403019579Y-1126504D01*
D11*
X376477698Y9902610D02*
X376382460Y9950229D01*
X376382460Y9950229D02*
X376334841Y9997848D01*
X376334841Y9997848D02*
X376287222Y10093086D01*
X376287222Y10093086D02*
X376287222Y10140705D01*
X376287222Y10140705D02*
X376334841Y10235943D01*
X376334841Y10235943D02*
X376382460Y10283562D01*
X376382460Y10283562D02*
X376477698Y10331181D01*
X376477698Y10331181D02*
X376668174Y10331181D01*
X376668174Y10331181D02*
X376763412Y10283562D01*
X376763412Y10283562D02*
X376811031Y10235943D01*
X376811031Y10235943D02*
X376858650Y10140705D01*
X376858650Y10140705D02*
X376858650Y10093086D01*
X376858650Y10093086D02*
X376811031Y9997848D01*
X376811031Y9997848D02*
X376763412Y9950229D01*
X376763412Y9950229D02*
X376668174Y9902610D01*
X376668174Y9902610D02*
X376477698Y9902610D01*
X376477698Y9902610D02*
X376382460Y9854991D01*
X376382460Y9854991D02*
X376334841Y9807372D01*
X376334841Y9807372D02*
X376287222Y9712134D01*
X376287222Y9712134D02*
X376287222Y9521658D01*
X376287222Y9521658D02*
X376334841Y9426420D01*
X376334841Y9426420D02*
X376382460Y9378800D01*
X376382460Y9378800D02*
X376477698Y9331181D01*
X376477698Y9331181D02*
X376668174Y9331181D01*
X376668174Y9331181D02*
X376763412Y9378800D01*
X376763412Y9378800D02*
X376811031Y9426420D01*
X376811031Y9426420D02*
X376858650Y9521658D01*
X376858650Y9521658D02*
X376858650Y9712134D01*
X376858650Y9712134D02*
X376811031Y9807372D01*
X376811031Y9807372D02*
X376763412Y9854991D01*
X376763412Y9854991D02*
X376668174Y9902610D01*
X377334841Y9378800D02*
X377334841Y9331181D01*
X377334841Y9331181D02*
X377287222Y9235943D01*
X377287222Y9235943D02*
X377239603Y9188324D01*
X378287221Y9331181D02*
X377715793Y9331181D01*
X378001507Y9331181D02*
X378001507Y10331181D01*
X378001507Y10331181D02*
X377906269Y10188324D01*
X377906269Y10188324D02*
X377811031Y10093086D01*
X377811031Y10093086D02*
X377715793Y10045467D01*
X378668174Y10235943D02*
X378715793Y10283562D01*
X378715793Y10283562D02*
X378811031Y10331181D01*
X378811031Y10331181D02*
X379049126Y10331181D01*
X379049126Y10331181D02*
X379144364Y10283562D01*
X379144364Y10283562D02*
X379191983Y10235943D01*
X379191983Y10235943D02*
X379239602Y10140705D01*
X379239602Y10140705D02*
X379239602Y10045467D01*
X379239602Y10045467D02*
X379191983Y9902610D01*
X379191983Y9902610D02*
X378620555Y9331181D01*
X378620555Y9331181D02*
X379239602Y9331181D01*
X380096745Y9997848D02*
X380096745Y9331181D01*
X379858650Y10378800D02*
X379620555Y9664515D01*
X379620555Y9664515D02*
X380239602Y9664515D01*
X381049126Y9997848D02*
X381049126Y9331181D01*
X380811031Y10378800D02*
X380572936Y9664515D01*
X380572936Y9664515D02*
X381191983Y9664515D01*
D10*
X374653585Y1612233D02*
X374653585Y9222420D01*
X382778000Y9222420D02*
X382778000Y1612233D01*
X374653585Y8636000D02*
X382778000Y8636000D01*
X374653585Y8636000D02*
X375780089Y9222421D01*
X374653585Y8636000D02*
X375780089Y8049579D01*
X382778000Y8636000D02*
X381651496Y8049579D01*
X382778000Y8636000D02*
X381651496Y9222421D01*
D11*
X181991929Y-132766057D02*
X182039548Y-132718438D01*
X182039548Y-132718438D02*
X182134786Y-132670819D01*
X182134786Y-132670819D02*
X182372881Y-132670819D01*
X182372881Y-132670819D02*
X182468119Y-132718438D01*
X182468119Y-132718438D02*
X182515738Y-132766057D01*
X182515738Y-132766057D02*
X182563357Y-132861295D01*
X182563357Y-132861295D02*
X182563357Y-132956533D01*
X182563357Y-132956533D02*
X182515738Y-133099390D01*
X182515738Y-133099390D02*
X181944310Y-133670819D01*
X181944310Y-133670819D02*
X182563357Y-133670819D01*
X183182405Y-132670819D02*
X183277643Y-132670819D01*
X183277643Y-132670819D02*
X183372881Y-132718438D01*
X183372881Y-132718438D02*
X183420500Y-132766057D01*
X183420500Y-132766057D02*
X183468119Y-132861295D01*
X183468119Y-132861295D02*
X183515738Y-133051771D01*
X183515738Y-133051771D02*
X183515738Y-133289866D01*
X183515738Y-133289866D02*
X183468119Y-133480342D01*
X183468119Y-133480342D02*
X183420500Y-133575580D01*
X183420500Y-133575580D02*
X183372881Y-133623200D01*
X183372881Y-133623200D02*
X183277643Y-133670819D01*
X183277643Y-133670819D02*
X183182405Y-133670819D01*
X183182405Y-133670819D02*
X183087167Y-133623200D01*
X183087167Y-133623200D02*
X183039548Y-133575580D01*
X183039548Y-133575580D02*
X182991929Y-133480342D01*
X182991929Y-133480342D02*
X182944310Y-133289866D01*
X182944310Y-133289866D02*
X182944310Y-133051771D01*
X182944310Y-133051771D02*
X182991929Y-132861295D01*
X182991929Y-132861295D02*
X183039548Y-132766057D01*
X183039548Y-132766057D02*
X183087167Y-132718438D01*
X183087167Y-132718438D02*
X183182405Y-132670819D01*
X183991929Y-133623200D02*
X183991929Y-133670819D01*
X183991929Y-133670819D02*
X183944310Y-133766057D01*
X183944310Y-133766057D02*
X183896691Y-133813676D01*
X184325262Y-132670819D02*
X184991928Y-132670819D01*
X184991928Y-132670819D02*
X184563357Y-133670819D01*
X185515738Y-133099390D02*
X185420500Y-133051771D01*
X185420500Y-133051771D02*
X185372881Y-133004152D01*
X185372881Y-133004152D02*
X185325262Y-132908914D01*
X185325262Y-132908914D02*
X185325262Y-132861295D01*
X185325262Y-132861295D02*
X185372881Y-132766057D01*
X185372881Y-132766057D02*
X185420500Y-132718438D01*
X185420500Y-132718438D02*
X185515738Y-132670819D01*
X185515738Y-132670819D02*
X185706214Y-132670819D01*
X185706214Y-132670819D02*
X185801452Y-132718438D01*
X185801452Y-132718438D02*
X185849071Y-132766057D01*
X185849071Y-132766057D02*
X185896690Y-132861295D01*
X185896690Y-132861295D02*
X185896690Y-132908914D01*
X185896690Y-132908914D02*
X185849071Y-133004152D01*
X185849071Y-133004152D02*
X185801452Y-133051771D01*
X185801452Y-133051771D02*
X185706214Y-133099390D01*
X185706214Y-133099390D02*
X185515738Y-133099390D01*
X185515738Y-133099390D02*
X185420500Y-133147009D01*
X185420500Y-133147009D02*
X185372881Y-133194628D01*
X185372881Y-133194628D02*
X185325262Y-133289866D01*
X185325262Y-133289866D02*
X185325262Y-133480342D01*
X185325262Y-133480342D02*
X185372881Y-133575580D01*
X185372881Y-133575580D02*
X185420500Y-133623200D01*
X185420500Y-133623200D02*
X185515738Y-133670819D01*
X185515738Y-133670819D02*
X185706214Y-133670819D01*
X185706214Y-133670819D02*
X185801452Y-133623200D01*
X185801452Y-133623200D02*
X185849071Y-133575580D01*
X185849071Y-133575580D02*
X185896690Y-133480342D01*
X185896690Y-133480342D02*
X185896690Y-133289866D01*
X185896690Y-133289866D02*
X185849071Y-133194628D01*
X185849071Y-133194628D02*
X185801452Y-133147009D01*
X185801452Y-133147009D02*
X185706214Y-133099390D01*
X186849071Y-133670819D02*
X186277643Y-133670819D01*
X186563357Y-133670819D02*
X186563357Y-132670819D01*
X186563357Y-132670819D02*
X186468119Y-132813676D01*
X186468119Y-132813676D02*
X186372881Y-132908914D01*
X186372881Y-132908914D02*
X186277643Y-132956533D01*
D10*
X194811000Y-122979500D02*
X194811000Y-134952420D01*
X174030000Y-134952420D02*
X174030000Y-122979500D01*
X194811000Y-134366000D02*
X174030000Y-134366000D01*
X194811000Y-134366000D02*
X193684496Y-134952421D01*
X194811000Y-134366000D02*
X193684496Y-133779579D01*
X174030000Y-134366000D02*
X175156504Y-133779579D01*
X174030000Y-134366000D02*
X175156504Y-134952421D01*
D11*
X365858857Y9331181D02*
X365287429Y9331181D01*
X365573143Y9331181D02*
X365573143Y10331181D01*
X365573143Y10331181D02*
X365477905Y10188324D01*
X365477905Y10188324D02*
X365382667Y10093086D01*
X365382667Y10093086D02*
X365287429Y10045467D01*
X366192191Y10331181D02*
X366811238Y10331181D01*
X366811238Y10331181D02*
X366477905Y9950229D01*
X366477905Y9950229D02*
X366620762Y9950229D01*
X366620762Y9950229D02*
X366716000Y9902610D01*
X366716000Y9902610D02*
X366763619Y9854991D01*
X366763619Y9854991D02*
X366811238Y9759753D01*
X366811238Y9759753D02*
X366811238Y9521658D01*
X366811238Y9521658D02*
X366763619Y9426420D01*
X366763619Y9426420D02*
X366716000Y9378800D01*
X366716000Y9378800D02*
X366620762Y9331181D01*
X366620762Y9331181D02*
X366335048Y9331181D01*
X366335048Y9331181D02*
X366239810Y9378800D01*
X366239810Y9378800D02*
X366192191Y9426420D01*
X367287429Y9378800D02*
X367287429Y9331181D01*
X367287429Y9331181D02*
X367239810Y9235943D01*
X367239810Y9235943D02*
X367192191Y9188324D01*
X367858857Y9902610D02*
X367763619Y9950229D01*
X367763619Y9950229D02*
X367716000Y9997848D01*
X367716000Y9997848D02*
X367668381Y10093086D01*
X367668381Y10093086D02*
X367668381Y10140705D01*
X367668381Y10140705D02*
X367716000Y10235943D01*
X367716000Y10235943D02*
X367763619Y10283562D01*
X367763619Y10283562D02*
X367858857Y10331181D01*
X367858857Y10331181D02*
X368049333Y10331181D01*
X368049333Y10331181D02*
X368144571Y10283562D01*
X368144571Y10283562D02*
X368192190Y10235943D01*
X368192190Y10235943D02*
X368239809Y10140705D01*
X368239809Y10140705D02*
X368239809Y10093086D01*
X368239809Y10093086D02*
X368192190Y9997848D01*
X368192190Y9997848D02*
X368144571Y9950229D01*
X368144571Y9950229D02*
X368049333Y9902610D01*
X368049333Y9902610D02*
X367858857Y9902610D01*
X367858857Y9902610D02*
X367763619Y9854991D01*
X367763619Y9854991D02*
X367716000Y9807372D01*
X367716000Y9807372D02*
X367668381Y9712134D01*
X367668381Y9712134D02*
X367668381Y9521658D01*
X367668381Y9521658D02*
X367716000Y9426420D01*
X367716000Y9426420D02*
X367763619Y9378800D01*
X367763619Y9378800D02*
X367858857Y9331181D01*
X367858857Y9331181D02*
X368049333Y9331181D01*
X368049333Y9331181D02*
X368144571Y9378800D01*
X368144571Y9378800D02*
X368192190Y9426420D01*
X368192190Y9426420D02*
X368239809Y9521658D01*
X368239809Y9521658D02*
X368239809Y9712134D01*
X368239809Y9712134D02*
X368192190Y9807372D01*
X368192190Y9807372D02*
X368144571Y9854991D01*
X368144571Y9854991D02*
X368049333Y9902610D01*
X369096952Y10331181D02*
X368906476Y10331181D01*
X368906476Y10331181D02*
X368811238Y10283562D01*
X368811238Y10283562D02*
X368763619Y10235943D01*
X368763619Y10235943D02*
X368668381Y10093086D01*
X368668381Y10093086D02*
X368620762Y9902610D01*
X368620762Y9902610D02*
X368620762Y9521658D01*
X368620762Y9521658D02*
X368668381Y9426420D01*
X368668381Y9426420D02*
X368716000Y9378800D01*
X368716000Y9378800D02*
X368811238Y9331181D01*
X368811238Y9331181D02*
X369001714Y9331181D01*
X369001714Y9331181D02*
X369096952Y9378800D01*
X369096952Y9378800D02*
X369144571Y9426420D01*
X369144571Y9426420D02*
X369192190Y9521658D01*
X369192190Y9521658D02*
X369192190Y9759753D01*
X369192190Y9759753D02*
X369144571Y9854991D01*
X369144571Y9854991D02*
X369096952Y9902610D01*
X369096952Y9902610D02*
X369001714Y9950229D01*
X369001714Y9950229D02*
X368811238Y9950229D01*
X368811238Y9950229D02*
X368716000Y9902610D01*
X368716000Y9902610D02*
X368668381Y9854991D01*
X368668381Y9854991D02*
X368620762Y9759753D01*
X369763619Y9902610D02*
X369668381Y9950229D01*
X369668381Y9950229D02*
X369620762Y9997848D01*
X369620762Y9997848D02*
X369573143Y10093086D01*
X369573143Y10093086D02*
X369573143Y10140705D01*
X369573143Y10140705D02*
X369620762Y10235943D01*
X369620762Y10235943D02*
X369668381Y10283562D01*
X369668381Y10283562D02*
X369763619Y10331181D01*
X369763619Y10331181D02*
X369954095Y10331181D01*
X369954095Y10331181D02*
X370049333Y10283562D01*
X370049333Y10283562D02*
X370096952Y10235943D01*
X370096952Y10235943D02*
X370144571Y10140705D01*
X370144571Y10140705D02*
X370144571Y10093086D01*
X370144571Y10093086D02*
X370096952Y9997848D01*
X370096952Y9997848D02*
X370049333Y9950229D01*
X370049333Y9950229D02*
X369954095Y9902610D01*
X369954095Y9902610D02*
X369763619Y9902610D01*
X369763619Y9902610D02*
X369668381Y9854991D01*
X369668381Y9854991D02*
X369620762Y9807372D01*
X369620762Y9807372D02*
X369573143Y9712134D01*
X369573143Y9712134D02*
X369573143Y9521658D01*
X369573143Y9521658D02*
X369620762Y9426420D01*
X369620762Y9426420D02*
X369668381Y9378800D01*
X369668381Y9378800D02*
X369763619Y9331181D01*
X369763619Y9331181D02*
X369954095Y9331181D01*
X369954095Y9331181D02*
X370049333Y9378800D01*
X370049333Y9378800D02*
X370096952Y9426420D01*
X370096952Y9426420D02*
X370144571Y9521658D01*
X370144571Y9521658D02*
X370144571Y9712134D01*
X370144571Y9712134D02*
X370096952Y9807372D01*
X370096952Y9807372D02*
X370049333Y9854991D01*
X370049333Y9854991D02*
X369954095Y9902610D01*
D10*
X360782000Y1600000D02*
X360782000Y9222420D01*
X374650000Y9222420D02*
X374650000Y1600000D01*
X360782000Y8636000D02*
X374650000Y8636000D01*
X360782000Y8636000D02*
X361908504Y9222421D01*
X360782000Y8636000D02*
X361908504Y8049579D01*
X374650000Y8636000D02*
X373523496Y8049579D01*
X374650000Y8636000D02*
X373523496Y9222421D01*
D11*
X139261905Y-143180057D02*
X139309524Y-143132438D01*
X139309524Y-143132438D02*
X139404762Y-143084819D01*
X139404762Y-143084819D02*
X139642857Y-143084819D01*
X139642857Y-143084819D02*
X139738095Y-143132438D01*
X139738095Y-143132438D02*
X139785714Y-143180057D01*
X139785714Y-143180057D02*
X139833333Y-143275295D01*
X139833333Y-143275295D02*
X139833333Y-143370533D01*
X139833333Y-143370533D02*
X139785714Y-143513390D01*
X139785714Y-143513390D02*
X139214286Y-144084819D01*
X139214286Y-144084819D02*
X139833333Y-144084819D01*
X140404762Y-143513390D02*
X140309524Y-143465771D01*
X140309524Y-143465771D02*
X140261905Y-143418152D01*
X140261905Y-143418152D02*
X140214286Y-143322914D01*
X140214286Y-143322914D02*
X140214286Y-143275295D01*
X140214286Y-143275295D02*
X140261905Y-143180057D01*
X140261905Y-143180057D02*
X140309524Y-143132438D01*
X140309524Y-143132438D02*
X140404762Y-143084819D01*
X140404762Y-143084819D02*
X140595238Y-143084819D01*
X140595238Y-143084819D02*
X140690476Y-143132438D01*
X140690476Y-143132438D02*
X140738095Y-143180057D01*
X140738095Y-143180057D02*
X140785714Y-143275295D01*
X140785714Y-143275295D02*
X140785714Y-143322914D01*
X140785714Y-143322914D02*
X140738095Y-143418152D01*
X140738095Y-143418152D02*
X140690476Y-143465771D01*
X140690476Y-143465771D02*
X140595238Y-143513390D01*
X140595238Y-143513390D02*
X140404762Y-143513390D01*
X140404762Y-143513390D02*
X140309524Y-143561009D01*
X140309524Y-143561009D02*
X140261905Y-143608628D01*
X140261905Y-143608628D02*
X140214286Y-143703866D01*
X140214286Y-143703866D02*
X140214286Y-143894342D01*
X140214286Y-143894342D02*
X140261905Y-143989580D01*
X140261905Y-143989580D02*
X140309524Y-144037200D01*
X140309524Y-144037200D02*
X140404762Y-144084819D01*
X140404762Y-144084819D02*
X140595238Y-144084819D01*
X140595238Y-144084819D02*
X140690476Y-144037200D01*
X140690476Y-144037200D02*
X140738095Y-143989580D01*
X140738095Y-143989580D02*
X140785714Y-143894342D01*
X140785714Y-143894342D02*
X140785714Y-143703866D01*
X140785714Y-143703866D02*
X140738095Y-143608628D01*
X140738095Y-143608628D02*
X140690476Y-143561009D01*
X140690476Y-143561009D02*
X140595238Y-143513390D01*
X141738095Y-144084819D02*
X141166667Y-144084819D01*
X141452381Y-144084819D02*
X141452381Y-143084819D01*
X141452381Y-143084819D02*
X141357143Y-143227676D01*
X141357143Y-143227676D02*
X141261905Y-143322914D01*
X141261905Y-143322914D02*
X141166667Y-143370533D01*
D10*
X0Y-130500000D02*
X0Y-145366420D01*
X281000000Y-145366420D02*
X281000000Y-130500000D01*
X0Y-144780000D02*
X281000000Y-144780000D01*
X0Y-144780000D02*
X1126504Y-144193579D01*
X0Y-144780000D02*
X1126504Y-145366421D01*
X281000000Y-144780000D02*
X279873496Y-145366421D01*
X281000000Y-144780000D02*
X279873496Y-144193579D01*
D11*
X291908038Y-126724142D02*
X291908038Y-127295570D01*
X291908038Y-127009856D02*
X290908038Y-127009856D01*
X290908038Y-127009856D02*
X291050895Y-127105094D01*
X291050895Y-127105094D02*
X291146133Y-127200332D01*
X291146133Y-127200332D02*
X291193752Y-127295570D01*
X290908038Y-126105094D02*
X290908038Y-126009856D01*
X290908038Y-126009856D02*
X290955657Y-125914618D01*
X290955657Y-125914618D02*
X291003276Y-125866999D01*
X291003276Y-125866999D02*
X291098514Y-125819380D01*
X291098514Y-125819380D02*
X291288990Y-125771761D01*
X291288990Y-125771761D02*
X291527085Y-125771761D01*
X291527085Y-125771761D02*
X291717561Y-125819380D01*
X291717561Y-125819380D02*
X291812799Y-125866999D01*
X291812799Y-125866999D02*
X291860419Y-125914618D01*
X291860419Y-125914618D02*
X291908038Y-126009856D01*
X291908038Y-126009856D02*
X291908038Y-126105094D01*
X291908038Y-126105094D02*
X291860419Y-126200332D01*
X291860419Y-126200332D02*
X291812799Y-126247951D01*
X291812799Y-126247951D02*
X291717561Y-126295570D01*
X291717561Y-126295570D02*
X291527085Y-126343189D01*
X291527085Y-126343189D02*
X291288990Y-126343189D01*
X291288990Y-126343189D02*
X291098514Y-126295570D01*
X291098514Y-126295570D02*
X291003276Y-126247951D01*
X291003276Y-126247951D02*
X290955657Y-126200332D01*
X290955657Y-126200332D02*
X290908038Y-126105094D01*
X291860419Y-125295570D02*
X291908038Y-125295570D01*
X291908038Y-125295570D02*
X292003276Y-125343189D01*
X292003276Y-125343189D02*
X292050895Y-125390808D01*
X291003276Y-124914618D02*
X290955657Y-124866999D01*
X290955657Y-124866999D02*
X290908038Y-124771761D01*
X290908038Y-124771761D02*
X290908038Y-124533666D01*
X290908038Y-124533666D02*
X290955657Y-124438428D01*
X290955657Y-124438428D02*
X291003276Y-124390809D01*
X291003276Y-124390809D02*
X291098514Y-124343190D01*
X291098514Y-124343190D02*
X291193752Y-124343190D01*
X291193752Y-124343190D02*
X291336609Y-124390809D01*
X291336609Y-124390809D02*
X291908038Y-124962237D01*
X291908038Y-124962237D02*
X291908038Y-124343190D01*
X290908038Y-123486047D02*
X290908038Y-123676523D01*
X290908038Y-123676523D02*
X290955657Y-123771761D01*
X290955657Y-123771761D02*
X291003276Y-123819380D01*
X291003276Y-123819380D02*
X291146133Y-123914618D01*
X291146133Y-123914618D02*
X291336609Y-123962237D01*
X291336609Y-123962237D02*
X291717561Y-123962237D01*
X291717561Y-123962237D02*
X291812799Y-123914618D01*
X291812799Y-123914618D02*
X291860419Y-123866999D01*
X291860419Y-123866999D02*
X291908038Y-123771761D01*
X291908038Y-123771761D02*
X291908038Y-123581285D01*
X291908038Y-123581285D02*
X291860419Y-123486047D01*
X291860419Y-123486047D02*
X291812799Y-123438428D01*
X291812799Y-123438428D02*
X291717561Y-123390809D01*
X291717561Y-123390809D02*
X291479466Y-123390809D01*
X291479466Y-123390809D02*
X291384228Y-123438428D01*
X291384228Y-123438428D02*
X291336609Y-123486047D01*
X291336609Y-123486047D02*
X291288990Y-123581285D01*
X291288990Y-123581285D02*
X291288990Y-123771761D01*
X291288990Y-123771761D02*
X291336609Y-123866999D01*
X291336609Y-123866999D02*
X291384228Y-123914618D01*
X291384228Y-123914618D02*
X291479466Y-123962237D01*
X290908038Y-122533666D02*
X290908038Y-122724142D01*
X290908038Y-122724142D02*
X290955657Y-122819380D01*
X290955657Y-122819380D02*
X291003276Y-122866999D01*
X291003276Y-122866999D02*
X291146133Y-122962237D01*
X291146133Y-122962237D02*
X291336609Y-123009856D01*
X291336609Y-123009856D02*
X291717561Y-123009856D01*
X291717561Y-123009856D02*
X291812799Y-122962237D01*
X291812799Y-122962237D02*
X291860419Y-122914618D01*
X291860419Y-122914618D02*
X291908038Y-122819380D01*
X291908038Y-122819380D02*
X291908038Y-122628904D01*
X291908038Y-122628904D02*
X291860419Y-122533666D01*
X291860419Y-122533666D02*
X291812799Y-122486047D01*
X291812799Y-122486047D02*
X291717561Y-122438428D01*
X291717561Y-122438428D02*
X291479466Y-122438428D01*
X291479466Y-122438428D02*
X291384228Y-122486047D01*
X291384228Y-122486047D02*
X291336609Y-122533666D01*
X291336609Y-122533666D02*
X291288990Y-122628904D01*
X291288990Y-122628904D02*
X291288990Y-122819380D01*
X291288990Y-122819380D02*
X291336609Y-122914618D01*
X291336609Y-122914618D02*
X291384228Y-122962237D01*
X291384228Y-122962237D02*
X291479466Y-123009856D01*
D10*
X292603219Y-119734000D02*
X292603219Y-119734000D01*
X292016799Y-130000000D02*
X292138809Y-130000000D01*
X292603219Y-119734000D02*
X292603219Y-130000000D01*
X292603219Y-119734000D02*
X293189640Y-120860504D01*
X292603219Y-119734000D02*
X292016798Y-120860504D01*
X292603219Y-130000000D02*
X292016798Y-128873496D01*
X292603219Y-130000000D02*
X293189640Y-128873496D01*
D11*
X410097500Y-24974819D02*
X410764166Y-24974819D01*
X410764166Y-24974819D02*
X410335595Y-25974819D01*
X411192738Y-25927200D02*
X411192738Y-25974819D01*
X411192738Y-25974819D02*
X411145119Y-26070057D01*
X411145119Y-26070057D02*
X411097500Y-26117676D01*
X411764166Y-25403390D02*
X411668928Y-25355771D01*
X411668928Y-25355771D02*
X411621309Y-25308152D01*
X411621309Y-25308152D02*
X411573690Y-25212914D01*
X411573690Y-25212914D02*
X411573690Y-25165295D01*
X411573690Y-25165295D02*
X411621309Y-25070057D01*
X411621309Y-25070057D02*
X411668928Y-25022438D01*
X411668928Y-25022438D02*
X411764166Y-24974819D01*
X411764166Y-24974819D02*
X411954642Y-24974819D01*
X411954642Y-24974819D02*
X412049880Y-25022438D01*
X412049880Y-25022438D02*
X412097499Y-25070057D01*
X412097499Y-25070057D02*
X412145118Y-25165295D01*
X412145118Y-25165295D02*
X412145118Y-25212914D01*
X412145118Y-25212914D02*
X412097499Y-25308152D01*
X412097499Y-25308152D02*
X412049880Y-25355771D01*
X412049880Y-25355771D02*
X411954642Y-25403390D01*
X411954642Y-25403390D02*
X411764166Y-25403390D01*
X411764166Y-25403390D02*
X411668928Y-25451009D01*
X411668928Y-25451009D02*
X411621309Y-25498628D01*
X411621309Y-25498628D02*
X411573690Y-25593866D01*
X411573690Y-25593866D02*
X411573690Y-25784342D01*
X411573690Y-25784342D02*
X411621309Y-25879580D01*
X411621309Y-25879580D02*
X411668928Y-25927200D01*
X411668928Y-25927200D02*
X411764166Y-25974819D01*
X411764166Y-25974819D02*
X411954642Y-25974819D01*
X411954642Y-25974819D02*
X412049880Y-25927200D01*
X412049880Y-25927200D02*
X412097499Y-25879580D01*
X412097499Y-25879580D02*
X412145118Y-25784342D01*
X412145118Y-25784342D02*
X412145118Y-25593866D01*
X412145118Y-25593866D02*
X412097499Y-25498628D01*
X412097499Y-25498628D02*
X412049880Y-25451009D01*
X412049880Y-25451009D02*
X411954642Y-25403390D01*
X412764166Y-24974819D02*
X412859404Y-24974819D01*
X412859404Y-24974819D02*
X412954642Y-25022438D01*
X412954642Y-25022438D02*
X413002261Y-25070057D01*
X413002261Y-25070057D02*
X413049880Y-25165295D01*
X413049880Y-25165295D02*
X413097499Y-25355771D01*
X413097499Y-25355771D02*
X413097499Y-25593866D01*
X413097499Y-25593866D02*
X413049880Y-25784342D01*
X413049880Y-25784342D02*
X413002261Y-25879580D01*
X413002261Y-25879580D02*
X412954642Y-25927200D01*
X412954642Y-25927200D02*
X412859404Y-25974819D01*
X412859404Y-25974819D02*
X412764166Y-25974819D01*
X412764166Y-25974819D02*
X412668928Y-25927200D01*
X412668928Y-25927200D02*
X412621309Y-25879580D01*
X412621309Y-25879580D02*
X412573690Y-25784342D01*
X412573690Y-25784342D02*
X412526071Y-25593866D01*
X412526071Y-25593866D02*
X412526071Y-25355771D01*
X412526071Y-25355771D02*
X412573690Y-25165295D01*
X412573690Y-25165295D02*
X412621309Y-25070057D01*
X412621309Y-25070057D02*
X412668928Y-25022438D01*
X412668928Y-25022438D02*
X412764166Y-24974819D01*
X414002261Y-24974819D02*
X413526071Y-24974819D01*
X413526071Y-24974819D02*
X413478452Y-25451009D01*
X413478452Y-25451009D02*
X413526071Y-25403390D01*
X413526071Y-25403390D02*
X413621309Y-25355771D01*
X413621309Y-25355771D02*
X413859404Y-25355771D01*
X413859404Y-25355771D02*
X413954642Y-25403390D01*
X413954642Y-25403390D02*
X414002261Y-25451009D01*
X414002261Y-25451009D02*
X414049880Y-25546247D01*
X414049880Y-25546247D02*
X414049880Y-25784342D01*
X414049880Y-25784342D02*
X414002261Y-25879580D01*
X414002261Y-25879580D02*
X413954642Y-25927200D01*
X413954642Y-25927200D02*
X413859404Y-25974819D01*
X413859404Y-25974819D02*
X413621309Y-25974819D01*
X413621309Y-25974819D02*
X413526071Y-25927200D01*
X413526071Y-25927200D02*
X413478452Y-25879580D01*
D10*
X408195000Y-32180000D02*
X408195000Y-26083580D01*
X416000000Y-26083580D02*
X416000000Y-26735739D01*
X408195000Y-26670000D02*
X416000000Y-26670000D01*
X408195000Y-26670000D02*
X409321504Y-26083579D01*
X408195000Y-26670000D02*
X409321504Y-27256421D01*
X416000000Y-26670000D02*
X414873496Y-27256421D01*
X416000000Y-26670000D02*
X414873496Y-26083579D01*
D11*
X285950819Y-10516642D02*
X285950819Y-11088070D01*
X285950819Y-10802356D02*
X284950819Y-10802356D01*
X284950819Y-10802356D02*
X285093676Y-10897594D01*
X285093676Y-10897594D02*
X285188914Y-10992832D01*
X285188914Y-10992832D02*
X285236533Y-11088070D01*
X284950819Y-10183308D02*
X284950819Y-9516642D01*
X284950819Y-9516642D02*
X285950819Y-9945213D01*
X285903200Y-9088070D02*
X285950819Y-9088070D01*
X285950819Y-9088070D02*
X286046057Y-9135689D01*
X286046057Y-9135689D02*
X286093676Y-9183308D01*
X284950819Y-8754737D02*
X284950819Y-8135690D01*
X284950819Y-8135690D02*
X285331771Y-8469023D01*
X285331771Y-8469023D02*
X285331771Y-8326166D01*
X285331771Y-8326166D02*
X285379390Y-8230928D01*
X285379390Y-8230928D02*
X285427009Y-8183309D01*
X285427009Y-8183309D02*
X285522247Y-8135690D01*
X285522247Y-8135690D02*
X285760342Y-8135690D01*
X285760342Y-8135690D02*
X285855580Y-8183309D01*
X285855580Y-8183309D02*
X285903200Y-8230928D01*
X285903200Y-8230928D02*
X285950819Y-8326166D01*
X285950819Y-8326166D02*
X285950819Y-8611880D01*
X285950819Y-8611880D02*
X285903200Y-8707118D01*
X285903200Y-8707118D02*
X285855580Y-8754737D01*
X285950819Y-7183309D02*
X285950819Y-7754737D01*
X285950819Y-7469023D02*
X284950819Y-7469023D01*
X284950819Y-7469023D02*
X285093676Y-7564261D01*
X285093676Y-7564261D02*
X285188914Y-7659499D01*
X285188914Y-7659499D02*
X285236533Y-7754737D01*
X285950819Y-6707118D02*
X285950819Y-6516642D01*
X285950819Y-6516642D02*
X285903200Y-6421404D01*
X285903200Y-6421404D02*
X285855580Y-6373785D01*
X285855580Y-6373785D02*
X285712723Y-6278547D01*
X285712723Y-6278547D02*
X285522247Y-6230928D01*
X285522247Y-6230928D02*
X285141295Y-6230928D01*
X285141295Y-6230928D02*
X285046057Y-6278547D01*
X285046057Y-6278547D02*
X284998438Y-6326166D01*
X284998438Y-6326166D02*
X284950819Y-6421404D01*
X284950819Y-6421404D02*
X284950819Y-6611880D01*
X284950819Y-6611880D02*
X284998438Y-6707118D01*
X284998438Y-6707118D02*
X285046057Y-6754737D01*
X285046057Y-6754737D02*
X285141295Y-6802356D01*
X285141295Y-6802356D02*
X285379390Y-6802356D01*
X285379390Y-6802356D02*
X285474628Y-6754737D01*
X285474628Y-6754737D02*
X285522247Y-6707118D01*
X285522247Y-6707118D02*
X285569866Y-6611880D01*
X285569866Y-6611880D02*
X285569866Y-6421404D01*
X285569866Y-6421404D02*
X285522247Y-6326166D01*
X285522247Y-6326166D02*
X285474628Y-6278547D01*
X285474628Y-6278547D02*
X285379390Y-6230928D01*
D10*
X286646000Y-17319000D02*
X286646000Y-17319000D01*
X286646000Y0D02*
X286646000Y0D01*
X286646000Y-17319000D02*
X286646000Y0D01*
X286646000Y-17319000D02*
X286059579Y-16192496D01*
X286646000Y-17319000D02*
X287232421Y-16192496D01*
X286646000Y0D02*
X287232421Y-1126504D01*
X286646000Y0D02*
X286059579Y-1126504D01*
D11*
X-8823181Y-65666666D02*
X-8823181Y-66238094D01*
X-8823181Y-65952380D02*
X-9823181Y-65952380D01*
X-9823181Y-65952380D02*
X-9680324Y-66047618D01*
X-9680324Y-66047618D02*
X-9585086Y-66142856D01*
X-9585086Y-66142856D02*
X-9537467Y-66238094D01*
X-9823181Y-65333332D02*
X-9823181Y-64714285D01*
X-9823181Y-64714285D02*
X-9442229Y-65047618D01*
X-9442229Y-65047618D02*
X-9442229Y-64904761D01*
X-9442229Y-64904761D02*
X-9394610Y-64809523D01*
X-9394610Y-64809523D02*
X-9346991Y-64761904D01*
X-9346991Y-64761904D02*
X-9251753Y-64714285D01*
X-9251753Y-64714285D02*
X-9013658Y-64714285D01*
X-9013658Y-64714285D02*
X-8918420Y-64761904D01*
X-8918420Y-64761904D02*
X-8870800Y-64809523D01*
X-8870800Y-64809523D02*
X-8823181Y-64904761D01*
X-8823181Y-64904761D02*
X-8823181Y-65190475D01*
X-8823181Y-65190475D02*
X-8870800Y-65285713D01*
X-8870800Y-65285713D02*
X-8918420Y-65333332D01*
X-9823181Y-64095237D02*
X-9823181Y-63999999D01*
X-9823181Y-63999999D02*
X-9775562Y-63904761D01*
X-9775562Y-63904761D02*
X-9727943Y-63857142D01*
X-9727943Y-63857142D02*
X-9632705Y-63809523D01*
X-9632705Y-63809523D02*
X-9442229Y-63761904D01*
X-9442229Y-63761904D02*
X-9204134Y-63761904D01*
X-9204134Y-63761904D02*
X-9013658Y-63809523D01*
X-9013658Y-63809523D02*
X-8918420Y-63857142D01*
X-8918420Y-63857142D02*
X-8870800Y-63904761D01*
X-8870800Y-63904761D02*
X-8823181Y-63999999D01*
X-8823181Y-63999999D02*
X-8823181Y-64095237D01*
X-8823181Y-64095237D02*
X-8870800Y-64190475D01*
X-8870800Y-64190475D02*
X-8918420Y-64238094D01*
X-8918420Y-64238094D02*
X-9013658Y-64285713D01*
X-9013658Y-64285713D02*
X-9204134Y-64333332D01*
X-9204134Y-64333332D02*
X-9442229Y-64333332D01*
X-9442229Y-64333332D02*
X-9632705Y-64285713D01*
X-9632705Y-64285713D02*
X-9727943Y-64238094D01*
X-9727943Y-64238094D02*
X-9775562Y-64190475D01*
X-9775562Y-64190475D02*
X-9823181Y-64095237D01*
D10*
X-500000Y0D02*
X-8714420Y0D01*
X-8714420Y-130000000D02*
X-500000Y-130000000D01*
X-8128000Y0D02*
X-8128000Y-130000000D01*
X-8128000Y0D02*
X-7541579Y-1126504D01*
X-8128000Y0D02*
X-8714421Y-1126504D01*
X-8128000Y-130000000D02*
X-8714421Y-128873496D01*
X-8128000Y-130000000D02*
X-7541579Y-128873496D01*
D11*
X52507666Y5521181D02*
X51936238Y5521181D01*
X52221952Y5521181D02*
X52221952Y6521181D01*
X52221952Y6521181D02*
X52126714Y6378324D01*
X52126714Y6378324D02*
X52031476Y6283086D01*
X52031476Y6283086D02*
X51936238Y6235467D01*
X53126714Y6521181D02*
X53221952Y6521181D01*
X53221952Y6521181D02*
X53317190Y6473562D01*
X53317190Y6473562D02*
X53364809Y6425943D01*
X53364809Y6425943D02*
X53412428Y6330705D01*
X53412428Y6330705D02*
X53460047Y6140229D01*
X53460047Y6140229D02*
X53460047Y5902134D01*
X53460047Y5902134D02*
X53412428Y5711658D01*
X53412428Y5711658D02*
X53364809Y5616420D01*
X53364809Y5616420D02*
X53317190Y5568800D01*
X53317190Y5568800D02*
X53221952Y5521181D01*
X53221952Y5521181D02*
X53126714Y5521181D01*
X53126714Y5521181D02*
X53031476Y5568800D01*
X53031476Y5568800D02*
X52983857Y5616420D01*
X52983857Y5616420D02*
X52936238Y5711658D01*
X52936238Y5711658D02*
X52888619Y5902134D01*
X52888619Y5902134D02*
X52888619Y6140229D01*
X52888619Y6140229D02*
X52936238Y6330705D01*
X52936238Y6330705D02*
X52983857Y6425943D01*
X52983857Y6425943D02*
X53031476Y6473562D01*
X53031476Y6473562D02*
X53126714Y6521181D01*
X53936238Y5521181D02*
X54126714Y5521181D01*
X54126714Y5521181D02*
X54221952Y5568800D01*
X54221952Y5568800D02*
X54269571Y5616420D01*
X54269571Y5616420D02*
X54364809Y5759277D01*
X54364809Y5759277D02*
X54412428Y5949753D01*
X54412428Y5949753D02*
X54412428Y6330705D01*
X54412428Y6330705D02*
X54364809Y6425943D01*
X54364809Y6425943D02*
X54317190Y6473562D01*
X54317190Y6473562D02*
X54221952Y6521181D01*
X54221952Y6521181D02*
X54031476Y6521181D01*
X54031476Y6521181D02*
X53936238Y6473562D01*
X53936238Y6473562D02*
X53888619Y6425943D01*
X53888619Y6425943D02*
X53841000Y6330705D01*
X53841000Y6330705D02*
X53841000Y6092610D01*
X53841000Y6092610D02*
X53888619Y5997372D01*
X53888619Y5997372D02*
X53936238Y5949753D01*
X53936238Y5949753D02*
X54031476Y5902134D01*
X54031476Y5902134D02*
X54221952Y5902134D01*
X54221952Y5902134D02*
X54317190Y5949753D01*
X54317190Y5949753D02*
X54364809Y5997372D01*
X54364809Y5997372D02*
X54412428Y6092610D01*
X54888619Y5568800D02*
X54888619Y5521181D01*
X54888619Y5521181D02*
X54841000Y5425943D01*
X54841000Y5425943D02*
X54793381Y5378324D01*
X55745761Y6521181D02*
X55555285Y6521181D01*
X55555285Y6521181D02*
X55460047Y6473562D01*
X55460047Y6473562D02*
X55412428Y6425943D01*
X55412428Y6425943D02*
X55317190Y6283086D01*
X55317190Y6283086D02*
X55269571Y6092610D01*
X55269571Y6092610D02*
X55269571Y5711658D01*
X55269571Y5711658D02*
X55317190Y5616420D01*
X55317190Y5616420D02*
X55364809Y5568800D01*
X55364809Y5568800D02*
X55460047Y5521181D01*
X55460047Y5521181D02*
X55650523Y5521181D01*
X55650523Y5521181D02*
X55745761Y5568800D01*
X55745761Y5568800D02*
X55793380Y5616420D01*
X55793380Y5616420D02*
X55840999Y5711658D01*
X55840999Y5711658D02*
X55840999Y5949753D01*
X55840999Y5949753D02*
X55793380Y6044991D01*
X55793380Y6044991D02*
X55745761Y6092610D01*
X55745761Y6092610D02*
X55650523Y6140229D01*
X55650523Y6140229D02*
X55460047Y6140229D01*
X55460047Y6140229D02*
X55364809Y6092610D01*
X55364809Y6092610D02*
X55317190Y6044991D01*
X55317190Y6044991D02*
X55269571Y5949753D01*
X56412428Y6092610D02*
X56317190Y6140229D01*
X56317190Y6140229D02*
X56269571Y6187848D01*
X56269571Y6187848D02*
X56221952Y6283086D01*
X56221952Y6283086D02*
X56221952Y6330705D01*
X56221952Y6330705D02*
X56269571Y6425943D01*
X56269571Y6425943D02*
X56317190Y6473562D01*
X56317190Y6473562D02*
X56412428Y6521181D01*
X56412428Y6521181D02*
X56602904Y6521181D01*
X56602904Y6521181D02*
X56698142Y6473562D01*
X56698142Y6473562D02*
X56745761Y6425943D01*
X56745761Y6425943D02*
X56793380Y6330705D01*
X56793380Y6330705D02*
X56793380Y6283086D01*
X56793380Y6283086D02*
X56745761Y6187848D01*
X56745761Y6187848D02*
X56698142Y6140229D01*
X56698142Y6140229D02*
X56602904Y6092610D01*
X56602904Y6092610D02*
X56412428Y6092610D01*
X56412428Y6092610D02*
X56317190Y6044991D01*
X56317190Y6044991D02*
X56269571Y5997372D01*
X56269571Y5997372D02*
X56221952Y5902134D01*
X56221952Y5902134D02*
X56221952Y5711658D01*
X56221952Y5711658D02*
X56269571Y5616420D01*
X56269571Y5616420D02*
X56317190Y5568800D01*
X56317190Y5568800D02*
X56412428Y5521181D01*
X56412428Y5521181D02*
X56602904Y5521181D01*
X56602904Y5521181D02*
X56698142Y5568800D01*
X56698142Y5568800D02*
X56745761Y5616420D01*
X56745761Y5616420D02*
X56793380Y5711658D01*
X56793380Y5711658D02*
X56793380Y5902134D01*
X56793380Y5902134D02*
X56745761Y5997372D01*
X56745761Y5997372D02*
X56698142Y6044991D01*
X56698142Y6044991D02*
X56602904Y6092610D01*
X57174333Y6425943D02*
X57221952Y6473562D01*
X57221952Y6473562D02*
X57317190Y6521181D01*
X57317190Y6521181D02*
X57555285Y6521181D01*
X57555285Y6521181D02*
X57650523Y6473562D01*
X57650523Y6473562D02*
X57698142Y6425943D01*
X57698142Y6425943D02*
X57745761Y6330705D01*
X57745761Y6330705D02*
X57745761Y6235467D01*
X57745761Y6235467D02*
X57698142Y6092610D01*
X57698142Y6092610D02*
X57126714Y5521181D01*
X57126714Y5521181D02*
X57745761Y5521181D01*
D10*
X109682000Y198000D02*
X109682000Y5412420D01*
X0Y5412420D02*
X0Y198000D01*
X109682000Y4826000D02*
X0Y4826000D01*
X109682000Y4826000D02*
X108555496Y4239579D01*
X109682000Y4826000D02*
X108555496Y5412421D01*
X0Y4826000D02*
X1126504Y5412421D01*
X0Y4826000D02*
X1126504Y4239579D01*
D11*
X322877857Y9331181D02*
X322306429Y9331181D01*
X322592143Y9331181D02*
X322592143Y10331181D01*
X322592143Y10331181D02*
X322496905Y10188324D01*
X322496905Y10188324D02*
X322401667Y10093086D01*
X322401667Y10093086D02*
X322306429Y10045467D01*
X323258810Y10235943D02*
X323306429Y10283562D01*
X323306429Y10283562D02*
X323401667Y10331181D01*
X323401667Y10331181D02*
X323639762Y10331181D01*
X323639762Y10331181D02*
X323735000Y10283562D01*
X323735000Y10283562D02*
X323782619Y10235943D01*
X323782619Y10235943D02*
X323830238Y10140705D01*
X323830238Y10140705D02*
X323830238Y10045467D01*
X323830238Y10045467D02*
X323782619Y9902610D01*
X323782619Y9902610D02*
X323211191Y9331181D01*
X323211191Y9331181D02*
X323830238Y9331181D01*
X324306429Y9378800D02*
X324306429Y9331181D01*
X324306429Y9331181D02*
X324258810Y9235943D01*
X324258810Y9235943D02*
X324211191Y9188324D01*
X325163571Y10331181D02*
X324973095Y10331181D01*
X324973095Y10331181D02*
X324877857Y10283562D01*
X324877857Y10283562D02*
X324830238Y10235943D01*
X324830238Y10235943D02*
X324735000Y10093086D01*
X324735000Y10093086D02*
X324687381Y9902610D01*
X324687381Y9902610D02*
X324687381Y9521658D01*
X324687381Y9521658D02*
X324735000Y9426420D01*
X324735000Y9426420D02*
X324782619Y9378800D01*
X324782619Y9378800D02*
X324877857Y9331181D01*
X324877857Y9331181D02*
X325068333Y9331181D01*
X325068333Y9331181D02*
X325163571Y9378800D01*
X325163571Y9378800D02*
X325211190Y9426420D01*
X325211190Y9426420D02*
X325258809Y9521658D01*
X325258809Y9521658D02*
X325258809Y9759753D01*
X325258809Y9759753D02*
X325211190Y9854991D01*
X325211190Y9854991D02*
X325163571Y9902610D01*
X325163571Y9902610D02*
X325068333Y9950229D01*
X325068333Y9950229D02*
X324877857Y9950229D01*
X324877857Y9950229D02*
X324782619Y9902610D01*
X324782619Y9902610D02*
X324735000Y9854991D01*
X324735000Y9854991D02*
X324687381Y9759753D01*
X326163571Y10331181D02*
X325687381Y10331181D01*
X325687381Y10331181D02*
X325639762Y9854991D01*
X325639762Y9854991D02*
X325687381Y9902610D01*
X325687381Y9902610D02*
X325782619Y9950229D01*
X325782619Y9950229D02*
X326020714Y9950229D01*
X326020714Y9950229D02*
X326115952Y9902610D01*
X326115952Y9902610D02*
X326163571Y9854991D01*
X326163571Y9854991D02*
X326211190Y9759753D01*
X326211190Y9759753D02*
X326211190Y9521658D01*
X326211190Y9521658D02*
X326163571Y9426420D01*
X326163571Y9426420D02*
X326115952Y9378800D01*
X326115952Y9378800D02*
X326020714Y9331181D01*
X326020714Y9331181D02*
X325782619Y9331181D01*
X325782619Y9331181D02*
X325687381Y9378800D01*
X325687381Y9378800D02*
X325639762Y9426420D01*
X326782619Y9902610D02*
X326687381Y9950229D01*
X326687381Y9950229D02*
X326639762Y9997848D01*
X326639762Y9997848D02*
X326592143Y10093086D01*
X326592143Y10093086D02*
X326592143Y10140705D01*
X326592143Y10140705D02*
X326639762Y10235943D01*
X326639762Y10235943D02*
X326687381Y10283562D01*
X326687381Y10283562D02*
X326782619Y10331181D01*
X326782619Y10331181D02*
X326973095Y10331181D01*
X326973095Y10331181D02*
X327068333Y10283562D01*
X327068333Y10283562D02*
X327115952Y10235943D01*
X327115952Y10235943D02*
X327163571Y10140705D01*
X327163571Y10140705D02*
X327163571Y10093086D01*
X327163571Y10093086D02*
X327115952Y9997848D01*
X327115952Y9997848D02*
X327068333Y9950229D01*
X327068333Y9950229D02*
X326973095Y9902610D01*
X326973095Y9902610D02*
X326782619Y9902610D01*
X326782619Y9902610D02*
X326687381Y9854991D01*
X326687381Y9854991D02*
X326639762Y9807372D01*
X326639762Y9807372D02*
X326592143Y9712134D01*
X326592143Y9712134D02*
X326592143Y9521658D01*
X326592143Y9521658D02*
X326639762Y9426420D01*
X326639762Y9426420D02*
X326687381Y9378800D01*
X326687381Y9378800D02*
X326782619Y9331181D01*
X326782619Y9331181D02*
X326973095Y9331181D01*
X326973095Y9331181D02*
X327068333Y9378800D01*
X327068333Y9378800D02*
X327115952Y9426420D01*
X327115952Y9426420D02*
X327163571Y9521658D01*
X327163571Y9521658D02*
X327163571Y9712134D01*
X327163571Y9712134D02*
X327115952Y9807372D01*
X327115952Y9807372D02*
X327068333Y9854991D01*
X327068333Y9854991D02*
X326973095Y9902610D01*
D10*
X331064000Y1500000D02*
X331064000Y9222420D01*
X318406000Y9222420D02*
X318406000Y-406000D01*
X331064000Y8636000D02*
X318406000Y8636000D01*
X331064000Y8636000D02*
X329937496Y8049579D01*
X331064000Y8636000D02*
X329937496Y9222421D01*
X318406000Y8636000D02*
X319532504Y9222421D01*
X318406000Y8636000D02*
X319532504Y8049579D01*
D11*
X122875429Y-132766057D02*
X122923048Y-132718438D01*
X122923048Y-132718438D02*
X123018286Y-132670819D01*
X123018286Y-132670819D02*
X123256381Y-132670819D01*
X123256381Y-132670819D02*
X123351619Y-132718438D01*
X123351619Y-132718438D02*
X123399238Y-132766057D01*
X123399238Y-132766057D02*
X123446857Y-132861295D01*
X123446857Y-132861295D02*
X123446857Y-132956533D01*
X123446857Y-132956533D02*
X123399238Y-133099390D01*
X123399238Y-133099390D02*
X122827810Y-133670819D01*
X122827810Y-133670819D02*
X123446857Y-133670819D01*
X123827810Y-132766057D02*
X123875429Y-132718438D01*
X123875429Y-132718438D02*
X123970667Y-132670819D01*
X123970667Y-132670819D02*
X124208762Y-132670819D01*
X124208762Y-132670819D02*
X124304000Y-132718438D01*
X124304000Y-132718438D02*
X124351619Y-132766057D01*
X124351619Y-132766057D02*
X124399238Y-132861295D01*
X124399238Y-132861295D02*
X124399238Y-132956533D01*
X124399238Y-132956533D02*
X124351619Y-133099390D01*
X124351619Y-133099390D02*
X123780191Y-133670819D01*
X123780191Y-133670819D02*
X124399238Y-133670819D01*
X124875429Y-133623200D02*
X124875429Y-133670819D01*
X124875429Y-133670819D02*
X124827810Y-133766057D01*
X124827810Y-133766057D02*
X124780191Y-133813676D01*
X125208762Y-132670819D02*
X125827809Y-132670819D01*
X125827809Y-132670819D02*
X125494476Y-133051771D01*
X125494476Y-133051771D02*
X125637333Y-133051771D01*
X125637333Y-133051771D02*
X125732571Y-133099390D01*
X125732571Y-133099390D02*
X125780190Y-133147009D01*
X125780190Y-133147009D02*
X125827809Y-133242247D01*
X125827809Y-133242247D02*
X125827809Y-133480342D01*
X125827809Y-133480342D02*
X125780190Y-133575580D01*
X125780190Y-133575580D02*
X125732571Y-133623200D01*
X125732571Y-133623200D02*
X125637333Y-133670819D01*
X125637333Y-133670819D02*
X125351619Y-133670819D01*
X125351619Y-133670819D02*
X125256381Y-133623200D01*
X125256381Y-133623200D02*
X125208762Y-133575580D01*
X126208762Y-132766057D02*
X126256381Y-132718438D01*
X126256381Y-132718438D02*
X126351619Y-132670819D01*
X126351619Y-132670819D02*
X126589714Y-132670819D01*
X126589714Y-132670819D02*
X126684952Y-132718438D01*
X126684952Y-132718438D02*
X126732571Y-132766057D01*
X126732571Y-132766057D02*
X126780190Y-132861295D01*
X126780190Y-132861295D02*
X126780190Y-132956533D01*
X126780190Y-132956533D02*
X126732571Y-133099390D01*
X126732571Y-133099390D02*
X126161143Y-133670819D01*
X126161143Y-133670819D02*
X126780190Y-133670819D01*
X127637333Y-133004152D02*
X127637333Y-133670819D01*
X127399238Y-132623200D02*
X127161143Y-133337485D01*
X127161143Y-133337485D02*
X127780190Y-133337485D01*
D10*
X114142000Y-130214500D02*
X114142000Y-134952420D01*
X136466000Y-134952420D02*
X136466000Y-130214500D01*
X114142000Y-134366000D02*
X136466000Y-134366000D01*
X114142000Y-134366000D02*
X115268504Y-133779579D01*
X114142000Y-134366000D02*
X115268504Y-134952421D01*
X136466000Y-134366000D02*
X135339496Y-134952421D01*
X136466000Y-134366000D02*
X135339496Y-133779579D01*
D11*
X5194857Y-116144819D02*
X4623429Y-116144819D01*
X4909143Y-116144819D02*
X4909143Y-115144819D01*
X4909143Y-115144819D02*
X4813905Y-115287676D01*
X4813905Y-115287676D02*
X4718667Y-115382914D01*
X4718667Y-115382914D02*
X4623429Y-115430533D01*
X6052000Y-115478152D02*
X6052000Y-116144819D01*
X5813905Y-115097200D02*
X5575810Y-115811485D01*
X5575810Y-115811485D02*
X6194857Y-115811485D01*
X6623429Y-116097200D02*
X6623429Y-116144819D01*
X6623429Y-116144819D02*
X6575810Y-116240057D01*
X6575810Y-116240057D02*
X6528191Y-116287676D01*
X7575809Y-116144819D02*
X7004381Y-116144819D01*
X7290095Y-116144819D02*
X7290095Y-115144819D01*
X7290095Y-115144819D02*
X7194857Y-115287676D01*
X7194857Y-115287676D02*
X7099619Y-115382914D01*
X7099619Y-115382914D02*
X7004381Y-115430533D01*
X8194857Y-115144819D02*
X8290095Y-115144819D01*
X8290095Y-115144819D02*
X8385333Y-115192438D01*
X8385333Y-115192438D02*
X8432952Y-115240057D01*
X8432952Y-115240057D02*
X8480571Y-115335295D01*
X8480571Y-115335295D02*
X8528190Y-115525771D01*
X8528190Y-115525771D02*
X8528190Y-115763866D01*
X8528190Y-115763866D02*
X8480571Y-115954342D01*
X8480571Y-115954342D02*
X8432952Y-116049580D01*
X8432952Y-116049580D02*
X8385333Y-116097200D01*
X8385333Y-116097200D02*
X8290095Y-116144819D01*
X8290095Y-116144819D02*
X8194857Y-116144819D01*
X8194857Y-116144819D02*
X8099619Y-116097200D01*
X8099619Y-116097200D02*
X8052000Y-116049580D01*
X8052000Y-116049580D02*
X8004381Y-115954342D01*
X8004381Y-115954342D02*
X7956762Y-115763866D01*
X7956762Y-115763866D02*
X7956762Y-115525771D01*
X7956762Y-115525771D02*
X8004381Y-115335295D01*
X8004381Y-115335295D02*
X8052000Y-115240057D01*
X8052000Y-115240057D02*
X8099619Y-115192438D01*
X8099619Y-115192438D02*
X8194857Y-115144819D01*
X9385333Y-115478152D02*
X9385333Y-116144819D01*
X9147238Y-115097200D02*
X8909143Y-115811485D01*
X8909143Y-115811485D02*
X9528190Y-115811485D01*
D10*
X14104000Y-120141000D02*
X14104000Y-116253580D01*
X0Y-117426420D02*
X0Y-117335209D01*
X14104000Y-116840000D02*
X0Y-116840000D01*
X14104000Y-116840000D02*
X12977496Y-117426421D01*
X14104000Y-116840000D02*
X12977496Y-116253579D01*
X0Y-116840000D02*
X1126504Y-116253579D01*
X0Y-116840000D02*
X1126504Y-117426421D01*
D11*
X418928819Y-30238808D02*
X418928819Y-29572142D01*
X418928819Y-29572142D02*
X419928819Y-30000713D01*
X419881200Y-29143570D02*
X419928819Y-29143570D01*
X419928819Y-29143570D02*
X420024057Y-29191189D01*
X420024057Y-29191189D02*
X420071676Y-29238808D01*
X419928819Y-28667380D02*
X419928819Y-28476904D01*
X419928819Y-28476904D02*
X419881200Y-28381666D01*
X419881200Y-28381666D02*
X419833580Y-28334047D01*
X419833580Y-28334047D02*
X419690723Y-28238809D01*
X419690723Y-28238809D02*
X419500247Y-28191190D01*
X419500247Y-28191190D02*
X419119295Y-28191190D01*
X419119295Y-28191190D02*
X419024057Y-28238809D01*
X419024057Y-28238809D02*
X418976438Y-28286428D01*
X418976438Y-28286428D02*
X418928819Y-28381666D01*
X418928819Y-28381666D02*
X418928819Y-28572142D01*
X418928819Y-28572142D02*
X418976438Y-28667380D01*
X418976438Y-28667380D02*
X419024057Y-28714999D01*
X419024057Y-28714999D02*
X419119295Y-28762618D01*
X419119295Y-28762618D02*
X419357390Y-28762618D01*
X419357390Y-28762618D02*
X419452628Y-28714999D01*
X419452628Y-28714999D02*
X419500247Y-28667380D01*
X419500247Y-28667380D02*
X419547866Y-28572142D01*
X419547866Y-28572142D02*
X419547866Y-28381666D01*
X419547866Y-28381666D02*
X419500247Y-28286428D01*
X419500247Y-28286428D02*
X419452628Y-28238809D01*
X419452628Y-28238809D02*
X419357390Y-28191190D01*
X418928819Y-27857856D02*
X418928819Y-27238809D01*
X418928819Y-27238809D02*
X419309771Y-27572142D01*
X419309771Y-27572142D02*
X419309771Y-27429285D01*
X419309771Y-27429285D02*
X419357390Y-27334047D01*
X419357390Y-27334047D02*
X419405009Y-27286428D01*
X419405009Y-27286428D02*
X419500247Y-27238809D01*
X419500247Y-27238809D02*
X419738342Y-27238809D01*
X419738342Y-27238809D02*
X419833580Y-27286428D01*
X419833580Y-27286428D02*
X419881200Y-27334047D01*
X419881200Y-27334047D02*
X419928819Y-27429285D01*
X419928819Y-27429285D02*
X419928819Y-27714999D01*
X419928819Y-27714999D02*
X419881200Y-27810237D01*
X419881200Y-27810237D02*
X419833580Y-27857856D01*
D10*
X410695000Y-32680000D02*
X421210420Y-32680000D01*
X421210420Y-24750000D02*
X416500000Y-24750000D01*
X420624000Y-32680000D02*
X420624000Y-24750000D01*
X420624000Y-32680000D02*
X420037579Y-31553496D01*
X420624000Y-32680000D02*
X421210421Y-31553496D01*
X420624000Y-24750000D02*
X421210421Y-25876504D01*
X420624000Y-24750000D02*
X420037579Y-25876504D01*
D11*
X325844819Y-5270285D02*
X325844819Y-5175047D01*
X325844819Y-5175047D02*
X325892438Y-5079809D01*
X325892438Y-5079809D02*
X325940057Y-5032190D01*
X325940057Y-5032190D02*
X326035295Y-4984571D01*
X326035295Y-4984571D02*
X326225771Y-4936952D01*
X326225771Y-4936952D02*
X326463866Y-4936952D01*
X326463866Y-4936952D02*
X326654342Y-4984571D01*
X326654342Y-4984571D02*
X326749580Y-5032190D01*
X326749580Y-5032190D02*
X326797200Y-5079809D01*
X326797200Y-5079809D02*
X326844819Y-5175047D01*
X326844819Y-5175047D02*
X326844819Y-5270285D01*
X326844819Y-5270285D02*
X326797200Y-5365523D01*
X326797200Y-5365523D02*
X326749580Y-5413142D01*
X326749580Y-5413142D02*
X326654342Y-5460761D01*
X326654342Y-5460761D02*
X326463866Y-5508380D01*
X326463866Y-5508380D02*
X326225771Y-5508380D01*
X326225771Y-5508380D02*
X326035295Y-5460761D01*
X326035295Y-5460761D02*
X325940057Y-5413142D01*
X325940057Y-5413142D02*
X325892438Y-5365523D01*
X325892438Y-5365523D02*
X325844819Y-5270285D01*
X326797200Y-4460761D02*
X326844819Y-4460761D01*
X326844819Y-4460761D02*
X326940057Y-4508380D01*
X326940057Y-4508380D02*
X326987676Y-4555999D01*
X326844819Y-3984571D02*
X326844819Y-3794095D01*
X326844819Y-3794095D02*
X326797200Y-3698857D01*
X326797200Y-3698857D02*
X326749580Y-3651238D01*
X326749580Y-3651238D02*
X326606723Y-3556000D01*
X326606723Y-3556000D02*
X326416247Y-3508381D01*
X326416247Y-3508381D02*
X326035295Y-3508381D01*
X326035295Y-3508381D02*
X325940057Y-3556000D01*
X325940057Y-3556000D02*
X325892438Y-3603619D01*
X325892438Y-3603619D02*
X325844819Y-3698857D01*
X325844819Y-3698857D02*
X325844819Y-3889333D01*
X325844819Y-3889333D02*
X325892438Y-3984571D01*
X325892438Y-3984571D02*
X325940057Y-4032190D01*
X325940057Y-4032190D02*
X326035295Y-4079809D01*
X326035295Y-4079809D02*
X326273390Y-4079809D01*
X326273390Y-4079809D02*
X326368628Y-4032190D01*
X326368628Y-4032190D02*
X326416247Y-3984571D01*
X326416247Y-3984571D02*
X326463866Y-3889333D01*
X326463866Y-3889333D02*
X326463866Y-3698857D01*
X326463866Y-3698857D02*
X326416247Y-3603619D01*
X326416247Y-3603619D02*
X326368628Y-3556000D01*
X326368628Y-3556000D02*
X326273390Y-3508381D01*
X325844819Y-2889333D02*
X325844819Y-2794095D01*
X325844819Y-2794095D02*
X325892438Y-2698857D01*
X325892438Y-2698857D02*
X325940057Y-2651238D01*
X325940057Y-2651238D02*
X326035295Y-2603619D01*
X326035295Y-2603619D02*
X326225771Y-2556000D01*
X326225771Y-2556000D02*
X326463866Y-2556000D01*
X326463866Y-2556000D02*
X326654342Y-2603619D01*
X326654342Y-2603619D02*
X326749580Y-2651238D01*
X326749580Y-2651238D02*
X326797200Y-2698857D01*
X326797200Y-2698857D02*
X326844819Y-2794095D01*
X326844819Y-2794095D02*
X326844819Y-2889333D01*
X326844819Y-2889333D02*
X326797200Y-2984571D01*
X326797200Y-2984571D02*
X326749580Y-3032190D01*
X326749580Y-3032190D02*
X326654342Y-3079809D01*
X326654342Y-3079809D02*
X326463866Y-3127428D01*
X326463866Y-3127428D02*
X326225771Y-3127428D01*
X326225771Y-3127428D02*
X326035295Y-3079809D01*
X326035295Y-3079809D02*
X325940057Y-3032190D01*
X325940057Y-3032190D02*
X325892438Y-2984571D01*
X325892438Y-2984571D02*
X325844819Y-2889333D01*
X325844819Y-1698857D02*
X325844819Y-1889333D01*
X325844819Y-1889333D02*
X325892438Y-1984571D01*
X325892438Y-1984571D02*
X325940057Y-2032190D01*
X325940057Y-2032190D02*
X326082914Y-2127428D01*
X326082914Y-2127428D02*
X326273390Y-2175047D01*
X326273390Y-2175047D02*
X326654342Y-2175047D01*
X326654342Y-2175047D02*
X326749580Y-2127428D01*
X326749580Y-2127428D02*
X326797200Y-2079809D01*
X326797200Y-2079809D02*
X326844819Y-1984571D01*
X326844819Y-1984571D02*
X326844819Y-1794095D01*
X326844819Y-1794095D02*
X326797200Y-1698857D01*
X326797200Y-1698857D02*
X326749580Y-1651238D01*
X326749580Y-1651238D02*
X326654342Y-1603619D01*
X326654342Y-1603619D02*
X326416247Y-1603619D01*
X326416247Y-1603619D02*
X326321009Y-1651238D01*
X326321009Y-1651238D02*
X326273390Y-1698857D01*
X326273390Y-1698857D02*
X326225771Y-1794095D01*
X326225771Y-1794095D02*
X326225771Y-1984571D01*
X326225771Y-1984571D02*
X326273390Y-2079809D01*
X326273390Y-2079809D02*
X326321009Y-2127428D01*
X326321009Y-2127428D02*
X326416247Y-2175047D01*
D10*
X321666000Y-906000D02*
X327230420Y-906000D01*
X327230420Y0D02*
X321666000Y0D01*
X326644000Y-788143D02*
X326644000Y0D01*
X326644000Y-906000D02*
X326057579Y220504D01*
X326644000Y-906000D02*
X327230421Y220504D01*
X326644000Y0D02*
X327230421Y-1126504D01*
X326644000Y0D02*
X326057579Y-1126504D01*
D11*
X345731576Y-135702819D02*
X345160148Y-135702819D01*
X345445862Y-135702819D02*
X345445862Y-134702819D01*
X345445862Y-134702819D02*
X345350624Y-134845676D01*
X345350624Y-134845676D02*
X345255386Y-134940914D01*
X345255386Y-134940914D02*
X345160148Y-134988533D01*
X346064910Y-134702819D02*
X346683957Y-134702819D01*
X346683957Y-134702819D02*
X346350624Y-135083771D01*
X346350624Y-135083771D02*
X346493481Y-135083771D01*
X346493481Y-135083771D02*
X346588719Y-135131390D01*
X346588719Y-135131390D02*
X346636338Y-135179009D01*
X346636338Y-135179009D02*
X346683957Y-135274247D01*
X346683957Y-135274247D02*
X346683957Y-135512342D01*
X346683957Y-135512342D02*
X346636338Y-135607580D01*
X346636338Y-135607580D02*
X346588719Y-135655200D01*
X346588719Y-135655200D02*
X346493481Y-135702819D01*
X346493481Y-135702819D02*
X346207767Y-135702819D01*
X346207767Y-135702819D02*
X346112529Y-135655200D01*
X346112529Y-135655200D02*
X346064910Y-135607580D01*
X347541100Y-135036152D02*
X347541100Y-135702819D01*
X347303005Y-134655200D02*
X347064910Y-135369485D01*
X347064910Y-135369485D02*
X347683957Y-135369485D01*
X348112529Y-135655200D02*
X348112529Y-135702819D01*
X348112529Y-135702819D02*
X348064910Y-135798057D01*
X348064910Y-135798057D02*
X348017291Y-135845676D01*
X348588719Y-135702819D02*
X348779195Y-135702819D01*
X348779195Y-135702819D02*
X348874433Y-135655200D01*
X348874433Y-135655200D02*
X348922052Y-135607580D01*
X348922052Y-135607580D02*
X349017290Y-135464723D01*
X349017290Y-135464723D02*
X349064909Y-135274247D01*
X349064909Y-135274247D02*
X349064909Y-134893295D01*
X349064909Y-134893295D02*
X349017290Y-134798057D01*
X349017290Y-134798057D02*
X348969671Y-134750438D01*
X348969671Y-134750438D02*
X348874433Y-134702819D01*
X348874433Y-134702819D02*
X348683957Y-134702819D01*
X348683957Y-134702819D02*
X348588719Y-134750438D01*
X348588719Y-134750438D02*
X348541100Y-134798057D01*
X348541100Y-134798057D02*
X348493481Y-134893295D01*
X348493481Y-134893295D02*
X348493481Y-135131390D01*
X348493481Y-135131390D02*
X348541100Y-135226628D01*
X348541100Y-135226628D02*
X348588719Y-135274247D01*
X348588719Y-135274247D02*
X348683957Y-135321866D01*
X348683957Y-135321866D02*
X348874433Y-135321866D01*
X348874433Y-135321866D02*
X348969671Y-135274247D01*
X348969671Y-135274247D02*
X349017290Y-135226628D01*
X349017290Y-135226628D02*
X349064909Y-135131390D01*
X350017290Y-135702819D02*
X349445862Y-135702819D01*
X349731576Y-135702819D02*
X349731576Y-134702819D01*
X349731576Y-134702819D02*
X349636338Y-134845676D01*
X349636338Y-134845676D02*
X349541100Y-134940914D01*
X349541100Y-134940914D02*
X349445862Y-134988533D01*
X350350624Y-134702819D02*
X351017290Y-134702819D01*
X351017290Y-134702819D02*
X350588719Y-135702819D01*
X351541100Y-135131390D02*
X351445862Y-135083771D01*
X351445862Y-135083771D02*
X351398243Y-135036152D01*
X351398243Y-135036152D02*
X351350624Y-134940914D01*
X351350624Y-134940914D02*
X351350624Y-134893295D01*
X351350624Y-134893295D02*
X351398243Y-134798057D01*
X351398243Y-134798057D02*
X351445862Y-134750438D01*
X351445862Y-134750438D02*
X351541100Y-134702819D01*
X351541100Y-134702819D02*
X351731576Y-134702819D01*
X351731576Y-134702819D02*
X351826814Y-134750438D01*
X351826814Y-134750438D02*
X351874433Y-134798057D01*
X351874433Y-134798057D02*
X351922052Y-134893295D01*
X351922052Y-134893295D02*
X351922052Y-134940914D01*
X351922052Y-134940914D02*
X351874433Y-135036152D01*
X351874433Y-135036152D02*
X351826814Y-135083771D01*
X351826814Y-135083771D02*
X351731576Y-135131390D01*
X351731576Y-135131390D02*
X351541100Y-135131390D01*
X351541100Y-135131390D02*
X351445862Y-135179009D01*
X351445862Y-135179009D02*
X351398243Y-135226628D01*
X351398243Y-135226628D02*
X351350624Y-135321866D01*
X351350624Y-135321866D02*
X351350624Y-135512342D01*
X351350624Y-135512342D02*
X351398243Y-135607580D01*
X351398243Y-135607580D02*
X351445862Y-135655200D01*
X351445862Y-135655200D02*
X351541100Y-135702819D01*
X351541100Y-135702819D02*
X351731576Y-135702819D01*
X351731576Y-135702819D02*
X351826814Y-135655200D01*
X351826814Y-135655200D02*
X351874433Y-135607580D01*
X351874433Y-135607580D02*
X351922052Y-135512342D01*
X351922052Y-135512342D02*
X351922052Y-135321866D01*
X351922052Y-135321866D02*
X351874433Y-135226628D01*
X351874433Y-135226628D02*
X351826814Y-135179009D01*
X351826814Y-135179009D02*
X351731576Y-135131390D01*
D10*
X281082199Y-130500000D02*
X281082199Y-136984420D01*
X416000000Y-136984420D02*
X416000000Y-130500000D01*
X281082199Y-136398000D02*
X416000000Y-136398000D01*
X281082199Y-136398000D02*
X282208703Y-135811579D01*
X281082199Y-136398000D02*
X282208703Y-136984421D01*
X416000000Y-136398000D02*
X414873496Y-136984421D01*
X416000000Y-136398000D02*
X414873496Y-135811579D01*
D11*
X28518810Y-115144819D02*
X29137857Y-115144819D01*
X29137857Y-115144819D02*
X28804524Y-115525771D01*
X28804524Y-115525771D02*
X28947381Y-115525771D01*
X28947381Y-115525771D02*
X29042619Y-115573390D01*
X29042619Y-115573390D02*
X29090238Y-115621009D01*
X29090238Y-115621009D02*
X29137857Y-115716247D01*
X29137857Y-115716247D02*
X29137857Y-115954342D01*
X29137857Y-115954342D02*
X29090238Y-116049580D01*
X29090238Y-116049580D02*
X29042619Y-116097200D01*
X29042619Y-116097200D02*
X28947381Y-116144819D01*
X28947381Y-116144819D02*
X28661667Y-116144819D01*
X28661667Y-116144819D02*
X28566429Y-116097200D01*
X28566429Y-116097200D02*
X28518810Y-116049580D01*
X29471191Y-115144819D02*
X30090238Y-115144819D01*
X30090238Y-115144819D02*
X29756905Y-115525771D01*
X29756905Y-115525771D02*
X29899762Y-115525771D01*
X29899762Y-115525771D02*
X29995000Y-115573390D01*
X29995000Y-115573390D02*
X30042619Y-115621009D01*
X30042619Y-115621009D02*
X30090238Y-115716247D01*
X30090238Y-115716247D02*
X30090238Y-115954342D01*
X30090238Y-115954342D02*
X30042619Y-116049580D01*
X30042619Y-116049580D02*
X29995000Y-116097200D01*
X29995000Y-116097200D02*
X29899762Y-116144819D01*
X29899762Y-116144819D02*
X29614048Y-116144819D01*
X29614048Y-116144819D02*
X29518810Y-116097200D01*
X29518810Y-116097200D02*
X29471191Y-116049580D01*
X30566429Y-116097200D02*
X30566429Y-116144819D01*
X30566429Y-116144819D02*
X30518810Y-116240057D01*
X30518810Y-116240057D02*
X30471191Y-116287676D01*
X30899762Y-115144819D02*
X31566428Y-115144819D01*
X31566428Y-115144819D02*
X31137857Y-116144819D01*
X32090238Y-115573390D02*
X31995000Y-115525771D01*
X31995000Y-115525771D02*
X31947381Y-115478152D01*
X31947381Y-115478152D02*
X31899762Y-115382914D01*
X31899762Y-115382914D02*
X31899762Y-115335295D01*
X31899762Y-115335295D02*
X31947381Y-115240057D01*
X31947381Y-115240057D02*
X31995000Y-115192438D01*
X31995000Y-115192438D02*
X32090238Y-115144819D01*
X32090238Y-115144819D02*
X32280714Y-115144819D01*
X32280714Y-115144819D02*
X32375952Y-115192438D01*
X32375952Y-115192438D02*
X32423571Y-115240057D01*
X32423571Y-115240057D02*
X32471190Y-115335295D01*
X32471190Y-115335295D02*
X32471190Y-115382914D01*
X32471190Y-115382914D02*
X32423571Y-115478152D01*
X32423571Y-115478152D02*
X32375952Y-115525771D01*
X32375952Y-115525771D02*
X32280714Y-115573390D01*
X32280714Y-115573390D02*
X32090238Y-115573390D01*
X32090238Y-115573390D02*
X31995000Y-115621009D01*
X31995000Y-115621009D02*
X31947381Y-115668628D01*
X31947381Y-115668628D02*
X31899762Y-115763866D01*
X31899762Y-115763866D02*
X31899762Y-115954342D01*
X31899762Y-115954342D02*
X31947381Y-116049580D01*
X31947381Y-116049580D02*
X31995000Y-116097200D01*
X31995000Y-116097200D02*
X32090238Y-116144819D01*
X32090238Y-116144819D02*
X32280714Y-116144819D01*
X32280714Y-116144819D02*
X32375952Y-116097200D01*
X32375952Y-116097200D02*
X32423571Y-116049580D01*
X32423571Y-116049580D02*
X32471190Y-115954342D01*
X32471190Y-115954342D02*
X32471190Y-115763866D01*
X32471190Y-115763866D02*
X32423571Y-115668628D01*
X32423571Y-115668628D02*
X32375952Y-115621009D01*
X32375952Y-115621009D02*
X32280714Y-115573390D01*
X32852143Y-115240057D02*
X32899762Y-115192438D01*
X32899762Y-115192438D02*
X32995000Y-115144819D01*
X32995000Y-115144819D02*
X33233095Y-115144819D01*
X33233095Y-115144819D02*
X33328333Y-115192438D01*
X33328333Y-115192438D02*
X33375952Y-115240057D01*
X33375952Y-115240057D02*
X33423571Y-115335295D01*
X33423571Y-115335295D02*
X33423571Y-115430533D01*
X33423571Y-115430533D02*
X33375952Y-115573390D01*
X33375952Y-115573390D02*
X32804524Y-116144819D01*
X32804524Y-116144819D02*
X33423571Y-116144819D01*
D10*
X14104000Y-120141000D02*
X14104000Y-116253580D01*
X47886000Y-116253580D02*
X47886000Y-120141000D01*
X14104000Y-116840000D02*
X47886000Y-116840000D01*
X14104000Y-116840000D02*
X15230504Y-116253579D01*
X14104000Y-116840000D02*
X15230504Y-117426421D01*
X47886000Y-116840000D02*
X46759496Y-117426421D01*
X47886000Y-116840000D02*
X46759496Y-116253579D01*
D11*
X161060429Y-132766057D02*
X161108048Y-132718438D01*
X161108048Y-132718438D02*
X161203286Y-132670819D01*
X161203286Y-132670819D02*
X161441381Y-132670819D01*
X161441381Y-132670819D02*
X161536619Y-132718438D01*
X161536619Y-132718438D02*
X161584238Y-132766057D01*
X161584238Y-132766057D02*
X161631857Y-132861295D01*
X161631857Y-132861295D02*
X161631857Y-132956533D01*
X161631857Y-132956533D02*
X161584238Y-133099390D01*
X161584238Y-133099390D02*
X161012810Y-133670819D01*
X161012810Y-133670819D02*
X161631857Y-133670819D01*
X162584238Y-133670819D02*
X162012810Y-133670819D01*
X162298524Y-133670819D02*
X162298524Y-132670819D01*
X162298524Y-132670819D02*
X162203286Y-132813676D01*
X162203286Y-132813676D02*
X162108048Y-132908914D01*
X162108048Y-132908914D02*
X162012810Y-132956533D01*
X163060429Y-133623200D02*
X163060429Y-133670819D01*
X163060429Y-133670819D02*
X163012810Y-133766057D01*
X163012810Y-133766057D02*
X162965191Y-133813676D01*
X163679476Y-132670819D02*
X163774714Y-132670819D01*
X163774714Y-132670819D02*
X163869952Y-132718438D01*
X163869952Y-132718438D02*
X163917571Y-132766057D01*
X163917571Y-132766057D02*
X163965190Y-132861295D01*
X163965190Y-132861295D02*
X164012809Y-133051771D01*
X164012809Y-133051771D02*
X164012809Y-133289866D01*
X164012809Y-133289866D02*
X163965190Y-133480342D01*
X163965190Y-133480342D02*
X163917571Y-133575580D01*
X163917571Y-133575580D02*
X163869952Y-133623200D01*
X163869952Y-133623200D02*
X163774714Y-133670819D01*
X163774714Y-133670819D02*
X163679476Y-133670819D01*
X163679476Y-133670819D02*
X163584238Y-133623200D01*
X163584238Y-133623200D02*
X163536619Y-133575580D01*
X163536619Y-133575580D02*
X163489000Y-133480342D01*
X163489000Y-133480342D02*
X163441381Y-133289866D01*
X163441381Y-133289866D02*
X163441381Y-133051771D01*
X163441381Y-133051771D02*
X163489000Y-132861295D01*
X163489000Y-132861295D02*
X163536619Y-132766057D01*
X163536619Y-132766057D02*
X163584238Y-132718438D01*
X163584238Y-132718438D02*
X163679476Y-132670819D01*
X164584238Y-133099390D02*
X164489000Y-133051771D01*
X164489000Y-133051771D02*
X164441381Y-133004152D01*
X164441381Y-133004152D02*
X164393762Y-132908914D01*
X164393762Y-132908914D02*
X164393762Y-132861295D01*
X164393762Y-132861295D02*
X164441381Y-132766057D01*
X164441381Y-132766057D02*
X164489000Y-132718438D01*
X164489000Y-132718438D02*
X164584238Y-132670819D01*
X164584238Y-132670819D02*
X164774714Y-132670819D01*
X164774714Y-132670819D02*
X164869952Y-132718438D01*
X164869952Y-132718438D02*
X164917571Y-132766057D01*
X164917571Y-132766057D02*
X164965190Y-132861295D01*
X164965190Y-132861295D02*
X164965190Y-132908914D01*
X164965190Y-132908914D02*
X164917571Y-133004152D01*
X164917571Y-133004152D02*
X164869952Y-133051771D01*
X164869952Y-133051771D02*
X164774714Y-133099390D01*
X164774714Y-133099390D02*
X164584238Y-133099390D01*
X164584238Y-133099390D02*
X164489000Y-133147009D01*
X164489000Y-133147009D02*
X164441381Y-133194628D01*
X164441381Y-133194628D02*
X164393762Y-133289866D01*
X164393762Y-133289866D02*
X164393762Y-133480342D01*
X164393762Y-133480342D02*
X164441381Y-133575580D01*
X164441381Y-133575580D02*
X164489000Y-133623200D01*
X164489000Y-133623200D02*
X164584238Y-133670819D01*
X164584238Y-133670819D02*
X164774714Y-133670819D01*
X164774714Y-133670819D02*
X164869952Y-133623200D01*
X164869952Y-133623200D02*
X164917571Y-133575580D01*
X164917571Y-133575580D02*
X164965190Y-133480342D01*
X164965190Y-133480342D02*
X164965190Y-133289866D01*
X164965190Y-133289866D02*
X164917571Y-133194628D01*
X164917571Y-133194628D02*
X164869952Y-133147009D01*
X164869952Y-133147009D02*
X164774714Y-133099390D01*
X165346143Y-132766057D02*
X165393762Y-132718438D01*
X165393762Y-132718438D02*
X165489000Y-132670819D01*
X165489000Y-132670819D02*
X165727095Y-132670819D01*
X165727095Y-132670819D02*
X165822333Y-132718438D01*
X165822333Y-132718438D02*
X165869952Y-132766057D01*
X165869952Y-132766057D02*
X165917571Y-132861295D01*
X165917571Y-132861295D02*
X165917571Y-132956533D01*
X165917571Y-132956533D02*
X165869952Y-133099390D01*
X165869952Y-133099390D02*
X165298524Y-133670819D01*
X165298524Y-133670819D02*
X165917571Y-133670819D01*
D10*
X174030000Y-130246000D02*
X174030000Y-134952420D01*
X152948000Y-134952420D02*
X152948000Y-130246000D01*
X174030000Y-134366000D02*
X152948000Y-134366000D01*
X174030000Y-134366000D02*
X172903496Y-134952421D01*
X174030000Y-134366000D02*
X172903496Y-133779579D01*
X152948000Y-134366000D02*
X154074504Y-133779579D01*
X152948000Y-134366000D02*
X154074504Y-134952421D01*
D11*
X418928819Y-74589999D02*
X418928819Y-73923333D01*
X418928819Y-73923333D02*
X419928819Y-74351904D01*
X419928819Y-73494761D02*
X419928819Y-73304285D01*
X419928819Y-73304285D02*
X419881200Y-73209047D01*
X419881200Y-73209047D02*
X419833580Y-73161428D01*
X419833580Y-73161428D02*
X419690723Y-73066190D01*
X419690723Y-73066190D02*
X419500247Y-73018571D01*
X419500247Y-73018571D02*
X419119295Y-73018571D01*
X419119295Y-73018571D02*
X419024057Y-73066190D01*
X419024057Y-73066190D02*
X418976438Y-73113809D01*
X418976438Y-73113809D02*
X418928819Y-73209047D01*
X418928819Y-73209047D02*
X418928819Y-73399523D01*
X418928819Y-73399523D02*
X418976438Y-73494761D01*
X418976438Y-73494761D02*
X419024057Y-73542380D01*
X419024057Y-73542380D02*
X419119295Y-73589999D01*
X419119295Y-73589999D02*
X419357390Y-73589999D01*
X419357390Y-73589999D02*
X419452628Y-73542380D01*
X419452628Y-73542380D02*
X419500247Y-73494761D01*
X419500247Y-73494761D02*
X419547866Y-73399523D01*
X419547866Y-73399523D02*
X419547866Y-73209047D01*
X419547866Y-73209047D02*
X419500247Y-73113809D01*
X419500247Y-73113809D02*
X419452628Y-73066190D01*
X419452628Y-73066190D02*
X419357390Y-73018571D01*
X419881200Y-72542380D02*
X419928819Y-72542380D01*
X419928819Y-72542380D02*
X420024057Y-72589999D01*
X420024057Y-72589999D02*
X420071676Y-72637618D01*
X419357390Y-71970952D02*
X419309771Y-72066190D01*
X419309771Y-72066190D02*
X419262152Y-72113809D01*
X419262152Y-72113809D02*
X419166914Y-72161428D01*
X419166914Y-72161428D02*
X419119295Y-72161428D01*
X419119295Y-72161428D02*
X419024057Y-72113809D01*
X419024057Y-72113809D02*
X418976438Y-72066190D01*
X418976438Y-72066190D02*
X418928819Y-71970952D01*
X418928819Y-71970952D02*
X418928819Y-71780476D01*
X418928819Y-71780476D02*
X418976438Y-71685238D01*
X418976438Y-71685238D02*
X419024057Y-71637619D01*
X419024057Y-71637619D02*
X419119295Y-71590000D01*
X419119295Y-71590000D02*
X419166914Y-71590000D01*
X419166914Y-71590000D02*
X419262152Y-71637619D01*
X419262152Y-71637619D02*
X419309771Y-71685238D01*
X419309771Y-71685238D02*
X419357390Y-71780476D01*
X419357390Y-71780476D02*
X419357390Y-71970952D01*
X419357390Y-71970952D02*
X419405009Y-72066190D01*
X419405009Y-72066190D02*
X419452628Y-72113809D01*
X419452628Y-72113809D02*
X419547866Y-72161428D01*
X419547866Y-72161428D02*
X419738342Y-72161428D01*
X419738342Y-72161428D02*
X419833580Y-72113809D01*
X419833580Y-72113809D02*
X419881200Y-72066190D01*
X419881200Y-72066190D02*
X419928819Y-71970952D01*
X419928819Y-71970952D02*
X419928819Y-71780476D01*
X419928819Y-71780476D02*
X419881200Y-71685238D01*
X419881200Y-71685238D02*
X419833580Y-71637619D01*
X419833580Y-71637619D02*
X419738342Y-71590000D01*
X419738342Y-71590000D02*
X419547866Y-71590000D01*
X419547866Y-71590000D02*
X419452628Y-71637619D01*
X419452628Y-71637619D02*
X419405009Y-71685238D01*
X419405009Y-71685238D02*
X419357390Y-71780476D01*
X419024057Y-71209047D02*
X418976438Y-71161428D01*
X418976438Y-71161428D02*
X418928819Y-71066190D01*
X418928819Y-71066190D02*
X418928819Y-70828095D01*
X418928819Y-70828095D02*
X418976438Y-70732857D01*
X418976438Y-70732857D02*
X419024057Y-70685238D01*
X419024057Y-70685238D02*
X419119295Y-70637619D01*
X419119295Y-70637619D02*
X419214533Y-70637619D01*
X419214533Y-70637619D02*
X419357390Y-70685238D01*
X419357390Y-70685238D02*
X419928819Y-71256666D01*
X419928819Y-71256666D02*
X419928819Y-70637619D01*
D10*
X408695000Y-32680000D02*
X421210420Y-32680000D01*
X421210420Y-112500000D02*
X408695000Y-112500000D01*
X420624000Y-32680000D02*
X420624000Y-112500000D01*
X420624000Y-32680000D02*
X421210421Y-33806504D01*
X420624000Y-32680000D02*
X420037579Y-33806504D01*
X420624000Y-112500000D02*
X420037579Y-111373496D01*
X420624000Y-112500000D02*
X421210421Y-111373496D01*
D11*
X6374857Y-5137894D02*
X5803429Y-5137894D01*
X6089143Y-5137894D02*
X6089143Y-4137894D01*
X6089143Y-4137894D02*
X5993905Y-4280751D01*
X5993905Y-4280751D02*
X5898667Y-4375989D01*
X5898667Y-4375989D02*
X5803429Y-4423608D01*
X7232000Y-4137894D02*
X7041524Y-4137894D01*
X7041524Y-4137894D02*
X6946286Y-4185513D01*
X6946286Y-4185513D02*
X6898667Y-4233132D01*
X6898667Y-4233132D02*
X6803429Y-4375989D01*
X6803429Y-4375989D02*
X6755810Y-4566465D01*
X6755810Y-4566465D02*
X6755810Y-4947417D01*
X6755810Y-4947417D02*
X6803429Y-5042655D01*
X6803429Y-5042655D02*
X6851048Y-5090275D01*
X6851048Y-5090275D02*
X6946286Y-5137894D01*
X6946286Y-5137894D02*
X7136762Y-5137894D01*
X7136762Y-5137894D02*
X7232000Y-5090275D01*
X7232000Y-5090275D02*
X7279619Y-5042655D01*
X7279619Y-5042655D02*
X7327238Y-4947417D01*
X7327238Y-4947417D02*
X7327238Y-4709322D01*
X7327238Y-4709322D02*
X7279619Y-4614084D01*
X7279619Y-4614084D02*
X7232000Y-4566465D01*
X7232000Y-4566465D02*
X7136762Y-4518846D01*
X7136762Y-4518846D02*
X6946286Y-4518846D01*
X6946286Y-4518846D02*
X6851048Y-4566465D01*
X6851048Y-4566465D02*
X6803429Y-4614084D01*
X6803429Y-4614084D02*
X6755810Y-4709322D01*
X7803429Y-5090275D02*
X7803429Y-5137894D01*
X7803429Y-5137894D02*
X7755810Y-5233132D01*
X7755810Y-5233132D02*
X7708191Y-5280751D01*
X8660571Y-4471227D02*
X8660571Y-5137894D01*
X8422476Y-4090275D02*
X8184381Y-4804560D01*
X8184381Y-4804560D02*
X8803428Y-4804560D01*
X9612952Y-4137894D02*
X9422476Y-4137894D01*
X9422476Y-4137894D02*
X9327238Y-4185513D01*
X9327238Y-4185513D02*
X9279619Y-4233132D01*
X9279619Y-4233132D02*
X9184381Y-4375989D01*
X9184381Y-4375989D02*
X9136762Y-4566465D01*
X9136762Y-4566465D02*
X9136762Y-4947417D01*
X9136762Y-4947417D02*
X9184381Y-5042655D01*
X9184381Y-5042655D02*
X9232000Y-5090275D01*
X9232000Y-5090275D02*
X9327238Y-5137894D01*
X9327238Y-5137894D02*
X9517714Y-5137894D01*
X9517714Y-5137894D02*
X9612952Y-5090275D01*
X9612952Y-5090275D02*
X9660571Y-5042655D01*
X9660571Y-5042655D02*
X9708190Y-4947417D01*
X9708190Y-4947417D02*
X9708190Y-4709322D01*
X9708190Y-4709322D02*
X9660571Y-4614084D01*
X9660571Y-4614084D02*
X9612952Y-4566465D01*
X9612952Y-4566465D02*
X9517714Y-4518846D01*
X9517714Y-4518846D02*
X9327238Y-4518846D01*
X9327238Y-4518846D02*
X9232000Y-4566465D01*
X9232000Y-4566465D02*
X9184381Y-4614084D01*
X9184381Y-4614084D02*
X9136762Y-4709322D01*
X10565333Y-4471227D02*
X10565333Y-5137894D01*
X10327238Y-4090275D02*
X10089143Y-4804560D01*
X10089143Y-4804560D02*
X10708190Y-4804560D01*
D10*
X0Y-5833075D02*
X0Y-5833075D01*
X16464000Y-5833075D02*
X16464000Y-5833075D01*
X0Y-5833075D02*
X16464000Y-5833075D01*
X0Y-5833075D02*
X1126504Y-5246654D01*
X0Y-5833075D02*
X1126504Y-6419496D01*
X16464000Y-5833075D02*
X15337496Y-6419496D01*
X16464000Y-5833075D02*
X15337496Y-5246654D01*
D11*
X348846310Y6521181D02*
X349512976Y6521181D01*
X349512976Y6521181D02*
X349084405Y5521181D01*
X349798691Y6521181D02*
X350465357Y6521181D01*
X350465357Y6521181D02*
X350036786Y5521181D01*
X350893929Y5568800D02*
X350893929Y5521181D01*
X350893929Y5521181D02*
X350846310Y5425943D01*
X350846310Y5425943D02*
X350798691Y5378324D01*
X351465357Y6092610D02*
X351370119Y6140229D01*
X351370119Y6140229D02*
X351322500Y6187848D01*
X351322500Y6187848D02*
X351274881Y6283086D01*
X351274881Y6283086D02*
X351274881Y6330705D01*
X351274881Y6330705D02*
X351322500Y6425943D01*
X351322500Y6425943D02*
X351370119Y6473562D01*
X351370119Y6473562D02*
X351465357Y6521181D01*
X351465357Y6521181D02*
X351655833Y6521181D01*
X351655833Y6521181D02*
X351751071Y6473562D01*
X351751071Y6473562D02*
X351798690Y6425943D01*
X351798690Y6425943D02*
X351846309Y6330705D01*
X351846309Y6330705D02*
X351846309Y6283086D01*
X351846309Y6283086D02*
X351798690Y6187848D01*
X351798690Y6187848D02*
X351751071Y6140229D01*
X351751071Y6140229D02*
X351655833Y6092610D01*
X351655833Y6092610D02*
X351465357Y6092610D01*
X351465357Y6092610D02*
X351370119Y6044991D01*
X351370119Y6044991D02*
X351322500Y5997372D01*
X351322500Y5997372D02*
X351274881Y5902134D01*
X351274881Y5902134D02*
X351274881Y5711658D01*
X351274881Y5711658D02*
X351322500Y5616420D01*
X351322500Y5616420D02*
X351370119Y5568800D01*
X351370119Y5568800D02*
X351465357Y5521181D01*
X351465357Y5521181D02*
X351655833Y5521181D01*
X351655833Y5521181D02*
X351751071Y5568800D01*
X351751071Y5568800D02*
X351798690Y5616420D01*
X351798690Y5616420D02*
X351846309Y5711658D01*
X351846309Y5711658D02*
X351846309Y5902134D01*
X351846309Y5902134D02*
X351798690Y5997372D01*
X351798690Y5997372D02*
X351751071Y6044991D01*
X351751071Y6044991D02*
X351655833Y6092610D01*
X352227262Y6425943D02*
X352274881Y6473562D01*
X352274881Y6473562D02*
X352370119Y6521181D01*
X352370119Y6521181D02*
X352608214Y6521181D01*
X352608214Y6521181D02*
X352703452Y6473562D01*
X352703452Y6473562D02*
X352751071Y6425943D01*
X352751071Y6425943D02*
X352798690Y6330705D01*
X352798690Y6330705D02*
X352798690Y6235467D01*
X352798690Y6235467D02*
X352751071Y6092610D01*
X352751071Y6092610D02*
X352179643Y5521181D01*
X352179643Y5521181D02*
X352798690Y5521181D01*
X353703452Y6521181D02*
X353227262Y6521181D01*
X353227262Y6521181D02*
X353179643Y6044991D01*
X353179643Y6044991D02*
X353227262Y6092610D01*
X353227262Y6092610D02*
X353322500Y6140229D01*
X353322500Y6140229D02*
X353560595Y6140229D01*
X353560595Y6140229D02*
X353655833Y6092610D01*
X353655833Y6092610D02*
X353703452Y6044991D01*
X353703452Y6044991D02*
X353751071Y5949753D01*
X353751071Y5949753D02*
X353751071Y5711658D01*
X353751071Y5711658D02*
X353703452Y5616420D01*
X353703452Y5616420D02*
X353655833Y5568800D01*
X353655833Y5568800D02*
X353560595Y5521181D01*
X353560595Y5521181D02*
X353322500Y5521181D01*
X353322500Y5521181D02*
X353227262Y5568800D01*
X353227262Y5568800D02*
X353179643Y5616420D01*
D10*
X312410000Y-4740000D02*
X312410000Y5412420D01*
X390235000Y5412420D02*
X390235000Y-4740000D01*
X312410000Y4826000D02*
X390235000Y4826000D01*
X312410000Y4826000D02*
X313536504Y5412421D01*
X312410000Y4826000D02*
X313536504Y4239579D01*
X390235000Y4826000D02*
X389108496Y4239579D01*
X390235000Y4826000D02*
X389108496Y5412421D01*
D11*
X276434819Y-128112380D02*
X276434819Y-128588570D01*
X276434819Y-128588570D02*
X276911009Y-128636189D01*
X276911009Y-128636189D02*
X276863390Y-128588570D01*
X276863390Y-128588570D02*
X276815771Y-128493332D01*
X276815771Y-128493332D02*
X276815771Y-128255237D01*
X276815771Y-128255237D02*
X276863390Y-128159999D01*
X276863390Y-128159999D02*
X276911009Y-128112380D01*
X276911009Y-128112380D02*
X277006247Y-128064761D01*
X277006247Y-128064761D02*
X277244342Y-128064761D01*
X277244342Y-128064761D02*
X277339580Y-128112380D01*
X277339580Y-128112380D02*
X277387200Y-128159999D01*
X277387200Y-128159999D02*
X277434819Y-128255237D01*
X277434819Y-128255237D02*
X277434819Y-128493332D01*
X277434819Y-128493332D02*
X277387200Y-128588570D01*
X277387200Y-128588570D02*
X277339580Y-128636189D01*
X277387200Y-127588570D02*
X277434819Y-127588570D01*
X277434819Y-127588570D02*
X277530057Y-127636189D01*
X277530057Y-127636189D02*
X277577676Y-127683808D01*
X276434819Y-126731428D02*
X276434819Y-126921904D01*
X276434819Y-126921904D02*
X276482438Y-127017142D01*
X276482438Y-127017142D02*
X276530057Y-127064761D01*
X276530057Y-127064761D02*
X276672914Y-127159999D01*
X276672914Y-127159999D02*
X276863390Y-127207618D01*
X276863390Y-127207618D02*
X277244342Y-127207618D01*
X277244342Y-127207618D02*
X277339580Y-127159999D01*
X277339580Y-127159999D02*
X277387200Y-127112380D01*
X277387200Y-127112380D02*
X277434819Y-127017142D01*
X277434819Y-127017142D02*
X277434819Y-126826666D01*
X277434819Y-126826666D02*
X277387200Y-126731428D01*
X277387200Y-126731428D02*
X277339580Y-126683809D01*
X277339580Y-126683809D02*
X277244342Y-126636190D01*
X277244342Y-126636190D02*
X277006247Y-126636190D01*
X277006247Y-126636190D02*
X276911009Y-126683809D01*
X276911009Y-126683809D02*
X276863390Y-126731428D01*
X276863390Y-126731428D02*
X276815771Y-126826666D01*
X276815771Y-126826666D02*
X276815771Y-127017142D01*
X276815771Y-127017142D02*
X276863390Y-127112380D01*
X276863390Y-127112380D02*
X276911009Y-127159999D01*
X276911009Y-127159999D02*
X277006247Y-127207618D01*
X276863390Y-126064761D02*
X276815771Y-126159999D01*
X276815771Y-126159999D02*
X276768152Y-126207618D01*
X276768152Y-126207618D02*
X276672914Y-126255237D01*
X276672914Y-126255237D02*
X276625295Y-126255237D01*
X276625295Y-126255237D02*
X276530057Y-126207618D01*
X276530057Y-126207618D02*
X276482438Y-126159999D01*
X276482438Y-126159999D02*
X276434819Y-126064761D01*
X276434819Y-126064761D02*
X276434819Y-125874285D01*
X276434819Y-125874285D02*
X276482438Y-125779047D01*
X276482438Y-125779047D02*
X276530057Y-125731428D01*
X276530057Y-125731428D02*
X276625295Y-125683809D01*
X276625295Y-125683809D02*
X276672914Y-125683809D01*
X276672914Y-125683809D02*
X276768152Y-125731428D01*
X276768152Y-125731428D02*
X276815771Y-125779047D01*
X276815771Y-125779047D02*
X276863390Y-125874285D01*
X276863390Y-125874285D02*
X276863390Y-126064761D01*
X276863390Y-126064761D02*
X276911009Y-126159999D01*
X276911009Y-126159999D02*
X276958628Y-126207618D01*
X276958628Y-126207618D02*
X277053866Y-126255237D01*
X277053866Y-126255237D02*
X277244342Y-126255237D01*
X277244342Y-126255237D02*
X277339580Y-126207618D01*
X277339580Y-126207618D02*
X277387200Y-126159999D01*
X277387200Y-126159999D02*
X277434819Y-126064761D01*
X277434819Y-126064761D02*
X277434819Y-125874285D01*
X277434819Y-125874285D02*
X277387200Y-125779047D01*
X277387200Y-125779047D02*
X277339580Y-125731428D01*
X277339580Y-125731428D02*
X277244342Y-125683809D01*
X277244342Y-125683809D02*
X277053866Y-125683809D01*
X277053866Y-125683809D02*
X276958628Y-125731428D01*
X276958628Y-125731428D02*
X276911009Y-125779047D01*
X276911009Y-125779047D02*
X276863390Y-125874285D01*
D10*
X275690000Y-124320000D02*
X278716420Y-124320000D01*
X277543580Y-130000000D02*
X280500000Y-130000000D01*
X278130000Y-124320000D02*
X278130000Y-130000000D01*
X278130000Y-124320000D02*
X278716421Y-125446504D01*
X278130000Y-124320000D02*
X277543579Y-125446504D01*
X278130000Y-130000000D02*
X277543579Y-128873496D01*
X278130000Y-130000000D02*
X278716421Y-128873496D01*
D11*
X-6267181Y-86409999D02*
X-6267181Y-85743333D01*
X-6267181Y-85743333D02*
X-5267181Y-86171904D01*
X-5267181Y-85314761D02*
X-5267181Y-85124285D01*
X-5267181Y-85124285D02*
X-5314800Y-85029047D01*
X-5314800Y-85029047D02*
X-5362420Y-84981428D01*
X-5362420Y-84981428D02*
X-5505277Y-84886190D01*
X-5505277Y-84886190D02*
X-5695753Y-84838571D01*
X-5695753Y-84838571D02*
X-6076705Y-84838571D01*
X-6076705Y-84838571D02*
X-6171943Y-84886190D01*
X-6171943Y-84886190D02*
X-6219562Y-84933809D01*
X-6219562Y-84933809D02*
X-6267181Y-85029047D01*
X-6267181Y-85029047D02*
X-6267181Y-85219523D01*
X-6267181Y-85219523D02*
X-6219562Y-85314761D01*
X-6219562Y-85314761D02*
X-6171943Y-85362380D01*
X-6171943Y-85362380D02*
X-6076705Y-85409999D01*
X-6076705Y-85409999D02*
X-5838610Y-85409999D01*
X-5838610Y-85409999D02*
X-5743372Y-85362380D01*
X-5743372Y-85362380D02*
X-5695753Y-85314761D01*
X-5695753Y-85314761D02*
X-5648134Y-85219523D01*
X-5648134Y-85219523D02*
X-5648134Y-85029047D01*
X-5648134Y-85029047D02*
X-5695753Y-84933809D01*
X-5695753Y-84933809D02*
X-5743372Y-84886190D01*
X-5743372Y-84886190D02*
X-5838610Y-84838571D01*
X-5314800Y-84362380D02*
X-5267181Y-84362380D01*
X-5267181Y-84362380D02*
X-5171943Y-84409999D01*
X-5171943Y-84409999D02*
X-5124324Y-84457618D01*
X-5838610Y-83790952D02*
X-5886229Y-83886190D01*
X-5886229Y-83886190D02*
X-5933848Y-83933809D01*
X-5933848Y-83933809D02*
X-6029086Y-83981428D01*
X-6029086Y-83981428D02*
X-6076705Y-83981428D01*
X-6076705Y-83981428D02*
X-6171943Y-83933809D01*
X-6171943Y-83933809D02*
X-6219562Y-83886190D01*
X-6219562Y-83886190D02*
X-6267181Y-83790952D01*
X-6267181Y-83790952D02*
X-6267181Y-83600476D01*
X-6267181Y-83600476D02*
X-6219562Y-83505238D01*
X-6219562Y-83505238D02*
X-6171943Y-83457619D01*
X-6171943Y-83457619D02*
X-6076705Y-83410000D01*
X-6076705Y-83410000D02*
X-6029086Y-83410000D01*
X-6029086Y-83410000D02*
X-5933848Y-83457619D01*
X-5933848Y-83457619D02*
X-5886229Y-83505238D01*
X-5886229Y-83505238D02*
X-5838610Y-83600476D01*
X-5838610Y-83600476D02*
X-5838610Y-83790952D01*
X-5838610Y-83790952D02*
X-5790991Y-83886190D01*
X-5790991Y-83886190D02*
X-5743372Y-83933809D01*
X-5743372Y-83933809D02*
X-5648134Y-83981428D01*
X-5648134Y-83981428D02*
X-5457658Y-83981428D01*
X-5457658Y-83981428D02*
X-5362420Y-83933809D01*
X-5362420Y-83933809D02*
X-5314800Y-83886190D01*
X-5314800Y-83886190D02*
X-5267181Y-83790952D01*
X-5267181Y-83790952D02*
X-5267181Y-83600476D01*
X-5267181Y-83600476D02*
X-5314800Y-83505238D01*
X-5314800Y-83505238D02*
X-5362420Y-83457619D01*
X-5362420Y-83457619D02*
X-5457658Y-83410000D01*
X-5457658Y-83410000D02*
X-5648134Y-83410000D01*
X-5648134Y-83410000D02*
X-5743372Y-83457619D01*
X-5743372Y-83457619D02*
X-5790991Y-83505238D01*
X-5790991Y-83505238D02*
X-5838610Y-83600476D01*
X-6171943Y-83029047D02*
X-6219562Y-82981428D01*
X-6219562Y-82981428D02*
X-6267181Y-82886190D01*
X-6267181Y-82886190D02*
X-6267181Y-82648095D01*
X-6267181Y-82648095D02*
X-6219562Y-82552857D01*
X-6219562Y-82552857D02*
X-6171943Y-82505238D01*
X-6171943Y-82505238D02*
X-6076705Y-82457619D01*
X-6076705Y-82457619D02*
X-5981467Y-82457619D01*
X-5981467Y-82457619D02*
X-5838610Y-82505238D01*
X-5838610Y-82505238D02*
X-5267181Y-83076666D01*
X-5267181Y-83076666D02*
X-5267181Y-82457619D01*
D10*
X5310000Y-124320000D02*
X-5158420Y-124320000D01*
X-5158420Y-44500000D02*
X5310000Y-44500000D01*
X-4572000Y-124320000D02*
X-4572000Y-44500000D01*
X-4572000Y-124320000D02*
X-5158421Y-123193496D01*
X-4572000Y-124320000D02*
X-3985579Y-123193496D01*
X-4572000Y-44500000D02*
X-3985579Y-45626504D01*
X-4572000Y-44500000D02*
X-5158421Y-45626504D01*
D11*
X299076429Y-27864057D02*
X299124048Y-27816438D01*
X299124048Y-27816438D02*
X299219286Y-27768819D01*
X299219286Y-27768819D02*
X299457381Y-27768819D01*
X299457381Y-27768819D02*
X299552619Y-27816438D01*
X299552619Y-27816438D02*
X299600238Y-27864057D01*
X299600238Y-27864057D02*
X299647857Y-27959295D01*
X299647857Y-27959295D02*
X299647857Y-28054533D01*
X299647857Y-28054533D02*
X299600238Y-28197390D01*
X299600238Y-28197390D02*
X299028810Y-28768819D01*
X299028810Y-28768819D02*
X299647857Y-28768819D01*
X300124048Y-28768819D02*
X300314524Y-28768819D01*
X300314524Y-28768819D02*
X300409762Y-28721200D01*
X300409762Y-28721200D02*
X300457381Y-28673580D01*
X300457381Y-28673580D02*
X300552619Y-28530723D01*
X300552619Y-28530723D02*
X300600238Y-28340247D01*
X300600238Y-28340247D02*
X300600238Y-27959295D01*
X300600238Y-27959295D02*
X300552619Y-27864057D01*
X300552619Y-27864057D02*
X300505000Y-27816438D01*
X300505000Y-27816438D02*
X300409762Y-27768819D01*
X300409762Y-27768819D02*
X300219286Y-27768819D01*
X300219286Y-27768819D02*
X300124048Y-27816438D01*
X300124048Y-27816438D02*
X300076429Y-27864057D01*
X300076429Y-27864057D02*
X300028810Y-27959295D01*
X300028810Y-27959295D02*
X300028810Y-28197390D01*
X300028810Y-28197390D02*
X300076429Y-28292628D01*
X300076429Y-28292628D02*
X300124048Y-28340247D01*
X300124048Y-28340247D02*
X300219286Y-28387866D01*
X300219286Y-28387866D02*
X300409762Y-28387866D01*
X300409762Y-28387866D02*
X300505000Y-28340247D01*
X300505000Y-28340247D02*
X300552619Y-28292628D01*
X300552619Y-28292628D02*
X300600238Y-28197390D01*
X301076429Y-28721200D02*
X301076429Y-28768819D01*
X301076429Y-28768819D02*
X301028810Y-28864057D01*
X301028810Y-28864057D02*
X300981191Y-28911676D01*
X301409762Y-27768819D02*
X302076428Y-27768819D01*
X302076428Y-27768819D02*
X301647857Y-28768819D01*
X302981190Y-28768819D02*
X302409762Y-28768819D01*
X302695476Y-28768819D02*
X302695476Y-27768819D01*
X302695476Y-27768819D02*
X302600238Y-27911676D01*
X302600238Y-27911676D02*
X302505000Y-28006914D01*
X302505000Y-28006914D02*
X302409762Y-28054533D01*
X303552619Y-28197390D02*
X303457381Y-28149771D01*
X303457381Y-28149771D02*
X303409762Y-28102152D01*
X303409762Y-28102152D02*
X303362143Y-28006914D01*
X303362143Y-28006914D02*
X303362143Y-27959295D01*
X303362143Y-27959295D02*
X303409762Y-27864057D01*
X303409762Y-27864057D02*
X303457381Y-27816438D01*
X303457381Y-27816438D02*
X303552619Y-27768819D01*
X303552619Y-27768819D02*
X303743095Y-27768819D01*
X303743095Y-27768819D02*
X303838333Y-27816438D01*
X303838333Y-27816438D02*
X303885952Y-27864057D01*
X303885952Y-27864057D02*
X303933571Y-27959295D01*
X303933571Y-27959295D02*
X303933571Y-28006914D01*
X303933571Y-28006914D02*
X303885952Y-28102152D01*
X303885952Y-28102152D02*
X303838333Y-28149771D01*
X303838333Y-28149771D02*
X303743095Y-28197390D01*
X303743095Y-28197390D02*
X303552619Y-28197390D01*
X303552619Y-28197390D02*
X303457381Y-28245009D01*
X303457381Y-28245009D02*
X303409762Y-28292628D01*
X303409762Y-28292628D02*
X303362143Y-28387866D01*
X303362143Y-28387866D02*
X303362143Y-28578342D01*
X303362143Y-28578342D02*
X303409762Y-28673580D01*
X303409762Y-28673580D02*
X303457381Y-28721200D01*
X303457381Y-28721200D02*
X303552619Y-28768819D01*
X303552619Y-28768819D02*
X303743095Y-28768819D01*
X303743095Y-28768819D02*
X303838333Y-28721200D01*
X303838333Y-28721200D02*
X303885952Y-28673580D01*
X303885952Y-28673580D02*
X303933571Y-28578342D01*
X303933571Y-28578342D02*
X303933571Y-28387866D01*
X303933571Y-28387866D02*
X303885952Y-28292628D01*
X303885952Y-28292628D02*
X303838333Y-28245009D01*
X303838333Y-28245009D02*
X303743095Y-28197390D01*
D10*
X286646000Y-26869000D02*
X286646000Y-30050420D01*
X316364000Y-30050420D02*
X316364000Y-26869000D01*
X286646000Y-29464000D02*
X316364000Y-29464000D01*
X286646000Y-29464000D02*
X287772504Y-28877579D01*
X286646000Y-29464000D02*
X287772504Y-30050421D01*
X316364000Y-29464000D02*
X315237496Y-30050421D01*
X316364000Y-29464000D02*
X315237496Y-28877579D01*
D11*
X296791719Y10331181D02*
X297410766Y10331181D01*
X297410766Y10331181D02*
X297077433Y9950229D01*
X297077433Y9950229D02*
X297220290Y9950229D01*
X297220290Y9950229D02*
X297315528Y9902610D01*
X297315528Y9902610D02*
X297363147Y9854991D01*
X297363147Y9854991D02*
X297410766Y9759753D01*
X297410766Y9759753D02*
X297410766Y9521658D01*
X297410766Y9521658D02*
X297363147Y9426420D01*
X297363147Y9426420D02*
X297315528Y9378800D01*
X297315528Y9378800D02*
X297220290Y9331181D01*
X297220290Y9331181D02*
X296934576Y9331181D01*
X296934576Y9331181D02*
X296839338Y9378800D01*
X296839338Y9378800D02*
X296791719Y9426420D01*
X297744100Y10331181D02*
X298410766Y10331181D01*
X298410766Y10331181D02*
X297982195Y9331181D01*
X298839338Y9378800D02*
X298839338Y9331181D01*
X298839338Y9331181D02*
X298791719Y9235943D01*
X298791719Y9235943D02*
X298744100Y9188324D01*
X299172671Y10331181D02*
X299791718Y10331181D01*
X299791718Y10331181D02*
X299458385Y9950229D01*
X299458385Y9950229D02*
X299601242Y9950229D01*
X299601242Y9950229D02*
X299696480Y9902610D01*
X299696480Y9902610D02*
X299744099Y9854991D01*
X299744099Y9854991D02*
X299791718Y9759753D01*
X299791718Y9759753D02*
X299791718Y9521658D01*
X299791718Y9521658D02*
X299744099Y9426420D01*
X299744099Y9426420D02*
X299696480Y9378800D01*
X299696480Y9378800D02*
X299601242Y9331181D01*
X299601242Y9331181D02*
X299315528Y9331181D01*
X299315528Y9331181D02*
X299220290Y9378800D01*
X299220290Y9378800D02*
X299172671Y9426420D01*
X300172671Y10235943D02*
X300220290Y10283562D01*
X300220290Y10283562D02*
X300315528Y10331181D01*
X300315528Y10331181D02*
X300553623Y10331181D01*
X300553623Y10331181D02*
X300648861Y10283562D01*
X300648861Y10283562D02*
X300696480Y10235943D01*
X300696480Y10235943D02*
X300744099Y10140705D01*
X300744099Y10140705D02*
X300744099Y10045467D01*
X300744099Y10045467D02*
X300696480Y9902610D01*
X300696480Y9902610D02*
X300125052Y9331181D01*
X300125052Y9331181D02*
X300744099Y9331181D01*
X301077433Y10331181D02*
X301696480Y10331181D01*
X301696480Y10331181D02*
X301363147Y9950229D01*
X301363147Y9950229D02*
X301506004Y9950229D01*
X301506004Y9950229D02*
X301601242Y9902610D01*
X301601242Y9902610D02*
X301648861Y9854991D01*
X301648861Y9854991D02*
X301696480Y9759753D01*
X301696480Y9759753D02*
X301696480Y9521658D01*
X301696480Y9521658D02*
X301648861Y9426420D01*
X301648861Y9426420D02*
X301601242Y9378800D01*
X301601242Y9378800D02*
X301506004Y9331181D01*
X301506004Y9331181D02*
X301220290Y9331181D01*
X301220290Y9331181D02*
X301125052Y9378800D01*
X301125052Y9378800D02*
X301077433Y9426420D01*
X302267909Y9902610D02*
X302172671Y9950229D01*
X302172671Y9950229D02*
X302125052Y9997848D01*
X302125052Y9997848D02*
X302077433Y10093086D01*
X302077433Y10093086D02*
X302077433Y10140705D01*
X302077433Y10140705D02*
X302125052Y10235943D01*
X302125052Y10235943D02*
X302172671Y10283562D01*
X302172671Y10283562D02*
X302267909Y10331181D01*
X302267909Y10331181D02*
X302458385Y10331181D01*
X302458385Y10331181D02*
X302553623Y10283562D01*
X302553623Y10283562D02*
X302601242Y10235943D01*
X302601242Y10235943D02*
X302648861Y10140705D01*
X302648861Y10140705D02*
X302648861Y10093086D01*
X302648861Y10093086D02*
X302601242Y9997848D01*
X302601242Y9997848D02*
X302553623Y9950229D01*
X302553623Y9950229D02*
X302458385Y9902610D01*
X302458385Y9902610D02*
X302267909Y9902610D01*
X302267909Y9902610D02*
X302172671Y9854991D01*
X302172671Y9854991D02*
X302125052Y9807372D01*
X302125052Y9807372D02*
X302077433Y9712134D01*
X302077433Y9712134D02*
X302077433Y9521658D01*
X302077433Y9521658D02*
X302125052Y9426420D01*
X302125052Y9426420D02*
X302172671Y9378800D01*
X302172671Y9378800D02*
X302267909Y9331181D01*
X302267909Y9331181D02*
X302458385Y9331181D01*
X302458385Y9331181D02*
X302553623Y9378800D01*
X302553623Y9378800D02*
X302601242Y9426420D01*
X302601242Y9426420D02*
X302648861Y9521658D01*
X302648861Y9521658D02*
X302648861Y9712134D01*
X302648861Y9712134D02*
X302601242Y9807372D01*
X302601242Y9807372D02*
X302553623Y9854991D01*
X302553623Y9854991D02*
X302458385Y9902610D01*
D10*
X281082199Y500000D02*
X281082199Y9222420D01*
X318406000Y9222420D02*
X318406000Y-406000D01*
X281082199Y8636000D02*
X318406000Y8636000D01*
X281082199Y8636000D02*
X282208703Y9222421D01*
X281082199Y8636000D02*
X282208703Y8049579D01*
X318406000Y8636000D02*
X317279496Y8049579D01*
X318406000Y8636000D02*
X317279496Y9222421D01*
M02*
