G04 #@! TF.GenerationSoftware,KiCad,Pcbnew,9.0.2*
G04 #@! TF.CreationDate,2026-04-23T15:55:16+02:00*
G04 #@! TF.ProjectId,hardware-pruefadapter,68617264-7761-4726-952d-707275656661,V1.1*
G04 #@! TF.SameCoordinates,Original*
G04 #@! TF.FileFunction,Soldermask,Bot*
G04 #@! TF.FilePolarity,Negative*
%FSLAX46Y46*%
G04 Gerber Fmt 4.6, Leading zero omitted, Abs format (unit mm)*
G04 Created by KiCad (PCBNEW 9.0.2) date 2026-04-23 15:55:16*
%MOMM*%
%LPD*%
G01*
G04 APERTURE LIST*
G04 Aperture macros list*
%AMRoundRect*
0 Rectangle with rounded corners*
0 $1 Rounding radius*
0 $2 $3 $4 $5 $6 $7 $8 $9 X,Y pos of 4 corners*
0 Add a 4 corners polygon primitive as box body*
4,1,4,$2,$3,$4,$5,$6,$7,$8,$9,$2,$3,0*
0 Add four circle primitives for the rounded corners*
1,1,$1+$1,$2,$3*
1,1,$1+$1,$4,$5*
1,1,$1+$1,$6,$7*
1,1,$1+$1,$8,$9*
0 Add four rect primitives between the rounded corners*
20,1,$1+$1,$2,$3,$4,$5,0*
20,1,$1+$1,$4,$5,$6,$7,0*
20,1,$1+$1,$6,$7,$8,$9,0*
20,1,$1+$1,$8,$9,$2,$3,0*%
G04 Aperture macros list end*
%ADD10RoundRect,0.049000X0.850000X0.850000X-0.850000X0.850000X-0.850000X-0.850000X0.850000X-0.850000X0*%
%ADD11C,1.798000*%
%ADD12C,0.848000*%
%ADD13C,1.854000*%
%ADD14C,3.298000*%
%ADD15RoundRect,0.049000X-0.850000X-0.850000X0.850000X-0.850000X0.850000X0.850000X-0.850000X0.850000X0*%
%ADD16C,0.748000*%
%ADD17O,1.254000X2.304000*%
%ADD18O,1.104000X2.004000*%
%ADD19RoundRect,0.102000X-1.125000X-1.125000X1.125000X-1.125000X1.125000X1.125000X-1.125000X1.125000X0*%
%ADD20C,2.454000*%
%ADD21RoundRect,0.102000X0.765000X0.765000X-0.765000X0.765000X-0.765000X-0.765000X0.765000X-0.765000X0*%
%ADD22C,1.734000*%
%ADD23RoundRect,0.102000X0.750000X0.450000X-0.750000X0.450000X-0.750000X-0.450000X0.750000X-0.450000X0*%
%ADD24RoundRect,0.102000X-0.400000X0.400000X-0.400000X-0.400000X0.400000X-0.400000X0.400000X0.400000X0*%
%ADD25RoundRect,0.102000X0.400000X-0.400000X0.400000X0.400000X-0.400000X0.400000X-0.400000X-0.400000X0*%
%ADD26RoundRect,0.053000X-0.519000X-0.159000X0.519000X-0.159000X0.519000X0.159000X-0.519000X0.159000X0*%
%ADD27RoundRect,0.053000X-0.159000X-0.519000X0.159000X-0.519000X0.159000X0.519000X-0.159000X0.519000X0*%
%ADD28RoundRect,0.102000X-1.400000X-1.400000X1.400000X-1.400000X1.400000X1.400000X-1.400000X1.400000X0*%
%ADD29C,0.804000*%
%ADD30RoundRect,0.053000X0.159000X-0.519000X0.159000X0.519000X-0.159000X0.519000X-0.159000X-0.519000X0*%
%ADD31RoundRect,0.053000X0.519000X-0.159000X0.519000X0.159000X-0.519000X0.159000X-0.519000X-0.159000X0*%
%ADD32RoundRect,0.102000X1.400000X-1.400000X1.400000X1.400000X-1.400000X1.400000X-1.400000X-1.400000X0*%
G04 APERTURE END LIST*
D10*
G04 #@! TO.C,J403*
X319786000Y-14986000D03*
D11*
X319786000Y-12446000D03*
X319786000Y-9906000D03*
X319786000Y-7366000D03*
G04 #@! TD*
D12*
G04 #@! TO.C,S201*
X382778000Y-3827000D03*
X382778000Y-1077000D03*
G04 #@! TD*
D13*
G04 #@! TO.C,J601*
X263342000Y-8302000D03*
X263342000Y-3302000D03*
X259842000Y-8302000D03*
X259842000Y-3302000D03*
X256342000Y-8302000D03*
X256342000Y-3302000D03*
X252842000Y-8302000D03*
X252842000Y-3302000D03*
G04 #@! TD*
G04 #@! TO.C,J1102*
X138966000Y-121714500D03*
X138966000Y-126714500D03*
X142466000Y-121714500D03*
X142466000Y-126714500D03*
G04 #@! TD*
D14*
G04 #@! TO.C,H203*
X275190000Y-44500000D03*
G04 #@! TD*
G04 #@! TO.C,H206*
X390235000Y-7740000D03*
G04 #@! TD*
D15*
G04 #@! TO.C,J1302*
X102235000Y-95377000D03*
D11*
X102235000Y-97917000D03*
X102235000Y-100457000D03*
X102235000Y-102997000D03*
X102235000Y-105537000D03*
X102235000Y-108077000D03*
G04 #@! TD*
D13*
G04 #@! TO.C,J1301*
X116642000Y-121714500D03*
X116642000Y-126714500D03*
X120142000Y-121714500D03*
X120142000Y-126714500D03*
G04 #@! TD*
G04 #@! TO.C,J205*
X290322000Y-118364000D03*
X290322000Y-115824000D03*
X292862000Y-118364000D03*
X292862000Y-115824000D03*
X295402000Y-118364000D03*
X295402000Y-115824000D03*
X297942000Y-118364000D03*
X297942000Y-115824000D03*
X300482000Y-118364000D03*
X300482000Y-115824000D03*
X303022000Y-118364000D03*
X303022000Y-115824000D03*
X305562000Y-118364000D03*
X305562000Y-115824000D03*
G04 #@! TD*
D14*
G04 #@! TO.C,H205*
X312420000Y-7740000D03*
G04 #@! TD*
G04 #@! TO.C,H201*
X5810000Y-44500000D03*
G04 #@! TD*
G04 #@! TO.C,H202*
X5810000Y-124320000D03*
G04 #@! TD*
D13*
G04 #@! TO.C,J501*
X29464000Y-8302000D03*
X29464000Y-3302000D03*
X25964000Y-8302000D03*
X25964000Y-3302000D03*
X22464000Y-8302000D03*
X22464000Y-3302000D03*
X18964000Y-8302000D03*
X18964000Y-3302000D03*
G04 #@! TD*
G04 #@! TO.C,J202*
X19304000Y-126436000D03*
X19304000Y-123896000D03*
X21844000Y-126436000D03*
X21844000Y-123896000D03*
X24384000Y-126436000D03*
X24384000Y-123896000D03*
X26924000Y-126436000D03*
X26924000Y-123896000D03*
X29464000Y-126436000D03*
X29464000Y-123896000D03*
X32004000Y-126436000D03*
X32004000Y-123896000D03*
X34544000Y-126436000D03*
X34544000Y-123896000D03*
X37084000Y-126436000D03*
X37084000Y-123896000D03*
G04 #@! TD*
G04 #@! TO.C,J402*
X155448000Y-121714500D03*
X155448000Y-126714500D03*
X158948000Y-121714500D03*
X158948000Y-126714500D03*
X162448000Y-121714500D03*
X162448000Y-126714500D03*
G04 #@! TD*
D14*
G04 #@! TO.C,H208*
X408195000Y-115000000D03*
G04 #@! TD*
G04 #@! TO.C,H204*
X275190000Y-124320000D03*
G04 #@! TD*
D16*
G04 #@! TO.C,J301*
X368142000Y-5180000D03*
X362362000Y-5180000D03*
D17*
X369572000Y-5680000D03*
X360932000Y-5680000D03*
D18*
X369572000Y-1500000D03*
X360932000Y-1500000D03*
G04 #@! TD*
D13*
G04 #@! TO.C,J204*
X309626000Y-20574000D03*
X309626000Y-23114000D03*
X307086000Y-20574000D03*
X307086000Y-23114000D03*
X304546000Y-20574000D03*
X304546000Y-23114000D03*
X302006000Y-20574000D03*
X302006000Y-23114000D03*
X299466000Y-20574000D03*
X299466000Y-23114000D03*
X296926000Y-20574000D03*
X296926000Y-23114000D03*
X294386000Y-20574000D03*
X294386000Y-23114000D03*
X291846000Y-20574000D03*
X291846000Y-23114000D03*
G04 #@! TD*
G04 #@! TO.C,J801*
X122682000Y-8302000D03*
X122682000Y-3302000D03*
X119182000Y-8302000D03*
X119182000Y-3302000D03*
X115682000Y-8302000D03*
X115682000Y-3302000D03*
X112182000Y-8302000D03*
X112182000Y-3302000D03*
G04 #@! TD*
G04 #@! TO.C,J201*
X339344000Y-20574000D03*
X339344000Y-23114000D03*
X336804000Y-20574000D03*
X336804000Y-23114000D03*
X334264000Y-20574000D03*
X334264000Y-23114000D03*
X331724000Y-20574000D03*
X331724000Y-23114000D03*
X329184000Y-20574000D03*
X329184000Y-23114000D03*
X326644000Y-20574000D03*
X326644000Y-23114000D03*
X324104000Y-20574000D03*
X324104000Y-23114000D03*
X321564000Y-20574000D03*
X321564000Y-23114000D03*
G04 #@! TD*
D14*
G04 #@! TO.C,H207*
X408195000Y-35180000D03*
G04 #@! TD*
D19*
G04 #@! TO.C,J1202*
X197311000Y-121079500D03*
D20*
X202311000Y-121079500D03*
X207311000Y-121079500D03*
G04 #@! TD*
D13*
G04 #@! TO.C,J710*
X160528000Y-8302000D03*
X160528000Y-3302000D03*
X157028000Y-8302000D03*
X157028000Y-3302000D03*
X153528000Y-8302000D03*
X153528000Y-3302000D03*
X150028000Y-8302000D03*
X150028000Y-3302000D03*
G04 #@! TD*
G04 #@! TO.C,J1201*
X176530000Y-121746000D03*
X176530000Y-126746000D03*
X180030000Y-121746000D03*
X180030000Y-126746000D03*
G04 #@! TD*
D21*
G04 #@! TO.C,U201*
X332627000Y-102360000D03*
D22*
X332627000Y-99820000D03*
X332627000Y-97280000D03*
X332627000Y-94740000D03*
X332627000Y-92200000D03*
X332627000Y-89660000D03*
X332627000Y-87120000D03*
X332627000Y-84580000D03*
X332627000Y-82040000D03*
X332627000Y-79500000D03*
X332627000Y-76960000D03*
X332627000Y-74420000D03*
X332627000Y-71880000D03*
X332627000Y-69340000D03*
X332627000Y-66800000D03*
X332627000Y-64260000D03*
X332627000Y-61720000D03*
X332627000Y-59180000D03*
X332627000Y-56640000D03*
X332627000Y-54100000D03*
X332627000Y-51560000D03*
X332627000Y-49020000D03*
X309767000Y-102360000D03*
X309767000Y-99820000D03*
X309767000Y-97280000D03*
X309767000Y-94740000D03*
X309767000Y-92200000D03*
X309767000Y-89660000D03*
X309767000Y-87120000D03*
X309767000Y-84580000D03*
X309767000Y-82040000D03*
X309767000Y-79500000D03*
X309767000Y-76960000D03*
X309767000Y-74420000D03*
X309767000Y-71880000D03*
X309767000Y-69340000D03*
X309767000Y-66800000D03*
X309767000Y-64260000D03*
X309767000Y-61720000D03*
X309767000Y-59180000D03*
X309767000Y-56640000D03*
X309767000Y-54100000D03*
X309767000Y-51560000D03*
X309767000Y-49020000D03*
G04 #@! TD*
D16*
G04 #@! TO.C,J401*
X338424000Y-5280000D03*
X332644000Y-5280000D03*
D17*
X339854000Y-5780000D03*
X331214000Y-5780000D03*
D18*
X339854000Y-1600000D03*
X331214000Y-1600000D03*
G04 #@! TD*
D13*
G04 #@! TO.C,J203*
X53086000Y-126338000D03*
X53086000Y-123798000D03*
X55626000Y-126338000D03*
X55626000Y-123798000D03*
X58166000Y-126338000D03*
X58166000Y-123798000D03*
X60706000Y-126338000D03*
X60706000Y-123798000D03*
X63246000Y-126338000D03*
X63246000Y-123798000D03*
X65786000Y-126338000D03*
X65786000Y-123798000D03*
X68326000Y-126338000D03*
X68326000Y-123798000D03*
X70866000Y-126338000D03*
X70866000Y-123798000D03*
G04 #@! TD*
D23*
G04 #@! TO.C,D1006*
X207950000Y-6300000D03*
X207950000Y-7700000D03*
X211050000Y-6300000D03*
X211050000Y-7700000D03*
G04 #@! TD*
D13*
G04 #@! TO.C,J706*
X191230000Y-36970000D03*
X193770000Y-36970000D03*
X191230000Y-34430000D03*
X193770000Y-34430000D03*
X191230000Y-31890000D03*
X193770000Y-31890000D03*
X191230000Y-29350000D03*
X193770000Y-29350000D03*
X191230000Y-26810000D03*
X193770000Y-26810000D03*
X191230000Y-24270000D03*
X193770000Y-24270000D03*
G04 #@! TD*
D24*
G04 #@! TO.C,D1204*
X187000000Y-123520000D03*
X187000000Y-125120000D03*
G04 #@! TD*
D23*
G04 #@! TO.C,D1008*
X207950000Y-14300000D03*
X207950000Y-15700000D03*
X211050000Y-14300000D03*
X211050000Y-15700000D03*
G04 #@! TD*
G04 #@! TO.C,D1003*
X103950000Y-14300000D03*
X103950000Y-15700000D03*
X107050000Y-14300000D03*
X107050000Y-15700000D03*
G04 #@! TD*
G04 #@! TO.C,D1005*
X87077000Y-5284000D03*
X87077000Y-6684000D03*
X90177000Y-5284000D03*
X90177000Y-6684000D03*
G04 #@! TD*
D25*
G04 #@! TO.C,D1303*
X111000000Y-125120000D03*
X111000000Y-123520000D03*
G04 #@! TD*
D26*
G04 #@! TO.C,IC1003*
X139574000Y-50838000D03*
X139574000Y-50438000D03*
X139574000Y-50038000D03*
X139574000Y-49638000D03*
X139574000Y-49238000D03*
X139574000Y-48838000D03*
X139574000Y-48438000D03*
X139574000Y-48038000D03*
D27*
X140269000Y-47343000D03*
X140669000Y-47343000D03*
X141069000Y-47343000D03*
X141469000Y-47343000D03*
X141869000Y-47343000D03*
X142269000Y-47343000D03*
X142669000Y-47343000D03*
X143069000Y-47343000D03*
D26*
X143764000Y-48038000D03*
X143764000Y-48438000D03*
X143764000Y-48838000D03*
X143764000Y-49238000D03*
X143764000Y-49638000D03*
X143764000Y-50038000D03*
X143764000Y-50438000D03*
X143764000Y-50838000D03*
D27*
X143069000Y-51533000D03*
X142669000Y-51533000D03*
X142269000Y-51533000D03*
X141869000Y-51533000D03*
X141469000Y-51533000D03*
X141069000Y-51533000D03*
X140669000Y-51533000D03*
X140269000Y-51533000D03*
D28*
X141669000Y-49438000D03*
D29*
X141669000Y-49438000D03*
X141669000Y-50238000D03*
X142469000Y-49438000D03*
X141669000Y-48638000D03*
X140869000Y-49438000D03*
G04 #@! TD*
D23*
G04 #@! TO.C,D1004*
X224950000Y-14300000D03*
X224950000Y-15700000D03*
X228050000Y-14300000D03*
X228050000Y-15700000D03*
G04 #@! TD*
D13*
G04 #@! TO.C,J708*
X174230000Y-36970000D03*
X176770000Y-36970000D03*
X174230000Y-34430000D03*
X176770000Y-34430000D03*
X174230000Y-31890000D03*
X176770000Y-31890000D03*
X174230000Y-29350000D03*
X176770000Y-29350000D03*
X174230000Y-26810000D03*
X176770000Y-26810000D03*
X174230000Y-24270000D03*
X176770000Y-24270000D03*
G04 #@! TD*
G04 #@! TO.C,J704*
X208230000Y-36970000D03*
X210770000Y-36970000D03*
X208230000Y-34430000D03*
X210770000Y-34430000D03*
X208230000Y-31890000D03*
X210770000Y-31890000D03*
X208230000Y-29350000D03*
X210770000Y-29350000D03*
X208230000Y-26810000D03*
X210770000Y-26810000D03*
X208230000Y-24270000D03*
X210770000Y-24270000D03*
G04 #@! TD*
D25*
G04 #@! TO.C,D1102*
X149000000Y-125120000D03*
X149000000Y-123520000D03*
G04 #@! TD*
D23*
G04 #@! TO.C,D1009*
X69950000Y-6300000D03*
X69950000Y-7700000D03*
X73050000Y-6300000D03*
X73050000Y-7700000D03*
G04 #@! TD*
G04 #@! TO.C,D1001*
X103950000Y-6300000D03*
X103950000Y-7700000D03*
X107050000Y-6300000D03*
X107050000Y-7700000D03*
G04 #@! TD*
D30*
G04 #@! TO.C,IC1002*
X238565296Y-11761202D03*
X238165296Y-11761202D03*
X237765296Y-11761202D03*
X237365296Y-11761202D03*
X236965296Y-11761202D03*
X236565296Y-11761202D03*
X236165296Y-11761202D03*
X235765296Y-11761202D03*
D31*
X235070296Y-11066202D03*
X235070296Y-10666202D03*
X235070296Y-10266202D03*
X235070296Y-9866202D03*
X235070296Y-9466202D03*
X235070296Y-9066202D03*
X235070296Y-8666202D03*
X235070296Y-8266202D03*
D30*
X235765296Y-7571202D03*
X236165296Y-7571202D03*
X236565296Y-7571202D03*
X236965296Y-7571202D03*
X237365296Y-7571202D03*
X237765296Y-7571202D03*
X238165296Y-7571202D03*
X238565296Y-7571202D03*
D31*
X239260296Y-8266202D03*
X239260296Y-8666202D03*
X239260296Y-9066202D03*
X239260296Y-9466202D03*
X239260296Y-9866202D03*
X239260296Y-10266202D03*
X239260296Y-10666202D03*
X239260296Y-11066202D03*
D32*
X237165296Y-9666202D03*
D29*
X237165296Y-9666202D03*
X237965296Y-9666202D03*
X237165296Y-8866202D03*
X236365296Y-9666202D03*
X237165296Y-10466202D03*
G04 #@! TD*
D23*
G04 #@! TO.C,D1013*
X52950000Y-6300000D03*
X52950000Y-7700000D03*
X56050000Y-6300000D03*
X56050000Y-7700000D03*
G04 #@! TD*
D13*
G04 #@! TO.C,J702*
X225230000Y-36970000D03*
X227770000Y-36970000D03*
X225230000Y-34430000D03*
X227770000Y-34430000D03*
X225230000Y-31890000D03*
X227770000Y-31890000D03*
X225230000Y-29350000D03*
X227770000Y-29350000D03*
X225230000Y-26810000D03*
X227770000Y-26810000D03*
X225230000Y-24270000D03*
X227770000Y-24270000D03*
G04 #@! TD*
D23*
G04 #@! TO.C,D1015*
X52950000Y-14300000D03*
X52950000Y-15700000D03*
X56050000Y-14300000D03*
X56050000Y-15700000D03*
G04 #@! TD*
D25*
G04 #@! TO.C,D1101*
X132000000Y-125120000D03*
X132000000Y-123520000D03*
G04 #@! TD*
D23*
G04 #@! TO.C,D1012*
X190950000Y-14300000D03*
X190950000Y-15700000D03*
X194050000Y-14300000D03*
X194050000Y-15700000D03*
G04 #@! TD*
G04 #@! TO.C,D1007*
X86950000Y-14300000D03*
X86950000Y-15700000D03*
X90050000Y-14300000D03*
X90050000Y-15700000D03*
G04 #@! TD*
G04 #@! TO.C,D1011*
X69950000Y-14300000D03*
X69950000Y-15700000D03*
X73050000Y-14300000D03*
X73050000Y-15700000D03*
G04 #@! TD*
D26*
G04 #@! TO.C,IC1001*
X74867000Y-21854000D03*
X74867000Y-21454000D03*
X74867000Y-21054000D03*
X74867000Y-20654000D03*
X74867000Y-20254000D03*
X74867000Y-19854000D03*
X74867000Y-19454000D03*
X74867000Y-19054000D03*
D27*
X75562000Y-18359000D03*
X75962000Y-18359000D03*
X76362000Y-18359000D03*
X76762000Y-18359000D03*
X77162000Y-18359000D03*
X77562000Y-18359000D03*
X77962000Y-18359000D03*
X78362000Y-18359000D03*
D26*
X79057000Y-19054000D03*
X79057000Y-19454000D03*
X79057000Y-19854000D03*
X79057000Y-20254000D03*
X79057000Y-20654000D03*
X79057000Y-21054000D03*
X79057000Y-21454000D03*
X79057000Y-21854000D03*
D27*
X78362000Y-22549000D03*
X77962000Y-22549000D03*
X77562000Y-22549000D03*
X77162000Y-22549000D03*
X76762000Y-22549000D03*
X76362000Y-22549000D03*
X75962000Y-22549000D03*
X75562000Y-22549000D03*
D28*
X76962000Y-20454000D03*
D29*
X76962000Y-20454000D03*
X76962000Y-21254000D03*
X77762000Y-20454000D03*
X76962000Y-19654000D03*
X76162000Y-20454000D03*
G04 #@! TD*
D24*
G04 #@! TO.C,D1203*
X170000000Y-123520000D03*
X170000000Y-125120000D03*
G04 #@! TD*
D23*
G04 #@! TO.C,D1010*
X191077000Y-6300000D03*
X191077000Y-7700000D03*
X194177000Y-6300000D03*
X194177000Y-7700000D03*
G04 #@! TD*
G04 #@! TO.C,D1016*
X173950000Y-14300000D03*
X173950000Y-15700000D03*
X177050000Y-14300000D03*
X177050000Y-15700000D03*
G04 #@! TD*
G04 #@! TO.C,D1017*
X138950000Y-14300000D03*
X138950000Y-15700000D03*
X142050000Y-14300000D03*
X142050000Y-15700000D03*
G04 #@! TD*
G04 #@! TO.C,D1014*
X174077000Y-6300000D03*
X174077000Y-7700000D03*
X177177000Y-6300000D03*
X177177000Y-7700000D03*
G04 #@! TD*
D25*
G04 #@! TO.C,D1304*
X94000000Y-125120000D03*
X94000000Y-123520000D03*
G04 #@! TD*
D23*
G04 #@! TO.C,D1002*
X224950000Y-6300000D03*
X224950000Y-7700000D03*
X228050000Y-6300000D03*
X228050000Y-7700000D03*
G04 #@! TD*
D13*
G04 #@! TO.C,J1101*
X143111000Y-108570000D03*
X143111000Y-106030000D03*
X140571000Y-108570000D03*
X140571000Y-106030000D03*
X138031000Y-108570000D03*
X138031000Y-106030000D03*
G04 #@! TD*
M02*
